<svg id="Layer_1" data-name="Layer 1" xmlns="http://www.w3.org/2000/svg" viewBox="0 0 400 400"><defs><style>.cls-1{fill:#f79500;}.cls-2{fill:#310000;}.cls-3{font-size:60px;fill:#fff;font-family:MyriadPro-Regular, Myriad Pro;}</style></defs><rect class="cls-1" width="400" height="400" rx="38.41"/><rect class="cls-2" x="25" y="22.88" width="350" height="350" rx="38.41"/><path class="cls-1" d="M71.51,276.82,139,69.9h43.12l67.2,206.92H210.39L179,166.78q-5-16.51-9.52-33.88t-9.24-34.16h-1.12q-4.2,17.08-9,34.3t-9.52,33.74L109,276.82Zm39.76-56V192H209v28.84Z"/><path class="cls-1" d="M290.74,94.26q-10.08,0-16-5.74T268.9,73.26q0-9.24,5.88-15t16-5.74q9.52,0,15.68,5.74t6.16,15q0,9.52-6.16,15.26T290.74,94.26ZM272.26,276.82V121.42h36.68v155.4Z"/><text class="cls-3" transform="translate(310.88 335.9)">V</text></svg>