<svg id="Layer_1" data-name="Layer 1" xmlns="http://www.w3.org/2000/svg" viewBox="0 0 400 400"><defs><style>.cls-1{fill:#2ca6db;}.cls-2{fill:#2cbff2;}.cls-3{opacity:0.79;}.cls-4{fill:#f6f6f6;}</style></defs><rect class="cls-1" width="400" height="400" rx="38.41"/><rect class="cls-2" x="25" y="25" width="350" height="350" rx="38.41"/><g class="cls-3"><path d="M100.22,234.33a62.18,62.18,0,0,1-31.39-7.93,57,57,0,0,1-22.07-23q-8.16-15-8.16-36,0-21.37,9-36.33a61.26,61.26,0,0,1,23.57-22.87,65.14,65.14,0,0,1,31.61-7.94,51.09,51.09,0,0,1,21.16,4.14A61.71,61.71,0,0,1,140,114.77l-14.48,19.31a42.76,42.76,0,0,0-10.12-6.66,26.24,26.24,0,0,0-11-2.3,32.25,32.25,0,0,0-18,5.17A33.94,33.94,0,0,0,74,145q-4.36,9.56-4.36,22.42A52.87,52.87,0,0,0,74,189.61a34.75,34.75,0,0,0,12,14.71,29.9,29.9,0,0,0,17.24,5.18,33.39,33.39,0,0,0,14.26-3.11,55.61,55.61,0,0,0,12.19-7.7l12.18,20a61.47,61.47,0,0,1-19.89,11.73A64,64,0,0,1,100.22,234.33Z"/><path d="M202.76,234.33a70.56,70.56,0,0,1-26-5.06,81,81,0,0,1-22.31-12.87l13.8-19.32a85.79,85.79,0,0,0,17,10.58,42.94,42.94,0,0,0,18.17,3.91q10.35,0,15.4-4.37a14,14,0,0,0,5.06-11,11.36,11.36,0,0,0-4-8.85A39.47,39.47,0,0,0,209.54,181q-6.33-2.76-13-5.29a121.61,121.61,0,0,1-16.32-7.82,42.66,42.66,0,0,1-13.34-11.72q-5.29-7.12-5.29-17.71a35.18,35.18,0,0,1,5.63-19.66,38.11,38.11,0,0,1,16.1-13.56q10.46-5,24.72-5a60.31,60.31,0,0,1,24,4.6,76.36,76.36,0,0,1,18.28,10.81l-13.79,18.39A77.22,77.22,0,0,0,223,126.15a34.37,34.37,0,0,0-14.25-3.1q-9.66,0-14.26,4a12.74,12.74,0,0,0-4.6,10,10.64,10.64,0,0,0,3.57,8.28A31.81,31.81,0,0,0,203,151c4,1.61,8.28,3.26,12.87,5s8.82,3.52,13.11,5.51a54.63,54.63,0,0,1,11.73,7.36,32.34,32.34,0,0,1,8.39,10.58q3.1,6.21,3.1,15.17a37.44,37.44,0,0,1-5.63,20.12q-5.64,9.09-16.67,14.37T202.76,234.33Z"/><path d="M314.73,234.33a70.56,70.56,0,0,1-26-5.06,80.84,80.84,0,0,1-22.3-12.87l13.79-19.32a85.56,85.56,0,0,0,17,10.58,42.86,42.86,0,0,0,18.16,3.91q10.35,0,15.41-4.37a14,14,0,0,0,5.05-11,11.36,11.36,0,0,0-4-8.85A39.14,39.14,0,0,0,321.51,181q-6.33-2.76-13-5.29a121.61,121.61,0,0,1-16.32-7.82,42.77,42.77,0,0,1-13.34-11.72q-5.3-7.12-5.29-17.71a35.11,35.11,0,0,1,5.64-19.66,38.08,38.08,0,0,1,16.09-13.56q10.47-5,24.72-5a60.27,60.27,0,0,1,24,4.6,76.16,76.16,0,0,1,18.28,10.81l-13.79,18.39A77.22,77.22,0,0,0,335,126.15a34.33,34.33,0,0,0-14.25-3.1q-9.66,0-14.26,4a12.74,12.74,0,0,0-4.6,10,10.64,10.64,0,0,0,3.57,8.28A31.81,31.81,0,0,0,315,151q6,2.42,12.88,5,6.66,2.52,13.1,5.51a54.63,54.63,0,0,1,11.73,7.36,32.34,32.34,0,0,1,8.39,10.58q3.1,6.21,3.1,15.17a37.44,37.44,0,0,1-5.63,20.12q-5.64,9.09-16.67,14.37T314.73,234.33Z"/></g><path class="cls-4" d="M261,365.44l23.6-99.2h10.6l-23.5,99.2Z"/><path class="cls-4" d="M315,306.94l-6.9-5,6.7-11.61-12.1-5.59,2.6-8.1,13.1,2.9,1.4-13.5h8.6l1.3,13.5,13.1-2.9,2.6,8.1-12.3,5.59,6.9,11.61-6.8,5-9.1-10.2Z"/></svg>