<svg id="Layer_1" data-name="Layer 1" xmlns="http://www.w3.org/2000/svg" viewBox="0 0 400 400"><defs><style>.cls-1{fill:#ea7f28;}.cls-2{fill:#ff8f3b;}.cls-3{opacity:0.79;}.cls-4{fill:#f6f6f6;}</style></defs><rect class="cls-1" width="400" height="400" rx="38.41"/><rect class="cls-2" x="25" y="25" width="350" height="350" rx="38.41"/><g class="cls-3"><path d="M38.17,244.13V154.2H57.9v34.86H89.74V154.2h19.6v89.93H89.74V206.25H57.9v37.88Z"/><path d="M148.44,244.13V170.66H123.63V154.2H193.1v16.46H168.29v73.47Z"/><path d="M207.5,244.13V154.2h21.55l14.77,40.55c.88,2.66,1.77,5.41,2.66,8.23s1.73,5.65,2.54,8.47h.6q1.33-4.23,2.61-8.47c.84-2.82,1.71-5.57,2.6-8.23l14.28-40.55h21.67v89.93h-18V210q0-4.35.49-9.74t1.09-10.83c.4-3.64.76-6.9,1.09-9.81h-.61l-7.38,21.3-13,35.35H243.33l-13-35.35-7.26-21.3h-.49c.41,2.91.79,6.17,1.15,9.81s.69,7.24,1,10.83.43,6.84.43,9.74v34.13Z"/><path d="M312.2,244.13V154.2h19.73v73.35h35.83v16.58Z"/></g><path class="cls-4" d="M245.85,340.41l-52.2-20.11V309l52.2-20.09V302.3l-20.3,6.7-15.5,5.5v.41l15.5,5.39,20.3,6.7Z"/><path class="cls-4" d="M268.75,353.91a9.17,9.17,0,0,1-7-3,10.43,10.43,0,0,1-2.8-7.41,10,10,0,0,1,2.8-7.29,9.3,9.3,0,0,1,7-2.91,9.41,9.41,0,0,1,7.15,2.91,10.18,10.18,0,0,1,2.75,7.29,10.57,10.57,0,0,1-2.75,7.41A9.27,9.27,0,0,1,268.75,353.91Zm-5.2-27.5L261.15,291l-.5-14.9H277l-.5,14.9-2.3,35.41Z"/><path class="cls-4" d="M293,329.5V318h27.9v11.5Z"/><path class="cls-4" d="M330.65,329.5V318h27.9v11.5Z"/></svg>