<svg id="Layer_1" data-name="Layer 1" xmlns="http://www.w3.org/2000/svg" viewBox="0 0 400 400"><defs><style>.cls-1{fill:#efd81d;}.cls-2{fill:#ffe771;}.cls-3{opacity:0.5;}.cls-4{fill:#438a55;}</style></defs><rect class="cls-1" width="400" height="400" rx="38.41"/><rect class="cls-2" x="25" y="22.88" width="350" height="350" rx="38.41"/><path d="M115.13,278.21q-19.5,0-33-8t-22.5-23.5l23-17q5.49,10.5,12.75,15.12a28.66,28.66,0,0,0,15.75,4.63q13.25,0,19.75-8t6.5-27.5V90h33V216.71a80,80,0,0,1-5.75,30.87,49.24,49.24,0,0,1-18,22.25Q134.38,278.2,115.13,278.21Z"/><path d="M270.37,278.21a95.09,95.09,0,0,1-66.5-27l19-22.75a82.15,82.15,0,0,0,22.63,15.25,60.74,60.74,0,0,0,25.37,5.75q15.75,0,23.88-6.5a20.76,20.76,0,0,0,8.12-17q0-7.76-3.75-12.5A31.26,31.26,0,0,0,289,205.33q-6.37-3.37-14.63-6.87l-25.25-10.75a87.56,87.56,0,0,1-17.62-10,51.28,51.28,0,0,1-14.25-15.88q-5.62-9.62-5.63-22.87a46.43,46.43,0,0,1,8-26.75,55.47,55.47,0,0,1,22.13-18.63q14.12-6.87,32.12-6.87A80.38,80.38,0,0,1,305.12,93a76.61,76.61,0,0,1,25.75,17.25l-17,21a74.41,74.41,0,0,0-18.37-11.75,52.92,52.92,0,0,0-21.63-4.25q-13,0-20.75,5.75a18.56,18.56,0,0,0-7.75,15.75,17.66,17.66,0,0,0,4.13,12,32.14,32.14,0,0,0,10.75,7.87q6.62,3.13,14.37,6.38l24.75,10.25a79.81,79.81,0,0,1,19.38,11.12,47.64,47.64,0,0,1,13.12,16q4.75,9.38,4.75,22.88a50.58,50.58,0,0,1-7.87,27.5q-7.87,12.5-22.75,20T270.37,278.21Z"/><g class="cls-3"><path class="cls-4" d="M281.91,366.74l18.88-79.36h8.48l-18.8,79.36Z"/><path class="cls-4" d="M312.79,366.74l18.88-79.36h8.48l-18.8,79.36Z"/></g></svg>