<svg id="Layer_1" data-name="Layer 1" xmlns="http://www.w3.org/2000/svg" viewBox="0 0 400 400"><defs><style>.cls-1{fill:#2fa3f7;}.cls-2{fill:#001d34;}.cls-3{font-size:60px;fill:#fff;font-family:MyriadPro-Regular, Myriad Pro;}</style></defs><rect class="cls-1" width="400" height="400" rx="38.41"/><rect class="cls-2" x="25" y="22.88" width="350" height="350" rx="38.41"/><path class="cls-1" d="M66,253.53V46.61h65.24q23.24,0,41.16,6t28.42,20q10.5,14,10.5,37.8,0,23-10.36,37.94a60.82,60.82,0,0,1-28.28,22.12q-17.92,7.14-40.32,7.14H103v75.88Zm37-105.28h26.6q23,0,34.16-9.38t11.2-28.42q0-19-11.76-26.6t-35-7.56H103Z"/><path class="cls-1" d="M290.58,257.45a86,86,0,0,1-31.64-6.16,98.29,98.29,0,0,1-27.16-15.68l16.8-23.52A103.77,103.77,0,0,0,269.3,225a52.23,52.23,0,0,0,22.12,4.76q12.6,0,18.76-5.32A17,17,0,0,0,316.34,211a13.86,13.86,0,0,0-4.9-10.78,47.77,47.77,0,0,0-12.6-7.7q-7.71-3.36-15.82-6.44a147.25,147.25,0,0,1-19.88-9.52,52,52,0,0,1-16.24-14.28q-6.45-8.67-6.44-21.56a42.74,42.74,0,0,1,6.86-23.94q6.85-10.5,19.6-16.52t30.1-6a73.44,73.44,0,0,1,29.26,5.6A93.09,93.09,0,0,1,348.54,113l-16.8,22.4a94.15,94.15,0,0,0-16.52-9.66,41.88,41.88,0,0,0-17.36-3.78q-11.76,0-17.36,4.9A15.52,15.52,0,0,0,274.9,139a12.94,12.94,0,0,0,4.34,10.08A38.74,38.74,0,0,0,290.86,156q7.27,2.94,15.68,6,8.11,3.09,16,6.72a66.55,66.55,0,0,1,14.28,9A39.4,39.4,0,0,1,347,190.53q3.78,7.56,3.78,18.48a45.58,45.58,0,0,1-6.86,24.5Q337,244.58,323.62,251T290.58,257.45Z"/><text class="cls-3" transform="translate(288.61 341.52)">Px</text></svg>