<?xml version="1.0" encoding="utf-8"?>
<!-- Generator: Adobe Illustrator 24.3.0, SVG Export Plug-In . SVG Version: 6.00 Build 0)  -->
<svg version="1.1" id="Layer_1" xmlns="http://www.w3.org/2000/svg" xmlns:xlink="http://www.w3.org/1999/xlink" x="0px" y="0px"
	 viewBox="0 0 99 99" style="enable-background:new 0 0 99 99;" xml:space="preserve">
<style type="text/css">
	.st0{fill:#2A4B9A;}
	.st1{fill:#556FAE;}
	.st2{fill:#AAB7D7;}
	.st3{fill:#FFFFFF;}
	.st4{font-family:'Helvetica';}
	.st5{font-size:73.5285px;}
</style>
<g>
	<path class="st0" d="M77.3,87.4c1.7-0.6,2.2-0.8,2.4-1c0.2-0.2,0-0.2,0.2-0.3c-2.9,0.9-3.5,1.4-3.4,1.5
		C76.6,87.6,77.3,87.4,77.3,87.4z"/>
	<path class="st0" d="M58,90.3c-0.4,0.2-0.7,0.4-1.1,0.5c3.6-1.3,6.8-2.6,9.5-3.8C63.9,88.1,61.1,89.2,58,90.3z"/>
	<path class="st0" d="M64.6,78.7c0.5,0,1.1-0.1,1.9-0.3c0.8-0.1,1.6-0.3,2.5-0.4c1.8-0.3,3.6-0.6,5.4-0.8c1.7-0.3,3.6-0.6,5.5-0.9
		c1.8-0.3,3.7-0.5,6-0.1c0,0.1,0.1,0.1,0.1,0.2l-0.3,0.3c-0.2,0.2-0.4,0.4-0.6,0.6c-0.4,0.4-0.8,0.7-1.2,1c-0.8,0.6-1.5,1.1-2.2,1.6
		c-0.5,0.3-1,0.5-1.5,0.8c-0.6,0.5-1.2,1-1.6,1.4c1.3-0.7,2.4-1.4,3.8-2.3c0.7-0.5,1.3-1,2.1-1.6c0.4-0.3,0.7-0.7,1.1-1l0.6-0.6
		l0.3-0.3c0-0.1-0.1-0.1-0.1-0.2c-2.3-0.4-4-0.2-5.7,0s-3.3,0.5-4.9,0.7s-3.3,0.4-5.2,0.8c-1,0.2-2,0.4-3,0.6
		C66.5,78.3,65.5,78.5,64.6,78.7z"/>
	<path class="st0" d="M49.4,87.4c-1.7-0.1,6-0.9-6.5,0.7c0.6,0,0.8,0,1.2-0.1C45.3,87.9,46.8,87.7,49.4,87.4z"/>
	<path class="st0" d="M44.1,88C38.7,88.6,47.7,87.8,44.1,88L44.1,88z"/>
	<path class="st0" d="M69.5,83.7c-2.4,0.7-4.8,1.3-7.2,1.9c1.5-0.1,8-1.6,5.6-0.9c1.9-0.5,3.1-0.9,4-1.2c0.8-0.3,1.2-0.4,1.2-0.5
		S71.6,83.3,69.5,83.7z"/>
	<path class="st0" d="M76.2,81.1c-1.2,0.4-2.4,0.9-3.7,1.3C73.2,82.3,74.2,82,76.2,81.1z"/>
	<path class="st0" d="M64.6,84.6c2.6-0.6,5.3-1.3,7.9-2.2c-1.1,0.2-1.2,0-3.6,1.1C69.5,83.1,68,83.7,64.6,84.6z"/>
	<path class="st0" d="M60.1,85.4c-2,0.3-4.4,0.6-5.3,0.6c-0.9,0-0.4-0.1,3.2-0.8c-6.9,1.1-9.8,1.5-9.3,1.6
		C49.2,86.9,53.2,86.6,60.1,85.4z"/>
	<path class="st0" d="M59.7,80.5l5.7-1.1c2-0.5,3.9-1,5.7-1.4c-0.7,0.1-1.6,0.3-2.7,0.5s-2.5,0.5-3.8,0.8c-1.3,0.3-2.6,0.5-3.4,0.7
		C60.3,80.3,59.7,80.4,59.7,80.5z"/>
	<path class="st0" d="M61.1,73.5c-0.4,0.2,2.5-0.1,3.1-0.1c1.8-0.4,3.6-0.8,5.3-1.1c-1.4,0.2-3.4,0.5-5.1,0.7
		C62.7,73.3,61.3,73.6,61.1,73.5z"/>
	<path class="st0" d="M64.2,73.4c-2.7,0.6-5.3,1.3-7.9,2.1c3.5-0.9,5.6-1.4,6.8-1.7C64.2,73.6,64.4,73.5,64.2,73.4z"/>
	<path class="st0" d="M77.2,79.9C73,81.6,68.7,83,64.4,84c5.2-1.3,10.3-2.9,15.3-5.1L77.2,79.9z"/>
	<path class="st0" d="M62.2,81.2c-1.5,0.5-3,0.9-4.4,1.4c2.7-0.8,5.3-1.6,7.9-2.4L62.2,81.2z"/>
	<path class="st0" d="M82,75.7c-3.2,1.3,4.6-0.9,1.2,0.3c3.9-1.2,7.3-2.4,10.4-3.6l-1.2-6.7c-1.2,0.3-2.4,0.6-3.6,0.9
		c1.2-0.3,2.4-0.5,3.6-0.8l1.2,6.5C90.2,73.4,86.5,74.5,82,75.7z"/>
	<path class="st0" d="M81.8,68.4c2.2-0.6,4.5-1.1,7-1.8C86.4,67.1,84.1,67.7,81.8,68.4z"/>
	<path class="st0" d="M50.2,82.9c0.6,0,1.9,0,6.3-0.8l-3.2,0.2C52.4,82.5,51.3,82.7,50.2,82.9z"/>
	<path class="st0" d="M53.3,82.3L53.3,82.3c3.5-0.7,5.8-1.2,6.8-1.4C59.3,81.1,57.2,81.6,53.3,82.3z"/>
	<path class="st0" d="M49.4,83c0.3,0,0.5-0.1,0.8-0.1C49.9,82.9,49.7,82.9,49.4,83z"/>
	<path class="st0" d="M77.3,72.2c-4.7,0.6-14.5,2.5-5,1.4c1.7-0.4,1.1-0.4,1.1-0.5S73.8,72.7,77.3,72.2z"/>
	<path class="st0" d="M47.7,78.8c2.7-1,5.5-1.8,8.3-2.6c-0.2-0.1-1.7,0.2,0.5-0.5C53.5,76.6,50.6,77.6,47.7,78.8z"/>
	<polygon class="st0" points="49.6,82.3 46.9,82.9 46.3,79.3 47.7,78.8 46.3,79.3 46.9,82.9 48.6,82.7 	"/>
	<path class="st0" d="M89.7,72.7c1.2-0.4,2.4-0.8,3.6-1.3l-0.8-4.7c-2.6,0.5-5.3,1.1-8.3,1.8c2.8-0.5,5.6-1.1,8.3-1.6l0.8,4.3
		c-2,0.6-4.1,1.3-6,1.9C86.6,73.4,84.6,74.3,89.7,72.7z"/>
	<path class="st0" d="M72.1,77.8c0.2-0.1,0.6-0.2,0.8-0.2C72.4,77.7,72,77.8,72.1,77.8z"/>
	<path class="st0" d="M40.4,79.4c0.2,0,0.5-0.1,0.7-0.1c0.1,0,0.1-0.1,0.1-0.1L40.4,79.4z"/>
	<path class="st0" d="M86.4,73.3c-3.6,1-5.7,1.8-7.6,2.5c2.6-0.8,5.4-1.7,8.5-2.6C87.5,72.9,87.6,72.9,86.4,73.3z"/>
	<path class="st0" d="M69.5,71.3c1.9-0.4,4-0.8,6.3-1.2C74,70.4,70.2,71,69.5,71.3z"/>
	<path class="st0" d="M74.1,77.4c-0.2,0.1-0.3,0.1-0.5,0.2C74.8,77.3,74.6,77.3,74.1,77.4z"/>
	<path class="st0" d="M74.1,77.4c1.8-0.6,3.2-1.1,4.7-1.6c-2.2,0.7-4.2,1.3-5.9,1.8C73.3,77.5,73.8,77.4,74.1,77.4z"/>
	<path class="st0" d="M37.4,82.9c-0.3,0.2-2.1,0.7-4.8,1.3v-0.1c3.5-1.2,8.5-2.7,13.2-3.7c7.9-2.5,2.5-2.3-4.6-1
		c-0.2,0.2-0.2,0.4-8.3,3c1.4-0.4,6-1.5,9.3-2.4c3.3-0.8,5.5-1.2,2.1-0.1c-8.8,2.7-9.1,2.6-11.9,3.2l0.3,2.1
		c0.6-0.1,1.3-0.1,2.3-0.3c-2.3,0.1,1.2-0.6,4.9-1.5s7.7-1.9,6.5-2c-3.2,0.7-6.4,1.4-9.6,2.1C36.7,83.3,40.1,82.5,37.4,82.9z"/>
	<path class="st0" d="M56.8,75l3.4-0.9c-3.9,0.9-6.7,1.5-11.8,2.6c-5.6,1.7-6.7,2.2-7.1,2.5c5.5-1.6,11.1-3,16.6-4.5L56.8,75z"/>
	<path class="st0" d="M75.4,70.5c-2.6,1-10.7,3.1-5.6,2.4c9.9-2.3,6.9-1.9,12.9-3.4c-16.1,3.6,4.6-1.3-7.1,1.1c3.2-0.8,6-1.4,8.7-2
		c-2.9,0.6-5.7,1.1-8.4,1.6c0.1,0,0.3,0,0.4-0.1h0.1l0,0c0.7-0.1,0.9-0.1,0.1,0c-0.1,0-0.2,0.1-0.3,0.1C76,70.2,75.7,70.3,75.4,70.5
		c-4.7,1-0.8,0.1,0.7-0.3c0.1,0,0.2-0.1,0.2-0.1s0,0-0.1,0c-5.4,1.3-10.7,2.6-16.1,4.1C63.5,73.3,67.8,72.3,75.4,70.5z"/>
	<path class="st0" d="M63.8,76c-0.5,0.1-0.5,0-0.5,0C62.2,76.3,61.8,76.4,63.8,76z"/>
	<path class="st0" d="M57.1,77.3c1.2-0.4,2.1-0.8,5.9-1.6c3.3-0.6,0,0.2,0.2,0.3c2.3-0.6,8-1.8,0.8-0.7l-1.1,0.3
		c-3.3,0.6-7,1.4-9.7,2.1c-2.8,0.7-4.6,1.2-4,1C51.1,78.5,52.8,78.1,57.1,77.3z"/>
	<path class="st0" d="M73.8,76.1c4.4-1.3,8.8-2.7,13.2-4.2l-6.8,1.7l0.4,0.1C73,75.9,74.7,75.7,73.8,76.1z"/>
	<polygon class="st0" points="38.9,79.6 40.5,78.6 33,81.5 	"/>
	<polygon class="st0" points="43.5,84.6 42.9,85.1 47.5,84 	"/>
	<path class="st0" d="M76,55l3.8-1.5C78,54.2,76.8,54.6,76,55z"/>
	<path class="st0" d="M48,62.4l-0.7,0.3C48.6,62.4,49.1,62.2,48,62.4z"/>
	<path class="st0" d="M74.8,62.2c-5.8,1.2-12.2,2.4-11.4,2.6l1.8-0.1C69.1,63.6,72.2,62.8,74.8,62.2z"/>
	<path class="st0" d="M37.2,69.6c-0.6,0.1-1.1,0.1-1.7,0.2c-1.4,0.4-2.7,0.8-3.8,1.1C33.3,70.6,35.2,70.1,37.2,69.6z"/>
	<path class="st0" d="M41,67.1c2.5-0.4,5-0.9,7.6-1.4C46.8,66,44.4,66.4,41,67.1z"/>
	<path class="st0" d="M55.5,59.9L51,61.1C58.1,59.8,55,60.2,55.5,59.9z"/>
	<path class="st0" d="M82.2,58.1c-5,0.8-9,1.6-12.5,2.4C75.7,59.3,80.7,58.8,82.2,58.1z"/>
	<path class="st0" d="M65.9,62.8c2.4-0.8,3.4-1.2,3.3-1.2C66.8,62.3,65.4,62.8,65.9,62.8z"/>
	<path class="st0" d="M55.4,64.5c0.9-0.2,1.7-0.5,2.6-0.7c3.6-1.1,7.2-2.2,11.7-3.2C65.3,61.4,60.2,62.7,55.4,64.5z"/>
	<path class="st0" d="M48.8,43.1c-0.4,0-0.9,0.1-1.3,0.1C47.4,43.3,48,43.2,48.8,43.1z"/>
	<path class="st0" d="M24.6,38.6c1.6-0.4,4.3-0.9,6.8-1.4C30.2,37.5,28.1,37.9,24.6,38.6z"/>
	<path class="st0" d="M67.6,64.5C71.3,63.8,68.2,64.3,67.6,64.5L67.6,64.5z"/>
	<path class="st0" d="M87.3,63.8c-0.8-0.1-1.5-0.1-1.7,0C86,63.7,86.6,63.7,87.3,63.8z"/>
	<path class="st0" d="M43.7,77.5c0.1,0,0.2,0,0.3,0C42.9,77.5,43.1,77.5,43.7,77.5z"/>
	<path class="st0" d="M73.2,63.7c-1.4,0.2-3,0.4-4.8,0.7C69.2,64.3,70.7,64.1,73.2,63.7z"/>
	<path class="st0" d="M72.4,63.6c1.6-0.2,2.8-0.4,4-0.6c0.4-0.1,0.4-0.1-0.3,0c-0.4,0.1-0.9,0.1-1.7,0.3
		C73.9,63.3,73.3,63.4,72.4,63.6z"/>
	<path class="st0" d="M62.4,65.5c2.1-0.4,4.1-0.8,6-1.1c-0.7,0.1-1,0.1-0.9,0.1C66.5,64.7,64.9,65,62.4,65.5z"/>
	<path class="st0" d="M45.5,56.2c-0.3,0.1-0.7,0.2-1.1,0.3c-1.9,0.7-2.4,0.9-2,0.8C42.7,57.2,43.9,56.7,45.5,56.2z"/>
	<path class="st0" d="M63.1,67.4c-0.2,0.1-0.3,0.1-0.4,0.1C62.9,67.5,63.1,67.4,63.1,67.4L63.1,67.4z"/>
	<path class="st0" d="M76,62.8c-5.4,2.4-8.5,3.4-12.7,4.6l4.6-0.2C70.5,65.8,73.3,64.3,76,62.8z"/>
	<path class="st0" d="M25.1,67.2c3.1-0.6,6.2-1.1,9.3-1.7c-11.1,3-19.2,4.8-10.4,3.3c0.5-0.8,9.5-2.9,18.6-4.8
		c9-1.8,18.1-3.4,18.7-4.2l6.2-0.7c-1.8,0.3-2,0.4-3.8,0.7c5.6-0.6,7.9-1.1,10.3-1.7c2.4-0.6,4.9-1.3,11-2.1l-0.7-3.6
		c-0.9,0.3-1.9,0.7-2.9,1.1c-5.2,1.8-8.9,2.8-5.4,1.5c-3.8,1.4-7.7,2.7-11.6,4c-3.4,0.9-2.6,0.5,0.8-0.5c-6,1.7-12,3.2-18,4.3
		l0.1-0.1c-2.6,0.7-8.4,1.9-11.3,2.4c-4.7,0.3,2.3-0.4,1.1-0.5c-3.4,0.5-6.7,1-10.1,1.4c-4.2-0.1,4.3-0.9,11.2-1.8
		c-3.7,0-5.8,0.1-8.2,0.4c-1.2,0.2-2.5,0.3-4.1,0.5s-3.5,0.3-6,0.5l0.7,4.6c2.6-1,5.9-2.2,10.3-3.5c-3.1,1.1-6.1,2.3-9.2,3.5
		c6.1-1.5,13.2-4.4,23.9-7.1c-1.3,0.2-6.6,1.5-10.3,2.5c-3.7,0.9-5.7,1.3-0.4-0.7c3-0.9,7-2.1,12.8-4.1c0.1,0.4,5.8-1.3,12.9-3
		l-0.4,0.7c3.8-1,5.6-1.5,7-1.9c0.7-0.2,1.3-0.4,2-0.6c0.3-0.1,0.7-0.2,1.1-0.3s0.8-0.2,1.3-0.3c0.6,0,1.1,0,1.5,0.2
		c0.3,0.1,0.4,0.3,0.5,0.4l0.8-3.4c-5.1,2.5-6.6,2.8-8.3,3.3c-13.1,6,9.3-3.5-6.2,3.8c-11,4.6-18.8,7.8-32.2,13.1
		c-0.8,0.3-1.4,0.5-1.8,0.6l1,3.7c2.6-0.9,1.2-0.2,0.1,0.3L25.7,73c0.8-0.4,1.4-0.6,0.3-0.3l-0.3,0.2l1.2,4.6l6.5-3
		c1.7-0.6,1.2-0.3,0.9-0.1c5.8-2.4,0.3-0.8,9.5-4.5c2.3-1.6,19.2-6.3,30.4-11.4c2.8-0.9-1.3,0.9-0.3,0.8c1.8-0.8,3.2-1.3,4-1.4
		c0.8-0.1,1.1,0.2,1.2,0.1l0.1-3.6c-4.3,2.3-6.7,3.4-9.2,4.5s-5.2,2.3-10.2,4.1c-3.7,1-7.5,1.9-11.2,2.6c8.3-1.6-2.1,1.7-11.4,4
		c3-0.4,5.5-0.7,7.2-1c-4.9,1.2-9.9,2.3-14.9,3.3c-1.8,0.2-0.3-0.3,2.1-1c-1,0.2-2,0.5-2.7,0.7c-5.4,0.8-2.6-0.1,1.1-1.2
		c1.8-0.2,3.7-0.4,5.4-0.6c3.6-1.1,7-2.2,6.2-2.4c-1,0.3-2.8,0.7-4.8,1.2c0.9-0.3,1.5-0.5,1.1-0.5c-0.5,0-2,0.5-4.5,1.1L30,69.1
		l-0.8,0.4L25,70.2l0.5,3.5c5.1-0.9,10.2-1.9,15.3-2.7c6.5-1.6,12.7-3.1,19.7-4.7c3.5-0.8,7.2-1.6,11.3-2.4c2.1-0.4,4.2-0.8,6.5-1.1
		s4.7-0.4,7.2,0.1l-0.1-0.2c-0.4,1.1-1.3,2.1-2.4,2.8c1.2-0.9,1.6-1.7,1.7-2.1c0.1-0.4,0-0.4-0.1-0.4c-0.3,0.2-1.1,0.7-1.1,0.3
		c0.4-0.3,0.7-0.7,1-1.2l0.8,2c-1.5-0.4-3.2-0.5-5.2-0.4s-4.1,0.5-6.4,0.9c-4.6,0.8-9.7,1.8-14.9,2.7c6-1,4.7-0.4,3.2-0.1l10.2-2
		c3.4-0.6,6.8-1.3,10.1-1.3c-0.2,0.3,1,0.3,2.9,0.8L84,61.9c-0.2,0.5-0.7,1.1-1.5,1.7c-0.8,0.5-1.9,1-3.1,1.4c1-0.2,0.6,0.2-0.6,0.8
		c-1.3,0.6-3.4,1.6-6,2.5s-5.6,1.8-8.4,2.6c-2.9,0.8-5.6,1.5-7.6,2c-0.3-0.1,0.1-0.3,1.7-0.8c1.7-0.5,4.7-1.2,9.6-2.6
		c-5.5,1.2-9,2.3-12.6,3.4c-3.5,1-7.1,2-12.6,2.6c2.5-0.4,3.8-0.6,4.8-0.9c-5.7,1.3-20,3-16.7,2.3l2.5-0.3c-1.4,0.2-2.9,0.4-4.6,0.6
		l0.5,3.2c8.4-2.8,19.6-6.5,28.9-9.3c9.4-2.9,17-4.7,18-5.4c0.2,0.1-2,1.5-2.9,1.9c2-0.7,4.1-1.3,6.2-1.9l-0.5-2.6
		c-7.3,3.4-14.6,6.6-22.1,9.4c1.2-0.7-0.7-0.8-1.3-1.2c-0.6-0.4,0.3-1.1,6.9-3.4c-3.8,1.1-8.6,2.4-16.7,4.7c2.7-0.6,6.8-0.7,3.2,0.3
		c-5,0.9-6.8,1.2-8.8,1.5c-2,0.4-4.3,0.8-10.5,1.7c4-0.7-0.3,1.4-6.6,2.5c1-0.3-0.7-1,1.6-1.5l-3.4,0.8l0.5,3.3l12-4.2
		c-3.8,1.3-0.5,1.1,3,0.4c-1.7,0.2,13.5-3.7,17.6-4.9l-6.6,1.6c16.4-4.3,17.1-6,31.1-10l-0.1-0.4c-1,0.4-2.1,0.8-3.3,1.2
		c1-0.5,2.2-1.3,2.1-1.6c-0.1-0.2-0.5-0.2-1.4,0c-0.5,0.1-1.1,0.2-1.8,0.5c-0.8,0.2-1.7,0.4-2.8,0.8c-1.9,0.9-6.2,2.9-12.1,4.9
		c-5.8,2-13.2,4.1-21.1,5.4L35.4,75c-4,0.7-8,1.2-12.1,1.8c3.7-0.8,10.9-2.3,18.4-4.1c3.8-0.9,7.7-1.9,11.3-2.9s7-2,9.8-2.9
		c-3.3,0.7-3.8,0.7-4.7,0.8c-0.9,0.1-2.2,0.4-7.1,1.4c-1.8,0.2-0.4-0.2,1.7-0.7c2.1-0.5,5.1-1.2,6.5-1.5c-7.6,1.7-15.3,2.9-23.1,3.9
		c0.5,0.3-3.9,1-8.4,1.7s-9,1.3-8.5,1.5c8.5-1.1,16.9-2.3,25.3-3.9c0.5,0.2-3,1.3-8.9,2.5c-5.8,1.2-13.9,2.3-22.2,3.1
		c-4.2,0.2,3.1-1.5,2.7-1.7c-0.9,0.2-3.8,0.6-7,0.9l0.3,3.6c4.4-0.7,9.4-1.4,10.3-1.4l-7,1.3c9.2-1,15-2.9,26.1-3.8
		c0.5-0.1,1-0.1,1.6-0.2c0.3,0,0.6-0.1,0.9-0.1c0.1,0,0.3,0,0.4,0h0.2c0.6,0,1.1,0,1.5,0c0.8,0,1.2,0.1,1.8-0.2
		c-0.2-0.2-0.2-0.4-0.4-0.8c-0.1-0.3-0.2-0.7-0.2-1.1c0.1-0.4,0.3-0.8,1.1-1.2c0.7-0.4,1.9-0.8,3.5-1.2c0.8-0.1,6.7-0.7,13.1-1.4
		c0.7-0.1,1.4-0.1,2.1-0.2s1.1-0.1,1.6-0.1c0.9,0,1.8-0.1,2.7-0.1c1.6-0.1,3.1-0.2,3.8-0.2c0.5,0,0.7,0,0.6,0
		c-0.5,0.1-1.2,0.3-2.2,0.5c-1.2,0.2-3.8,0.8-6.6,1.4C62,70.2,60,70.6,58.5,71s-2.3,0.6-2.4,0.8c0.7-0.2,1.9-0.5,3.2-0.7
		s2.7-0.5,3.5-0.7c0.7,0-0.8,0.3-1.6,0.6c-0.8,0.2-1.2,0.3,1.6-0.1c0.9-0.2,1.8-0.4,2.6-0.4c0.4,0,0.8,0,1.1,0.1
		c0.3,0.1,0.6,0.3,0.7,0.6v0.1h-0.1L67,71.4l-0.3,0.1c-0.2,0.1-0.4,0.2-0.6,0.3c-0.5,0.2-1,0.4-1.4,0.6c-0.9,0.3-1.4,0.6-1,0.4
		c0.2-0.1,0.7-0.2,1.7-0.5c0.9-0.3,2.3-0.7,4.2-1.4c-1.8,1.2-3.9,1.8-6,2.5c-2.1,0.6-4.4,1.3-7.6,2.1c1.1-0.1,1.9-0.2,2.2,0
		c0.3,0.1,0,0.4-1,0.7c-0.5,0.2-1.1,0.3-1.9,0.5c-0.8,0.2-1.7,0.3-2.6,0.5c-0.9,0.2-2,0.3-3.1,0.5c-1.1,0.1-2.3,0.2-3.5,0.3
		c0.1-0.1-0.5-0.2-1.2-0.2c-0.7-0.1-1.5-0.1-2-0.1c-2.2,0-4.2,0-6.1-0.2c-1,0-1.9-0.2-2.8-0.2c-0.4-0.1-0.9,0-1.3-0.2
		c-0.4-0.1-0.9-0.3-1.1-0.8c0-0.1-0.1-0.2-0.1-0.4c0-0.1,0.2-0.1,0.3-0.2l0.6-0.3c0.4-0.2,0.8-0.3,1.2-0.5c0.8-0.3,1.6-0.6,2.4-0.9
		c1.5-0.6,3.1-1.2,4.6-1.7C47.8,70,54,67.9,62,65.7c1.5-0.3,9.3-2.1,6-1c2.3-0.7,4.4-1.5,9.3-2.5c4.9-0.7,2.1-0.1-1,0.6
		c-3.1,0.7-6.4,1.5-2.7,1C74,63.5,79,62.2,84.5,61l-0.4-1.9c-3,1.2-6.1,2.4-8.6,3.3c1.1-0.1,4.6-1.3,8.8-2.9l0.2,0.9
		c-4.9,0.9-10.7,2.4-14.5,3.5c-0.1-0.5,5.3-2.5,14.3-4.6l0.3,1.4c-3.8,1.6-8.8,3.6-14.2,5.5c-13.2,4.4-5.8,1.3-8.1,2.1
		c-11.7,3.5-17.1,5-21.7,6.5c-4.6,1.4-8.4,2.6-17,4.1l-0.5-3.4c1.1-0.2,2.2-0.5,3.4-0.8c8.4-1.5,0.6,0.9,2.4,0.9
		c-2.1,0.5-3.9,1-5.6,1.4l0.1,0.4C31,75.9,36,75.1,42,73.7c-3,0.7-6.1,1.3-9.1,1.9c3.5-0.9,10.7-2.8,14.7-3.7
		c-3.3,0.6-12.8,3.1-24.2,5.2v0.3c12.6-3.1,27.5-6.7,37.8-8.5c3.4-0.9,9.4-2.2,6.5-1.9l-6.2,1.3c-2.9,0.4,0-0.4,2.6-1
		c2.6-0.6,5-1.2,1.1-0.5c1.8-0.4,3.7-0.8,5.6-1.3c1-0.2,1.9-0.4,2.9-0.6l0.8-0.2c0.3-0.1,0.6-0.1,0.9-0.2c0.6-0.1,1.3-0.2,1.9-0.4
		c0.7-0.1,1.3-0.3,2-0.4c0.7-0.1,1.4-0.2,2-0.3c0.7-0.1,1.4-0.2,2.1-0.3s1.2-0.1,1.8,0c1.1,0,2.2,0.2,3.2,0.5
		c0.5,0.2,1.1,0.4,1.6,0.7c0.5,0.3,1.5,0.7,1.1,1.2c-1.2,1.4-2.3,2.5-3.6,3.5C87,69.6,86,70.1,85,70.4c0.2,0,1.1-0.5,2.2-1.3
		s2.5-1.9,3.7-3.4c0-0.2,0.1-0.3,0.1-0.5c-0.2-0.1-0.4-0.3-0.6-0.4c-0.4-0.2-0.8-0.4-1.1-0.6c-0.7-0.3-1.4-0.5-2-0.5
		c0.5,0.1,1.2,0.2,1.9,0.5c0.4,0.2,0.7,0.3,1.1,0.6c0.2,0.1,0.4,0.3,0.6,0.4c0.1,0,0,0.1,0,0.1v0.1l-0.1,0.3
		c-1.2,1.4-2.6,2.6-4.2,3.7c-1.6,1-3.5,1.9-5.5,2.7c-1,0.4-1.9,0.8-2.9,1.1c-0.8,0.3-1.7,0.6-2.4,0.9c-1.4,0.6-2.7,1.1-3.7,1.6
		c1.3-0.4,2.7-0.8,4-1.2l1-0.3l1.3-0.4l2.7-1c-0.7,0.3-1.3,0.6-2,0.9c-0.3,0.2-0.7,0.3-1,0.5c-0.3,0.1-0.7,0.3-1,0.4
		C76,75.1,75,75.5,73.8,76c-2.2,0.9-4.6,1.7-7,2.5c-4.8,1.6-10,3-15.1,4.1c2.4-0.2,3-0.4,3.9-0.6s2.2-0.5,5.9-1.1
		c-3.3,0.4,3.4-1.2,9.4-3.2c1.5-0.5,3-1,4.3-1.5s2.2-0.8,3.6-1.4c1.2-0.5,1.7-0.8,1.5-0.8s-1.1,0.4-3,0.9c1.8-0.5,3.5-1.2,5.2-1.8
		c0.9-0.3,1.7-0.7,2.4-1.1c0.7-0.4,1.4-0.8,2-1.1c1.2-0.8,2.2-1.6,3.1-2.5s1.8-1.9,2.9-3.2l-0.2-0.4c0-0.1-0.1-0.1-0.2-0.2l-0.3-0.2
		c-0.4-0.2-0.7-0.5-1-0.7c-0.7-0.4-1.3-0.7-1.8-1c-0.6-0.3-1.2-0.5-1.9-0.7c-0.7-0.2-1.5-0.4-2.9-0.3c0.1,0.1,1.3,0.1,0.9,0.2
		c-0.2,0-0.9,0.1-2.2,0.2c-0.7,0.1-1.6,0.1-2.7,0.2c-1.1,0.1-2.5,0.4-4.2,0.6c-0.6,0.2-2.2,0.5-2.6,0.6c-0.3,0-0.4,0.1-0.6,0.1
		c0.2,0,0.3,0,0.5-0.1c-0.4,0.1-0.4,0.1,0.2,0c1.4-0.2,2.7-0.3,3.8-0.5c1.1-0.1,1.9-0.2,2.4-0.2c-2.5,0.5-7.7,1.6-12.9,2.7
		c-4.6,1-9.2,2-11.5,2.6c-5.2,1,2.1-0.7-0.7-0.3l-7,2c-0.8-0.3-13.7,2.5-1.7-0.6l-10.9,2.5c-3.7,0.8-8.3,1.8-12.4,2.8l0.9,5.5
		c3.1-0.6,6-1.2,8.3-1.8c5.2-1,12.9-3.5,8.5-2.1c5.7-1.5,11.3-3.1,17-4.8l0.2,0.1c8.9-2.6,18-5.7,27.3-9.3l-0.8-4.2
		c-8.5,1.6-17.2,3.6-26.2,5.9c-2.8,0.9-5.6,1.8-8.9,3c-1.6,0.6-3.4,1.2-5.3,1.9c-1,0.4-2.1,0.8-3.2,1.2c-1.6,0.6-3.3,1.2-5,2
		L32.7,73c-0.3,0.2-0.7,0.3-1,0.5c-0.2,0.1-0.4,0.2-0.5,0.3c-0.1,0-0.1,0.1-0.1,0.1L31,74c-0.2,0.3-0.4,0.7-0.5,1
		c-0.1,0.2-0.2,0.4-0.3,0.5l-0.1,0.3c0,0.1-0.1,0.1-0.1,0.2s0,0.2,0,0.3c0.1,0.9,0.4,1.2,0.7,1.4c0.3,0.2,0.6,0.5,0.9,0.7l0.5,0.4
		c0.1,0.1,0.1,0.1,0.3,0.2l0.7,0.2c1,0.3,2,0.5,3,0.8l0.7,0.2c0.1,0,0.2,0.1,0.4,0.1h0.6c0.8,0,1.5,0,2.3,0.1c1.5,0,3.1,0.1,4.6,0.1
		c1.4-0.1,2.8-0.2,4.1-0.2c0.7,0,1.3-0.1,2-0.1c0.6,0,1.3-0.1,1.8-0.1c1-0.1,1.9-0.3,2.8-0.4c0.9-0.1,1.7-0.2,2.4-0.4
		c0.6-0.1,1.1-0.2,1.6-0.3c1-0.2,1.7-0.4,2.1-0.5c0.9-0.1,1.7-0.3,2.7-0.4c0.5-0.1,1-0.2,1.5-0.3c0.5-0.1,1-0.2,1.5-0.3
		c0.9-0.2,2-0.5,3-0.8s2-0.6,3.1-0.9c2-0.6,4.1-1.4,6.1-2.2c1-0.4,2-0.9,3-1.3c0.4-0.2,0.9-0.5,1.3-0.7l0.7-0.3l0.3-0.2
		c0.1-0.1,0-0.1,0.1-0.1c0.3-0.8,0.5-1.6,0.8-2.3l0.1-0.3l0.1-0.1v-0.1l0,0v-0.1c-0.1-0.8-0.4-1.4-0.6-1.6c-0.5-0.6-0.7-0.5-1-0.6
		s-0.6-0.2-0.8-0.2c-0.3-0.1-0.6-0.2-0.9-0.3c-0.6-0.2-1.2-0.4-1.8-0.6L77.8,65c-1.3-0.1-2.3-0.5-6.9,0.3c-3.8,0.5-7.7,1.1-11.7,1.7
		c-3.9,0.6-7.9,1.2-12.1,1.8c-2,0.3-4,0.6-6,0.9c-1.3,0.2-2.6,0.4-4,0.6l0.7,0.3c-7.2,1.3-17.4,2.3-28.5,3.7l0.3,4.1
		c3.6-0.3,7.3-0.6,11.1-1c-1,0.3-4.9,0.6-7.6,0.8c9.1-0.4,18.6-1.5,27.9-3.1s18.3-3.7,26.5-5.6c2-0.6,3.7-1.2,5.3-1.7
		c1.6-0.5,3-0.9,4.4-1.3c-0.4,0.1-0.7,0.3-1,0.4c0.4-0.1,1-0.4,1.6-0.6s1.1-0.3,1.8-0.5l-1-4.4c-1.2,0.3-2.5,0.6-3.8,0.9
		c1.4-0.3,2.7-0.6,3.8-0.8l1,4.3c-0.4,0.1-0.6,0.2-0.9,0.3c0.2-0.1,0.5-0.2,0.9-0.3l-1-4.3c-2.9,0.8-7.2,2-11.4,3.3l-2,0.1
		c-0.4,0.1-0.7,0.2-1.1,0.3c-4.5,1.1-3.6,1.2-1.1,0.9c-2.3,0.7-4.4,1.4-6,1.9c-3.8,0.3-12,3.5-17.1,4.1c-2,0.8-11.9,3.6-18.6,5.7
		l0.5,3.2c3.4-0.7,6-1.4,6.8-1.8c0.2,0.1,1.6-0.1-1,0.3c5.2-0.9,10.4-1.9,15-3.2l2.3,0.1c3.7-1.2,7.4-2.4,11-3.7
		c6.8-1.6,9.7-2.3,3.1,0.2c6.5-2.2,9.9-3.4,12.5-4.4c2.7-1,4.6-1.7,8.3-3.1l-0.5-2.6C78,63,76,63.5,73.4,64.2l0.6-0.5
		c-5,1.1-12.8,3.8-15.8,4.3c-5,1-16.2,4.5-29.5,8.9l0.5,3.2c8.6-1.2,18.2-2.4,27.6-4.4c4.7-1,9.3-2.1,13.8-3.4
		c2.2-0.7,4.4-1.4,6.5-2.1c1.1-0.4,2.1-0.8,3.1-1.2c1-0.4,2-0.8,3.1-1.3c-1.4,0.5-1.4,0.3-0.6-0.1c0.4-0.2,1.1-0.6,1.8-1.1
		c0.7-0.6,1.7-1.5,2.3-2.9l0.8-1.9l-1.9-0.5c-2.3-0.6-4.9-0.7-7-0.5s-3.7,0.5-4,0.7c-1.7,0-5.7,0.5-1.1-0.5
		c-14.7,2.6-22.1,3.3-32.2,5.9c-1.7,0.1,3.1-1,1.6-0.9c-1.2,0.3-4.6,1.1-6.2,1.3c-1.5,0.1,2.1-0.6,4.4-1.2
		C30,68.1,26.5,69.4,25,70.3l0.5,3.4c0.5-0.3,0.8-0.5,1-0.8c7.6-1,11.4-1.8,16.8-3.5c2.7-0.3,7.1-1-2.2,1.1
		c2.6-0.5,10.6-2.1,17.9-4.3c7.3-2.1,13.9-5,14-5.4c0.7-0.2,1.9-0.8,3.3-1.4c1.4-0.6,2.8-1.4,3.8-1.9l2.3-1.2L80.3,55
		c-0.7-0.4-1.2-0.5-1.5-0.5c-0.9-0.1-1.7,0-2.5,0.2c-0.7,0.2-1.3,0.4-1.9,0.6c-1.1,0.4-2.1,0.8-3.1,1.2c-1.9,0.7-3.4,1.3-4.9,1.9
		c-3,1.2-6.1,2.3-11.6,4.5l3.1-1.1c-4.2,2.4-9.2,3.7-18.1,7.2l0.2-0.2c-9.4,3.3-12,4.4-14,5.2l0.6,2.3c2.5-1,4-1.6,15.2-5.4h-1.2
		c0.8-0.8,5.3-2.4,11.1-4.5s12.7-4.9,18.4-7.9c-1.4,0.6-2.8,1.2-4.2,1.8c2.6-1.4,6.1-2.9,9.7-4.5l1.1-0.5L76,54
		c-0.5-1-1.4-1.6-2.3-1.9c-0.8-0.3-1.7-0.4-2.4-0.4c-1.6,0-2.9,0.3-4.2,0.4c-2.6,0.3-5.1,0.7-7,1.1c-1.5,0.3,2.3-0.7,4.3-1.2
		c-4.4,0.8-6.7,1.4-8,1.7c-1.2,0.3-1.4,0.5-1.3,0.6c0,0.3,0.6,0.4-5.8,2.2c-2.4,0.4,2.9-1.7-5.8,0.7c-1.5,0.4-5,1.5-9.3,3.1
		s-9.6,3.6-14.6,5.7L7,70.9l13-0.8c4.7-0.3,9.3-0.6,13.1-0.8c-2.7,0-5.4,0,0.8-0.8c4.7-0.6,11.1-1.2,17.3-2.4
		c6.2-1.1,12.3-2.6,16.3-4.2c1.2-0.3,1.6-0.3,1.7-0.3c3.9-1.3,10.4-3.5,16-5.9l11.6-4.9l-12.1,1.8c-4.8,0.7-9.1,1.5-11,1.9
		c-3.4-0.3-14.5,1.6-24.7,3.7c-10.2,2.1-19.5,4.4-19.5,3.7c-4.5,1-9,2.1-13.5,3.2l0.3,3.6c2.8-0.1,5.6-0.2,8.4-0.4l-0.6,0.2
		c7.1-0.4,11.9-1.3,15.5-2c3.6-0.7,6.1-1.4,8.5-2.1c3.2-0.6,0.9,0.1,0.7,0.2c7.2-1.4,12-2.7,16.1-3.8c2-0.5,3.9-1,5.7-1.8
		c1.8-0.7,3.7-1.7,5.4-3.4l3.7-3.5L75,52.7c-3.3,0.5-7.1,1.1-12.2,2L61,54.6c-2,0.4-8.1,1.2-15.8,2.6c-3.9,0.7-8.2,1.6-12.7,2.6
		s-9.2,2.4-13.6,4.8L18.1,65l-0.2,1.1c-0.1,0.6,0.1,1.5,0.5,2s0.7,0.7,1,0.9c0.6,0.3,1.1,0.3,1.6,0.3c0.2,0,0.6,0,0.7-0.1l0.5-0.1
		L23,69c1.2-0.2,2.5-0.5,3.7-0.7c-0.2,0.1-0.6,0.3-2.2,0.6c9.2-1.8,19.9-4.4,29.7-7.7c4.9-1.7,9.5-3.5,13.7-5.4
		c2.1-0.9,4-1.8,5.9-2.8c0.9-0.5,1.9-1.1,2.8-1.8s1.7-1.7,2.3-2.7l2.2-3.9L77.3,45c-3,0.3-5.3,0.7-6.8,1.2c-5,0.6-10,1.2-15,1.9
		c19.4-1.9-2.8,1,5.2,0.5c-7.6,0.9-19.7,1.8-10.4,0.5l1.5-0.1c1.7-0.7-4.3-0.1-10.7,0.8c-6.4,0.8-13.1,1.8-12.9,1.4
		c-4.6,0.7-9.3,1.3-13.9,2l0.4,3.2c6.4-1.1,12.8-2.2,19.1-3.2c3.5-0.6,7.1-1.1,10.6-1.7c3.5-0.6,7-1.1,10.4-1.6
		c-4,1.3-7.9,2.6-11.8,3.9c-1.8,0.6-3.6,1.2-5.4,1.8l6.7-1.5L34.6,57c-3.1,0.9-5,1.1,1-0.9c-2.5,0.6-4.4,1.4-6,2.1
		c-1.6,0.7-3.1,1.4-3,1.5c-3.4,1.1-4.7,1.4-5,1.4s0.5-0.3,1.4-0.8c1.9-0.8,4.4-1.8,2.7-1.3l-4.4,1.5l1.1-0.3c-2,0.9-3,1.4-5.2,2.3
		l0.8,3.3c1.7-0.6,4.3-1.5,8.4-3c6.5-2.3,3.5-0.8,6-1.8c0,0,0.2,0,0.8-0.3c0.6-0.2,1.6-0.6,3.1-1.3c5-2.1,9.9-4.3,14.8-6.7
		c-2,0.8-4,1.6-6.1,2.3c6.5-3.3,13.7-6.8,6.8-4c1.6-0.7,4.2-1.8,7.3-3.4c1.5-0.8,3.2-1.7,5-2.7c0.9-0.5,1.8-1,2.7-1.5
		c0.4-0.2,1-0.6,1.6-1.1c0.3-0.3,0.6-0.6,0.8-1.1c0.3-0.5,0.4-1.1,0.4-1.8V38l-1.3,0.2c-9,1.1-19.3,3.2-27.8,5.5s-15.2,4.8-17.3,5.5
		c-0.6,0.3-1.3,0.5-1.9,0.8l0.6,3c8.9-2.1,18-3.8,28.9-6.5c-1.5,0.3-2.7,0.4-2.2,0.1c0.4-0.3,2.5-0.9,7.6-2.2
		c-2.4,1.6,7.9-1.1,16.9-4.2L72.5,37c-3.9,0.7-7.5,1.4-9.9,1.7c3.7-0.5-3.5,1.1-10.2,3c-6.7,1.8-12.7,3.8-6.9,2.5
		c-8.4,2.3-0.6-0.4-7,1.2c-6.7,2.2-13.9,4.6-21.4,7.3l0.6,3.4C32.8,53.9,49.1,50,65,43.3c0.3-0.3-3.8,1.1,1.3-1.3l0.3-0.1
		c0.1,0,0.3-0.1,0.4-0.2c0.3-0.2,0.6-0.3,0.8-0.6c0.3-0.3,0.6-0.6,0.8-1.1c0.1-0.3,0.2-0.7,0.2-1.2s-0.2-0.8-0.4-1.1L68,37.3h-0.7
		c-3.6,0-7.1,0.1-10.7,0.2c-5,0.6-4.5,1.4-13.7,2.1c1.3,0,3.2-0.1-0.1,0.4c-12.7,1.6-25.4,4.2-38.1,7.7L5.1,51c12-0.8,24-2.4,36-4.7
		c6-1.2,11.9-2.6,17.8-4.2c3-0.8,5.9-1.6,8.8-2.5c1.5-0.4,3-0.9,4.5-1.6c1.5-0.7,3.1-1.9,4.1-3.8l1.4-2.6l-2.6,0.2
		c-13.7,1.1-27.4,2.6-40.9,4.6c6.8-0.8,2.3-0.1-2.9,0.9c3.4-0.5,0,0.4,0.7,0.5c-5.7,0.9-11.3,1.8-17,2.9l0.4,3.5l4-0.4
		c1.9-0.6,7.5-1.4,12.9-2.3c5.4-0.9,10.6-2,11.6-2.5c-2.2,0.5-4.4,1-6.6,1.4c4.3-1.2,1.2-1-2.8-0.7c-4.1,0.3-9.1,0.6-8.5,0
		c-3,0.7-6.8,1.2-10.9,1.6l0.3,2.2c9-1.8,20.1-3.2,31.1-5.7c3.6-0.3-3,0.8-1.1,0.7c4-1,9-1.8,18.2-2.7l-1,0.2
		c4.8-0.6,9-0.9,12.6-1.2L74,32.4c-0.9,1.7-2.8,2.7-4.7,3.3c-1,0.3-2,0.6-2.9,0.9c-1,0.3-2,0.6-2.9,0.8c-3.9,1.1-7.7,2-11.7,2.9
		c-8,1.8-16.8,3.5-28.6,4.9l2.2,0.2c-6.2,0.8-7.5,0.7-10.5,0.9c-3.6,0.7,0.8,0.3,5.3-0.2c4.4-0.5,9-1.2,5.8-0.3
		c-3.6,0.1-12.1,1.1-21.2,1.7L5.3,51c5.9-1.6,12.1-3.1,17.3-4.1c5.1-1,9.2-1.6,10.8-1.6c9.5-1.6-2.9-0.1,6.7-1.7l2.6-0.1l2.4-0.7
		c6.3-0.8,9.5-0.8,9.7-0.5c-1.5,0.1-4.3,0.6-5.9,0.8c5.1-0.5,12.9-1.4,18.7-1.8l-0.7-1.9c0.3-0.3,0.3-0.1,0-0.2
		c-0.3-0.1-0.7-0.5-1-0.9c0,0,0,0.1-0.1,0.1l-0.1,0.1c0,0,0,0-0.1,0.1c-0.7,0.3-1.3,0.6-1.9,0.8c-1.1,0.5-2,0.8-2.5,1
		c1.1-0.4,2.3-0.8,3.4-1.3l0.8-0.3l0.4-0.1c0,0,0.1,0,0.1-0.1l0.1-0.1l0,0l0,0l0.1,0.1c0.1,0.1,0.3,0.3,0.4,0.4
		c0.3,0.2,0.5,0.3,0.6,0.3s0,0-0.2,0.1l0.7,1.7l-2.1,0.1c0.7-0.1,1.4-0.1,2.1-0.2l-0.7-1.6c0.1-0.1,0.2-0.2,0.2-0.1
		c-0.1,0-0.2,0-0.4-0.2c-0.2-0.1-0.5-0.4-0.7-0.6c0,0,0,0-0.1,0.1s-0.2,0.1-0.2,0.2L64.8,39c-1,0.4-2,0.8-2.9,1.2
		c-2,0.8-4,1.6-6.1,2.3c-4.1,1.5-8.3,2.9-12.6,4.1c-8.6,2.5-17.4,4.4-26.1,5.8l0.7,4.1c9.7-3.6,19.3-6.8,28.1-9.5L44,47.4
		c8.1-2.5,12.1-3.4,15.6-4.2s6.7-1.4,13.2-2.8l-0.6-3.2c-1.9,0.7-4.3,1.5-7.1,2.4l0.7-0.3c-4,1.5-9.6,3.2-15.3,4.6
		c2.6-0.8,0.1-0.3-2.2,0.1c-2.3,0.4-4.4,0.8-1-0.2c-10,2.7-12.6,3.2-14.3,3.7s-2.4,0.8-9.3,2.6l-2.3,0.2l0.5,2.4l0.9-0.2
		c2.2-1,3.4-1.6,5.3-2.3c1.9-0.8,4.5-1.7,9.7-3.3c-8.4,2.8,6.7-1.4-2.7,1.8c7.7-2.1,14-3.6,19.4-4.8s9.9-2,13.9-2.6L67,39.8l0,0l0,0
		h-0.1h-0.1l0,0c0,0,0,0.1-0.1,0.1c-0.1,0.2-0.4,0.4-0.7,0.5c-0.3,0.2-0.7,0.4-1,0.6c-0.4,0.2-0.7,0.4-1.1,0.6
		c-1.4,0.7-2.8,1.4-4.2,2c-2.8,1.9-2.1,1.7,0.1,0.6c1.1-0.6,2.5-1.3,4-2.2c0.7-0.4,1.5-0.9,2.3-1.3c0.3-0.2,0.6-0.4,0.8-0.6
		c0.2-0.2,0.1-0.3,0.2-0.3l1.3,1.3c-3.7,0.5-6.3,0.9-4.2,0.5c-2.6,0.2,0-0.4,4.2-1.1l-0.7-0.7c0,0.2-0.1,0.5-0.3,0.8
		c-0.3,0.3-0.6,0.6-1,0.8c-0.9,0.5-1.7,1-2.6,1.6c-1.8,1-3.5,2-5,2.8c-3.3,1.7-6.1,2.9-10.3,4.6c-4.1,1.7-9.6,3.9-18,7.3
		c1.7-0.7,1.8-0.8,3.5-1.5c-5.4,2-10.5,4.3-16.8,6.3l0.9,3.7c1.5-0.5,3.1-1,4.8-1.5c2.7-1.2,5.9-2.3,8.7-3.2s5-1.7,4.7-2.1L18,65.8
		L17.3,63l0.7-0.2l-0.7,0.3l0.7,2.8c5.4-1.9,10.2-3.9,15.4-5.8c2.6-1,5.4-2,8.6-3.1c3.2-1.1,6.8-2.3,11.5-3.8
		c-0.2,0.2-1.4,0.6-2.9,1.2c-1.6,0.6-3.5,1.3-5,1.9c3.1-0.9,5.5-1.8,7.9-2.6s4.7-1.7,8.1-2.7c1.6-0.1-4.5,2-11.9,4.5
		c-3.7,1.3-7.8,2.7-11.7,4s-7.5,2.7-10.6,3.8c1.7-0.5,4-1.3,6.5-2.1c2.4-0.8,4.9-1.8,7.1-2.5c2.1-0.8,3.9-1.4,4.9-1.7
		s1.3-0.3,0.4,0.2c2-1.1,5.1-2.2,9-3.5c4.2-1.4,8.7-2.9,13.6-4.5c1.6-0.8,2.7-1.6,3.7-2.4l1.3-0.1c0.2-0.2,0.6-0.5,1.2-0.9
		s1.4-0.8,2.2-1.2c-0.8,0.5-1.2,0.9-1.3,1.2c0.6-0.7,2.1-1.5,3.2-2.2c-1.1-0.1-2-0.3-2.8-0.5s-1.4-0.5-2.7-0.6
		c1.5,0.3,2.3,0.5,2.6,0.6c0.4,0.1,0.3,0.2,0.1,0.2c-0.2,0.1-0.7,0.1-0.8,0.2c-0.2,0.1-0.1,0.1,0.9,0.1c-1.7,0.1-3.1,0.2-4.3,0.3
		C71,44,70.1,44,69.5,44c-1.3,0-1.5-0.3-1.3-0.6c-2,0.2-4.1,0.3-9,1c-2.4,0.3-5.6,0.8-9.7,1.5s-9.3,1.6-15.5,2.7
		c3.2-0.6,9.2-1.5,12.8-2.1c3.6-0.5,4.9-0.6,0,0.4c-4.1,0.6-8.9,1.4-13.3,2.1c-1,0.1-1.9,0.3-2.8,0.4c-0.6,0.1-1.3,0.2-1.9,0.2
		c-1.2,0.1-2.2,0.3-3,0.3c-17.9,3.2,2.8,0-4.8,1.6c-2.7,0.2-4.7,0.6-6.8,1l0.5,4.3c2.7-0.5,5.4-1.2,9.9-2l0.1,0.5
		C35,54,36.3,53.6,37.4,53.2c1.1-0.4,1.9-0.8,11.2-1.7l-7.7,1.7l9.6-1.4l-1.9,0.8c5.2-0.8,8.6-1.3,12-1.7s6.8-0.6,11.9-1
		c-1.9-0.1-0.1-0.7,5.2-1.2l-1.2-2.5c-0.6,1.1-1.8,2.2-3.6,3.2c-2.9,1.3-2.1,0.8-2.1,0.7c0,0-0.2,0-1.1,0.5
		c-0.9,0.4-2.6,1.2-5.6,2.6c1.3-0.7,2.7-1.5,4.4-2.4c0.9-0.4,1.8-0.9,2.8-1.4c1.1-0.5,2.2-1,3.2-1.6c0.1-0.2,0.5-0.5,0.8-0.9
		s0.5-0.8,0.6-1.1l1.8,3.9c-0.3,0-0.4,0.1-0.5,0.1c0.2,0,0.3,0,0.5,0l-1.9-4c-0.6,1-1.9,1.9-3.5,2.7c-1.7,0.8-3.6,1.7-5.3,2.5
		c-3.6,1.6-6.9,3.1-9,3.9c1.7-0.6,3.7-1.5,4.8-1.8c-5.8,2.7-11.7,5.1-17.6,7.1c-2.9,0.7-0.7-0.1,1.5-0.9c-3.6,1.2-6.1,2.1-11.6,3.5
		c1.3-0.8,1-0.9,8.5-3.3C37.5,61.2,31.8,62.7,26,64c-0.6,0-2.9,0.3-4.7,0.5c-0.1,0-0.2,0-0.3,0l0,0c0,0,0,0-0.1,0l0,0l0,0v0.2
		c-0.1,0.5-0.2,1-0.4,1.3c-0.2,0.3-0.3,0.5-0.4,0.5s0.1,0,0.1,0s0,0-0.1,0c0,0-0.1,0,0,0c-0.1,0.1-0.1,0,0.1,0.1l0.4,2.8
		c2.1-1.1,4.6-2.1,7.3-3s5.7-1.7,8.8-2.5c6.2-1.6,12.9-3.1,19.3-4c0.7-0.2,2-0.5,4.8-1c5-0.7,9.8-1.2,14.7-1.7l-1.6-4.8
		c-2.3,2.1-5.6,3-9.3,4c-3.7,1-7.6,2.1-11.8,3.2c-2.7,0.4-5.5,0.8-8.2,1.1c-5.6,1.1-2.8,0.8-1,0.7c0.9,0,1.6-0.1,0.9,0.2
		c-0.7,0.2-2.8,0.8-7.5,1.6c-6.6,1.1-7.9,1-8.1,0.8c-0.2-0.2,0.7-0.5-1.6-0.4c-2.8,0.4-6.6,0.9-10.9,1.1l0.4,4.6
		c5.6-1.6,12.3-3.2,19.4-4.4C32,65.7,28.8,66.3,25.1,67.2z M34.6,64.9c-2.6,1-7.8,3.1-9.7,3.5C27.7,66.8,30.1,66.3,34.6,64.9z
		 M34,71.2c-2,0.6-5.1,1.1-8.6,1.7l-0.2-1.8l0,0l0,0l0.2,1.8C27.9,72.3,30.8,71.7,34,71.2z M27.1,74c-0.1,0-0.2,0.1-0.3,0.1
		C20.8,75.4,22.9,74.9,27.1,74z M39.6,71.2c1.2-0.4,1.1-0.4,0.6-0.3c-0.9,0.3-3.7,1-6.8,1.7C34.3,72.5,35.9,72.2,39.6,71.2z
		 M33.6,60.4l-2.4,0.8C36.5,59,35,59.6,33.6,60.4z"/>
	<path class="st0" d="M40.5,67.4c0.8-0.1,1,0,1.2,0C42.7,67.1,42.7,67,40.5,67.4z"/>
	<path class="st0" d="M56.3,59.6l-0.4,0.1c-0.2,0.1-0.4,0.1-0.4,0.2L56.3,59.6z"/>
	<path class="st0" d="M57.2,71.8c-0.7,0-0.9,0-0.8-0.1C55.6,71.8,55.6,71.9,57.2,71.8z"/>
	<path class="st0" d="M75.5,76.7l2-0.8l1.5-0.6c0.6-0.2,1.1-0.5,1.6-0.7l3.2-1.4c1.1-0.5,1.9-1,2.7-1.5c-1.2,0.7-2.4,1.3-3.5,1.8
		s-2.1,0.9-3,1.2c-0.8,0.4-1.7,0.6-2.4,0.9c-0.5,0.2-0.9,0.3-1.4,0.5C76.4,76.2,77.9,75.8,75.5,76.7z"/>
	<path class="st0" d="M59.4,76.6c1.2-0.3,2.5-0.6,3.6-1l-0.4-0.1C57.7,76.8,54.3,77.9,59.4,76.6z"/>
	<path class="st0" d="M67.8,77.6c-0.7-0.2-5.7,1.4-11.3,2.9c0.3-0.1,0.7-0.2,1-0.2C56,81.1,61.9,79.6,67.8,77.6z"/>
	<path class="st0" d="M55.2,80.8c-1.7,0.4-3.5,0.8-5.2,1.2C49.4,82.3,52.2,81.6,55.2,80.8z"/>
	<path class="st0" d="M55.4,67.3c2.7-0.5,1.6-0.9,3.1-1c1.5-0.6-3,0.5-5.9,1.4C49.6,68.5,48.1,69,55.4,67.3z"/>
	<path class="st0" d="M63,77.6l2.1-0.1c1-0.4,2-0.9,3-1.3C66.4,76.7,64.7,77.2,63,77.6z"/>
	<path class="st0" d="M73.8,65.7l4.7-0.7c1.6-0.2,3.2-0.4,4.6-0.6c0-0.1,1.2-0.3,2.6-0.2c-1.4,0-2.7,0.1-4.2,0.3
		c-1.4,0.2-2.8,0.3-4,0.6c-1.2,0.2-2.2,0.4-2.9,0.5C74.1,65.6,73.8,65.7,73.8,65.7z"/>
	<path class="st0" d="M85.8,64.1c0.9,0,1.8,0.2,2.7,0.5c0.4,0.2,0.8,0.4,1.2,0.6c0.2,0.1,0.4,0.2,0.5,0.4c-0.1,0.2-0.2,0.3-0.3,0.5
		c-0.6,0.7-1.1,1.2-1.6,1.6c0.4-0.4,0.9-0.8,1.6-1.7c0.1-0.2,0.2-0.3,0.3-0.5c-0.2-0.1-0.4-0.3-0.6-0.4c-0.4-0.2-0.8-0.4-1.3-0.6
		C87.6,64.3,86.7,64.1,85.8,64.1z"/>
	<path class="st0" d="M75,73.7l2.6-0.9c2-0.8,4.1-1.5,6.1-2.5c-1.5,0.7-2.9,1.2-4.3,1.8C77.9,72.7,76.5,73.2,75,73.7z"/>
	<path class="st0" d="M69.2,65.9c3.2-1.1,6.4-2.2,9.5-3.4c0.9-0.5-1.7,0.3-5.2,1.6C71.2,65,67.7,66.2,69.2,65.9z"/>
	<path class="st0" d="M39.7,72.8c2.6-0.5,2.8-0.5,4.4-0.7l0.2-0.7L39.7,72.8z"/>
	<path class="st0" d="M67.8,64.8c0.9-0.4,13.7-5.1,1.7-1C68.5,64.3,59,67.4,67.8,64.8z"/>
	<path class="st0" d="M56.6,70.2l2.4-0.3l4.3-1.6C60.9,68.9,58.7,69.5,56.6,70.2z"/>
	<path class="st0" d="M66.9,69.6c11.3-2.9,2.9-1.4,12.5-3.8l-1-4.5c-0.1,0-0.3,0.1-0.5,0.2c-0.7,0.3-0.4,0.2,0.5,0l0.9,4.2
		c-2.1,0.5-7.2,1.8-5.3,1.1C67.3,68.9,63.6,69.8,66.9,69.6z"/>
	<path class="st0" d="M74.1,66.8c1.1-0.4,2.3-0.7,3.5-1.1C75.7,66.3,74.7,66.6,74.1,66.8z"/>
	<path class="st0" d="M33.6,42.2c2.5-0.4,5-0.8,7.6-1.2l-4.9,0.6L33.6,42.2z"/>
	<path class="st0" d="M47.9,38.7l1.9,0.2l4.4-1.6C52.5,37.7,49.2,38.5,47.9,38.7z"/>
	<path class="st0" d="M55.2,60.2l0.5-0.3c-1.2,0.1-2.9,0.6-6.3,1.5C51.3,60.9,53.2,60.5,55.2,60.2z"/>
	<polygon class="st0" points="84.1,57.2 85,57.1 84,51.3 83.2,51.6 84,51.5 85,56.9 82.6,56.8 	"/>
	<path class="st0" d="M33.7,61.8c-3.4,0.4-7.5,1-11,1.2C30.2,62.4,34.7,62.4,33.7,61.8z"/>
</g>
<g>
	<path class="st1" d="M68.1,66C68.1,66,68,66,68.1,66l-3,1.9v-4c0-0.8,0.1-1.5,0.3-2c0.2-0.6,0.4-1,0.6-1.2c0.1-0.2,0.1-0.3,0.1-0.3
		c0-0.1,0-0.1,0.4-0.4c-0.5,0.3-0.8,0.7-1,1s-0.3,0.6-0.4,0.8c-0.1,0.5-0.2,0.8-0.2,1.1c-0.1,0.5,0,0.9,0,1.1l0.4,5.1l3-2.7
		C69,65.5,68,65.9,68.1,66z"/>
	<path class="st1" d="M42,63l0.5-0.3L41.7,63l1,2.8c0.3-0.3,0.6-0.6,0.9-1l0.1-0.1v-0.1l0.1-0.2c0.1-0.1,0.1-0.2,0.2-0.3
		c0.1-0.1,0.3-0.1,0.5-0.2l0.3-0.1l0.4-0.1l-0.4,0.1l-0.3,0.1C44.3,64,44.1,64,44,64.1s-0.1,0.2-0.2,0.3l-0.1,0.2v0.1l-0.1,0.1
		c-0.3,0.3-0.6,0.7-0.9,1l-0.9-2.6L42,63z"/>
	<path class="st1" d="M51.5,55c1,0.2,2.8,0.1,4.8-0.1l1.2-0.1l-0.2,1.5c-0.1,0.5-0.2,1.1-0.3,1.6c-0.2,0.6-0.5,1.2-1,1.7
		c-0.3,0.2-0.6,0.4-0.9,0.5c-0.3,0.1-0.6,0.2-0.8,0.2c-0.4,0.1-0.4,0.1-0.5,0.3l-0.7-2.3c0.4,0,0.7-0.1,1.1-0.2
		c0.2-0.1,0.3-0.2,0.5-0.3l0.1-0.1c0.1-0.1,0.2-0.2,0.5-0.3s0.9,0,1.1,0.3c0.3,0.3,0.4,0.5,0.4,0.6l0.6,1.3l-1.2,0.6
		c-0.8,0.4-1.6,0.8-2.3,1L53,61.4c-0.7,0.4-1.4,0.9-2.1,1.3c1.7-0.5,3.6-1.2,5.4-2.3l1.3-0.8l-0.7-1.4c-0.1-0.2-0.2-0.4-0.5-0.7
		c-0.2-0.2-0.4-0.3-0.7-0.3s-0.5,0-0.6,0.1c-0.3,0.1-0.5,0.2-0.5,0.3l-0.1,0.1c-0.2,0.1-0.3,0.2-0.5,0.3c-0.3,0.2-0.6,0.2-1,0.2
		l0.8,2.6c0.1-0.1,0.1-0.1,0.4-0.2c0.2,0,0.5-0.1,0.8-0.2c0.3-0.1,0.6-0.3,0.9-0.6c0.6-0.5,0.9-1.2,1.1-1.8c0.2-0.6,0.3-1.2,0.4-1.7
		l0.2-1.7l-1.5,0.1C54.5,54.8,52.8,54.9,51.5,55z"/>
	<path class="st1" d="M40.3,62.7c-0.8-0.1,2.1-0.6-1.3,0l-4.2,0.8l1.8-4.8c0.1-0.3,0.4-1,0.8-1.6c0.4-0.6,0.9-1.3,1.6-1.8
		c-0.5,0.3-0.6,0.5-0.9,0.7c-0.2,0.2-0.5,0.5-0.7,1c-0.1,0.2-0.3,0.5-0.4,0.8c-0.1,0.2-0.2,0.3-0.2,0.5c-0.1,0.1-0.1,0.3-0.2,0.4
		l-2.1,4.8l4.6-0.6C39.2,62.9,39.7,62.8,40.3,62.7z"/>
	<path class="st1" d="M38.1,56c1-1.1,1.5-1,1.4-1c0,0-0.5,0-1,0.4c-0.5,0.3-0.9,0.9-1,1.1C37.4,56.8,37.5,56.6,38.1,56z"/>
	<path class="st1" d="M51.1,60.5c-1.3,0.4-2.6,0.7-3.9,1c0.8,0,4.3-0.7,3-0.3C54.3,60.3,53.4,60.3,51.1,60.5z"/>
	<path class="st1" d="M54.7,59.2l-2,0.6C53.1,59.7,53.6,59.6,54.7,59.2z"/>
	<path class="st1" d="M48.5,60.9c1.4-0.4,2.8-0.7,4.2-1.1c-0.6,0-0.7-0.2-1.9,0.5C51.1,60,50.3,60.4,48.5,60.9z"/>
	<path class="st1" d="M46,61.3c-2.2,0.3-5,0.6-1.2-0.3c-3.7,0.7-5.3,1.1-5,1.1C40.1,62.2,42.3,62,46,61.3z"/>
	<path class="st1" d="M50.1,55.8l2.9-0.1l2.5-0.4C54.3,55.5,49.9,55.6,50.1,55.8z"/>
	<path class="st1" d="M69.4,47.6c-0.2,0.2,1.4,0.2,1.7,0.3l0.4-0.1l4.2-0.9l-2.1,4.8l-0.9,2.2c0,0.2-0.3,0.2-0.4,0.3l-0.5,0.2
		l-1,0.4c0.6-0.2,1.3-0.4,2-0.7c0.4-0.7,0.8-1.5,1.1-2.3l2.3-4.7l-4.7,0.4C70.4,47.7,69.5,47.7,69.4,47.6z"/>
	<path class="st1" d="M71.1,48l-4.3,0.9C70.6,48.3,71.3,48.1,71.1,48z"/>
	<path class="st1" d="M55.3,58.3c-2.3,0.8-4.6,1.5-6.9,2.1c2.8-0.7,5.5-1.6,8.3-2.5L55.3,58.3z"/>
	<polygon class="st1" points="53,50.4 55.4,49.6 51.1,50.9 	"/>
	<path class="st1" d="M42.1,52.6c1.8-0.7-2.5,0.1-0.7-0.5c-2.9,0.7-5.4,1.5-7.6,2.2C36.2,53.6,38.8,53.1,42.1,52.6z"/>
	<path class="st1" d="M29.7,55.6c1.3-0.3,1.6-0.5,2.3-0.7c0.6-0.2,1.3-0.4,1.9-0.6c-0.6,0.2-1.3,0.4-1.9,0.6l-0.9,0.3l-0.2,0.1h-0.1
		l-0.2,0.1L29.7,55.6z"/>
	<path class="st1" d="M59.5,50c-0.3,0-1-0.2-3.4,0.2l1.7,0.1C58.3,50.2,58.9,50.1,59.5,50z"/>
	<path class="st1" d="M57.8,50.3L57.8,50.3c-1.9,0.3-3.2,0.5-3.7,0.6C54.6,50.8,55.7,50.6,57.8,50.3z"/>
	<path class="st1" d="M59.9,49.9c-0.2,0-0.3,0-0.4,0.1C59.6,50,59.7,50,59.9,49.9z"/>
	<path class="st1" d="M66.4,55.4c0.6-0.3,1.4-0.6,2.1-0.9c0.4-0.2,0.7-0.3,1.1-0.5s0.7-0.3,0.9-0.4c0.7-0.3,0.9-0.5,0.7-0.5
		c-0.1,0-0.4,0.1-0.9,0.2c-0.3,0.1-0.8,0.2-1.5,0.4C67.2,54.6,70.1,53.9,66.4,55.4z"/>
	<path class="st1" d="M62,50.1l4.6-0.6c-0.1-0.1-0.9-0.1,0.3-0.4L62,50.1z"/>
	<polygon class="st1" points="59.8,50.6 62,50.1 60.4,50.3 	"/>
	<path class="st1" d="M37.9,54.1c-1.9,0.6-4.1,1.1-6.5,1.7c2.6-0.6,5.3-1.1,7.8-1.7C39.6,53.9,40.7,53.5,37.9,54.1z"/>
	<path class="st1" d="M47.6,52.2c-0.1,0-0.3,0.1-0.4,0.1C47.4,52.2,47.7,52.2,47.6,52.2z"/>
	<path class="st1" d="M50.7,58c-0.1,0-0.3,0-0.4,0c0,0,0,0.1-0.1,0.1L50.7,58z"/>
	<path class="st1" d="M39.7,54.1c2-0.3,3.1-0.7,4.2-1.1c-1.5,0.3-3,0.7-4.6,1.1C39.1,54.2,39.1,54.3,39.7,54.1z"/>
	<path class="st1" d="M34.8,61.4c-1,0.1-2.2,0.2-3.4,0.4C32.4,61.7,34.4,61.5,34.8,61.4z"/>
	<path class="st1" d="M46.5,52.3c0.1,0,0.2,0,0.3-0.1C46.1,52.2,46.2,52.3,46.5,52.3z"/>
	<path class="st1" d="M46.5,52.3c-1,0.3-1.8,0.5-2.5,0.8c1.2-0.3,2.3-0.6,3.2-0.8C46.9,52.3,46.7,52.3,46.5,52.3z"/>
	<path class="st1" d="M57.5,53.8c-0.3,0.5-5.3,1.9-9.8,2.4c-4.3,1.1-1.3,1.9,2.6,1.8c0.1-0.2,0.1-0.3,4.5-1.5
		c-1.6,0.2-10,1.5-6.3,0.4c5.9-1.4,4.9-0.9,7.8-1.3c-1.3,0,0.6-0.5,2.6-1.2s4.1-1.4,3.4-1.6l-5.1,1.4C57.1,54.1,58.9,53.5,57.5,53.8
		z"/>
	<path class="st1" d="M41.7,59.6L39.9,60c2.1-0.3,3.6-0.4,6.5-0.7c3-0.8,3.7-1.1,3.9-1.2c-3,0.6-6.1,1.2-9.1,1.7L41.7,59.6z"/>
	<path class="st1" d="M31.6,61.4c1.4-0.7,5.8-1.6,3-1.6c-3.8,0.7-4.1,0.9-5.1,1.2l-4,1.4l2.9-4c0.2-0.2,0.3-0.4,0.6-0.8
		c0.2-0.2,0.3-0.4,0.6-0.7c0.1-0.2,0.3-0.1,0.4-0.2c0.2,0,0.3-0.1,0.5-0.1c-0.3,0.1-0.6,0.1-0.8,0.2c-0.2,0.2-0.4,0.4-0.6,0.6
		c-0.3,0.3-0.6,0.6-0.8,0.9L24.8,62l4.7-0.8c3.1-0.6,0.7,0,0,0.2l-5.1,2L28,58c0.1-0.2,0.1-0.3-0.1-0.1L24,61.2l5.4,0.2
		C29.8,61.6,30.4,61.6,31.6,61.4c-0.8,0.1-1.4,0.2-1.9,0.4l-6.3,1.3l4.7-5.2c0.3-0.3,0.5-0.6,0.8-0.9c0.2-0.2,0.3-0.3,0.5-0.5
		l0.2-0.2c0.1-0.1,0.2-0.1,0.3-0.1c0.6-0.2,1.2-0.3,1.8-0.4c-0.7,0.1-1.3,0.3-2,0.4c-0.3,0.2-0.6,0.6-0.9,0.9
		c-0.2,0.2-0.5,0.5-0.7,0.7l-4.9,4.9l6.6-0.8c0.6-0.1,1.2-0.1,1.7-0.2c-0.1,0-0.1,0-0.2,0l0,0l0,0c-0.4,0-0.5,0-0.1,0
		c0,0,0.1,0,0.2,0C31.3,61.6,31.4,61.5,31.6,61.4c2.5-0.3,0.4,0-0.4,0.2l-0.1,0.1l0,0l8.7-1.8C38,60.3,35.7,60.7,31.6,61.4z"/>
	<path class="st1" d="M70.9,50.4c-0.3,0-0.3,0-0.3-0.1C70,50.5,69.8,50.6,70.9,50.4z"/>
	<path class="st1" d="M67.3,50.7c0.6-0.2,1.1-0.4,3.2-0.7c1.8-0.1,0,0.2,0.1,0.3c0.3-0.1,0.7-0.2,1.1-0.3l0.5-0.1L72,50.6
		c-0.5,1.3-1,2.7,0.3,0.2l0.6-1.2l-1.2,0.1c-0.1,0-0.4,0-0.6,0.1L70.4,50c-3.6,0.4-8.2,0.6-7.5,0.4C63.9,50.6,64.9,50.7,67.3,50.7z"
		/>
	<path class="st1" d="M46.7,53.6c-2.4,0.6-4.8,1.1-7.2,1.7l3.8-0.4L43,54.7C47.2,53.9,46.2,53.8,46.7,53.6z"/>
	<polygon class="st1" points="51.5,58 50.6,58.6 54.8,57.1 	"/>
	<polygon class="st1" points="61,55.9 60.7,56.3 63.2,55.5 	"/>
	<path class="st1" d="M38.4,47.4l-2,0.8C37.3,47.9,37.9,47.6,38.4,47.4z"/>
	<path class="st1" d="M53.4,43.3l0.3-0.3C53.1,43.2,52.8,43.4,53.4,43.3z"/>
	<path class="st1" d="M25.9,50.5c-3.2,0.1-6.7,0.1-6.3,0.5l1,0.3C22.8,50.9,24.4,50.7,25.9,50.5z"/>
	<path class="st1" d="M43.4,51.7c-0.3,0-0.6,0.1-0.9,0.1c-0.7,0.3-1.4,0.6-2,0.9C41.3,52.5,42.3,52.1,43.4,51.7z"/>
	<path class="st1" d="M45.2,49.4c1.3-0.3,2.7-0.6,4-1C48.3,48.6,47,49,45.2,49.4z"/>
	<path class="st1" d="M45.7,41.9c0.8-0.3,1.6-0.6,2.4-0.9C44.3,41.7,46,41.6,45.7,41.9z"/>
	<path class="st1" d="M34,56.7c2.7-0.4,4.9-0.8,6.8-1.2C37.5,56,34.8,56.2,34,56.7z"/>
	<path class="st1" d="M43.4,41.2c-1.3,0.5-1.8,0.7-1.8,0.8C42.9,41.5,43.7,41.2,43.4,41.2z"/>
	<path class="st1" d="M48.6,53.7c-0.5,0.1-0.9,0.2-1.4,0.3c-1.9,0.5-3.9,1.1-6.3,1.6C43.2,55.2,46,54.6,48.6,53.7z"/>
	<path class="st1" d="M53.3,35.3c-0.2,0-0.5,0-0.7,0C52.5,35.4,52.9,35.4,53.3,35.3z"/>
	<path class="st1" d="M27.3,34.6c0.9-0.2,2.3-0.5,3.7-0.8C30.3,33.9,29.2,34.1,27.3,34.6z"/>
	<path class="st1" d="M68.2,44.7C70.2,44.3,68.5,44.6,68.2,44.7L68.2,44.7z"/>
	<path class="st1" d="M78.2,44.8c-0.4,0.1-0.8,0.2-0.8,0.3C77.6,45,77.9,44.9,78.2,44.8z"/>
	<path class="st1" d="M65,45.8c-0.1,0-0.1,0-0.2-0.1C65.4,46,65.3,45.9,65,45.8z"/>
	<path class="st1" d="M71.3,44.4c-0.8,0.1-1.6,0.2-2.6,0.3C69.1,44.6,69.9,44.5,71.3,44.4z"/>
	<path class="st1" d="M70.8,44.2c0.7-0.1,1.2-0.2,1.8-0.2C72.8,43.9,72.6,43.9,70.8,44.2z"/>
	<path class="st1" d="M65.4,45.2c1.2-0.2,2.2-0.4,3.3-0.5c-0.4,0-0.6,0-0.5,0C67.6,44.8,66.8,44.9,65.4,45.2z"/>
	<path class="st1" d="M76.1,29.3h0.2l0.4,2.5l-0.3,0.1c-1.9,0.8-1.1,0.5,0.3,0l-0.5-2.5C76.2,29.3,76.1,29.3,76.1,29.3z"/>
	<path class="st1" d="M37.3,49c-0.1,0-0.1,0.1-0.2,0.1C37.2,49,37.3,49,37.3,49L37.3,49z"/>
	<path class="st1" d="M41.7,51.9c0.6-0.3,1.2-0.5,1.7-0.7l-0.9-3.9c-1.9,0.9-3.3,1.3-5.1,1.7c0.9,0.2,1.7,0.3,2.6,0.5
		c0.9-0.6,1.8-1.3,2.6-1.9l0.7,3.3L41.7,51.9z"/>
	<path class="st1" d="M61.6,39.2c-1.6,0.4-3.3,0.8-4.9,1.2c5.8-2.4,9.9-3.8,5.3-2.7c-0.2,0.8-4.9,2.4-9.6,3.6
		c-4.8,1.3-9.6,2-9.9,2.7c-1.1,0.1-2.2,0.1-3.3,0.2c0.9-0.1,1.1-0.2,2-0.3c-2.7,0.1-3.9,0.3-5.1,0.7c-1.2,0.3-2.2,0.7-4.5,1l0.6,3.7
		c0.9-0.4,1.9-0.8,3.3-1.3c2.8-0.9,4.8-1.4,2.9-0.6c2.1-0.8,4.1-1.6,6.2-2.3c1.8-0.5,1.4-0.2-0.4,0.4c3.2-1,6.4-1.8,9.7-2.5h-0.1
		c0.2-0.1,0.5-0.2,0.8-0.3s0.5-0.2,0.8-0.3c0.2-0.1,0.5-0.1,0.6-0.1l0,0l0,0v-0.1l0.1-0.1c0.1-0.1,0.1-0.1,0-0.1l0.5-2.4
		c-0.8,0.5-1.5,1-2.1,1.3c-2.4,1,1.1-0.7,0.5-0.6c-1.7,0.9-3.3,1.8-5,2.7c-2.2,0.6,2-1.5,5.5-3.3c-2.6,0.6-3.6,1.1-5.3,2
		s-4.1,2.2-9.5,3.9c1.6-0.7,3.3-1.4,4.9-2.1c-3.4,0.6-7.1,2.3-12.9,3.9c1.4-0.2,11.6-3,5.9-0.6c-1.6,0.5-3.8,1.2-6.8,2.6
		c-0.1-0.2-0.6-0.1-1.4,0.2l1.2,4.5c1.2-0.4,3.2-1.3,5.5-2.2L37,52.6c4-1.8,3.6-2,5.9-3.2c4.6-1.7,5.6-1.7,6.8-1.7
		c7.3-2.8-5.2,1.3,3.3-2.3c0.6-0.2,1.2-0.4,1.5-0.5c0.2,0,0.3,0,0.3,0l0,0c0,0,0,0,0-0.1s0-0.2,0-0.2c0-0.1,0-0.1,0-0.2v-3.8
		c-4.3,2-8.1,3.7-14,5.5c-4.3,0.9,0.7-0.6-0.9-0.4c-1.2,0.5-2.5,0.9-3.8,1.4c-0.9,0.2-0.7,0-0.5-0.1c-3.2,0.9-0.2,0.7-5.3,1.9
		c-0.5,0.4-2.1,0.6-4.2,0.8l0.4,2.7c3.6-0.4,8.8-0.8,12.8-2c1.6-0.1-0.7,0.5-0.2,0.7c4.3-1,6.2-1.5,7.9-1.9c0.8-0.2,1.6-0.4,2.6-0.7
		c1-0.2,2.2-0.6,3.9-0.5c0.2,0,0.4,0.1,0.6,0.2l-0.7-1.8c-0.5,1-2.6,1.4-4.3,1.9c4.4-1.2-0.9,1.6-5.8,3.3c1.6-0.2,3-0.4,3.9-0.6
		c-2.6,1-5.3,1.8-7.9,2.5c-1,0.1-0.2-0.3,1.1-0.8c-0.5,0.2-1.1,0.3-1.5,0.5c-2.9,0.4-1.5-0.3,0.5-1.1c1-0.1,2-0.2,2.9-0.3
		c1.9-0.9,3.6-1.8,3.1-2.1c-0.5,0.2-1.5,0.6-2.5,0.9c0.5-0.2,0.8-0.4,0.5-0.4s-1.1,0.4-2.3,0.8l-1.9-0.3L39,51.2
		c-3.5,0.6-7,1-10.5,1.4c-1.5,0.4-3,0.7-4.5,1.1l0.5,3.2c2.8-1.3,5.6-2.6,8.9-4c3.3-1.3,7.1-2.8,11.8-3.9c-2.9,1.2-0.5,1-0.6,1.6
		c-3.3,0.1-9,2.7-15.1,4.6c3.2-1,2.5-0.5,1.8-0.1c3.5-1.4,7.1-2.7,10.7-3.8c-0.2,0.6,2.4-0.3,5.2-0.6c-0.6-0.1-0.4-0.3,0.4-0.6
		L47,47c-1,0.5-3.2,1.3-5.5,2.1s-4.7,1.5-6.4,2.1c-0.3-0.3,0.7-0.8,6-2.4c-3,0.6-4.9,1.4-6.7,2.2s-3.7,1.6-6.7,2
		c1.3-0.3,2-0.5,2.5-0.8c-1.5,0.5-4.2,1.2-6.3,1.6c-2.1,0.4-3.5,0.5-2.7,0.2l1.3-0.3c-1.8,0.4-4.1,0.8-6.5,1.2l0.5,3.2
		c9.1-2.5,20.5-5.9,21.4-6.8c0.1,0.1-1,1.3-1.5,1.6l6.5-3l-0.3-1.4c-2.8,1.6-5.7,2.9-8.6,4.2c0.6-0.5-0.5-0.9-0.8-1.4
		s0.1-1.1,3.6-2.3c-2.1,0.5-4.6,1.1-9,2.2c1.4-0.2,3.7,0.3,1.8,0.8c-2.8,0.2-3.7,0.2-4.8,0.3c-1.1,0.1-2.4,0.2-5.7,0.4
		c2.2-0.2-0.1,1.3-3.6,1.7c0.5-0.2-0.4-1.1,0.9-1.3c-2.8,0.7-5.6,1.4-8.5,2.1c2.1-0.4,0.3-1-1.6-1.1c0.2,0-0.1,0.1-0.9,0.2L6,58.2
		c2.1-0.4,7.1-1.1,8.8-1.4l-3.7,0.3c9.7-1.4,9.4-3.1,19-4.5c-1.1,0.4-2.7,1.8,2.2,1.2c1.1-0.5,3.5-1.5,6.7-2.7
		c1.5-0.5,3.1-1.1,4.8-1.7c1.3-0.5,2.4-0.9,3.4-1.2h1.9c1.2-0.3,2.2-0.6,3-0.9c0.3,0.2,0.5,0.4,0,0.8c-0.4,0.4-1.4,0.9-3,1.4
		c-1.6,0.6-3.9,1.3-6.5,2c-2,0.6-3.9,1.1-5.5,1.6c1.8-0.2,2.1-0.1,2.6-0.1c0.2,0,0.5,0,1.1-0.1c0.3,0,0.6-0.1,1.1-0.2
		c0.7-0.1,1.5-0.2,2.5-0.4c1.6-0.1,0.5,0.2-1.4,0.6c-0.7,0.1-1.5,0.3-2.2,0.4c-0.6,0.1-1.2,0.2-1.6,0.3l3.2-0.5l5.5-0.8L59,50.6
		c-0.3,0-0.3-0.1-0.1-0.2c0.1,0,0.3-0.1,0.5-0.2c0.1,0,0.2-0.1,0.3-0.1l0,0l0,0L59.6,50h-0.1l0,0l0,0c0.3,0,0.5,0,0.8,0.1h0.1
		l-0.9-0.2c-0.3,0-0.2,0-0.2,0l0,0l0,0l0,0l-0.1-0.1l-0.1-0.1c0,0,0.2,0,0.1,0v-0.1c-0.1-0.1,0-0.2-0.1-0.4c0-0.1,0.1-0.2,0.1-0.3
		c0.1-0.1,0.1-0.2,0.2-0.3c0.6-0.7,1.8-1.1,1.6-1.1c-0.6,0.2-1.2,0.4-1.7,0.7s-0.9,0.6-1.1,1.1c0,0.1,0,0.1,0,0.2l0,0
		c0,0-0.2,0-0.1,0l0.1,0.1l0.9,0.2l0,0H59h-0.1h-0.2h-0.4c0,0,0,0.1,0.1,0.1s0,0-0.1,0h-0.2L57.9,50l-2.5,0.5l-5.2,1
		c-0.5-0.1,0-0.4,0.9-0.7c0.9-0.4,2.3-0.8,3.9-1.2c1.3-1.3,4.1-1.9,8.7-2.6l0,0l0,0c0.9,0.6,0.6,0.4,0,0l0,0
		c-0.6,0.1-1.4,0.2-1.5,0.3c0.2,0,0.8-0.1,1.5-0.3l0,0c0.1,0.1,0.3,0.2,0.4,0.3s0.3,0.2,0.4,0.4s0,0.4-0.1,0.7
		c0,0.1-0.1,0.2-0.2,0.3s-0.2,0.1-0.3,0.1c-0.8,0.3-1.6,0.6-2.3,0.8c-1.5,0.5-2.8,0.9-3.1,1c1.2-0.4,2.5-0.8,3.7-1.3
		c-4.8,1.7-7.9,2.6-13.8,4c-2,0.5-6.1,1.2-6.5,1.3c1.5-0.3,2.4-0.4,3-0.5H45l0,0l-0.1-0.2c-0.2-0.3-0.4-0.7-0.6-1
		c-0.5-0.6-0.9-1-1.4-1.2c-0.2,0.1-1.8,0.8-4.3,1.6c-0.3,0.1-0.6,0.2-0.9,0.3c-0.1,0-0.2,0.1-0.2,0.1l-0.2-0.1
		c-0.1-0.1-0.3-0.2-0.4-0.2c-0.3-0.2-0.5-0.4-0.7-0.6c-0.1-0.1-0.2-0.2-0.3-0.3s-0.1-0.3-0.1-0.4c0-0.1,0-0.1,0.1-0.2h0.2
		c0.1,0,0.2,0,0.3-0.1c0.2,0,0.4-0.1,0.6-0.1c0.4-0.1,0.7-0.1,0.9-0.1c0.3,0,0.5,0,0.5,0.1c0.1,0,0,0-0.1,0.1
		c-0.3,0.1-0.9,0.3-1.5,0.4c-0.9,0.5-2.1,1.1-2.8,1.6c-0.1,0.1-0.2,0.1-0.2,0.2c0,0,0,0.1-0.1,0.1c0,0.1-0.1,0.1-0.1,0.1
		c-0.2,0.1,0.1-0.1,0.8-0.4c0.2-0.1,1.2-0.7,2.2-1.3c0.1-0.1,0.3-0.2,0.4-0.2h0.2c0.1,0,0.3,0,0.4,0c0.2,0,0.5-0.1,0.6-0.1
		c0.2,0,0.4,0,0.5,0s0.2,0.1,0.2,0.1c0.1,0.1,0,0.1,0.1,0.1c0,0,0.1,0.1,0.5,0.3c0.1,0.1,0.2,0.1,0.3,0.2c0.1,0,0.1,0.1,0.2,0.1
		l0.1,0.1c0.1,0,0.1,0,0.2,0c0.5-0.2,1.2-0.4,2-0.6c0.4-0.3,0.9-0.5,1.8-0.8c0.8-0.3,1.7-0.5,2.4-0.7c1.4-0.3,1.7-0.4-1.9,0.2
		c4.5-1.4,4.8-1.2,10.2-2.4c-1.8-0.1,4.5-2.5,9.2-3.5c-0.2,0.2,0.2,0.2,0.6,0.3c0.2,0.2,0.4,0.4,0.6,0.5c0.5,0.2,1,0.2,1.4,0.3v-0.1
		C58,48.4,53,49.5,44.8,51.5c-0.8,0-5.1,0.8-3.3,0.1c-1.2,0.4-2.3,0.9-5,1.5c-5.3,0.5,6-1.4,1.9-1.2c-0.3,0.5-6.9,2-10.7,2.9
		c1.3,0.4,8.9-1.6,12.7-2.7c0.2,0.8-6.4,3.2-15.6,5.2c-0.7,0.1-1.2,0.2-1.7,0.3c-0.2,0-0.3,0.1-0.6,0.1c-0.2,0.1-0.4,0.1-0.6,0.2
		l-0.4-2.5c3.1-0.6,0.6,0.4,1.6,0.1c13.7-2.9,11.4-4,22.8-5.8c4.6-0.4,0.4,1,1.4,1.2c-5.9,1.4-9.1,1.5-13.2,2.4l5-0.8
		c-1.9,0.6-5.8,1.5-8,1.9c1.9-0.2,7.7-1.4,14.3-2.7s14.1-2.7,19.4-3.4c1.9-0.5,5.1-1.2,3.5-1.2L65,47.7c-3.1,0.1,6.2-1.7,2-1.1
		c2.2-0.5,4.6-1.1,7.2-1.6c1.3-0.3,2.7-0.5,4.2-0.7c1.5-0.1,3.1-0.2,4.9,0.3l0.2,0.2l2.6,2.1l-2.3,0.3c-0.4,0.1-0.7,0.1-1.1,0.1
		c0.1,0,0.4-0.1,1-0.4l1.8-1l-2-0.8c-0.7-0.3-1.7-0.5-2.7-0.5s-1.9,0-2.6,0.2c1.1-0.2,3.1-0.3,5.2,0.4l1.8,0.6l-1.6,1
		c-2.7,1.6-5.8,2.4-7.4,3.4c1.5-0.3,3-0.7,4.5-1.2c-2.2,1.1-4.7,2.1-7.2,3c-2.6,0.9-5.3,1.8-8.1,2.4c2.6-0.1,1.3-0.4,5.4-0.8
		c-1.8,0,1.8-0.9,5.1-1.9c3.3-1,6.4-2.4,3.5-1.6c1.8-0.3,3.4-1,5-1.9l4.6-2.8l-5-1.7c-2.6-0.9-5.3-0.6-8.4-0.5
		c0.2,0.2,1.9,0.1-2.8,0.7c-0.2,0.1-0.7,0.2-1,0.3c-0.1,0-0.2,0-0.3,0c0.1,0,0.2,0,0.3,0c-0.2,0.1-0.2,0.1,0.1,0
		c1.1-0.1,2.1-0.1,2.4-0.1c-2.3,0.8-9.8,2-12.3,2.7c-2.8,0.4,1.1-0.4-0.4-0.4l-3.7,1c-0.4-0.4-7.5,0.7-1-0.8L50.7,48
		c-3.5,0.4-8.3,1.3-11.2,2.1c-2.8,0.5-7,2-4.6,1.1l-9.2,2.3l-0.1-0.1c-1.4,0.3-2.8,0.6-4.2,1l0.7,4.7l0.9-0.3h0.1l0.4-0.1
		c0.5-0.1,1-0.2,1.5-0.3c1-0.2,2-0.4,3-0.6c2-0.4,4.1-0.9,6.2-1.3c4.2-0.9,8.5-1.8,12.9-2.5c3-0.9,6.2-1.8,11.3-3.1l1.1,0.1
		c1.9-0.6,4.9-1.4,7.5-2.2l12.6-3.6l-12.9-1.9c-0.4-0.1-0.7-0.1-0.8-0.2h-0.1c-0.1,0,0,0-0.2-0.1c-0.3-0.2-0.5-0.3-0.8-0.5
		c-0.4,0-0.8,0.1-1.2,0.2c-0.3,0-0.6,0.1-0.8,0.1c-0.4,0.1-0.8,0.1-1.1,0.2c-0.7,0.1-1.2,0.3-1.5,0.4c-2.2-0.1-7.1,0.8-12.2,2.2
		c-1.3,0.3-2.6,0.7-3.9,1.1c-0.6,0.2-1.3,0.4-1.9,0.6l-0.5,0.1h-0.1l-0.2,0.1c-0.2,0.1-0.4,0.1-0.6,0.2c-0.1,0-0.2,0.1-0.3,0.1
		s-0.2,0-0.2,0.1c-0.3,0.3-0.6,0.6-0.9,0.9c0.2,0.3,0.5,0.8,0.9,0.6c0.4,0,0.7,0,1.1,0c0.8,0,1.8,0,3.1-0.1c0.3,0.3,0.5,0.5,0.7,0.8
		c1.4,0,2.9-0.4,4-1c0.6-0.3,1.1-0.6,1.6-0.9c0.2-0.1,0.5-0.3,0.7-0.4c0.1,0,0.1-0.1,0.2-0.1c0-0.1,0-0.2,0-0.3s-0.1-0.2-0.2-0.3
		l-0.3-0.2l0,0c-0.7,0.1-1.3,0.2-1.8,0.3c-0.5-0.1,0.3-0.2,1.4-0.3l0,0c0.1,0,0.2,0.1,0.2,0.1l-0.3-0.1l0,0
		c-2.4,0.1-3.4,0.2-4.2,0.4c-0.8,0.1-1.3,0.3-2.1,0.6c-0.4,0.1-0.8,0.2-1.3,0.4c-0.3,0.1-0.5,0.1-0.8,0.2l-0.4,0.1l-0.6,0.1
		c-2.4,0.4-4.7,0.8-6.9,0.9c-2.2,0.5-3.8,0.7-5.3,0.8c0.2,0,0.4-0.1,0.5-0.1c-0.2,0-0.6,0.1-0.9,0.1c-1,0.1-2,0.2-3.1,0.3
		c0.9,0,1.8-0.1,2.6-0.2c-1.7,0.3-4.3,0.7-6.8,1.3l-1.1-0.3c-0.2,0-0.4,0.1-0.6,0.1c-2.5,0.2-2,0.5-0.6,0.7
		c-1.3,0.3-2.4,0.6-3.3,0.8c-2.1-0.4-6.6,1.3-9.4,0.9c-0.2,0.1-0.6,0.2-1.2,0.3l0.4,4.1c3.3-0.6,11.7-1.6,12.8-2.5
		c0.1,0.1,0.8,0-0.5,0.2c2.8-0.3,5.7-0.6,8.2-1.3l1.3,0.4c2-0.7,4-1.3,6-2.1c1.9-0.3,3.2-0.5,3.6-0.4c0.4,0-0.1,0.4-1.9,1.1
		c4.6-1.6,6.3-2.3,8-3l-0.7-2.9c-1.5,0.5-3,1-6.4,2.3l0.3-0.5c-2.7,0.8-6.8,2.4-8.5,2.6c-2.2,0.3-6.6,1.5-12,2.9l0.5,3.1
		c4.7-0.8,10.1-1.9,15.6-3.3c5.5-1.4,10.9-3,15.7-4.5l-0.7-3.7c-0.7,0.1-1.3,0.2-1.9,0.3c1.6,0.2-0.2,0.5-2.5,0.9s-5,1-5.2,1.5
		c-0.9,0-3.1,0.5-0.7-0.5c-5.9,2-9.5,2.9-13.2,4.3l0.8,4.5c1.3-0.2,2.5-0.5,3.9-0.9c0.9,0.1-1.7,0.6-0.8,0.7
		c0.6-0.1,2.5-0.6,3.4-0.6c0.8,0-1.1,0.4-2.4,0.7c4.1-0.6,6.3-1.2,7.6-1.8c1.3-0.5,1.6-1,1.8-1.5c4.2-0.5,6.2-1.1,9.1-2.5
		c1.5-0.2,3.9-0.7-1.1,1c0.7-0.2,2.1-0.6,3.9-1.2c0.9-0.3,1.8-0.6,2.8-1c0.5-0.2,1.1-0.5,1.6-0.8c0.6-0.4,1.2-1,1.6-1.9l0.9-2
		l-1.9-0.4c-2.3-0.5-4.4-0.1-5.8,0.1c-1.4,0.3-2.4,0.6-2.4,0.7c-0.9,0-4,0.7-4.7,0.9c-6.4,1.1-6.9,1.2-13.2,2.3l1.7-0.2
		c-1.1,0.6-2.4,0.9-4,1.1l0.2,1.6c1.6-0.3,3.6-0.5,6.2-1.1l-0.1,0.1c5.8-0.9,7-1.3,8.2-1.7c0.6-0.2,1.2-0.4,2.4-0.7s2.9-0.7,5.7-1.5
		L48.1,47c0.5-0.8,3.9-1.6,7.8-3.2l1.5-0.6l-1.4-1c-0.5-0.3-1-0.4-1.5-0.4s-0.9,0.1-1.3,0.3c-0.7,0.2-1.4,0.5-2.2,0.7
		c-1.4,0.5-2.8,1.1-4.1,1.7l2.4-0.7c-3.4,1.7-10,2.5-13.5,3.8C35,47.8,37,47,38,46.5c-9.2,3-1.1,1.1-7.6,3.8l0.9,3.4h0.1
		c1.3-0.1-1.4,1.4,3.2-0.2c1.2-0.3,4.5-1.7,8.3-3.4s8-3.7,11.2-4.8c-1.4,0.4-2.9,0.8,0.2-0.8c1-0.5,2.1-1,3.4-1.6l1.4-0.7l-0.8-1.7
		c-0.3-0.7-1-1.2-1.5-1.4s-1-0.2-1.4-0.2c-0.9,0-1.5,0.2-2.1,0.3c-1.3,0.2-2.7,0.5-4,0.7c-2.6,0.6-5,1.3-6.7,2.1c-0.7,0-1,0-1,0
		c-2.5,0.9-7,2.6-10.4,4.1l-8.3,3.8l8.7-0.9c1.9-0.2,3.4-0.4,4.2-0.7c1.9,0.7,8-0.2,13.5-1.6c5.5-1.4,10.5-3.2,10.6-2.5
		c2.3-0.8,4.6-1.6,6.9-2.5l14-5.5l-14.7,2l-4.8,0.6l0.3-0.2c-7.6,1-10.3,1.9-12.9,2.7c-1.8,0.2-0.5-0.2-0.4-0.3
		c-7.4,1.2-10.3,1.9-14.2,3l0.3,3.3c2-0.2,4.2-0.5,7.3-1.1l1,0.4c1.1-0.3,4.6-0.6,9-1.4c2.2-0.4,4.7-0.9,7.2-1.5
		c1.3-0.3,2.5-0.6,3.8-1s2.8-1,4.1-2.2l4.6-4.2L65.9,37c-1.1,0.1-2.1,0.3-3.1,0.4c0.1-0.1,0.3-0.2,1.2-0.4
		c-3.8,0.6-8.2,1.2-12.4,1.9c-2.1,0.4-4.2,0.7-6.3,1.2c-2.1,0.4-4.1,1.1-6,2.1l-1,0.6l-0.1,1.4c-0.1,0.6,0.1,1.3,0.4,1.8
		c0.3,0.5,0.6,0.7,0.9,0.8c0.5,0.3,0.8,0.3,1.1,0.4c0.2,0,0.3,0,0.4,0h0.2h0.2l0.4-0.1c0.5-0.1,1-0.2,1.5-0.3c1-0.2,1.9-0.4,2.7-0.6
		c1.6-0.5,2.9-1,3.7-1.5c2.7-0.8,5.3-1.8,7.9-2.8c-10.3,3.1,1.4-1.2-2.9-0.1c4-1.3,10.4-3.3,5.6-1.3l-0.8,0.2
		c-0.8,0.8,2.4-0.3,5.7-1.7c0.8-0.4,1.7-0.7,2.4-1.1c0.8-0.4,1.5-0.7,2.2-1s1.3-0.8,1.7-1.1c0.4-0.3,0.6-0.6,0.6-0.5l0.2-0.3
		l1.8-2.7l-3,0.1c-10,0.5-19.8,1.7-29.4,2.8l0.4,3.6c10.3-1.8,20.4-3.5,30.2-5.4L70,33.2l6.6-1.2l-0.5-2.8H76
		c-1.4,0.3-2.1,0.3,0-0.5l0.7,3.7c-0.5,0.1-1.3,0.3-2.3,0.5c0.6,0,1.4-0.1,2.3-0.3l-0.7-4c-2.5,0.9-5.5,2.3-5.6,2.5
		c-9.2,2.7,3.4-2,0.6-1.1l-3.8,1.3l0.9-0.2c-3,1.3-3.2,1.7-8.8,3.5c-3.6,1-1.9,0.2-3.3,0.6c0,0-0.1,0-0.4,0.1
		c-0.3,0.1-0.9,0.3-1.7,0.6l-8.2,2.6l3.4-0.5c-3.6,1.5-7.7,2.5-3.8,1.9c-0.7,0.1-1.7,0.3-2.9,0.7L43,43c3-0.8,7.2-2.3,11.4-4.3
		c2.1-1,4.3-2.1,6.3-3.3c1-0.6,2-1.2,3-1.7c0.5-0.3,0.9-0.6,1.4-0.9c0.2-0.1,0.6-0.3,0.9-0.7c0.2-0.2,0.4-0.4,0.5-0.8
		c0.2-0.4,0.2-0.9,0.2-1.3l-0.2-1.5l-1.2,0.2c-3.6,0.5-6.4,1.1-7.4,1.2c-5.2,1.5-10.3,2.8-16.6,5c1.5-0.4,2.5-0.2-1.7,1.3l0.2,1.2
		c0.3,0,0.6-0.1,1-0.2c-0.9,0.8,1.6,0.5,5,0c3.4-0.6,7.5-1.5,9.8-1.6c-2.5,0.3,3.6-1.2,7.5-2.8l-0.7-3.2c-2.6,0.7-4.3,1.2-1.7,1
		c-4.6,1-0.4-0.4-3.9,0.1c-7.5,2.2-16.1,4.4-25.1,7.5l0.7,3.9c4.1-0.5,8.3-1.3,12.4-2.5c0.2-0.2-2.1,0.2,0.7-0.9
		c2.4-0.4,4.8-1,7.2-1.6c0.7-0.3,1.2-0.6,1.6-0.9c0.1-0.1,0.2-0.1,0.3-0.2c0.3-0.1,0.5-0.3,0.7-0.5s0.4-0.5,0.6-1
		c0.1-0.3,0.2-0.7,0.1-1.2c-0.1-0.5-0.3-0.9-0.5-1.1l-0.6-0.7l-0.6,0.1c-0.9,0.2-2,0.4-4.3,0.4c0.7,0.1,1.8,0.2,0,0.4
		c-10,0.9-20.1,2.9-30.1,5.7L7.1,41.3l13.1-0.5c5.5-0.2,10.9-0.8,16.4-1.7c2.7-0.5,5.4-1.1,8.1-1.7c1.3-0.3,2.7-0.7,4-1.1
		c0.7-0.2,1.4-0.4,2.2-0.8c0.8-0.4,1.7-1.1,2.2-2.2l1.2-2.6L51.7,31c-6.4,0.6-12.8,1.4-19.2,2.2c3.7-0.3,1.3,0.1-1.5,0.7
		c1.8-0.3,0,0.4,0.4,0.6c-3.8,0.5-7.6,1.1-11.4,1.8c-0.3,0.2-0.7,0.3-1.3,0.5l0.4,3.3c1.7-0.3,4.5-0.6,6.9-0.9
		c2.5-0.3,4.6-0.8,5.1-1.1c-1.2,0.2-2.4,0.5-3.6,0.7c2.4-0.7,0.6-0.9-1.6-1S21,37.5,21.3,37c-0.7,0.2-1.5,0.3-2.4,0.4l0.2,2
		c5.3-1.4,12.9-1.6,20.2-3.9c1.9-0.1-1.6,0.6-0.6,0.6c2.2-0.8,4.8-1.3,9.8-1.7l-0.6,0.2c1.5-0.2,2.8-0.3,3.8-0.5l-1.3-2.3
		c-0.1,0.3-0.5,0.6-1,0.8s-1.1,0.4-1.7,0.6c-1.3,0.4-2.5,0.7-3.6,0.9c-2.4,0.6-4.6,1-7,1.4c-4.7,0.7-9.7,1.3-16.7,1.4l1.2,0.4
		c-0.7,0-1.3,0-1.7,0l0.4,3.4c2-0.5,2.7-0.5,3.9-0.8c2.1-1-1.3,0-3.9,0.7L20,37.4c2,0,3.5-0.1,2,0.3c-0.5-0.1-1.2-0.1-2-0.2l0.3,2.8
		c3.2-0.6,8.6-2.1,13.6-3c5-1,9.5-1.6,10.9-1.3c5.1-0.7-1.6-0.3,3.6-1l1.4,0.1l1.3-0.5c1.4-0.1,2.5-0.2,3.3-0.1L53.9,33
		c0.1-0.1,0.2-0.1,0.1-0.1c0,0-0.1,0-0.3-0.1c-0.2-0.2-0.4-0.5-0.5-0.6c0,0,0,0,0,0.1v0.1l0,0l0,0l0,0l0,0c-0.1-0.3,0.2,0.8-0.2-0.8
		l0,0l0,0h-0.1c-0.1,0-0.2,0-0.3,0c-0.3,0-0.5,0-0.6,0c0.1,0,0.3-0.1,0.4-0.2c0.1,0,0.1-0.1,0.2-0.1l0.1-0.1h0.1l0,0l0,0
		c-0.1-0.2,0.6,2,0.3,1.1l0,0l0,0l0,0l0,0l0,0c-0.2-0.5-0.1-0.1,0.2,0.2c0.1,0.2,0.3,0.3,0.4,0.3c0.1,0,0,0-0.1,0.1l0.5,2
		c-0.5,0.1-0.9,0.1-1.2,0.2c0.4,0,0.8,0,1.2-0.1l-0.5-2.1c0.1-0.1,0.2-0.1,0.2-0.1s-0.1,0-0.2-0.1c-0.2-0.2-0.5-0.6-0.5-0.6v0.1v0.1
		v0.1l0,0l0,0c0.1,0.3-0.7-2.4-0.4-1.3l0,0l0.3,0.3l-0.4,0.2c-0.6,0.2-1.2,0.5-1.8,0.7c-1.2,0.5-2.4,1-3.6,1.4
		c-2.3,0.8-4.3,1.4-4.9,1.6c1.6-0.4,3.2-0.8,4.8-1.3c-4.7,1.7-9.9,3-15.3,3.7l0.7,4.2c9.6-3.5,19.7-6.4,28.4-8.7h-1.1
		c1.1-0.3,2-0.5,2.8-0.7L62,29.6c-3.5,1.3-5.1,1.7-7.1,2.2c-2,0.4-4.4,1-9.4,2.1l0.4-0.1c-1.8,0.5-4.1,1.1-6.6,1.6l0.5,2.6
		c0.6-0.2,1.1-0.4,1.7-0.6c-1.4,0.6,0,0.3,1.2,0s2.3-0.5,0.6,0.2c5.4-2,6.7-2.4,7.6-2.8c0.9-0.4,1.3-0.7,4.9-1.9h1.8
		c2.4-0.8,2.6-1.1,7.8-2l-0.7-0.6c0,0,0.1,0,0,0s0,0-0.1,0l0,0c0,0,0.1,0,0,0c0,0,0,0-0.1,0l0.7,0.7c-1.6,0.4-0.7,0.4,0,0.4
		l-0.8-1.1c0.1,0,0,0-0.1-0.1S64.1,30,64.1,30l0,0l0,0c0,0-0.1-0.1,0.1,0.1c0.1,0.1,0.2,0.2,0.3,0.3c0.1,0.1,0.2,0,0,0.1l0.8,1.5
		c-0.2,0.1-0.5,0.2-1,0.3c0.4,0,0.7-0.1,1.1-0.1l-0.8-1.6c0.1,0,0,0-0.2-0.2c-0.1-0.1-0.1-0.1-0.2-0.2L64,29.6l-0.1-0.1
		c0,0,0,0-0.1,0c-0.3,0.2-0.5,0.3-0.8,0.5c-0.6,0.3-1.2,0.7-1.7,1c-1.1,0.6-2.2,1.2-3.1,1.8c-2,1.1-3.7,2.1-5.3,2.9
		c-3.2,1.7-5.8,2.8-8.4,3.2c-2.5,1.4,0,0.7,2.8-0.3s5.7-2.5,4.3-1.7c1.3-0.4,0.3,0.3-1.5,1.2s-4.4,2-6.2,2.6c-0.5,0.2-1,0.3-1.4,0.4
		l0.3,1.4c3.2-0.8,6.4-0.8,14.5-3.5c-0.9,0.3-1,0.4-1.9,0.7c3.6-0.9,6.8-2.6,11.2-3.6c2.3-1.4,5.6-1.8,6.1-2.8l-8.6,3
		c3.8-1.4,7.3-3.1,12.5-4.9L76.4,30c-1.5,0.3-3.1,0.6-4.9,0.8c0.6-0.3,3-0.9,4.7-1.4c-2.4,0.2-4.6,1-7.1,1.3
		c0.3-0.5,3.5-1.1,7.2-1.8l0.6,3.6c-2.9,1-6.2,2.1-8.5,3.1c2.6-0.5,9.8-3.8,7.3-2.1c0.4-0.2,0.8-0.5,1.2-0.7l-0.8-4.2
		c-3.7,1.3-8.9,1.3-14.6,3.1l0.4-0.5c-1,0.3-3.1,0.9-5,1.2l3.4-1.2c-5.2,1.5-10.2,1.5-15.2,2.7c10.6-2,2.4,0.1,7-0.4
		c-6.4,1.5-8.3,1.6-10.4,1.6l0.5,4.2c2.1,0.1,4.4,0.2,11.9-0.8c-2,0.3-7.5,0.6-4.4,0c2.8-0.3,6.5-0.5,8.2-0.4c9.7-1.1-1.5-0.3,2.6-1
		c3.3,0.3,4.8-0.7,9-1.1v0.5c0.7,0,1.3,0,1.9-0.1L69.9,33c-0.3,0.4-0.8,0.8-1.3,1.1s-0.9,0.5-1.2,0.7c-0.6,0.4-0.8,0.6-1,0.8
		c-0.5,0.4-1,1-5.5,2.6c1.3-0.7,2.5-1.5,3.8-2.3c-1.6,0.8-3.2,1.5-4.8,2.2l0.9-0.9c-2.6,1.2-4.4,1.9-6.1,2.5c-1.8,0.6-3.5,1-6.2,1.6
		c1.3,0-0.5,1.1-5.4,2c-1.5,0.1-1.3,0-1.2-0.1c0,0,0-0.1-0.2,0c-0.1,0-0.1,0-0.2,0h-0.1L41,43l0,0l0,0l0,0c0.1,0.4,0,0.1,0,0.2l0,0
		v-0.1V43l0,0c0,0,0,0.2-0.1,0.5c0,0.3-0.1,0.6-0.2,0.8c-0.1,0.2-0.2,0.2-0.1,0.2l0.3,1.7c0.4-0.2,1-0.5,1.8-0.8
		c-0.5,0.3-1.1,0.7-1.7,1.1l-0.4-2c-0.1,0-0.1,0,0,0c0.1-0.1,0.1-0.2,0.2-0.4c0.2-0.4,0.2-1,0.2-1.1s0,0,0,0.2v0.1l0,0l0,0l0,0
		c-0.1-1.2,0-0.3-0.1-0.6l0,0l0,0H41h0.1c0.2,0,0.3-0.1,0.5-0.1c0.7-0.1,1.5-0.2,2.4-0.2c0.3-0.2,1.5-0.6,1.8-0.8
		c-0.9,0.1-1.9,0.3-2.9,0.4c-0.5,0.1-1,0.2-1.6,0.3l-0.4,0.1l0,0l0,0l0,0c0.2,2.1,0.1,0.6,0.1,1l0,0l0,0v-0.1v-0.1c0,0,0,0,0,0.1
		c0,0.2-0.1,0.7-0.2,1c-0.1,0.4-0.3,0.3-0.2,0.3l0.6,2.4c1.7-1,3.5-1.5,4.8-1.9c-0.9,0.2-2,0.5-2.5,0.6c1.5-0.6,3-1.1,4.7-1.6
		c1.6-0.5,3.3-0.9,4.9-1.3c1.6-0.1,0.4,0.3-0.8,0.6c2-0.4,3.4-0.9,6.3-1.4c-0.7,0.5-0.5,0.8-4.7,1.7c3.1-0.7,6.3-1.3,9.4-1.8
		c0.4,0.1,2,0,3,0l-1.6-5.2C64.3,37,64,37,64.2,36.8c-0.8,0.5-1.9,0.9-3.4,1.4s-3.2,1-4.8,1.5c-3.4,1-7,2-10.4,2.4
		c-0.4,0.1-1.1,0.3-2.5,0.6c-2.9,0.3-5.6,0.5-8.5,0.5l0.5,5.4c3.6-0.8,7.3-1.6,11.6-2.7l4.5-0.1c6.1-1.2-6.1,0.2,4-1.8
		c7.2-1.3,2.8,0.2,5.3,0c1.6-0.4,3.7-0.9,6.2-1.3l-0.8-4.5c-2.8,1.3-6.2,2.5-9.9,3.2C58,40.4,59.7,39.9,61.6,39.2z M38.7,46.9
		c1.4-0.6,4.1-2,5.2-2.1C42.5,45.9,41.2,46.1,38.7,46.9z M32.2,53.1c1.1-0.3,2.8-0.5,4.7-0.7C35.5,52.7,33.9,53,32.2,53.1z
		 M46.2,49.1c-0.1,0-0.1,0-0.2,0.1C42.7,49.7,43.9,49.5,46.2,49.1z M53,48c0.7-0.2,0.6-0.3,0.3-0.3c-0.5,0.2-2,0.5-3.7,0.8
		C50.1,48.6,51,48.5,53,48z M55.2,35.5l1.3-0.3C53.7,36.3,54.5,35.9,55.2,35.5z"/>
	<path class="st1" d="M44.9,49.7c0.4,0,0.5,0,0.7,0.1C46.1,49.5,46.1,49.4,44.9,49.7z"/>
	<path class="st1" d="M45.2,42h0.2c0.1,0,0.2-0.1,0.2-0.1L45.2,42z"/>
	<path class="st1" d="M38,52c-0.3,0-0.5,0-0.7,0c-0.1,0-0.2,0-0.3,0c-0.2,0.1-0.5,0.3-0.6,0.4c-0.8,0.5-1.4,0.8-1.9,1.1
		c-0.1,0.1,0.1,0,0.9-0.5c0.4-0.2,1-0.6,1.6-1C37.2,52,37.5,52,38,52z"/>
	<path class="st1" d="M78.3,51.5c1.5-0.6,2.9-1.2,4.4-2c-2.1,1.1-2.9,1.3-4,1.6C78.8,51.2,79.7,51,78.3,51.5z"/>
	<path class="st1" d="M40.2,57.6c-0.6,0.2-1.3,0.3-2,0.4l0.2,0.2C41.1,57.7,43,57.2,40.2,57.6z"/>
	<path class="st1" d="M74,51.3c-0.4-0.3-3.1,0.6-6.1,1.5c0.2,0,0.4-0.1,0.5-0.1C67.6,53.4,70.8,52.4,74,51.3z"/>
	<path class="st1" d="M67.2,53c-0.9,0.3-1.9,0.5-2.8,0.7C64.1,54,65.5,53.4,67.2,53z"/>
	<path class="st1" d="M61.6,46.1c1.5-0.2,0.8-0.7,1.7-0.6C64.8,44.7,53.7,47.8,61.6,46.1z"/>
	<polygon class="st1" points="71.3,50.7 72.5,50.9 74.1,50 	"/>
	<path class="st1" d="M71.7,46.4l4.9-0.6c-0.1-0.1,0.5-0.2,1.3-0.3C74.9,45.9,71.6,46.3,71.7,46.4z"/>
	<path class="st1" d="M77.9,45.5c1.6-0.2,3.1-0.2,4-0.1C81,45.2,79.2,45.2,77.9,45.5z"/>
	<path class="st1" d="M77.8,48.6c0.5-0.1,0.9-0.3,1.4-0.4c1.1-0.4,2.2-0.9,3.2-1.5C80.9,47.5,79.4,48.1,77.8,48.6z"/>
	<path class="st1" d="M24,56.7l5.3-1.1c0.5-0.3-0.9-0.1-2.9,0.3C25.2,56.2,23.2,56.6,24,56.7z"/>
	<path class="st1" d="M35.6,54.6c-1.4,0.2-1.6,0.1-2.4,0.1l-0.1,0.6L35.6,54.6z"/>
	<path class="st1" d="M23.3,55.3c0.5-0.2,7.6-1.8,0.9-0.6c-0.1,0.1-0.6,0.2-1.2,0.3c-0.1,0-0.3,0.1-0.4,0.1
		c-0.2,0.1-0.3,0.1-0.5,0.2c-0.2,0.1-0.4,0.2-0.5,0.2l0.3,2.4c0.4-0.1,0.5-0.2,0-0.1l-0.3-2.2c0.1,0,0.3-0.1,0.5-0.1
		s0.3-0.1,0.6-0.1C22.8,55.3,23.1,55.3,23.3,55.3z"/>
	<path class="st1" d="M38.5,55.2l-1.4,0.2h0.1l0.3-0.6l0.7-1.2c0,0.4,0,0.7,0,1.1c0,0.2,0,0.4,0.1,0.5H38.5z"/>
	<path class="st1" d="M21.6,56.4c6.3-0.8,1.4-0.9,7.2-1.5c1.5-0.5-4.7,0.5-3.2,0.1C21.8,55.8,19.8,56,21.6,56.4z"/>
	<path class="st1" d="M25.6,54.9c0.6-0.1,1.2-0.3,1.9-0.5C26.4,54.7,25.9,54.9,25.6,54.9z"/>
	<path class="st1" d="M25.5,40.1c1.4-0.1,2.8-0.2,4.1-0.4l-2.7,0.1L25.5,40.1z"/>
	<path class="st1" d="M33.3,38.1l1,0.4l2.4-1.1C35.8,37.7,34,38.1,33.3,38.1z"/>
	<path class="st1" d="M34.4,54.2l0.3-0.3c-0.6,0.1-1.4,0.4-2.9,0.9L30.2,49c0.1,0,0.3-0.1,0.5-0.2l-0.5,0.1l1.6,6L34.4,54.2z"/>
	<polygon class="st1" points="33.7,49.8 34.6,49.5 32.7,49.6 	"/>
	<path class="st1" d="M56.9,45.1c1.9-0.3,4.1-0.7,5.9-0.9C58.8,44.8,56.3,44.4,56.9,45.1z"/>
</g>
<g>
	<path class="st2" d="M61.6,29.5c-1.1,0.2-0.6,0.5-0.8,0.7C62.6,29.6,61.6,29.4,61.6,29.5z"/>
	<polygon class="st2" points="66.1,23.5 66.4,23.3 63.9,24 	"/>
	<path class="st2" d="M49.6,25.7c1.6,0.4,6-1,8.9-1.2l0.5,0.1l1.3-0.7C56.7,24.4,52.2,25.5,49.6,25.7z"/>
	<path class="st2" d="M40.7,25.7c0.6,0.2-1.9,0.6,2.1-0.3c-0.2,0-0.3,0-0.4,0C42,25.5,41.5,25.6,40.7,25.7z"/>
	<path class="st2" d="M42.3,25.4C44.1,25.1,41.2,25.4,42.3,25.4L42.3,25.4z"/>
	<path class="st2" d="M34.4,27.2l2.2-0.7c-0.5-0.1-2.5,0.3-1.8,0C32.5,27.1,33,27.2,34.4,27.2z"/>
	<path class="st2" d="M32.3,28.1l1.2-0.4C33.2,27.7,32.9,27.8,32.3,28.1z"/>
	<path class="st2" d="M35.9,27l-2.5,0.7c0.3,0,0.4,0.3,1.1-0.3C34.4,27.7,34.9,27.4,35.9,27z"/>
	<path class="st2" d="M37.3,26.8c1.3-0.1,3-0.3,0.7,0.4C42.4,26.3,41.7,25.9,37.3,26.8z"/>
	<path class="st2" d="M48.9,26.6l1.7-0.1L52,26C51.3,26.2,48.7,26.3,48.9,26.6z"/>
	<path class="st2" d="M23.1,36c0.1-0.2-0.8-0.4-1-0.6h-0.2l-0.5-5.1l1.4-0.5c-0.4,0.1-1,0.1-1.5,0.2l0.5,5.7
		C22.5,35.8,23,35.9,23.1,36z"/>
	<path class="st2" d="M22.1,35.4l2.6-0.3C22.4,35.1,21.9,35.3,22.1,35.4z"/>
	<polygon class="st2" points="32,29 36,27.6 31.2,29.1 	"/>
	<polygon class="st2" points="32.9,35.5 31.4,36 34,35.3 	"/>
	<path class="st2" d="M39.3,34.8c-1.1,0.4,1.5,0.3,0.4,0.6c1.8-0.3,3.2-0.7,4.6-1.1C42.9,34.7,41.3,34.9,39.3,34.8z"/>
	<path class="st2" d="M46.5,33.7c-0.7,0.2-1.4,0.4-2.2,0.6C45.1,34.2,45.8,34,46.5,33.7z"/>
	<path class="st2" d="M29,35c0.2,0.1,0.6,0.3,2,0.3l-1-0.4C29.7,34.9,29.4,35,29,35z"/>
	<path class="st2" d="M30,34.9L30,34.9c1.1-0.1,1.9-0.1,2.2-0.1C31.9,34.8,31.3,34.9,30,34.9z"/>
	<path class="st2" d="M28.8,35c0.1,0,0.2,0,0.3,0C28.9,35,28.9,34.9,28.8,35z"/>
	<path class="st2" d="M25.4,30.1C24,30.7,21,31.7,24,31.3C25,30.7,23.2,30.9,25.4,30.1z"/>
	<path class="st2" d="M27.5,34.5h-2.7c0.1,0.1,0.6,0.3-0.2,0.4L27.5,34.5z"/>
	<polygon class="st2" points="28.8,34.3 27.5,34.5 28.5,34.5 	"/>
	<path class="st2" d="M41.9,34c1.2-0.3,2.4-0.5,3.9-0.8c-1.6,0.1-3.2,0.3-4.7,0.5C40.9,33.9,40.2,34.2,41.9,34z"/>
	<path class="st2" d="M36.1,34.5c0.1,0,0.2,0,0.3,0C36.2,34.4,36.1,34.4,36.1,34.5z"/>
	<path class="st2" d="M59.8,30.6c-0.1,0-0.2,0-0.2,0v0.1L59.8,30.6z"/>
	<path class="st2" d="M40.8,33.7c-1.2,0.1-1.9,0.2-2.5,0.4c0.9-0.1,1.8-0.3,2.8-0.4C41.1,33.6,41.2,33.6,40.8,33.7z"/>
	<path class="st2" d="M50.5,32.9c-0.6,0-1.3,0.1-2,0.1C49,33,50.3,33,50.5,32.9z"/>
	<path class="st2" d="M36.8,34.5c-0.1,0-0.1,0-0.2,0C37,34.6,36.9,34.6,36.8,34.5z"/>
	<path class="st2" d="M36.8,34.5c0.6-0.1,1.1-0.3,1.5-0.4c-0.7,0.1-1.4,0.2-1.9,0.3C36.5,34.5,36.6,34.5,36.8,34.5z"/>
	<path class="st2" d="M63.6,26.9c-0.1,0.4-3.1,1.5-5.7,1.7c-2.5,0.8-0.7,1.7,1.7,1.9c0.1-0.2,0-0.3,2.6-1.2c-1,0-5.9,0.8-3.7,0
		c3.4-1,2.9-0.5,4.6-0.7c-0.8-0.1,0.3-0.5,1.5-1c1.1-0.5,2.4-1.1,1.9-1.3c-1,0.3-2,0.7-3,1C63.4,27.3,64.5,26.8,63.6,26.9z"/>
	<path class="st2" d="M54.6,31.6l-1.1,0.3c1.3-0.2,2.2-0.2,3.8-0.2c1.8-0.6,2.1-0.8,2.2-1c-1.8,0.4-3.6,0.7-5.4,1.1L54.6,31.6z"/>
	<path class="st2" d="M48.6,32.7c0.8-0.5,3.4-1.2,1.7-1.4c-3.2,0.6-2.2,0.7-4.1,1.2C51.4,31.6,44.8,33,48.6,32.7
		c-1.1,0.2-2,0.4-2.8,0.5c0.9-0.1,1.9-0.2,2.7-0.2h-0.1l0,0l0,0c-0.2,0-0.3,0-0.1,0h0.1C48.4,32.8,48.5,32.8,48.6,32.7
		c1.5-0.2,0.2,0.1-0.2,0.2c0,0-0.1,0-0.1,0.1l0,0c1.7-0.3,3.4-0.7,5.2-1.1C52.4,32,51,32.3,48.6,32.7z"/>
	<path class="st2" d="M22.3,33c0.2,0,0.2,0.1,0.2,0.1C22.8,33,22.9,33,22.3,33z"/>
	<path class="st2" d="M24.5,33.2c-0.4,0.1-0.7,0.2-1.9,0.2c-1.1-0.1,0-0.2-0.1-0.3c-0.2,0-0.4,0.1-0.6,0.1l-0.1-0.7
		c0.7-0.3,1.3-0.6-0.1-0.4l-4.8,0.6l4.9,0.8c0.1,0,0.2,0,0.4,0l0.4-0.1c2.1,0.1,4.8,0.5,4.5,0.6C26.4,33.8,25.9,33.5,24.5,33.2z"/>
	<path class="st2" d="M36.6,33.2c1.4-0.2,2.9-0.4,4.3-0.7l-2.2-0.1l0.1,0.2C36.4,32.8,36.9,33,36.6,33.2z"/>
	<polygon class="st2" points="60.4,30.7 59.9,31.2 62.3,30.1 	"/>
	<polygon class="st2" points="65.9,29.3 65.8,29.7 67.2,29.1 	"/>
	<path class="st2" d="M36.6,24.8l1.2-0.3C37.3,24.6,36.9,24.7,36.6,24.8z"/>
	<path class="st2" d="M27.5,26.2l-0.2,0.2C27.8,26.2,27.9,26.1,27.5,26.2z"/>
	<path class="st2" d="M38.3,22.9c-1.9-0.1-4-0.3-3.7,0.1l0.6,0.3C36.5,23,37.5,22.9,38.3,22.9z"/>
	<path class="st2" d="M74,19.4c0.2,0,0.4,0,0.6,0c0.4-0.2,0.8-0.4,1.2-0.6C75.3,19,74.7,19.2,74,19.4z"/>
	<path class="st2" d="M72.9,21.3l-2.5,0.1C71,21.4,71.8,21.4,72.9,21.3z"/>
	<path class="st2" d="M56.9,21.4L55.5,22C57.7,21.7,56.7,21.7,56.9,21.4z"/>
	<path class="st2" d="M18.2,29.4c-0.7,0-1.4,0.1-2,0.1l0.4,5c0.7,0,1.4,0,2-0.1c-0.7-0.1-1.4-0.1-2-0.1l-0.4-4.6
		C17.2,29.7,17.9,29.7,18.2,29.4z"/>
	<path class="st2" d="M33.6,29.8c0.8-0.2,1.1-0.3,1.1-0.4C33.8,29.6,33.4,29.8,33.6,29.8z"/>
	<path class="st2" d="M23.2,34.1c-0.3,0-0.6,0-0.9,0c-1.2,0.2-2.3,0.3-3.8,0.4C20,34.6,21.7,34.5,23.2,34.1z"/>
	<path class="st2" d="M68.3,10.8c0.1,0,0.3-0.1,0.4-0.1C68.7,10.7,68.5,10.7,68.3,10.8z"/>
	<path class="st2" d="M38.8,19.4c0.5-0.2,1.3-0.5,2.1-0.8C40.5,18.7,39.9,18.9,38.8,19.4z"/>
	<path class="st2" d="M52.9,24.1C54.1,23.9,53.1,24,52.9,24.1L52.9,24.1z"/>
	<path class="st2" d="M58.8,24.9c-0.2,0.1-0.4,0.2-0.5,0.3C58.5,25.1,58.6,25,58.8,24.9z"/>
	<path class="st2" d="M34.9,30.4L34.9,30.4C34.7,30.3,34.7,30.3,34.9,30.4z"/>
	<path class="st2" d="M54.7,24c-0.5,0-1,0-1.5,0.1C53.4,24.1,53.9,24.1,54.7,24z"/>
	<path class="st2" d="M54.4,23.9c0.4,0,0.7-0.1,1-0.1C55.6,23.7,55.5,23.6,54.4,23.9z"/>
	<path class="st2" d="M51.3,24.3c0.7-0.1,1.3-0.2,1.9-0.2c-0.2,0-0.3,0-0.3,0C52.6,24.1,52.1,24.2,51.3,24.3z"/>
	<path class="st2" d="M43.4,22.2c-0.1,0-0.2,0-0.3,0C42,22.6,42.5,22.5,43.4,22.2z"/>
	<path class="st2" d="M28.1,25.2c-0.1,0-0.1,0-0.1,0C28.1,25.2,28.1,25.2,28.1,25.2L28.1,25.2z"/>
	<path class="st2" d="M32.3,24.2c-1.7,0.8-2.8,0.9-4.2,1.1l1.6,1L32.3,24.2z"/>
	<path class="st2" d="M58.1,19.8l-3,0.4c3.4-1.5,5.9-2.1,3.1-1.8c-0.1,0.7-2.9,1.5-5.7,2.2s-5.7,1.4-5.8,2.1l-2,0.1
		c0.6-0.1,0.6-0.2,1.2-0.3c-3.9,0.2-2.7,1.6-7.6,2.3c-1.7,0.2-2.9,0.2-1.8-0.1l-3.8,1c-1.1,0.2-0.9-0.1,0.2-0.3
		c-1.9,0.3-3.9,0.7-5.8,1l0,0c-0.8,0.3-2.7,0.9-3.6,1.2c-1.5,0,0.7-0.2,0.3-0.4l-3.2,0.7c-1.3-0.2,1.3-0.8,3.5-1.1
		c-3.1-1-2.6,0.7-9.2,0.6l3-0.5c-1.4-0.4-3-0.3-4.9-0.2l0.7,6.7c0.9-0.1,1.8-0.2,2.9-0.3c-0.4,0-1.8,0-3,0l-0.6-6
		c1.5,0.2,2.5,0.5,0.6,0.8c-0.2,0-0.3,0-0.5,0l0.4,4.4c0.9-0.1,2.1-0.4,3.6-0.9c0.1,0.5,1.9,0,4.2-0.5l-0.1,0.7
		c2.5-0.7,2.2-0.9,3.6-1.5c2.8-0.5,3.4-0.1,4.1,0.2c4.4-0.8-3.2-0.2,2.1-1.3c3.7-0.5,6.3-1.2,10.7-2.4c2.6-0.3-0.4,0.5,0.5,0.5
		l2.2-0.9c0.6-0.1,0.4,0.1,0.3,0.2c1.9-0.5,0.1-0.6,3.1-1.4c0.7-0.8,6.4-0.1,10-1.5c0.9,0-0.4,0.5-0.1,0.6c5.1-1.4,4.4-1.1,8.6-2.5
		l3.7-0.2c-2.7-0.1,0.6-1.1,3.6-2c-1-0.1-1.8-0.2-2.4-0.2l4.7-1.1c0.6,0,0.1,0.3-0.6,0.7c0.3-0.1,0.6-0.2,0.9-0.3
		c1.7,0,0.9,0.5-0.3,1c-0.6,0-1.2-0.1-1.8-0.1c-1.1,0.6-2.2,1.1-1.9,1.5c0.3-0.1,0.9-0.3,1.5-0.4c-0.3,0.1-0.5,0.3-0.3,0.3
		s0.6-0.2,1.4-0.4l1.2,0.5l0.2-0.3l6.2-0.5L82,15.9l0,0c-4.4,1.4-8.1,3.1-15.1,4.6c1.7-0.8,0.3-0.9,0.3-1.5c2,0.3,5.4-1.2,9.1-1.7
		c-1.9,0.3-1.5-0.1-1.1-0.3l-6.5,1.7c0.1-0.5-1.4-0.1-3.2-0.1c1.4,0.8-4.8,1.5-7.4,2.2c-0.2-0.3,0.4-0.7,3.6-1.2
		c-3.7-0.1-4.5,1.9-8.1,1.9c0.8-0.1,1.2-0.2,1.5-0.4c-1.8,0.6-6.4,1.1-5.3,0.7l0.8-0.1c-5.3,0.8-16,2.7-16.7,3.6
		c-0.1-0.1,0.6-1.1,0.9-1.3l-9,4.4c0.7-0.8-2.6-2,1.7-3.1c-1.3,0.1-2.8,0.3-5.4,0.9c0.9,0,2.3,0.7,1.1,0.9c-3.1-0.2-2.4-0.1-5.8,0
		l0.5,3.5c-0.1,0.1,0.2,0,0.5,0c-1.3,0.1,0-1.3,2-1.7c-0.3,0.2,0.3,1.1-0.4,1.3c1.6-0.7,3.2-1.4,4.8-2.1c-1.2,0.4-0.1,1,1.1,1.1
		c-0.5-0.1,4.3-0.8,5.6-1.1l-2.2,0.1c5.7-0.8,5.4-2.5,11.1-3.2c-0.7,0.3-1.6,1.6,1.3,1.4c1.3-0.7,5.6-3.4,10.6-4.3l1,0.2l3.8-0.7
		c-2.4,1-9,3.4-12.5,4.6c2.1,0,0.6,0.3,3.8-0.1c1.1,0.2-1.7,0.6-2.6,0.8c2.5-0.2,4.9-0.4,7.4-0.6c-0.4-0.6,5.6-1.1,5.3-1.7
		c-2.7,0.4-5.4,0.9-8,1.4c-0.4-0.6,4.5-2.4,9.8-2.6c1.4,0.2-0.9,1.2-0.8,1.5c0.7-0.3,5-0.8,5.5-0.6l-2.2,0.5c1.2,0,2.2-0.1,3.2-0.3
		l-0.6-3.8c-1.3,0.8-2.7,1.6-4.8,2c-1.2,0.4-3.6,0.3-3.8,0.8c2,0.1,3,2.2,1.8,3.2c-0.2,0.1-1.8,0.4-3.6,0.6
		c-1.7,0.3-3.6,0.4-4.3,0.5c-2.1-0.1,2.7-2.1,1-2.2c0,0.2-1.1,0.7-1.5,0.9c-1.3,0.1,0.4-0.7-2.3,0c-0.4,0.8-5.6,1-1.2,0.8
		c-2.7,0.7-2.9,0.4-6,1c1.1,0.3-2.7,1.9-5.4,2.4c0.1-0.2-0.5-0.3-0.8-0.4c-5.6,0.6-8.6,0.5-13.8,0.9c-0.5-0.1-3-0.1-2-0.5
		c-0.7,0.2-1.3,0.4-2.7,0.5l0.1,1.4c0.1,0,0.2,0,0.3,0c1.6,0.1,0.7,0.2-0.2,0.4l0.2-2c1-0.1,2.1-0.2,0.9-0.5
		c-0.1,0.1-0.4,0.2-0.9,0.3l0.2,2.4c1.3-0.4,3.8-0.9,5.4-1.3c-0.6-0.4-3.2,0.2-5.5,0.7l-0.1-1.3c0.8-0.1,1.5-0.3,2.1-0.4
		c0,0.3-0.7,0.8-2,1.2v-0.4c1.5-0.7,4.1-1.4,7.2-2.1c4.3-0.8,1.9,0.3,2.7,0c8.1-1,6.7-2.4,13.5-2.8c2.7,0.1,0.2,1,0.9,1.3
		c-3.5,0.7-5.4,0.4-7.8,0.8l3-0.2c-1.1,0.3-3.4,0.8-4.7,0.8c2.3,0.1,13.7-1.9,20-2.3c1.1-0.3,3-0.8,2.1-0.9l-2,0.4
		c-1.9-0.2,3.7-1.1,1.1-1c2.6-0.7,5.5-1.6,9.3-1.9l0.8,0.5c-0.1-0.2-2.5,0-3.5,0.3c1.5-0.5,5.8,0,7.5-0.7c-0.9-0.1-1.8-0.2-2.7-0.3
		c2-0.4,4.5-0.9,7.1-0.6l9,1.2l-9,3.3c-0.8,0.3-1.6,0.5-2.5,0.7c1.4,0.1,0.9-0.2,2.6-0.3l10.6-0.4l-10.8-4.7
		c-0.2-0.1-0.4-0.2-0.6-0.3c1.1,0.6-1.3,0.1-3.4,0.2c-2.1,0-4,0.2-2.2,0.5c-2.6-0.6-4.3,0.1-7.5-0.1c0.1,0.2,1.2,0.2-1.6,0.5
		c-0.1,0.1-0.4,0.2-0.6,0.3c-0.1,0-0.1,0-0.2,0c0.1,0,0.1,0,0.2,0c-0.1,0-0.1,0.1,0.1,0c0.7,0,1.2,0,1.4,0.1
		c-1.3,0.7-5.7,1.3-7.2,1.7c-1.7,0.1,0.7-0.3-0.3-0.4L46.8,26c-0.3-0.4-4.4-0.1-0.6-0.9l-3.5,0.5c-2.1,0.1-4.9,0.4-6.6,0.8
		c-1.7,0.1-4.1,1.1-2.7,0.5L28,28h-0.3c-3.7,0.5-7.5,1.4-11.5,2l0.3,4.2c1.9-0.1,3.8-0.2,5.8-0.1c1.8-0.2,3.7-0.5,6.8-0.7l0.6,0.3
		c2.3-0.3,7.1-0.4,8.1-0.9c1.3,0.4,4.2,0,7.3-0.6c3.1-0.6,6.3-1.5,8.4-1.9l0.1-0.5c2.8-0.7,5.5-1.6,8.9-3.1l-0.3-0.3
		c1.3-0.6,2.9-1.2,4.7-1.9l10-3.7l-10.6,0.1c-2.4,0-5.1,0-7.8,0.2c0.3-0.2,1.5-0.2,2.4-0.2c-5.8-0.6-12.1,1.7-17.4,1.7
		c-1.3,0.3-2.2,0.4-3.2,0.4c0.1,0,0.2,0,0.3-0.1c-0.1,0-0.3,0-0.5,0.1c-0.6,0-1.2,0-1.8,0c0.6,0,1.1,0,1.5,0c-1,0.1-2.5,0.4-4,0.7
		l-0.7-0.4c-0.1,0-0.2,0-0.3,0.1c-1.5,0.1-1.1,0.4-0.3,0.6c-0.7,0.2-1.4,0.4-1.9,0.6C31.3,24,28.7,25.5,27,25
		c-1,0.6-7.4,1.7-8.1,2.7c-0.1-0.1-0.5-0.1,0.3-0.2c-0.4,0.1-0.9,0.1-1.3,0.2l0.3,2.5c1.2-0.1,2.4-0.3,3.4-0.7l0.8,0.5l3.5-1.4
		c2.2,0,3.2,0.1,1,0.9c5.1-1.6,4.2-1,8.6-2.4l-0.2,0.4c1.6-0.3,4.1-1.2,5.1-1.1c3.6,0.1,17.6-2.9,26.8-3.7c-1.9-0.8,4.3-0.2,4.6-1.1
		c0.6,0.2,1.9,0.1,0.4,0.6c4.6-1,7.1-0.8,10.2-2c0.6,0.2-1,0.6-0.5,0.6c0.2-0.1,0.6-0.2,0.9-0.3l-0.5-4.8c-0.4,0.1-0.8,0.1-1,0.1
		c-0.4-0.1,0.3-0.3,1-0.4l0.6,5.4c-0.1,0-0.3,0.1-0.4,0.1c0.2,0,0.3-0.1,0.4-0.1l-0.6-5.5c-4.4,0.7-4.8,1.6-5,2.4
		c-2.5,0-3.7,0.2-5.4,1c-0.9-0.1-2.3-0.2,0.7-0.7c-1.7,0.2-10.2,1.2-10.3,1.9c-0.5-0.1-2.3,0.3-2.8,0.5c-3.7,0.6-4.1,0.6-7.7,1.3
		l1-0.1c-1.4,1-3,0.7-6,1.3l0.1-0.1c-6.8,0.7-2.9,0.8-9.7,1.4l0.4,0.4c-0.5,1.1-6,0.5-9.8,1.7h1.4c-2.1,0.7-6.1-0.2-8.2,0.1
		c-0.5,0,0.7-0.3,1.3-0.5c-5.6,0.5-0.6,0.8-4.8,1.7c-0.8-0.2,0.9-1-1.9-0.5c-0.4,0-1.4,0.3-2.6,0.6l0.5,5.2c2.7-0.5,6.7-1.4,9.4-1.3
		c-0.9-0.2-1.7-0.3,0.2-0.7c3-0.4,8.2-0.1,10.8-1.4c0.4,0,0.5,0,0.6,0.1c2.3-0.6,7.3-1.7,8.6-2.4c1.2,0.6,4.7-0.3,7.8-1.3
		c3.2-1,6.1-2,6.2-1.2c2.3-0.6,4.6-1.3,6.9-2.2l-0.1,0.2c4.4-1.5,5.8-2.7,7.2-3.7c1-0.4,0.3,0.1,0.3,0.2c0.1-0.1,0.3-0.1,0.4-0.2
		l7-3.3l-7.7,0.1c-6.2,0.1-7,0.3-12.3,1.6L58.2,17c-1.5,0.4-9.6,0.5-15.9,2.4c0.1-0.1,0.2-0.2,0.7-0.4c-2.9,0.8-6.3,1.4-9.4,2
		c-3.2,0.6-6.1,1.3-8.1,2.1l0.7,4.4c1-0.2,1.7-0.5,2.2-0.9c1.6-0.4,3.2-0.7,4.7-1.1c-6.2,0.8,0.8-0.9-1.7-0.8
		c2.4-0.5,6.3-0.5,3.3,0.1h-0.5c-0.5,0.5,1.4,0.3,3.5,0c2-0.3,4.2-0.8,4.1-0.4c6.7-1.4,13.2-3,19.5-4.9l-0.6-3.6
		c-5.2,0.9-10.4,1.7-15.4,2.6l1.4,0.5l-3.9,0.7c-1.1,0-1.5-0.3,1.3-0.8c-1.5-0.1-4.7,1.2-4.7,1.4c-5.5,0.7,2-1.2,0.3-0.9l-2.3,0.5
		h0.5c-1.8,0.6-1.9,1-5.3,1.6c-2.1,0.3-1.2-0.2-2-0.1c0-0.1-0.3,0-1.3,0.2l-5,0.9l2.1,0.2c-2.2,0.7-4.7,0.8-2.3,1
		C21.8,23.2,13,25,7.7,26l0.5,3c1.9-0.5,3.4-0.8,4-0.9c3-1.1,6-1.8,9.7-2.6c-0.9,0.1-1.6-0.4,1.6-1c-1,1.5,6-0.7,8.7-0.3
		c-2.4-0.1,9.2-2,5.4-2.2c2.7-0.5,0.2,0.5,2.3,0.3c6.3-1.8,14.2-2.7,22.1-5.1c0.1-0.2-1.3-0.1,0.4-0.8l4.3-0.4
		c1.5-0.6,1.2-1.4,4.2-1.8c-0.4,0-1.1,0-0.1-0.4c1.6-0.4,3.1-1,4.7-1.5c1.6-0.6,3.1-1.2,4.7-1.8l-0.7-3.2
		c-12.7,2.6-25.2,7-37.8,10.4c2.2-0.5,0.8,0.1-0.8,0.7c1.1-0.3,0.1,0.4,0.3,0.6c-2.2,0.6-4.4,1.2-6.6,1.9c-0.5,0.5-2.2,1.3-3.8,2
		c-1.6,0.7-3.2,1.4-3.4,1.8l2-1c-2.4,1.8,4.2-0.1,4.1,1c2.8-2,8.2-2,12.8-5c1.1-0.2-0.9,0.6-0.2,0.6c1.2-0.8,2.7-1.5,5.5-2.2
		l-0.3,0.2c4-1.4,6.8-2.2,9.8-2.9c3-0.8,6.1-1.5,10.7-2.5L71,12.8c2-0.4,2.4-0.4,3.3-0.5c1.1-0.6-0.3-0.3-1.7,0
		c-1.4,0.3-2.8,0.7-1.9,0c1.5,0.1,5.6-0.9,9.2-1.6l-0.7-3.3c-1.4,0.6-2.8,1.1-3.9,1.4c-1.1,0.3-2,0.5-2.4,0.4c-2.9,1,1,0.2-1.9,1.3
		h-0.8l-0.7,0.6c-1.9,0.6-3,0.5-3.1,0.3c0.5-0.1,1.3-0.5,1.8-0.7c-0.6,0.1-1.4,0.3-2.2,0.6c-0.8,0.2-1.6,0.5-2.4,0.8
		c-1.5,0.5-2.9,1-3.3,1.1c1-0.2,1.9-0.4,2.9-0.6c-8,2.7-18.1,4.5-26,6.7l0.6,0.1c-6,1.7-4.9,0.8-11.6,2.3l0.2-0.1
		c-1.3,0.5-3.1,1-4.9,1.3c1.7-0.6-3.3,0.2-1.1-0.6c-6.5,1.9-3.2,1.1-7.4,2.9l-1-0.1c-1.3,0.6-1.5,0.9-4.2,1.6L8,28.3
		c0.1,0,0.3-0.1,0.6-0.1c-0.3,0.1-0.5,0.2-0.6,0.2l-0.3-1.6c0.4-0.2,0.2-0.2,0-0.3L8,28.7c0.5,0.1,1.4,0.1,0.1,0.5l-7.3,2.6L7.6,26
		c0,0,0.2-0.1,0.3-0.1c-0.1,0-0.2,0-0.3,0l0.5,3.4c6.9-0.6,10-2.7,13.4-2.2c3.1-1.6-6.2,0.6-4.4,0c-1.6,0,2.6-1.2,4.8-1.6
		s4,0.6,9.6-0.5c-0.6,0.1-0.6,0.2-1.2,0.3c2.1-0.1,4.1-1.1,6.7-1.2c1.4-0.9,3.4-0.6,3.7-1.4l-5.2,1.1c2.9-0.8,5.5-2.2,10.4-2.6
		c-0.4,0.2-1.8,0.7-2.7,1c1.4,0,2.7-0.7,4.2-0.7c-0.3,0.8-6.3,1.3-9.3,2.5c1.6,0,5.9-1.7,4.4-0.5c2.1-1.5,5.6-0.9,9.3-2.4l-0.2,0.5
		c0.6-0.2,1.8-0.6,2.9-0.8l-1.9,1c2.9-1.1,5.8-0.7,8.7-1.4L60.5,15l-0.3,0.1c0.1,0,0.2-0.1,0.3-0.1l0.9,5.3
		c-5.7,1.1-1.2-0.3-3.8-0.2c1.7-0.5,2.9-0.7,3.7-0.8L60.7,16c-3,0.7-2.8-0.4-9.2,1.6c1.1-0.4,4.3-0.9,2.6-0.2
		c-1.6,0.4-3.8,0.7-4.8,0.7c-5.6,1.5,0.9,0.3-1.4,1.1c-2-0.1-2.7,0.9-5.2,1.6l-0.1-0.5c-6.5,1-1.6,1.4-7.4,2.1l2.4-1.1l-3,0.7
		l0.6-0.6c-3.2,0.9-4.3,1-7.5,1.3c0.6,0.2,0,0.6-1.6,1l0.5,3.1c0.4-0.2,0.9-0.3,1.5-0.5c2-0.3-1,0.7,3-0.5c-0.8,0.5-1.8,1.2-3.6,1.3
		c-0.1,0.2-0.6,0.4-0.8,0.6L26,22.9c0.1,0,0.2-0.1,0.2-0.1c-0.1,0-0.2,0-0.2,0l0.8,5.1c2.1-0.3,5-1.4,6.4-1.8
		c-0.6,0.1-1.2,0.3-1.6,0.3c1.9-0.7,3.8-1.4,5.7-2.1c0.9-0.1,0.2,0.3-0.5,0.6c1.2-0.3,1.9-0.7,3.7-1.2c-0.4,0.5-0.2,0.8-2.6,1.6
		c1.8-0.6,3.6-1.1,5.5-1.7c0.4,0.1,2.9-0.1,2.2,0.2c3.1-0.4,7.5-2.1,11.6-2.3c0.2-0.1,0.6-0.2,1.5-0.4c3.9-0.4,7.3-0.2,11.9-1
		l1.1,0.2L70.6,15c-0.5,0.1-1,0.2-1.5,0.3c-3.2,1.7,3.5-0.7-1.9,2.1c-3.9,1.8-1.6,0-3.1,0.4c-1.9,1.1-5.3,2.9-9.2,3.3
		C55.9,20.4,57,20.2,58.1,19.8z M14,27.9c0.9-0.2,2.6-0.6,3.2-0.4C16.3,28.2,15.5,28,14,27.9z M80.7,19.3c-0.6,0.2-1.6,0.3-2.8,0.3
		C78.7,19.4,79.7,19.3,80.7,19.3z M39.9,26.3C39.9,26.4,39.9,26.4,39.9,26.3C37.9,26.5,38.6,26.4,39.9,26.3z M44,26
		c0.4-0.1,0.4-0.2,0.2-0.2C43.9,25.9,43,26,42,26.2C42.3,26.2,42.8,26.2,44,26z M30.4,21.4h0.8C29.4,21.8,29.9,21.6,30.4,21.4z"/>
	<path class="st2" d="M73.1,21.1c-0.3,0-0.3-0.1-0.4-0.2C72.3,21,72.3,21.1,73.1,21.1z"/>
	<path class="st2" d="M57.1,21.3L57.1,21.3c-0.2,0-0.2,0.1-0.2,0.1L57.1,21.3z"/>
	<path class="st2" d="M50.5,25.8c0.8-0.1,1.3-0.2,1.6-0.1C52.2,25.6,51.8,25.6,50.5,25.8z"/>
	<path class="st2" d="M65.3,22.3c-0.9,0.1-1.8,0.2-2.7,0.3c1.3-0.2,1.8-0.1,2.4-0.1C65,22.5,64.5,22.3,65.3,22.3z"/>
	<path class="st2" d="M53.5,29.5c-0.4,0.1-0.8,0.2-1.2,0.3l0.1,0.2C54.1,29.7,55.2,29.3,53.5,29.5z"/>
	<path class="st2" d="M67.9,23.8c0.2,0.3,1.3,0.3,2.8,0.5l4.6,0.6l-4.5,1.5c-0.3,0.1-0.6,0.2-0.9,0.3c0.1,0,0.2-0.1,0.3-0.1
		C70,27,70.3,27,70.8,26.9l6.2-1.6L70.7,24C70.1,23.8,69,23.8,67.9,23.8z"/>
	<path class="st2" d="M69.4,26.9c-0.5,0.2-1.1,0.3-1.6,0.5C67.6,27.7,68.5,27.3,69.4,26.9z"/>
	<path class="st2" d="M49,25c0.9,0,0.5-0.6,1-0.5C50.9,23.8,44.4,25.9,49,25z"/>
	<path class="st2" d="M69.3,25.3l-0.6-0.6c-0.4,0.1-0.7,0.2-1,0.3C68.2,25.1,68.8,25.2,69.3,25.3z"/>
	<path class="st2" d="M55,26.1l2.9-0.3c-0.1-0.1,0.3-0.2,0.8-0.3C56.9,25.8,54.9,26,55,26.1z"/>
	<path class="st2" d="M58.7,25.5c0.9-0.1,1.8-0.3,2.3-0.4C60.5,25.2,59.4,25.4,58.7,25.5z"/>
	<path class="st2" d="M65.4,25.3h-0.9c-0.7,0-1.4,0.1-2,0.2C63.4,25.4,64.4,25.3,65.4,25.3z"/>
	<path class="st2" d="M24.1,30.5L21,31.1c-0.3,0.2,0.6,0.2,1.7,0C23.5,30.8,24.6,30.6,24.1,30.5z"/>
	<path class="st2" d="M33.7,30.4c-0.9,0-0.9-0.1-1.4-0.2v0.6L33.7,30.4z"/>
	<path class="st2" d="M24.6,31.9c-0.3,0.2-4.5,1.1-0.5,0.5C24.4,32.2,27.5,31.6,24.6,31.9z"/>
	<polygon class="st2" points="55.6,26.2 54.8,26.5 55.1,27.4 	"/>
	<path class="st2" d="M36,28.3c3.7-0.3,0.8-0.7,4.2-0.9c0.8-0.4-2.8,0.1-1.9-0.2C36.1,27.8,34.9,27.9,36,28.3z"/>
	<path class="st2" d="M38.3,27.2c0.4-0.1,0.7-0.2,1.1-0.3C38.8,27.1,38.5,27.2,38.3,27.2z"/>
	<polygon class="st2" points="30.3,22.4 27.9,23.1 29.5,22.8 	"/>
	<path class="st2" d="M26.1,25l-0.7-0.4l-1.2,1.2C24.7,25.5,25.7,25,26.1,25z"/>
	<path class="st2" d="M20,32.3l0.2-0.2c-0.4-0.1-0.9,0-2.1,0.2H20z"/>
	<polygon class="st2" points="39.5,23.6 39,23.7 40.1,24.1 	"/>
	<path class="st2" d="M65.6,16c-1,0.4-2.2,1-3.2,1.3C64.6,16.4,66.1,16.6,65.6,16z"/>
</g>
<g>
	<text transform="matrix(1.2173 0 0 1 18.9932 74.4482)" class="st3 st4 st5">A</text>
</g>
</svg>
