<?xml version="1.0" encoding="utf-8"?>
<!-- Generator: Adobe Illustrator 24.3.0, SVG Export Plug-In . SVG Version: 6.00 Build 0)  -->
<svg version="1.1" id="Layer_1" xmlns="http://www.w3.org/2000/svg" xmlns:xlink="http://www.w3.org/1999/xlink" x="0px" y="0px"
	 viewBox="0 0 300 300" style="enable-background:new 0 0 300 300;" xml:space="preserve">
<style type="text/css">
	.st0{fill:#626DD1;}
	
		.st1{opacity:0.97;fill:#FFFFFF;stroke:#333333;stroke-width:7;stroke-linecap:round;stroke-linejoin:round;stroke-miterlimit:10;enable-background:new    ;}
	.st2{fill:#E57777;stroke:#333333;stroke-width:7;stroke-miterlimit:10;}
</style>
<rect x="79.1" y="162.9" class="st0" width="190.6" height="51.5"/>
<path class="st1" d="M258.4,145.1l0.3-38.1h-16.5V89.6h-22.3V107h-35.1l-9.9,38.1c-57.3-0.4-114.8-1-114.8-1l9.2,89.9h199l20.3-89.9
	C287.2,144.7,275.7,144.9,258.4,145.1z M107.3,196.1H86.1v-14.9h22.2L107.3,196.1z M141.2,196.1h-21.1v-14.9h22.2L141.2,196.1z
	 M177.3,196.1h-21v-14.9h22.2L177.3,196.1z M213.5,196.1h-21.2v-14.9h22.2L213.5,196.1z M249.6,196.1h-21.1v-14.9h22.2L249.6,196.1z
	"/>
<path class="st2" d="M204.4,41.1c-1.6-4.4-7.3-8.5-13.9-9.5c-6.6-1.2-20.2,9.8-20.2,9.8c-10.2,8.2-19.3,16.8-27.6,25.3
	c-15.6,0.5-52.6,1.4-67.3-0.3c0,0-2.3,0.1-4.3,2.7c-1.7,2.6-11,15.2-11,15.2s0.3,3.2,5.9,3.5c2.3,0.1,13.2,1.8,25.1,3.7
	c-0.2,0.4-0.3,0.8-0.3,1.4c0,0-0.9,2.7,2.4,3.5c2.4,0.5,3.7-2.2,3.7-3.9c0.9,0.1,1.8,0.3,2.8,0.5c-0.6,1-1.7,3.6,0.1,5.3
	c2.3,2.2,3.5,1,5.1-1.9c0.5-0.9,0.2-1.8-0.2-2.6c4.6,0.8,9,1.5,12.6,2.2c-16,19.5-24.3,33.9-24.3,33.9c-0.9,1.5-1.6,3.1-2.3,4.5
	H70.2c0,0-3.3-0.5-5.1,2.6c-1.7,3.1-7.6,11.1-7.6,11.1s-0.8,1.3,4.2,2.3c4.2,0.8,20.4,3,25.6,3.6c0.5,0.9,1,1.5,1.7,2.2
	c2.1,6.3,7.3,22,8.9,26.1c2.1,5.3,3,4,3,4s5.5-8.2,7.9-10.8c2.3-2.6,1-6,1-6l-3.6-16.6c14.4-10.3,28.1-21.2,40.3-31.8
	c1.2,3.3,3.1,9.5,5.4,16.7c-0.6-0.4-1.3-0.4-2.2,0.3c0,0-2.5,0.8-1.2,4.1c1,2.7,4,2.1,5.1,1c0.3,1,0.6,1.9,0.9,3
	c-1.2,0.1-3.3,0.6-3.6,3.2c-0.3,3.5,1.3,3.7,4.4,3.5c0.6,0,0.9-0.4,1.2-0.6c4.5,14,8.8,27.6,9.4,30.5c1.3,6,4.2,5.8,4.2,5.8
	s9.2-12.6,11.2-15c2-2.6,1.6-5.1,1.6-5.1c-3.9-14.4-9.6-49.9-12.5-68.9c15.7-15.3,26.3-27.8,29-33.4C204,55.9,206.1,45.5,204.4,41.1
	z"/>
</svg>
