<?xml version="1.0" encoding="utf-8"?>
<!-- Generator: Adobe Illustrator 24.3.0, SVG Export Plug-In . SVG Version: 6.00 Build 0)  -->
<svg version="1.1" id="Layer_1" xmlns="http://www.w3.org/2000/svg" xmlns:xlink="http://www.w3.org/1999/xlink" x="0px" y="0px"
	 viewBox="0 0 300 300" style="enable-background:new 0 0 300 300;" xml:space="preserve">
<style type="text/css">
	.st0{fill:#E57777;stroke:#333333;stroke-width:7;stroke-miterlimit:10;}
	.st1{fill:#FFFFFF;stroke:#333333;stroke-width:7;stroke-miterlimit:10;}
	.st2{fill:#E57777;stroke:#333333;stroke-width:7;stroke-linecap:round;stroke-linejoin:round;stroke-miterlimit:10;}
	.st3{fill:#68C15B;stroke:#333333;stroke-width:7;stroke-miterlimit:10;}
	.st4{fill:#68C15B;stroke:#333333;stroke-width:7;stroke-linecap:round;stroke-linejoin:round;stroke-miterlimit:10;}
</style>
<g>
	<path id="XMLID_718_" class="st0" d="M225.1,155.3c0,0,7.7,2.7,11.3,7l0,0c1.2,1.5,2.3,3.2,3,4.7c2.2,5.4,4.8,9.5,9.2,21.4
		c4.4,12,7,20.5,10.4,30.1s-13.4,14.2-16.9,15.9c-3.5,1.5-3.1,5.7,6.7,2.7s14.4-0.2,44-12.9c0,0,12.8-4.9-2-5s-14.1,2.8-18.9-1.9
		c-4.9-4.6-10.2-13.4-12.2-17.9c-2.1-4.4-12-27.9-13.9-35.4c-0.6-2.1-0.7-4.1-0.7-6c0,0,1.7-6.4,6.3-12.4
		C251.5,145.7,225.5,151.3,225.1,155.3z"/>
	<path id="XMLID_717_" class="st1" d="M175.7,73.9c0,0,4.6,30.9,9.2,45.6c4.5,14.8,25.6,40.1,49.8,35.5
		c24.2-4.8,27.8-28.5,19.2-49.8s-28.5-45.9-28.5-45.9s-18.5,6.6-24.2,8.3C195.3,69.3,179.4,72.8,175.7,73.9z"/>
	<path id="XMLID_716_" class="st2" d="M256.3,112.3c-2.5,0.6-6.3,6-9.6,7.2c-5.2,1.9-12.8,3.8-20.7,5.9c-7.8,2.1-8,2.8-15.8,4.6
		c-3.3,0.7-14.6,3.1-17.9,3.6c1.6,1.6,10.1,10.9,21,16.4c9.4,4.8,20.8,6.5,28.1,4c6.3-2.1,12.8-9.1,15-16.8
		C259.2,126.5,256.4,114.4,256.3,112.3z"/>
	<path id="XMLID_5_" class="st3" d="M95.8,148.9c0,0,4.2,6.2,4,11.5l0,0c-0.1,1.8-0.6,3.7-1.1,5.3c-2.2,5.4-3.1,9.9-8.3,21.5
		s-9.4,19.6-13.6,28.9c-4.3,9.2-21.2,4-25.3,3.3c-4-0.7-6.6,2.7,3.4,5.8c10.2,3,11.8,7.5,45,13.4c0,0,13.8,3.1,2-5
		c-11.8-8-13.5-5.3-13.9-11.5s1.7-15.9,3.3-20.4c1.5-4.5,10.7-28.2,14.8-34.9c1.1-1.9,2.5-3.6,3.9-5c0,0,6.1-4.1,14.3-6.3
		C124.2,155.4,99.1,146,95.8,148.9z"/>
	<path id="XMLID_4_" class="st1" d="M115.6,59.2c0,0-18.9,26.5-26.1,40.4c-7.2,14-8.7,44.9,14.1,54.1c23,9.2,43.3-7.3,51.9-28.5
		s10.9-51,10.9-51s-19.8-4.6-25.6-6.4C134.9,66.1,119.4,60.3,115.6,59.2z"/>
	<path id="XMLID_1_" class="st4" d="M153.4,129.4c-2.9-1.1-6.2-2.8-10.5-3.9c-6.7-1.8-15.5-5.3-25-8.7s-10.2-2.7-19.3-6.7
		c-3.8-1.6-7.7-3.1-11.3-5c0.1,2.6-3.4,14.6-1.5,25.5c1.8,10.2,8.6,19.3,15.9,22.1c7.9,3,21,1.4,31.3-4.4
		C143.8,142.2,151.7,131.6,153.4,129.4z"/>
</g>
</svg>
