<?xml version="1.0" encoding="utf-8"?>
<!-- Generator: Adobe Illustrator 24.3.0, SVG Export Plug-In . SVG Version: 6.00 Build 0)  -->
<svg version="1.1" id="Layer_1" xmlns="http://www.w3.org/2000/svg" xmlns:xlink="http://www.w3.org/1999/xlink" x="0px" y="0px"
	 viewBox="0 0 300 300" style="enable-background:new 0 0 300 300;" xml:space="preserve">
<style type="text/css">
	.st0{fill:#68C15B;stroke:#333333;stroke-width:6;stroke-miterlimit:10;}
	.st1{fill:#FFFFFF;stroke:#333333;stroke-width:6;stroke-miterlimit:10;}
	.st2{fill:#E57777;stroke:#333333;stroke-width:7;stroke-miterlimit:10;}
	.st3{fill:#626DD1;stroke:#333333;stroke-width:6;stroke-miterlimit:10;}
</style>
<path class="st0" d="M180.2,202.9l2.2,12.4c0.4,2.3-0.6,4.5-2.5,5.6c-31.5,19.5-71,16.3-83.6,14.5c-2.4-0.3-4.3-2.1-4.7-4.5
	l-2.2-12.3c0.4,0.1,0.8,0.3,1.1,0.3c13.3,1.8,55.4,5.3,89-15.5C179.8,203.2,180,203,180.2,202.9z"/>
<path class="st1" d="M192.9,129.3c-3.4-15-16.3-25.2-32.6-23.1c-5.3,0.6-10,2.5-14,5.1c-7-8.7-18.7-13.3-31.1-11.2
	c-12.4,2.2-21.8,10.6-25.3,21.1c-4.7-1.1-9.8-1.1-14.9,0.1c-16,3.6-24.5,17.7-22.8,32.9c1.9,15.8,14,27.2,30.5,26.4l7.5,42.8
	c0.2,1.2,0.7,2.2,1.6,3c-0.9-0.7-1.4-1.8-1.6-3l-1.2-6.8c0.4,0.1,0.8,0.3,1.1,0.3c13.3,1.8,55.4,5.3,89-15.5
	c0.3-0.2,0.4-0.4,0.6-0.4l1.2,6.8c0.4,2.3-0.6,4.5-2.5,5.6c-1.7,1.1-3.5,2-5.2,3c1.7-1,3.5-1.8,5.2-3c1.9-1.2,3-3.4,2.5-5.6
	l-7.6-43.1C189,159.7,196.6,144.8,192.9,129.3z M109.9,197.8c0.2,1.1-0.5,2-1.6,2.2l0,0c-1.1,0.2-2-0.5-2.2-1.6l-5.4-30.7
	c-0.2-1.1,0.5-2,1.6-2.2l0,0c1.1-0.2,2,0.5,2.2,1.6L109.9,197.8z M135.3,190.4c0.2,1.1-0.5,2-1.6,2.2l0,0c-1.1,0.2-2-0.5-2.2-1.6
	l-5.4-30.7c-0.2-1.1,0.5-2,1.6-2.2l0,0c1.1-0.2,2,0.5,2.2,1.6L135.3,190.4z M157.8,189.3c0.2,1.1-0.5,2-1.6,2.2l0,0
	c-1.1,0.2-2-0.5-2.2-1.6l-5.4-30.7c-0.2-1.1,0.5-2,1.6-2.2l0,0c1.1-0.2,2,0.5,2.2,1.6L157.8,189.3z"/>
<path class="st2" d="M219.7,118.2l5.9,116.5c0,5.3-4.7,9.5-10.3,9.5h-0.2c-5.7,0-10.3-4.3-10.3-9.5l5.9-116.5
	c-13.9-2.6-24.6-17.4-24.6-35.1c0-19.7,13-35.6,29.1-35.6s29.1,15.9,29.1,35.6C244.4,100.8,233.7,115.6,219.7,118.2z"/>
<path class="st3" d="M262.9,83.6c-3.9,3.2-6.4-1.1-6.7-2.6l0,0V52.6c0-1.8-1.7-3.3-3.8-3.3l0,0c-2.1,0-3.8,1.5-3.8,3.3v35
	c0,0.1,0,0.1,0,0.2c0.3,14.8,4.9,28.6,16.3,32l-6.3,116.8c0,5.3,4.9,9.4,10.9,9.4h0.3c6.1,0,10.9-4.3,10.9-9.4l-6.3-116.8
	c11.4-3.4,16.1-17.2,16.3-32c0-0.1,0-0.1,0-0.2v-35h0.1c0-1.8-1.7-3.3-3.8-3.3h-0.1c-2.1,0-3.8,1.5-3.8,3.3V81l0,0
	c-0.3,1.6-2.6,5.5-5.7,2.7h-0.1c-1.8,0-3.4-1.1-3.6-2.7l0,0V52.6c0-1.8-1.7-3.3-3.8-3.3h-0.1c-2.1,0-3.8,1.5-3.8,3.3V81l0,0
	c-0.3,1.6-1.8,2.7-3.6,2.7h-0.1"/>
</svg>
