<?xml version="1.0" encoding="utf-8"?>
<!-- Generator: Adobe Illustrator 24.3.0, SVG Export Plug-In . SVG Version: 6.00 Build 0)  -->
<svg version="1.1" id="Layer_1" xmlns="http://www.w3.org/2000/svg" xmlns:xlink="http://www.w3.org/1999/xlink" x="0px" y="0px"
	 viewBox="0 0 300 300" style="enable-background:new 0 0 300 300;" xml:space="preserve">
<style type="text/css">
	.st0{fill:#68C15B;stroke:#333333;stroke-width:7;stroke-linejoin:round;stroke-miterlimit:10;}
	.st1{fill:#626DD1;}
	.st2{fill:#FFFFFF;stroke:#333333;stroke-width:7;stroke-linejoin:round;stroke-miterlimit:10;}
	.st3{fill:#E57777;stroke:#333333;stroke-width:7;stroke-linejoin:round;stroke-miterlimit:10;}
</style>
<rect x="147.4" y="192.8" class="st0" width="50.4" height="50.4"/>
<rect x="110.6" y="158" class="st1" width="39.4" height="56"/>
<rect x="191.5" y="153" class="st1" width="39.4" height="56"/>
<path class="st2" d="M103.1,136.8v106.4h52.2v-49.3H190v49.3h52.2V136.8l-69.5-49.5L103.1,136.8z M147.4,202.5h-26.8v-33h26.8V202.5
	z M224.6,202.5h-26.8v-33h26.8V202.5z"/>
<path class="st3" d="M266.9,140.9l-94.2-67.2l-94.2,67c-3.1,0-5.8-15.9-5.8-19.7l0,0c0-3.8,2.7-7.1,5.8-7.1l94.2-66.2l94.2,66.5
	c3.1,0,5.8,3.2,5.8,7.1l0,0C272.6,124.8,270,140.9,266.9,140.9z"/>
</svg>
