<?xml version="1.0" encoding="utf-8"?>
<!-- Generator: Adobe Illustrator 24.3.0, SVG Export Plug-In . SVG Version: 6.00 Build 0)  -->
<svg version="1.1" id="Layer_1" xmlns="http://www.w3.org/2000/svg" xmlns:xlink="http://www.w3.org/1999/xlink" x="0px" y="0px"
	 viewBox="0 0 300 300" style="enable-background:new 0 0 300 300;" xml:space="preserve">
<style type="text/css">
	.st0{fill:#FFFFFF;stroke:#333333;stroke-width:7;stroke-linejoin:round;stroke-miterlimit:10;}
	.st1{fill:#E57777;stroke:#333333;stroke-width:7;stroke-linejoin:round;stroke-miterlimit:10;}
	.st2{fill:#626DD1;stroke:#333333;stroke-width:7;stroke-linejoin:round;stroke-miterlimit:10;}
	.st3{fill:#68C15B;stroke:#333333;stroke-width:7;stroke-linejoin:round;stroke-miterlimit:10;}
</style>
<g>
	<path class="st0" d="M122,68.8v180.6h37.5v-38.5h24.9v38.5H222V68.8h-50H122z"/>
	<polygon class="st1" points="132,104.1 157,104.1 157,79.1 187,79.1 187,104.1 212,104.1 212,134.1 187,134.1 187,159.1 157,159.1 
		157,134.1 132,134.1 	"/>
	<rect x="46.4" y="108.1" class="st0" width="75.6" height="141.3"/>
	<rect x="222" y="108.1" class="st0" width="75.6" height="141.3"/>
	<rect x="64.6" y="129.1" class="st2" width="39.1" height="39.1"/>
	<rect x="64.5" y="182.7" class="st2" width="39.1" height="39.1"/>
	<rect x="222" y="108.1" class="st0" width="75.6" height="141.3"/>
	<rect x="240.3" y="127.2" class="st2" width="39.1" height="39.1"/>
	<rect x="240.2" y="180.8" class="st2" width="39.1" height="39.1"/>
	<rect x="159.5" y="210.9" class="st3" width="24.9" height="38.5"/>
</g>
</svg>
