<?xml version="1.0" encoding="utf-8"?>
<!-- Generator: Adobe Illustrator 24.3.0, SVG Export Plug-In . SVG Version: 6.00 Build 0)  -->
<svg version="1.1" id="Layer_1" xmlns="http://www.w3.org/2000/svg" xmlns:xlink="http://www.w3.org/1999/xlink" x="0px" y="0px"
	 viewBox="0 0 300 300" style="enable-background:new 0 0 300 300;" xml:space="preserve">
<style type="text/css">
	.st0{fill:#E57777;}
	.st1{fill:#626DD1;}
	.st2{fill:none;}
	.st3{fill:#FFFFFF;}
	.st4{fill:#85C7A8;}
	.st5{fill:#333333;}
</style>
<rect x="65.3" y="98.7" class="st0" width="91.3" height="42.7"/>
<rect x="190.1" y="99.7" class="st0" width="91.3" height="42.7"/>
<rect x="85.4" y="144.9" class="st1" width="69.3" height="103.2"/>
<rect x="191.7" y="144.9" class="st1" width="69.3" height="103.2"/>
<path class="st2" d="M200.6,66.2c2.7,0,4.8,0.7,6.5,2.2c5.9,5.3,5.3,19.1,5.2,24.9c0,0.2,0,0.5,0,0.7c3.5-0.1,5.7-0.2,5.7-0.2
	c0-0.7,0-1.7,0.1-2.7c0.3-5.9,0.8-19.5-5.2-24.9c-1.7-1.5-3.8-2.2-6.5-2.2c-3.8,0-8.9,1.5-14.6,4C195.1,66.7,198.1,66.2,200.6,66.2z
	"/>
<path class="st2" d="M156.6,112.2c2.2,0,4.3,0.8,5.9,2v-10.1h-22v6.7h16v1.4H156.6z"/>
<rect x="140.5" y="152.7" class="st2" width="7.2" height="5.2"/>
<path class="st2" d="M90.6,66.2c7,0,18.5,4.9,30.5,12.9c10.2,6.8,16.6,13.2,18.4,16c0.4,0,0.7,0,0.8,0c3.9-0.5,5.2-1.1,5.5-1.4
	c-0.9-2.2-7.6-9.3-18.9-16.9c-12-8.1-23.4-12.9-30.5-12.9c-2.7,0-4.8,0.7-6.5,2.2l-0.1,0.1C90.2,66.2,90.3,66.2,90.6,66.2z"/>
<path class="st2" d="M46.2,105.2v5.7H121c0.8,0,1.4,0.6,1.4,1.1v32.8h9v-40.9H47.6C46.9,104,46.2,104.6,46.2,105.2z"/>
<polygon class="st2" points="171.3,160.5 227.8,160.5 227.8,248.1 237.7,248.1 237.7,152.7 171.3,152.7 "/>
<path class="st2" d="M255.2,104h-83.7v6.9h75.3c0.8,0,1.4,0.6,1.4,1.1v32.8h7c0.8,0,1.4-0.6,1.4-1.2v-38.3
	C256.7,104.6,256,104,255.2,104z"/>
<path class="st3" d="M156.6,112.2v32.7h5.9v-30.7C160.9,113,158.8,112.2,156.6,112.2z"/>
<path class="st4" d="M16.7,144.5h0.9c-0.5-1.1-0.9-2.3-0.9-3.6V144.5z"/>
<g>
	<path class="st5" d="M276.9,92.9h-28.7c0.3-0.8,0.4-1.6,0.4-2.4c0-0.6,0-1.5,0.1-2.5c0.3-8,0.9-22.9-7.7-30.7
		c-3.4-3.1-7.7-4.7-12.9-4.7c-13.4,0-30.4,10.7-37.1,15.3c-2.6,1.8-12.5,8.9-18,15.4c-5.3-6.6-15.4-13.6-18-15.4
		c-6.6-4.5-23.6-15.3-37-15.3c-5.2,0-9.5,1.6-12.9,4.7c-8.6,7.7-8,22.6-7.7,30.7c0,1,0.1,1.8,0.1,2.5c0,0.8,0.1,1.6,0.4,2.4H69.2
		c-5.7,0-10.4,4.1-10.4,9.1v5.7v32.6c0,1.2,0.3,2.5,0.9,3.6c1.6,3.3,5.3,5.6,9.7,5.6h8.5v96.8c0,3.6,3.4,6.5,7.4,6.5h67.8H193h67.8
		c4.2,0,7.4-3,7.4-6.5v-96.8h8.5c5.7,0,10.4-4.1,10.4-9.1v-38.3C287.3,96.9,282.5,92.9,276.9,92.9z M234.5,62.8
		c5.9,5.3,5.3,19.1,5.2,24.9c0,1-0.1,1.9-0.1,2.7c0,0-2.2,0.1-5.7,0.2c-13.6,0.6-46.5,1.5-49.7,1.1c-3.9-0.5-5.2-1.1-5.5-1.4
		c0.9-2.2,7.6-9.3,18.9-16.9c5.5-3.7,11-6.7,15.8-9c5.7-2.6,10.8-4,14.6-4C230.7,60.6,232.9,61.3,234.5,62.8z M162.1,244.8v-90.2
		v-5.2h7.2H184v95.4h-5.7L162.1,244.8L162.1,244.8z M178.1,141.5h-16v-34v-6.7H184v10.1v30.7L178.1,141.5L178.1,141.5z M118.1,60.6
		c7,0,18.5,4.9,30.5,12.9c11.4,7.6,18,14.8,18.9,16.9c-0.4,0.2-1.7,0.9-5.5,1.4c-0.1,0-0.5,0-0.8,0c-7.6,0.2-54.4-1.2-54.7-1.5
		c0-0.7,0-1.7-0.1-2.7c-0.3-5.8-0.8-19.4,5.1-24.8l0.1-0.1C113.1,61.3,115.4,60.6,118.1,60.6z M153.2,244.8h-9H86.8v-87.6v-7.8h66.4
		L153.2,244.8L153.2,244.8z M153.2,141.5h-9H85.1H69.2c-0.8,0-1.4-0.6-1.4-1.2v-32.7v-5.7c0-0.7,0.7-1.2,1.4-1.2H153L153.2,141.5
		L153.2,141.5z M259.4,244.8h-9.9h-56.4v-87.6v-7.8h66.4v95.4L259.4,244.8L259.4,244.8z M278.3,140.2c0,0.7-0.7,1.2-1.4,1.2h-7H261
		h-67.8v-34v-6.8H277c0.8,0,1.4,0.6,1.4,1.2v38.4L278.3,140.2L278.3,140.2z"/>
</g>
</svg>
