<?xml version="1.0" encoding="utf-8"?>
<!-- Generator: Adobe Illustrator 24.3.0, SVG Export Plug-In . SVG Version: 6.00 Build 0)  -->
<svg version="1.1" id="Layer_1" xmlns="http://www.w3.org/2000/svg" xmlns:xlink="http://www.w3.org/1999/xlink" x="0px" y="0px"
	 viewBox="0 0 300 300" style="enable-background:new 0 0 300 300;" xml:space="preserve">
<style type="text/css">
	.st0{fill:#FFFFFF;}
	.st1{fill:#68C15B;stroke:#333333;stroke-width:7;stroke-linecap:round;stroke-miterlimit:10;}
	.st2{fill:#FFFFFF;stroke:#333333;stroke-width:7;stroke-linecap:round;stroke-miterlimit:10;}
	.st3{fill:#E57777;stroke:#333333;stroke-width:7;stroke-linecap:round;stroke-linejoin:round;stroke-miterlimit:10;}
</style>
<path class="st0" d="M230.2,87.3c-2.2,0.5-4.7,2.4-4.8,5.3c-0.2,5.4,4.8,6.9,5.4,7.1c1.4,0.4,2.2,1.8,1.9,3.2
	c-0.4,1.4-1.8,2.2-3.2,1.9c-2.7-0.7-7.2-3.2-8.7-8.2c-2.8,9.9-7.8,22.9-16.9,33.7c10.3-2.5,25.7-8.4,32.3-22.6c3.2-7,3-13.8,1.2-17
	C235,86.7,231.6,87,230.2,87.3z"/>
<g>
	<path class="st0" d="M79.2,85.5c-1.8,0.5-3.6-0.6-4.1-2.4s0.6-3.6,2.4-4.1c0.8-0.2,7.1-2.2,6.9-9c-0.1-3.7-3.2-6.1-6.1-6.7
		c-1.7-0.4-6.1-0.9-9,4.2c-2.3,4.1-2.5,12.8,1.5,21.6c8.3,18.1,27.9,25.7,41,28.8c-11.5-13.7-18-30.2-21.5-42.8
		C88.4,81.4,82.6,84.6,79.2,85.5z"/>
	<polygon class="st1" points="129,202.1 118.6,202.1 118.6,225 160.5,225 202.5,225 202.5,202.1 191.7,202.1 160.5,202.1 	"/>
	<path class="st2" d="M257.2,64.2c-3.5-6.2-9.8-9-16.4-7.4c-2.8,0.7-5.3,2.2-7.3,4.1c0.6-3.4,0.8-5.4,0.8-5.4c5.7,0,5.4-5.7,5.4-6
		l0,0c0,0-0.5-5.1-5.1-5.1s-74.2,0-74.2,0s-70,0-74.6,0s-5,5.1-5,5.1l0,0c0,0.3-0.3,6,5.4,6c0,0,0.2,2,0.8,5.4
		c-1.9-2-4.4-3.4-7.2-4.1c-6.6-1.6-12.9,1.2-16.4,7.4c-3.2,5.6-4,16.3,1.3,27.7c10.3,22.6,35.4,30.6,49.5,33.4c0.2,0,5.8,1.3,6,1.3
		c0.1,0,0.1,0,0.1,0c7.2,6.2,15.8,11.3,26.2,14.2c0,6.7,0,22.3,0,35.7c0,17.5-17.6,25.6-17.6,25.6h31.6h31.2c0,0-17.2-8.1-17.2-25.6
		c0-13.3,0-29,0-35.7c10.2-3,18.8-8,26-14.2l0,0c0.2,0,5.7-1.3,6-1.3c14-2.8,39.1-10.8,49.4-33.4C261.2,80.5,260.4,69.8,257.2,64.2z
		 M70.8,89.2c-4.1-8.8-3.8-17.6-1.5-21.6c2.9-5.1,7.3-4.7,9-4.2c2.8,0.7,5.9,3.1,6.1,6.7c0.3,6.8-6.1,8.8-6.9,9
		c-1.8,0.5-2.8,2.3-2.4,4.1c0.5,1.8,2.3,2.9,4.1,2.4c3.4-0.9,9.1-4.1,11.1-10.4c3.5,12.6,10,29.1,21.5,42.8
		C98.7,114.8,79.1,107.2,70.8,89.2z M249.9,89.2c-8.3,18.1-27.9,25.7-41,28.8c11.5-13.7,18-30.2,21.5-42.8c2,6.3,7.7,9.5,11.1,10.4
		c1.8,0.5,3.6-0.6,4.1-2.4s-0.6-3.6-2.4-4.1c-0.8-0.2-7.1-2.2-6.9-9c0.1-3.7,3.2-6.1,6.1-6.7c1.7-0.4,6.1-0.9,9,4.2
		C253.7,71.6,253.9,80.3,249.9,89.2z"/>
</g>
<g>
	<polyline class="st3" points="225.4,217.7 182.7,240.1 190.9,192.6 156.3,158.9 204.1,152 225.4,108.7 	"/>
	<polyline class="st3" points="225.5,217.7 268.2,240.1 260,192.6 294.5,158.9 246.8,152 225.5,108.7 	"/>
</g>
</svg>
