<?xml version="1.0" encoding="utf-8"?>
<!-- Generator: Adobe Illustrator 24.3.0, SVG Export Plug-In . SVG Version: 6.00 Build 0)  -->
<svg version="1.1" id="Layer_1" xmlns="http://www.w3.org/2000/svg" xmlns:xlink="http://www.w3.org/1999/xlink" x="0px" y="0px"
	 viewBox="0 0 300 300" style="enable-background:new 0 0 300 300;" xml:space="preserve">
<style type="text/css">
	.st0{fill:#FFFFFF;stroke:#333333;stroke-width:7;stroke-miterlimit:10;}
	.st1{fill:#626DD1;stroke:#333333;stroke-width:7;stroke-linejoin:round;stroke-miterlimit:10;}
	.st2{fill:#68C15B;stroke:#333333;stroke-width:7;stroke-linecap:round;stroke-linejoin:round;stroke-miterlimit:10;}
	.st3{fill:#E57777;stroke:#333333;stroke-width:7;stroke-miterlimit:10;}
</style>
<g>
	<path id="XMLID_1256_" class="st0" d="M81,214.1c-1.6-1.5-1.9-3.7-2.2-5.9c-7-53.6-10.4-91.8-10.1-146.2
		c37.6,3.9,75.4,3.1,113.3,1.1c-3.9,54.6-7.9,100-23.9,152.4c-24,2.6-48.3,2.6-72.1,0.1C84.3,215.7,82.3,215.4,81,214.1z"/>
	<path id="XMLID_1_" class="st1" d="M81,137.1c-1.5-0.3-9.7,1.3-10.5-0.2c-0.1-18,0.8-21.8,0.3-30.4c37,1.3,69.3,1.2,106.6,1.4
		c-2.1,12.9-0.2,10.1-3.8,30.5C150,138.6,82.3,137.4,81,137.1z"/>
	<path id="XMLID_1253_" class="st2" d="M58,60.5c0-6.7,0-13.6,0-20.4c44.9-0.5,89.9,0.9,134.7,3.8c-0.6,5.4-1.3,10.8-1.9,16.2
		c-0.1,0.9-0.3,1.8-1,2.5c-0.6,0.5-1.4,0.5-2.2,0.6C130.8,65.9,105.6,64.5,58,60.5z"/>
</g>
<path class="st3" d="M294.1,191.7c-0.3-2.3-0.6-4.4-1.3-6.4c-0.3-1-0.6-1.8-1.2-2.8c-0.5-0.9-1-1.7-1.7-2.5c-1-1.2-2.3-2.2-3.6-3.1
	c-1.9-1.2-4-2-6.1-2.3c-2.1-0.5-4-0.6-5.7-0.6c-2.5,0-4.7,0.2-6.2,0.5c-0.9,0.1-1.6,0.2-2.1,0.4c-0.4-2.6-1-5.2-1.8-7.7
	c0,0-0.9-2.5-4.5-2.5c-3.8,0-42.9,1-56.2,0s-67.1-0.5-79.5,0c0,0-6.2-0.7-6,2.5c0,0-5.4,73.6,44.2,86.4c0,0-2.5,4,2.9,5.3
	c5.3,1.2,43.3,1.8,58.8,0c0,0,2.9-1.2,1.7-5c0.3,0,0.5-0.1,0.8-0.1c0,0,8.3-5.8,17.4-15.7c0.3,0.2,0.5,0.4,0.8,0.5
	c0.1,0.1,2.2,1.1,5.4,2.1c1.6,0.5,3.5,1,5.6,1.3c2.1,0.4,4.4,0.6,6.9,0.6c1.7,0,3.2-0.1,5.1-0.4c2.6-0.4,5.2-1.2,7.7-2.5
	s4.9-3.2,7-5.5c2.1-2.5,3.9-5.3,5.4-8.3c2.3-4.5,3.9-9.6,5.1-14.6s1.7-10.1,1.7-14.7C294.2,194.8,294.2,193.2,294.1,191.7z
	 M284.9,205c-0.6,4.4-1.8,9.1-3.5,13.3c-0.8,2.1-1.7,4-2.7,5.9c-1,1.8-2.2,3.4-3.4,4.8c-0.9,1.1-1.8,1.8-2.9,2.6
	c-1.4,1-3.1,1.7-4.8,2.2c-1.7,0.5-3.5,0.6-5.2,0.6c-1.8,0-3.5-0.2-5.2-0.5c-2.5-0.5-4.8-1.1-6.4-1.7c-0.6-0.2-1.2-0.5-1.6-0.6
	c9.6-12.3,18.4-29,17.9-48.2c0.3,0,0.6-0.1,0.9-0.1l0,0l0,0c0.1,0,0.9-0.2,2.1-0.4c1.2-0.2,2.7-0.4,4.4-0.4c0.9,0,1.7,0,2.6,0.1
	c1.3,0.1,2.5,0.5,3.5,1c0.5,0.2,1,0.5,1.4,0.9s0.8,0.6,1.2,1.1c0.3,0.2,0.5,0.7,0.8,1.3c0.4,1,0.8,2.3,1,4c0.3,1.7,0.4,3.7,0.4,5.8
	C285.5,199.1,285.3,202.1,284.9,205z"/>
<path class="st0" d="M219.3,138.1c0,0,4.7,0.9,5.7,0c0.9-0.9,2.3-10.9-3.4-19.6s-9.6-10.9-4.5-21.6c0,0-8.3,5.5-3.4,17.2
	C218.7,125.6,221.8,129.6,219.3,138.1z"/>
<path class="st0" d="M199.8,154.3c0,0,4.7,0.9,5.7,0c0.9-0.9,2.3-10.9-3.4-19.6c-5.7-8.7-9.6-10.9-4.5-21.6c0,0-8.3,5.5-3.4,17.2
	C199.2,141.8,202.3,145.9,199.8,154.3z"/>
</svg>
