<?xml version="1.0" encoding="utf-8"?>
<!-- Generator: Adobe Illustrator 24.3.0, SVG Export Plug-In . SVG Version: 6.00 Build 0)  -->
<svg version="1.1" id="Layer_1" xmlns="http://www.w3.org/2000/svg" xmlns:xlink="http://www.w3.org/1999/xlink" x="0px" y="0px"
	 viewBox="0 0 1396 600" style="enable-background:new 0 0 1396 600;" xml:space="preserve">
<style type="text/css">
	.st0{fill:#A52336;stroke:#1D1E1C;stroke-width:0.5;stroke-miterlimit:10;}
	.st1{font-family:'Helvetica';}
	.st2{font-size:44.5053px;}
	.st3{fill:#2A4B9A;}
	.st4{fill:#E42320;}
	.st5{fill:#66B22E;}
	.st6{fill:#FFFFFF;}
	.st7{font-size:111.5705px;}
</style>
<g>
	<g>
		<g>
			<text transform="matrix(1.0014 0 0 1 607.0713 307.6465)" class="st0 st1 st2">CANnectedArt</text>
		</g>
		<ellipse class="st3" cx="725.1" cy="311.2" rx="3.6" ry="4.7"/>
		<polygon class="st4" points="635.5,310.5 630.6,310.4 633.1,303.6 		"/>
		<path class="st5" d="M675.9,309.8c0-1.5,1.5-3.4,3.4-3.4c1.8,0,3.2,2,3.2,3.4"/>
	</g>
	<g>
		<g>
			<path class="st3" d="M578.1,345.5c2.3-0.9,3.1-1.3,3.3-1.5c0.2-0.2-0.1-0.3,0.3-0.5c-4,1.4-4.7,2.2-4.6,2.3
				C577.1,345.8,578.2,345.5,578.1,345.5z"/>
			<path class="st3" d="M551.8,349.9c-0.5,0.3-1,0.5-1.5,0.8c4.9-2,9.2-3.9,13-5.7C559.8,346.6,556,348.3,551.8,349.9z"/>
			<path class="st3" d="M560.9,332.3c0.7-0.1,1.6-0.2,2.6-0.4c1-0.2,2.2-0.4,3.4-0.7c2.4-0.5,4.9-0.9,7.3-1.3
				c2.4-0.4,4.9-0.9,7.5-1.3c2.5-0.4,5-0.7,8.2-0.1c0,0.1,0.1,0.2,0.2,0.3l-0.4,0.5c-0.3,0.3-0.5,0.6-0.8,0.9
				c-0.5,0.6-1.1,1.1-1.6,1.5c-1,0.9-2,1.7-3,2.4c-0.7,0.4-1.4,0.8-2.1,1.2c-0.9,0.8-1.6,1.5-2.2,2.2c1.7-1.1,3.3-2.2,5.1-3.5
				c0.9-0.7,1.8-1.5,2.8-2.4c0.5-0.5,1-1,1.5-1.6l0.8-0.9l0.4-0.5c0-0.1-0.1-0.2-0.1-0.3c-3.2-0.6-5.5-0.4-7.8,0
				c-2.3,0.4-4.5,0.7-6.7,1c-2.2,0.3-4.5,0.6-7.2,1.1c-1.3,0.3-2.7,0.6-4.1,0.9C563.4,331.7,562.1,332,560.9,332.3z"/>
			<path class="st3" d="M540.2,345.5c-2.4-0.1,8.2-1.4-8.8,1c0.9,0,1.1-0.1,1.6-0.1C534.5,346.2,536.6,346,540.2,345.5z"/>
			<path class="st3" d="M532.9,346.4C525.5,347.3,537.8,346.2,532.9,346.4L532.9,346.4z"/>
			<path class="st3" d="M567.5,339.9c-3.3,1.1-6.5,2-9.8,2.8c2.1-0.1,10.9-2.4,7.7-1.4c2.5-0.8,4.3-1.3,5.4-1.7
				c1.1-0.4,1.6-0.7,1.6-0.7C572.4,338.7,570.4,339.3,567.5,339.9z"/>
			<path class="st3" d="M576.6,336c-1.7,0.7-3.3,1.4-5,1.9C572.5,337.8,573.9,337.4,576.6,336z"/>
			<path class="st3" d="M560.9,341.3c3.6-1,7.2-2,10.7-3.3c-1.4,0.3-1.6,0-4.9,1.6C567.5,339,565.4,340,560.9,341.3z"/>
			<path class="st3" d="M554.7,342.4c-2.8,0.4-6,0.9-7.2,0.9c-1.3,0.1-0.6-0.1,4.4-1.2c-9.4,1.7-13.4,2.3-12.7,2.4
				C539.8,344.7,545.3,344.3,554.7,342.4z"/>
			<path class="st3" d="M554.1,335l7.8-1.6c2.7-0.8,5.3-1.5,7.7-2.1c-0.9,0.2-2.2,0.5-3.7,0.8c-1.5,0.3-3.4,0.7-5.2,1.1
				c-1.8,0.4-3.5,0.8-4.7,1.1C554.9,334.7,554.1,335,554.1,335z"/>
			<path class="st3" d="M556.1,324.4c-0.6,0.4,3.4-0.2,4.2-0.1c2.4-0.6,4.9-1.2,7.3-1.7c-1.9,0.2-4.6,0.7-7,1.1
				C558.3,324.1,556.4,324.5,556.1,324.4z"/>
			<path class="st3" d="M560.3,324.3c-3.6,1-7.2,2-10.8,3.2c4.8-1.4,7.7-2.1,9.3-2.6C560.3,324.5,560.6,324.4,560.3,324.3z"/>
			<path class="st3" d="M578.1,334.2c-5.7,2.6-11.6,4.6-17.5,6.3c7.1-1.9,14.1-4.4,20.8-7.7L578.1,334.2z"/>
			<path class="st3" d="M557.5,336.1c-2,0.7-4,1.4-6.1,2.1c3.6-1.1,7.2-2.4,10.8-3.7L557.5,336.1z"/>
			<path class="st3" d="M584.5,327.7c-4.4,1.9,6.2-1.4,1.6,0.5c5.3-1.8,9.9-3.7,14.1-5.4l-1.6-10.2c-1.7,0.5-3.3,0.9-4.9,1.4
				c1.6-0.4,3.2-0.8,4.9-1.2l1.6,9.9C595.7,324.3,590.6,325.9,584.5,327.7z"/>
			<path class="st3" d="M584.2,316.6c3-0.9,6.1-1.7,9.5-2.7C590.5,314.8,587.4,315.6,584.2,316.6z"/>
			<path class="st3" d="M541.2,338.7c0.9-0.1,2.5,0,8.6-1.2l-4.3,0.3C544.2,338.1,542.7,338.4,541.2,338.7z"/>
			<path class="st3" d="M545.4,337.8l0.2,0c4.6-1,7.8-1.8,9.2-2.2C553.5,335.9,550.7,336.7,545.4,337.8z"/>
			<path class="st3" d="M540.2,338.9c0.4-0.1,0.7-0.1,1.1-0.2C540.8,338.7,540.6,338.7,540.2,338.9z"/>
			<path class="st3" d="M578.2,322.5c-6.5,0.9-19.7,3.7-6.8,2.1c2.3-0.5,1.6-0.6,1.5-0.8C572.8,323.6,573.3,323.3,578.2,322.5z"/>
			<path class="st3" d="M537.7,332.4c3.7-1.4,7.5-2.8,11.3-3.9c-0.3-0.1-2.4,0.3,0.7-0.8C545.7,329.1,541.7,330.7,537.7,332.4z"/>
			<polygon class="st3" points="540.4,337.8 536.7,338.7 535.8,333.3 537.7,332.4 535.8,333.2 536.7,338.8 539,338.4 			"/>
			<path class="st3" d="M595,323.2c1.6-0.6,3.2-1.3,5-1.9l-1.2-7.2c-3.5,0.8-7.2,1.7-11.3,2.7c3.8-0.8,7.6-1.6,11.3-2.4l1.1,6.6
				c-2.8,1-5.5,1.9-8.2,2.8C590.8,324.3,588.1,325.6,595,323.2z"/>
			<path class="st3" d="M571,331c0.3-0.1,0.8-0.3,1.1-0.4C571.5,330.8,570.9,330.9,571,331z"/>
			<path class="st3" d="M527.8,333.3c0.3-0.1,0.6-0.1,1-0.2c0.1-0.1,0.1-0.1,0.2-0.2L527.8,333.3z"/>
			<path class="st3" d="M590.6,324.1c-4.8,1.5-7.7,2.7-10.4,3.8c3.6-1.3,7.4-2.6,11.5-4C592.1,323.6,592.1,323.5,590.6,324.1z"/>
			<path class="st3" d="M567.6,321.1c2.6-0.5,5.5-1.2,8.5-1.8C573.6,319.7,568.4,320.7,567.6,321.1z"/>
			<path class="st3" d="M573.8,330.3c-0.2,0.1-0.5,0.2-0.7,0.3C574.7,330.2,574.5,330.2,573.8,330.3z"/>
			<path class="st3" d="M573.8,330.3c2.5-0.9,4.4-1.7,6.4-2.5c-2.9,1-5.7,2-8,2.8C572.7,330.5,573.4,330.4,573.8,330.3z"/>
			<path class="st3" d="M523.8,338.6c-0.3,0.3-2.9,1.1-6.6,1.9l0-0.2c4.8-1.8,11.6-4.1,18-5.7c10.8-3.7,3.3-3.5-6.3-1.6
				c-0.3,0.4-0.3,0.5-11.3,4.6c2-0.6,8.2-2.3,12.7-3.6c4.6-1.2,7.5-1.9,2.8-0.1c-12,4-12.5,4-16.2,4.9l0.5,3.2
				c0.8-0.1,1.8-0.2,3.2-0.4c-3.1,0.2,1.6-0.9,6.7-2.3c5.1-1.3,10.5-2.9,8.8-3.1c-4.3,1.1-8.7,2.1-13.1,3.1
				C522.7,339.3,527.4,338.1,523.8,338.6z"/>
			<path class="st3" d="M550.1,326.7l4.6-1.4c-5.3,1.4-9.1,2.2-16.1,3.9c-7.6,2.6-9.1,3.4-9.6,3.7c7.5-2.4,15.1-4.6,22.7-6.8
				L550.1,326.7z"/>
			<path class="st3" d="M575.5,319.8c-3.5,1.5-14.6,4.7-7.7,3.6c13.6-3.5,9.4-3,17.5-5.2c-21.9,5.5,6.3-1.9-9.7,1.6
				c4.3-1.2,8.2-2.2,11.8-3c-4,0.9-7.8,1.7-11.4,2.5c0.2,0,0.3-0.1,0.5-0.1l0.1,0l0,0c1-0.2,1.3-0.2,0.2,0c-0.1,0-0.3,0.1-0.5,0.1
				C576.3,319.5,575.9,319.6,575.5,319.8c-6.4,1.5-1,0.1,1-0.5c0.1,0,0.2-0.1,0.3-0.2c0,0-0.1,0-0.1,0c-7.3,1.9-14.6,4-21.9,6.2
				C559.4,324.1,565.2,322.6,575.5,319.8z"/>
			<path class="st3" d="M559.7,328.2c-0.7,0.1-0.7,0.1-0.7,0C557.6,328.6,557,328.8,559.7,328.2z"/>
			<path class="st3" d="M550.6,330.2c1.6-0.5,2.8-1.3,8.1-2.5c4.5-0.9,0,0.3,0.3,0.5c3.1-0.9,11-2.8,1-1l-1.5,0.5
				c-4.5,0.9-9.5,2.2-13.3,3.2c-3.8,1-6.2,1.8-5.5,1.5C542.4,332,544.7,331.4,550.6,330.2z"/>
			<path class="st3" d="M573.3,328.4c6-2,12-4.1,18-6.3l-9.3,2.6l0.5,0.2C572.3,328.1,574.6,327.7,573.3,328.4z"/>
			<polygon class="st3" points="525.7,333.7 528,332.2 517.7,336.6 			"/>
			<polygon class="st3" points="532.1,341.3 531.2,342.1 537.5,340.3 			"/>
			<path class="st3" d="M576.4,296.3l5.1-2.2C579.1,295.1,577.5,295.8,576.4,296.3z"/>
			<path class="st3" d="M538.1,307.6l-0.9,0.5C539,307.5,539.7,307.3,538.1,307.6z"/>
			<path class="st3" d="M574.7,307.3c-7.8,1.8-16.6,3.6-15.6,4l2.5-0.1C567,309.4,571.1,308.2,574.7,307.3z"/>
			<path class="st3" d="M523.4,318.5c-0.8,0.1-1.5,0.2-2.3,0.3c-1.9,0.6-3.7,1.2-5.2,1.7C518.1,320,520.7,319.3,523.4,318.5z"/>
			<path class="st3" d="M528.6,314.6c3.4-0.7,6.9-1.4,10.3-2.1C536.6,313,533.3,313.7,528.6,314.6z"/>
			<path class="st3" d="M548.4,303.7l-6.2,1.9C552,303.7,547.7,304.2,548.4,303.7z"/>
			<path class="st3" d="M584.8,301.1c-6.9,1.2-12.3,2.4-17,3.7C576,302.9,582.7,302.1,584.8,301.1z"/>
			<path class="st3" d="M562.6,308.2c3.3-1.2,4.6-1.8,4.5-1.9C563.8,307.5,561.9,308.2,562.6,308.2z"/>
			<path class="st3" d="M548.3,310.7c1.2-0.3,2.4-0.7,3.6-1c4.9-1.7,9.8-3.3,15.9-4.9C561.7,306.1,554.8,308.1,548.3,310.7z"/>
			<path class="st3" d="M539.3,278.3c-0.6,0.1-1.2,0.1-1.8,0.2C537.4,278.6,538.1,278.5,539.3,278.3z"/>
			<path class="st3" d="M506.3,271.5c2.2-0.5,5.8-1.3,9.3-2C513.9,269.8,511.1,270.4,506.3,271.5z"/>
			<path class="st3" d="M564.9,310.8C570,309.7,565.7,310.5,564.9,310.8L564.9,310.8z"/>
			<path class="st3" d="M591.7,309.7c-1.1-0.1-2-0.1-2.3,0C590,309.6,590.8,309.6,591.7,309.7z"/>
			<path class="st3" d="M532.3,330.6c0.1,0,0.3,0,0.4,0C531.2,330.5,531.5,330.5,532.3,330.6z"/>
			<path class="st3" d="M572.6,309.5c-1.9,0.3-4.1,0.7-6.5,1.1C567.1,310.5,569.1,310.1,572.6,309.5z"/>
			<path class="st3" d="M571.5,309.4c2.1-0.4,3.8-0.7,5.4-1c0.5-0.1,0.5-0.2-0.4,0c-0.5,0.1-1.2,0.2-2.3,0.4
				C573.5,309,572.6,309.2,571.5,309.4z"/>
			<path class="st3" d="M557.8,312.4c2.9-0.7,5.6-1.2,8.2-1.7c-1,0.2-1.4,0.2-1.2,0.1C563.4,311.1,561.3,311.6,557.8,312.4z"/>
			<path class="st3" d="M534.8,298.1c-0.5,0.2-1,0.3-1.5,0.5c-2.5,1.1-3.2,1.4-2.7,1.2C531,299.7,532.6,299,534.8,298.1z"/>
			<path class="st3" d="M558.8,315.2c-0.2,0.1-0.3,0.1-0.6,0.2c0.2-0.1,0.5-0.2,0.7-0.2L558.8,315.2z"/>
			<path class="st3" d="M576.3,308.2c-7.3,3.7-11.6,5.1-17.4,6.9l6.2-0.3C568.9,312.7,572.6,310.5,576.3,308.2z"/>
			<path class="st3" d="M506.9,314.9c4.2-0.9,8.5-1.7,12.7-2.5c-15.2,4.6-26.2,7.3-14.2,5c0.7-1.2,13-4.4,25.3-7.2
				c12.3-2.8,24.7-5.2,25.5-6.3l8.5-1.1c-2.4,0.4-2.8,0.6-5.2,1c7.6-0.9,10.8-1.7,14.1-2.7c3.3-0.9,6.7-2,15-3.2l-0.9-5.5
				c-1.2,0.5-2.5,1.1-4,1.7c-7.1,2.8-12.1,4.3-7.3,2.2c-5.2,2.2-10.5,4.2-15.8,6c-4.7,1.3-3.6,0.7,1.1-0.7
				c-8.1,2.6-16.3,4.8-24.6,6.5l0.2-0.1c-3.5,1.1-11.5,2.9-15.4,3.7c-6.4,0.5,3.2-0.6,1.5-0.7c-4.6,0.8-9.2,1.5-13.8,2.1
				c-5.7-0.1,5.8-1.3,15.3-2.8c-5.1,0-7.9,0.2-11.2,0.6c-1.6,0.2-3.4,0.5-5.5,0.8c-2.2,0.3-4.8,0.5-8.1,0.7l0.9,6.9
				c3.5-1.5,8.1-3.3,14-5.4c-4.2,1.7-8.4,3.5-12.5,5.3c8.3-2.3,18-6.7,32.5-10.7c-1.7,0.4-9,2.3-14,3.7c-5,1.4-7.8,1.9-0.6-1
				c4.1-1.4,9.6-3.2,17.4-6.1c0.2,0.7,7.9-2,17.7-4.6l-0.5,1.1c5.2-1.5,7.7-2.3,9.5-3c0.9-0.3,1.7-0.6,2.7-1c0.5-0.2,1-0.3,1.6-0.5
				c0.5-0.2,1.1-0.3,1.8-0.4c0.9-0.1,1.6,0.1,2,0.3c0.4,0.2,0.5,0.4,0.7,0.6l1-5.2c-6.9,3.8-9.1,4.2-11.3,5
				c-17.9,9.1,12.7-5.3-8.4,5.8c-15.1,7-25.7,11.8-43.9,19.9c-1.1,0.4-2,0.7-2.5,0.9l1.3,5.6c3.6-1.3,1.6-0.3,0.1,0.4l-1.5-6.5
				c1-0.5,1.9-1,0.4-0.5l-0.5,0.2l1.7,7l8.8-4.5c2.3-1,1.6-0.4,1.3-0.2c7.9-3.7,0.4-1.2,12.9-6.8c3.1-2.4,26.2-9.6,41.4-17.4
				c3.9-1.4-1.7,1.3-0.5,1.2c2.5-1.2,4.3-2,5.4-2.1c1.1-0.1,1.5,0.2,1.7,0.2l0.1-5.4c-5.8,3.5-9.1,5.1-12.5,6.9
				c-3.5,1.7-7.1,3.5-13.8,6.3c-5.1,1.5-10.2,2.8-15.3,4c11.3-2.5-2.8,2.6-15.5,6c4.1-0.5,7.6-1.1,9.9-1.5c-6.7,1.8-13.5,3.4-20.3,5
				c-2.5,0.4-0.5-0.4,2.8-1.5c-1.4,0.4-2.7,0.7-3.7,1c-7.3,1.1-3.6-0.2,1.5-1.8c2.5-0.3,5-0.6,7.4-1c4.9-1.7,9.5-3.4,8.4-3.7
				c-1.3,0.4-3.8,1.1-6.6,1.8c1.3-0.4,2.1-0.8,1.5-0.7c-0.7,0-2.8,0.7-6.1,1.7l-4.7-0.1l-1.1,0.6l-5.7,1l0.7,5.3
				c7-1.4,13.9-2.8,20.9-4.1c8.9-2.4,17.3-4.7,26.9-7.1c4.8-1.2,9.9-2.4,15.5-3.6c2.8-0.6,5.7-1.3,8.8-1.7c3.1-0.4,6.4-0.6,9.8,0.2
				l-0.1-0.3c-0.6,1.7-1.8,3.2-3.3,4.2c1.6-1.4,2.2-2.5,2.4-3.1c0.2-0.6,0-0.7-0.2-0.5c-0.4,0.3-1.5,1-1.6,0.5
				c0.5-0.5,1-1.1,1.4-1.9l1.1,3c-2-0.6-4.4-0.8-7.1-0.7c-2.7,0.2-5.6,0.7-8.7,1.3c-6.3,1.3-13.2,2.8-20.3,4
				c8.2-1.5,6.4-0.7,4.4-0.1l13.9-3c4.7-1,9.2-2,13.7-1.9c-0.3,0.4,1.3,0.5,3.9,1.2l-1.6-4.2c-0.3,0.8-1,1.7-2.1,2.5
				c-1.1,0.8-2.5,1.5-4.2,2.1c1.4-0.2,0.9,0.3-0.8,1.2c-1.7,1-4.7,2.4-8.2,3.7c-3.5,1.4-7.6,2.8-11.5,4c-3.9,1.2-7.6,2.2-10.4,3
				c-0.4-0.2,0.1-0.5,2.4-1.3c2.3-0.8,6.4-1.8,13.1-4c-7.5,1.9-12.3,3.5-17.1,5.1c-4.8,1.6-9.6,3-17.2,3.9c3.4-0.6,5.2-0.9,6.5-1.4
				c-7.8,2-27.3,4.6-22.8,3.4l3.4-0.5c-1.9,0.3-3.9,0.6-6.2,0.9l0.7,4.8c11.5-4.2,26.7-9.9,39.5-14.2c12.8-4.3,23.1-7.2,24.6-8.1
				c0.2,0.1-2.7,2.2-4,2.8c2.8-1,5.6-2,8.4-3l-0.7-3.9c-9.9,5.2-19.9,9.9-30.1,14.3c1.6-1.1-1-1.2-1.7-1.8c-0.8-0.7,0.4-1.7,9.4-5.1
				c-5.2,1.6-11.7,3.7-22.8,7.1c3.6-0.8,9.2-1,4.3,0.5c-6.9,1.3-9.2,1.8-12,2.3c-2.8,0.5-5.9,1.3-14.4,2.6c5.5-1-0.4,2.1-9,3.8
				c1.3-0.5-0.9-1.5,2.2-2.3l-4.6,1.3l0.7,5l16.4-6.3c-5.2,1.9-0.7,1.7,4.1,0.7c-2.3,0.4,18.4-5.6,24-7.4l-9.1,2.4
				c22.3-6.6,23.3-9.1,42.4-15.2l-0.1-0.7c-1.4,0.5-2.9,1.1-4.6,1.8c1.4-0.7,3-1.9,2.8-2.4c-0.1-0.2-0.7-0.3-1.9,0
				c-0.6,0.1-1.5,0.4-2.5,0.7c-1,0.3-2.3,0.7-3.8,1.2c-2.6,1.4-8.5,4.4-16.5,7.5c-8,3.1-18.1,6.2-28.8,8.2l-4.2,0.1
				c-5.5,1-11,1.9-16.5,2.7c5.1-1.3,14.8-3.4,25.1-6.2c5.2-1.3,10.5-2.9,15.4-4.4c5-1.6,9.6-3.1,13.4-4.4c-4.5,1.1-5.2,1-6.3,1.3
				c-1.2,0.2-2.9,0.6-9.7,2.1c-2.4,0.3-0.6-0.3,2.3-1c2.9-0.8,6.9-1.8,8.9-2.3c-10.4,2.6-20.9,4.5-31.5,6c0.7,0.4-5.3,1.6-11.4,2.6
				c-6.1,1-12.2,1.9-11.6,2.3c11.5-1.7,23-3.5,34.4-5.9c0.7,0.4-4.1,2-12.1,3.8c-7.9,1.8-18.9,3.5-30.3,4.6
				c-5.8,0.2,4.2-2.2,3.7-2.5c-1.2,0.3-5.1,0.8-9.5,1.4l0.4,5.4c6-1,12.8-2.1,14-2.2l-9.5,2c12.6-1.5,20.4-4.4,35.6-5.8
				c0.7-0.1,1.4-0.2,2.2-0.3c0.4,0,0.8-0.1,1.2-0.1c0.2,0,0.4,0,0.6-0.1l0.3,0c0.8,0,1.5,0,2.1,0.1c1.1,0.1,1.6,0.2,2.5-0.3
				c-0.2-0.3-0.3-0.7-0.5-1.2c-0.1-0.5-0.3-1-0.2-1.6c0.1-0.6,0.5-1.2,1.4-1.8c1-0.6,2.5-1.2,4.7-1.8c1.1-0.1,9.2-1.1,17.8-2.1
				c1-0.1,1.9-0.2,2.9-0.3c0.9-0.1,1.6-0.1,2.2-0.1c1.3,0,2.5-0.1,3.6-0.1c2.2-0.1,4.2-0.3,5.2-0.4c0.7,0,1-0.1,0.9,0
				c-0.7,0.2-1.7,0.5-3,0.8c-1.6,0.4-5.2,1.3-9,2.1c-3.1,0.7-5.9,1.4-7.9,2c-2,0.5-3.2,0.9-3.3,1.2c0.9-0.3,2.6-0.7,4.4-1.1
				c1.7-0.4,3.6-0.8,4.8-1c1,0-1.1,0.5-2.2,0.8c-1.1,0.3-1.6,0.5,2.2-0.1c1.3-0.3,2.5-0.5,3.6-0.6c0.5,0,1.1,0,1.5,0.2
				c0.5,0.1,0.9,0.5,1,0.9c0,0,0.1,0.1,0,0.1l-0.1,0.1l-0.2,0.1l-0.4,0.2c-0.3,0.2-0.6,0.3-0.9,0.5c-0.6,0.3-1.3,0.6-1.9,0.9
				c-1.2,0.5-2,0.8-1.3,0.6c0.3-0.1,1-0.3,2.3-0.8c1.3-0.4,3.1-1.1,5.7-2.1c-2.5,1.8-5.3,2.8-8.1,3.8c-2.9,1-6,1.9-10.4,3.1
				c1.6-0.2,2.6-0.2,3,0c0.4,0.2,0,0.6-1.3,1.1c-0.6,0.3-1.5,0.5-2.5,0.8c-1,0.3-2.3,0.5-3.6,0.8c-1.3,0.3-2.7,0.5-4.2,0.7
				c-1.5,0.2-3.1,0.4-4.7,0.5c0.2-0.1-0.7-0.2-1.6-0.3c-1-0.1-2.1-0.2-2.7-0.2c-3,0-5.7-0.1-8.3-0.3c-1.3-0.1-2.6-0.2-3.8-0.3
				c-0.6-0.1-1.2-0.1-1.8-0.3c-0.6-0.2-1.2-0.5-1.4-1.2c-0.1-0.2-0.1-0.4-0.1-0.6c0.1-0.1,0.3-0.2,0.4-0.2l0.9-0.4
				c0.6-0.3,1.1-0.5,1.7-0.8c1.1-0.5,2.2-1,3.2-1.4c2.1-0.9,4.2-1.8,6.2-2.6c8.6-3.5,17.1-6.6,28-10c2-0.5,12.6-3.1,8.2-1.4
				c3.1-1,5.9-2.2,12.7-3.8c6.6-1.1,2.8-0.2-1.3,0.9c-4.2,1-8.7,2.3-3.6,1.6c0.5-0.5,7.4-2.5,14.9-4.2l-0.5-2.8
				c-4.1,1.8-8.4,3.6-11.8,5.1c1.4-0.1,6.3-1.9,11.9-4.3l0.2,1.3c-6.7,1.4-14.6,3.7-19.8,5.3c-0.2-0.8,7.2-3.8,19.6-7l0.4,2.1
				c-5.2,2.5-11.9,5.4-19.4,8.4c-18,6.7-8,2-11.1,3.2c-16,5.2-23.3,7.6-29.6,9.8c-6.2,2.1-11.4,3.9-23.2,6.2l-0.7-5.2
				c1.4-0.4,3-0.7,4.7-1.2c11.4-2.3,0.8,1.4,3.3,1.3c-2.8,0.8-5.4,1.5-7.7,2.2l0.1,0.6c10.3-2.2,17.2-3.4,25.4-5.7
				c-4.2,1-8.3,2-12.5,2.9c4.7-1.4,14.6-4.2,20-5.6c-4.5,1-17.5,4.7-33,7.9l0.1,0.4c17.2-4.7,37.4-10.1,51.6-12.9
				c4.7-1.4,12.8-3.3,8.9-2.8l-8.4,2c-3.9,0.6,0-0.6,3.6-1.5c3.6-1,6.8-1.8,1.4-0.8c2.5-0.6,5-1.3,7.6-1.9c1.3-0.3,2.6-0.6,4-0.9
				l1-0.2c0.4-0.1,0.9-0.2,1.3-0.3c0.9-0.2,1.8-0.4,2.6-0.6c0.9-0.2,1.8-0.4,2.7-0.5c0.9-0.1,1.8-0.3,2.8-0.4
				c0.9-0.1,1.9-0.3,2.9-0.4c1-0.1,1.7-0.1,2.5-0.1c1.5,0.1,3,0.2,4.4,0.8c0.7,0.3,1.5,0.6,2.2,1.1c0.7,0.5,2,1.1,1.6,1.8
				c-1.6,2.1-3.2,3.8-4.9,5.3c-1.3,0.8-2.6,1.4-4,2c0.2-0.1,1.5-0.7,3-1.9c1.5-1.2,3.3-2.9,5-5.1c0.1-0.3,0.2-0.5,0.2-0.8
				c-0.3-0.2-0.5-0.4-0.8-0.6c-0.5-0.4-1-0.6-1.5-0.9c-1-0.5-1.9-0.7-2.7-0.8c0.7,0.1,1.6,0.3,2.6,0.8c0.5,0.2,1,0.5,1.5,0.9
				c0.3,0.2,0.5,0.4,0.8,0.6c0.1,0,0,0.1,0,0.2l-0.1,0.2l-0.1,0.4c-1.7,2.1-3.6,4-5.8,5.5c-2.2,1.6-4.7,2.9-7.5,4.1
				c-1.3,0.6-2.6,1.2-3.9,1.7c-1.2,0.5-2.3,1-3.3,1.4c-2,0.9-3.7,1.6-5,2.4c1.8-0.6,3.7-1.2,5.5-1.8l1.4-0.5l1.8-0.7l3.6-1.5
				c-0.9,0.4-1.8,0.9-2.7,1.4c-0.5,0.2-0.9,0.5-1.4,0.7c-0.5,0.2-0.9,0.4-1.4,0.6c-1.4,0.7-2.9,1.4-4.4,2c-3,1.3-6.2,2.6-9.5,3.9
				c-6.6,2.5-13.6,4.6-20.7,6.2c3.3-0.4,4.1-0.6,5.3-0.9c1.3-0.3,3-0.8,8.1-1.7c-4.4,0.6,4.6-1.8,12.8-4.9c2.1-0.7,4.1-1.5,5.8-2.2
				c1.8-0.7,3-1.2,4.9-2.1c1.6-0.8,2.3-1.2,2.1-1.2c-0.3,0-1.5,0.5-4.1,1.4c2.4-0.8,4.8-1.8,7.1-2.8c1.2-0.5,2.3-1,3.3-1.6
				c1-0.6,1.9-1.1,2.7-1.7c1.6-1.2,3-2.4,4.2-3.7c1.2-1.3,2.5-2.8,4-4.8l-0.3-0.6c0-0.1-0.2-0.2-0.3-0.3l-0.4-0.3
				c-0.5-0.4-0.9-0.7-1.4-1c-0.9-0.6-1.7-1.1-2.5-1.6c-0.8-0.4-1.6-0.8-2.6-1.1c-1-0.3-2-0.7-4-0.5c0.2,0.1,1.8,0.1,1.2,0.3
				c-0.3,0.1-1.2,0.2-3.1,0.3c-0.9,0.1-2.1,0.2-3.7,0.3c-1.5,0.1-3.4,0.6-5.7,0.9c-0.8,0.2-3,0.7-3.5,0.9c-0.4,0.1-0.5,0.1-0.8,0.1
				c0.2,0,0.4-0.1,0.7-0.1c-0.5,0.1-0.6,0.2,0.2,0c2-0.3,3.7-0.5,5.2-0.7c1.5-0.2,2.6-0.4,3.2-0.3c-3.4,0.8-10.5,2.4-17.6,4
				c-6.2,1.5-12.5,3-15.7,4c-7,1.6,2.9-1.1-1-0.4l-9.4,2.9c-1-0.4-18.7,3.7-2.3-0.9l-14.8,3.9c-5.1,1.1-11.3,2.7-16.9,4.2l1.2,8.4
				c4.2-0.9,8.2-1.9,11.3-2.7c7.1-1.5,17.6-5.4,11.6-3.2c7.7-2.2,15.5-4.6,23.1-7.3l0.2,0.1c12.1-3.9,24.5-8.7,37.3-14.1l-1.1-6.4
				c-11.6,2.4-23.5,5.5-35.7,8.9c-3.8,1.4-7.7,2.8-12.2,4.5c-2.2,0.9-4.7,1.8-7.3,2.9c-1.4,0.6-2.8,1.2-4.3,1.8
				c-2.1,0.9-4.5,1.9-6.8,3l-4.3,1.6c-0.5,0.2-0.9,0.5-1.4,0.7c-0.2,0.1-0.5,0.3-0.7,0.4c-0.2,0.1-0.2,0.1-0.2,0.2l-0.1,0.2
				c-0.2,0.5-0.5,1-0.7,1.6c-0.1,0.3-0.3,0.5-0.4,0.8l-0.2,0.4c0,0.1-0.1,0.1-0.1,0.3c0,0.2,0,0.3,0,0.5c0.2,1.3,0.6,1.8,0.9,2.2
				c0.4,0.4,0.8,0.7,1.3,1.1l0.7,0.6c0.1,0.1,0.2,0.2,0.4,0.3l1,0.3c1.4,0.4,2.7,0.8,4.1,1.2l1,0.3c0.2,0,0.3,0.1,0.5,0.1l0.8,0
				c1.1,0,2.1,0.1,3.2,0.1c2.1,0.1,4.2,0.1,6.2,0.2c1.9-0.1,3.8-0.2,5.6-0.3c0.9-0.1,1.8-0.1,2.7-0.2c0.8-0.1,1.8-0.1,2.4-0.2
				c1.3-0.2,2.6-0.4,3.8-0.6c1.2-0.2,2.3-0.4,3.3-0.5c0.8-0.2,1.5-0.4,2.2-0.5c1.3-0.3,2.3-0.6,2.8-0.8c1.2-0.2,2.3-0.4,3.7-0.6
				c0.6-0.1,1.3-0.3,2-0.4c0.7-0.1,1.4-0.3,2.1-0.5c1.3-0.4,2.7-0.7,4.2-1.1c1.4-0.4,2.7-0.9,4.2-1.4c2.8-1,5.6-2.1,8.3-3.4
				c1.4-0.6,2.7-1.3,4.1-2c0.6-0.3,1.2-0.7,1.8-1l0.9-0.5l0.5-0.3c0.1-0.1,0.1-0.1,0.1-0.2c0.3-1.2,0.7-2.4,1.1-3.5l0.2-0.4l0.1-0.2
				l0-0.1l0-0.1c0,0,0-0.1,0-0.2c-0.1-1.2-0.5-2.1-0.8-2.5c-0.6-0.9-0.9-0.8-1.3-0.9c-0.4-0.1-0.8-0.2-1.2-0.3
				c-0.4-0.1-0.8-0.3-1.2-0.4c-0.8-0.3-1.7-0.6-2.5-0.9l-3.4,0.9c-1.8-0.2-3.1-0.8-9.5,0.4c-5.2,0.8-10.5,1.7-15.9,2.5
				c-5.3,0.9-10.8,1.8-16.6,2.7c-2.7,0.4-5.4,0.9-8.2,1.4c-1.8,0.3-3.6,0.6-5.5,0.9l1,0.5c-9.8,1.9-23.8,3.6-38.9,5.6l0.5,6.3
				c4.9-0.5,10-1,15.1-1.6c-1.4,0.4-6.6,0.9-10.3,1.2c12.4-0.6,25.4-2.4,38-4.8c12.7-2.4,25-5.6,36.1-8.4c2.7-1,5.1-1.8,7.2-2.5
				c2.2-0.7,4.1-1.4,6-2c-0.5,0.2-1,0.4-1.3,0.6c0.6-0.2,1.4-0.5,2.2-0.9c0.8-0.3,1.5-0.5,2.4-0.8l-1.4-6.7
				c-1.6,0.4-3.3,0.9-5.2,1.3c1.9-0.5,3.7-0.9,5.2-1.3l1.3,6.5c-0.5,0.2-0.9,0.3-1.2,0.4c0.3-0.1,0.7-0.3,1.2-0.5l-1.3-6.5
				c-4,1.2-9.8,3.1-15.5,5l-2.8,0.1c-0.5,0.2-0.9,0.3-1.4,0.5c-6.2,1.6-4.9,1.8-1.5,1.4c-3.1,1.1-6,2.1-8.2,2.9
				c-5.2,0.4-16.3,5.4-23.3,6.2c-2.8,1.3-16.2,5.4-25.4,8.6l0.7,4.8c4.6-1.1,8.2-2.1,9.2-2.7c0.2,0.1,2.1-0.2-1.3,0.5
				c7.1-1.3,14.1-2.9,20.4-4.9l3.1,0.1c5-1.8,10.1-3.7,15.1-5.6c9.3-2.4,13.2-3.4,4.2,0.3c8.9-3.4,13.5-5.2,17.1-6.7
				c3.6-1.4,6.3-2.5,11.3-4.7l-0.7-3.9c-1.7,0.5-4.4,1.3-8,2.4l0.8-0.8c-6.8,1.7-17.5,5.7-21.6,6.6c-6.8,1.6-22,6.8-40.2,13.6
				l0.7,4.8c11.8-1.8,24.9-3.7,37.7-6.7c6.4-1.5,12.7-3.2,18.8-5.2c3-1,6-2.1,8.8-3.2c1.4-0.5,2.8-1.2,4.2-1.8
				c1.4-0.6,2.8-1.2,4.2-2c-2,0.7-1.9,0.4-0.8-0.2c0.6-0.4,1.4-0.9,2.5-1.7c1-0.9,2.3-2.2,3.1-4.3l1.1-2.9l-2.5-0.7
				c-3.1-0.9-6.7-1.1-9.6-0.8c-2.9,0.2-5,0.7-5.4,1.1c-2.3,0-7.8,0.7-1.5-0.8c-20,3.9-30.2,4.9-43.9,8.9c-2.3,0.1,4.2-1.5,2.1-1.3
				c-1.6,0.4-6.3,1.7-8.4,1.9c-2.1,0.2,2.9-1,6-1.8c-15.4,3.3-20.2,5.3-22.3,6.6l0.6,5.1c0.7-0.4,1-0.8,1.4-1.2
				c10.4-1.6,15.6-2.7,22.9-5.3c3.6-0.5,9.7-1.6-2.9,1.6c3.6-0.8,14.5-3.2,24.5-6.6c10-3.2,18.9-7.7,19.2-8.3
				c0.9-0.3,2.6-1.2,4.5-2.1c1.9-1,3.8-2.1,5.2-2.9l3.1-1.8l-3-1.8c-0.9-0.5-1.6-0.7-2.1-0.7c-1.3-0.2-2.4,0-3.3,0.2
				c-1,0.3-1.8,0.6-2.6,0.9c-1.5,0.7-2.9,1.2-4.2,1.8c-2.5,1.1-4.6,2-6.7,2.8c-4.2,1.8-8.3,3.6-15.8,6.8l4.2-1.6
				c-5.7,3.6-12.5,5.6-24.7,11l0.3-0.3c-12.8,5.1-16.4,6.7-19.1,7.9l0.8,3.4c3.4-1.5,5.5-2.4,20.7-8.3l-1.7,0
				c1.1-1.3,7.3-3.6,15.1-6.8c7.8-3.2,17.3-7.4,25-12c-1.9,0.9-3.8,1.8-5.8,2.7c3.5-2.1,8.3-4.3,13.3-6.8l1.5-0.8l-1-2
				c-0.7-1.5-1.9-2.5-3.1-2.9c-1.2-0.5-2.3-0.6-3.3-0.6c-2.2,0.1-3.9,0.4-5.7,0.6c-3.6,0.5-6.9,1.1-9.6,1.7c-2,0.4,3.1-1,5.9-1.8
				c-6,1.3-9.2,2.1-10.9,2.6c-1.7,0.5-1.8,0.7-1.8,0.9c0.1,0.4,0.9,0.6-7.9,3.4c-3.3,0.5,4-2.6-7.9,1.1c-2.1,0.5-6.8,2.3-12.7,4.7
				c-5.9,2.4-13,5.5-19.9,8.6l-16.9,7.6l17.7-1.3c6.5-0.5,12.7-0.9,17.9-1.3c-3.7,0-7.3,0,1-1.2c6.4-0.8,15.1-1.9,23.6-3.6
				c8.5-1.7,16.7-4,22.3-6.4c1.6-0.4,2.2-0.5,2.3-0.4c5.3-1.9,14.1-5.4,21.8-9l15.8-7.5l-16.5,2.8c-6.6,1.1-12.4,2.2-15,3
				c-4.6-0.5-19.7,2.4-33.6,5.6c-13.9,3.2-26.6,6.7-26.6,5.6c-6.2,1.5-12.3,3.2-18.4,4.8l0.4,5.4c3.8-0.1,7.7-0.2,11.5-0.6l-0.8,0.3
				c9.7-0.7,16.2-2,21.2-3c4.9-1.1,8.3-2.1,11.6-3.2c4.4-0.9,1.2,0.1,0.9,0.3c9.8-2.2,16.4-4.1,21.9-5.7c2.7-0.8,5.3-1.6,7.8-2.7
				c2.5-1.1,5-2.6,7.4-5.1l5-5.4l-6.3,1c-4.5,0.7-9.6,1.6-16.6,3.1l-2.5-0.3c-2.8,0.7-11,1.8-21.6,4c-5.3,1.1-11.2,2.4-17.3,3.9
				c-6.1,1.6-12.6,3.6-18.6,7.3l-1.1,0.6l-0.2,1.6c-0.1,0.9,0.1,2.3,0.6,3c0.5,0.8,1,1.1,1.4,1.4c0.8,0.4,1.5,0.5,2.1,0.5
				c0.3,0,0.8-0.1,0.9-0.1l0.6-0.1l1.3-0.3c1.7-0.3,3.4-0.7,5-1.1c-0.3,0.1-0.8,0.4-3,0.9c12.6-2.8,27.1-6.7,40.4-11.7
				c6.7-2.5,13-5.3,18.7-8.1c2.9-1.4,5.5-2.8,8-4.2c1.3-0.8,2.6-1.6,3.8-2.8c1.2-1.1,2.3-2.5,3.1-4.2l2.9-5.9L578,281
				c-4,0.5-7.2,1.1-9.3,1.8c-6.8,0.9-13.6,1.8-20.4,2.9c26.5-2.9-3.9,1.6,7,0.8c-10.4,1.3-26.9,2.7-14.2,0.8l2-0.1
				c2.3-1-5.9-0.1-14.6,1.1c-8.7,1.2-17.9,2.7-17.6,2.1c-6.3,1-12.7,2-19,3.1l0.5,4.8c8.7-1.6,17.4-3.3,26.1-4.9
				c4.8-0.9,9.6-1.7,14.4-2.6c4.8-0.8,9.5-1.7,14.2-2.5c-5.4,2-10.8,3.9-16.1,5.9c-2.5,0.9-4.9,1.8-7.3,2.7l9.2-2.3l-13,4.8
				c-4.2,1.3-6.8,1.7,1.3-1.3c-3.4,0.9-6,2.1-8.2,3.2c-2.2,1.1-4.2,2.2-4.1,2.3c-4.6,1.6-6.5,2.2-6.9,2.2c-0.4,0,0.6-0.5,1.9-1.1
				c2.6-1.2,5.9-2.7,3.7-1.9l-6,2.3l1.6-0.5c-2.7,1.3-4,2.1-7.1,3.4l1,5c2.4-1,5.9-2.3,11.4-4.6c8.9-3.5,4.7-1.3,8.2-2.7
				c0,0,0.3-0.1,1.1-0.4c0.8-0.3,2.1-1,4.2-2c6.8-3.1,13.6-6.5,20.2-10.2c-2.7,1.2-5.5,2.4-8.3,3.5c8.8-5,18.7-10.3,9.3-6
				c2.2-1,5.7-2.8,9.9-5.2c2.1-1.2,4.4-2.6,6.8-4.1c1.2-0.8,2.5-1.5,3.7-2.4c0.6-0.4,1.4-0.9,2.2-1.6c0.4-0.4,0.8-0.9,1.1-1.6
				c0.4-0.7,0.6-1.7,0.6-2.7l-0.1-2.4l-1.8,0.2c-12.3,1.6-26.3,4.8-37.9,8.4c-11.6,3.5-20.7,7.3-23.7,8.4c-0.9,0.4-1.7,0.8-2.6,1.2
				l0.8,4.6c12.2-3.2,24.5-5.8,39.5-9.8c-2,0.5-3.6,0.6-3,0.2c0.6-0.4,3.4-1.3,10.3-3.3c-3.3,2.4,10.8-1.7,23.1-6.4l-0.9-4.8
				c-5.3,1.1-10.2,2.1-13.6,2.6c5.1-0.8-4.8,1.7-13.8,4.5c-9.1,2.8-17.4,5.7-9.5,3.8c-11.5,3.5-0.8-0.5-9.6,1.9
				c-9.2,3.4-19,7-29.2,11.1l0.8,5.1c20.6-3.3,42.8-9.3,64.5-19.4c0.4-0.5-5.1,1.7,1.8-1.9l0.5-0.2c0.2-0.1,0.4-0.2,0.6-0.3
				c0.4-0.2,0.8-0.5,1.1-0.9c0.4-0.4,0.8-0.8,1.1-1.7c0.2-0.4,0.3-1.1,0.2-1.8c0-0.7-0.3-1.3-0.5-1.7l-0.5-0.9l-1,0
				c-4.9,0.1-9.7,0.1-14.6,0.4c-6.8,1-6.2,2.2-18.7,3.2c1.8-0.1,4.4-0.1-0.1,0.7c-17.3,2.5-34.7,6.4-51.9,11.6l0.5,5
				c16.4-1.2,32.8-3.6,49.1-7.2c8.1-1.8,16.3-3.9,24.3-6.3c4-1.2,8.1-2.5,12.1-3.8c2-0.6,4.1-1.3,6.2-2.5c2.1-1.1,4.2-2.9,5.6-5.8
				l1.9-4l-3.6,0.3c-18.7,1.6-37.4,4-55.8,7c9.3-1.3,3.1-0.1-3.9,1.4c4.6-0.8,0,0.7,0.9,0.8c-7.7,1.3-15.4,2.8-23.1,4.5l0.6,5.3
				l5.4-0.6c2.6-0.9,10.3-2.1,17.6-3.5c7.4-1.4,14.5-3,15.9-3.8c-3,0.7-6,1.5-9,2.1c5.9-1.8,1.7-1.5-3.9-1.1
				c-5.5,0.4-12.4,0.9-11.6,0c-4.2,1.1-9.2,1.9-14.8,2.5l0.4,3.3c12.3-2.7,27.4-4.9,42.4-8.6c4.9-0.5-4.1,1.1-1.5,1
				c5.5-1.5,12.3-2.8,24.8-4.1l-1.4,0.3c6.5-0.8,12.3-1.4,17.2-1.9l-1.6-3.7c-1.3,2.6-3.8,4-6.4,5c-1.3,0.5-2.7,0.9-4,1.4
				c-1.3,0.4-2.7,0.9-4,1.3c-5.3,1.6-10.5,3.1-16,4.5c-10.9,2.7-22.9,5.3-39,7.5l3,0.3c-8.5,1.2-10.3,1.1-14.3,1.4
				c-4.8,1,1.1,0.5,7.2-0.3c6.1-0.8,12.2-1.8,7.9-0.5c-4.9,0.2-16.5,1.7-28.8,2.5l0.5,5c8.1-2.4,16.6-4.7,23.6-6.2
				c7-1.6,12.5-2.5,14.8-2.4c13-2.5-3.9-0.1,9.1-2.5l3.5-0.1l3.2-1.1c8.6-1.2,12.9-1.1,13.3-0.8c-2.1,0.2-5.9,0.9-8.1,1.2
				c7-0.7,17.6-2.1,25.4-2.8l-1-2.8c0.4-0.4,0.4-0.1,0-0.3c-0.4-0.2-1-0.8-1.4-1.4c0,0-0.1,0.1-0.1,0.1l-0.1,0.1c-0.1,0,0,0-0.2,0.1
				c-1,0.4-1.8,0.9-2.6,1.2c-1.6,0.7-2.8,1.2-3.4,1.5c1.5-0.6,3.1-1.3,4.6-2l1.1-0.5l0.5-0.2c0.1,0,0.1-0.1,0.2-0.1
				c0.1,0,0.1-0.1,0.1-0.1c0,0,0,0,0,0c0,0,0,0,0,0l0.1,0.2c0.2,0.2,0.3,0.4,0.5,0.6c0.4,0.3,0.7,0.5,0.8,0.5c0.1,0,0,0-0.2,0.2
				l1,2.6l-2.9,0.2c0.9-0.1,1.9-0.2,2.9-0.3l-1-2.5c0.2-0.2,0.3-0.2,0.3-0.2c-0.1,0-0.3,0-0.6-0.3c-0.3-0.2-0.6-0.6-0.9-0.9
				c0,0,0,0-0.1,0.1c-0.1,0.1-0.2,0.2-0.3,0.2l-1,0.5c-1.3,0.6-2.7,1.3-4,1.9c-2.7,1.2-5.5,2.4-8.3,3.5c-5.6,2.3-11.3,4.4-17.2,6.3
				c-11.7,3.8-23.7,6.7-35.6,8.7l1,6.2c13.3-5.5,26.3-10.3,38.3-14.4l-2.6,0.5c11.1-3.8,16.5-5.2,21.3-6.4c4.8-1.2,9.1-2.2,18-4.3
				l-0.9-4.8c-2.6,1-5.8,2.3-9.6,3.7l1-0.4c-5.5,2.3-13,4.9-20.8,7c3.6-1.2,0.2-0.4-3,0.2c-3.1,0.7-6,1.2-1.3-0.3
				c-14,4-17.5,4.8-19.8,5.5c-2.3,0.7-3.3,1.3-12.6,3.9l-3.1,0.3l0.7,3.6l1.2-0.3c3-1.5,4.6-2.4,7.3-3.5c2.6-1.1,6.2-2.7,13.2-5
				c-11.4,4.3,9.1-2.2-3.7,2.7c10.5-3.2,19.1-5.4,26.5-7.2c7.4-1.8,13.5-3.1,19-3.9l-1.9-2.3c0,0,0,0,0.1,0l0,0c0,0-0.1,0-0.1,0
				l-0.1,0c0,0,0,0,0,0c0,0,0,0.1-0.1,0.2c-0.2,0.2-0.5,0.5-0.9,0.8c-0.4,0.3-0.9,0.6-1.4,0.9c-0.5,0.3-1,0.6-1.4,0.9
				c-1.9,1.1-3.8,2.1-5.7,3c-3.8,2.9-2.9,2.6,0.1,0.9c1.5-0.8,3.4-2,5.5-3.3c1-0.6,2.1-1.3,3.1-2c0.4-0.3,0.8-0.6,1-0.9
				c0.2-0.3,0.2-0.4,0.2-0.4l1.7,2c-5,0.7-8.6,1.4-5.8,0.8c-3.5,0.3,0.1-0.7,5.7-1.7l-1-1.1c0,0.4-0.1,0.8-0.5,1.3
				c-0.4,0.5-0.9,0.9-1.4,1.3c-1.2,0.8-2.4,1.6-3.6,2.4c-2.4,1.6-4.8,3.1-6.8,4.2c-4.4,2.7-8.4,4.4-14,7c-5.7,2.5-13,5.9-24.6,11
				c2.3-1,2.4-1.2,4.7-2.2c-7.4,3-14.3,6.5-22.9,9.5l1.2,5.6c2-0.7,4.2-1.5,6.5-2.2c3.7-1.9,8-3.5,11.8-4.9c3.8-1.4,6.8-2.6,6.5-3.1
				l-24.9,9.6l-0.9-4.3l1-0.4l-0.9,0.4l0.9,4.3c7.3-2.9,13.9-5.9,21.1-8.8c3.6-1.5,7.3-3,11.7-4.7c4.4-1.7,9.3-3.5,15.6-5.7
				c-0.3,0.2-1.9,1-3.9,1.9c-2.2,0.9-4.7,2-6.8,2.9c4.2-1.4,7.5-2.7,10.7-4c3.2-1.3,6.4-2.5,11.1-4.1c2.1-0.2-6.1,3-16.3,6.8
				c-5.1,1.9-10.6,4.1-16,6.1c-5.3,2-10.3,4-14.4,5.8c2.3-0.7,5.5-1.9,8.8-3.2c3.2-1.3,6.7-2.7,9.7-3.8c2.9-1.2,5.3-2.1,6.7-2.5
				c1.4-0.5,1.8-0.5,0.6,0.3c2.7-1.6,6.9-3.3,12.3-5.4c5.7-2.1,11.9-4.4,18.6-6.8c2.2-1.3,3.6-2.4,5.1-3.6l1.7-0.1
				c0.3-0.3,0.8-0.7,1.6-1.3c0.8-0.6,1.8-1.2,3-1.9c-1,0.7-1.6,1.3-1.7,1.9c0.8-1,2.9-2.3,4.4-3.4c-1.6-0.2-2.8-0.4-3.8-0.8
				c-1-0.3-1.9-0.8-3.7-0.8c2.1,0.4,3.1,0.8,3.6,0.9c0.5,0.2,0.4,0.3,0.1,0.3c-0.3,0.1-0.9,0.2-1.2,0.3c-0.2,0.1-0.2,0.2,1.2,0.2
				c-2.3,0.2-4.2,0.3-5.9,0.4c-1.6,0.1-2.9,0.2-3.7,0.1c-1.8,0-2-0.4-1.8-0.9c-2.7,0.2-5.6,0.5-12.3,1.5c-3.3,0.5-7.6,1.3-13.3,2.3
				c-5.6,1-12.7,2.4-21.1,4c4.4-0.9,12.5-2.3,17.4-3.1c5-0.8,6.6-0.9,0,0.5c-5.6,1-12.1,2.1-18.1,3.2c-1.3,0.2-2.6,0.4-3.8,0.6
				c-0.9,0.1-1.7,0.3-2.5,0.4c-1.6,0.2-3,0.4-4.1,0.5c-24.4,4.8,3.8,0-6.5,2.4c-3.7,0.3-6.4,0.9-9.2,1.6l0.7,6.5
				c3.7-0.8,7.4-1.9,13.5-3l0.1,0.7c14-2,15.8-2.6,17.3-3.2c1.5-0.6,2.6-1.2,15.2-2.6l-10.6,2.5l13.1-2.1l-2.6,1.2
				c7.1-1.3,11.8-2,16.4-2.5c4.6-0.5,9.3-1,16.3-1.5c-2.5-0.1-0.1-1,7-1.8l-1.6-3.7c-0.8,1.7-2.5,3.4-5,4.8c-3.9,1.9-2.9,1.2-2.9,1
				c0-0.1-0.2,0-1.5,0.7c-1.3,0.7-3.6,1.9-7.7,3.9c1.8-1.1,3.7-2.3,6-3.6c1.2-0.7,2.4-1.4,3.9-2.1c1.4-0.7,3-1.5,4.4-2.4
				c0.2-0.3,0.7-0.8,1.1-1.4c0.4-0.6,0.7-1.2,0.8-1.6l2.5,5.9c-0.4,0.1-0.6,0.1-0.7,0.2c0.2,0,0.4,0,0.7,0l-2.6-6.1
				c-0.8,1.5-2.5,2.9-4.8,4.1c-2.3,1.2-4.9,2.6-7.3,3.8c-4.8,2.5-9.4,4.7-12.3,5.9c2.3-1,5.1-2.2,6.5-2.8
				c-7.9,4.1-15.9,7.7-24.1,10.8c-3.9,1.1-0.9-0.2,2.1-1.4c-5,1.8-8.4,3.2-15.8,5.3c1.8-1.1,1.3-1.4,11.6-5
				c-7.8,2.7-15.6,5.1-23.6,7c-0.8,0.1-3.9,0.5-6.4,0.8c-0.2,0-0.3,0-0.5,0.1c0,0,0,0-0.1,0c0,0-0.1,0-0.1,0c0,0,0,0,0,0l0,0l0,0.3
				c-0.1,0.7-0.3,1.5-0.5,2c-0.2,0.5-0.4,0.7-0.5,0.8c-0.2,0.1,0.2,0,0.2,0c0,0-0.1,0-0.1,0c0,0-0.1,0.1,0-0.1
				c-0.2,0.2-0.2,0,0.2,0.1l0.5,4.2c2.9-1.6,6.2-3.2,9.9-4.6c3.7-1.4,7.8-2.6,12-3.8c8.5-2.4,17.5-4.7,26.3-6.1
				c0.9-0.3,2.7-0.7,6.5-1.5c6.8-1.1,13.3-1.9,20-2.6l-2.2-7.3c-3.1,3.2-7.7,4.5-12.7,6.1c-5,1.5-10.3,3.2-16.1,4.9
				c-3.7,0.6-7.5,1.1-11.2,1.6c-7.6,1.7-3.8,1.2-1.3,1.1c1.3-0.1,2.2-0.1,1.2,0.3c-1,0.3-3.8,1.2-10.2,2.4c-9.1,1.6-10.8,1.4-11,1.2
				c-0.2-0.3,1-0.8-2.2-0.6c-3.9,0.6-8.9,1.4-14.9,1.7l0.6,7.1c7.7-2.4,16.8-4.9,26.4-6.6C516.4,312.6,512,313.6,506.9,314.9z
				 M519.9,311.4c-3.6,1.4-10.6,4.7-13.3,5.4C510.5,314.3,513.8,313.4,519.9,311.4z M519.1,320.9c-2.7,0.8-7,1.7-11.8,2.5l-0.3-2.7
				l0,0l0,0l0.3,2.7C510.8,322.6,514.7,321.7,519.1,320.9z M509.7,325.2c-0.2,0.1-0.3,0.1-0.4,0.1
				C501.1,327.3,504,326.6,509.7,325.2z M526.7,320.9c1.7-0.6,1.6-0.6,0.8-0.5c-1.2,0.5-5,1.5-9.3,2.6
				C519.4,322.9,521.7,322.4,526.7,320.9z M518.5,304.5l-3.3,1.2C522.5,302.4,520.5,303.4,518.5,304.5z"/>
			<path class="st3" d="M527.9,315.1c1.1-0.1,1.4-0.1,1.6,0C530.9,314.7,531,314.5,527.9,315.1z"/>
			<path class="st3" d="M549.6,303.4l-0.6,0.1c-0.3,0.1-0.5,0.2-0.6,0.2L549.6,303.4z"/>
			<path class="st3" d="M550.8,321.8c-1,0-1.2-0.1-1.1-0.2C548.5,321.9,548.5,322.1,550.8,321.8z"/>
			<path class="st3" d="M575.6,329.3l2.7-1.1l2.1-0.9c0.8-0.3,1.5-0.7,2.2-1.1l4.4-2.1c1.5-0.7,2.6-1.5,3.7-2.3
				c-1.6,1.1-3.2,2-4.8,2.7c-1.6,0.7-2.9,1.3-4,1.9c-1.2,0.5-2.3,1-3.3,1.4c-0.6,0.2-1.2,0.5-1.9,0.7
				C576.9,328.5,579,327.9,575.6,329.3z"/>
			<path class="st3" d="M553.8,329.2c1.6-0.5,3.4-1,4.9-1.5l-0.5-0.2C551.4,329.4,546.7,331.1,553.8,329.2z"/>
			<path class="st3" d="M565.2,330.6c-1-0.3-7.7,2.2-15.3,4.3c0.5-0.1,0.9-0.2,1.4-0.4C549,336,557.2,333.7,565.2,330.6z"/>
			<path class="st3" d="M548.1,335.5c-2.4,0.6-4.8,1.3-7.1,1.8C540.1,337.8,543.9,336.7,548.1,335.5z"/>
			<path class="st3" d="M548.3,315c3.7-0.7,2.2-1.3,4.3-1.5c2-0.9-4.1,0.8-8.1,2.1C540.4,316.9,538.4,317.7,548.3,315z"/>
			<path class="st3" d="M558.7,330.7l2.8-0.1c1.4-0.6,2.8-1.3,4.1-2C563.3,329.3,561,330,558.7,330.7z"/>
			<path class="st3" d="M573.4,312.6l6.5-1.1c2.1-0.3,4.3-0.7,6.3-0.9c0-0.1,1.6-0.4,3.6-0.4c-1.9-0.1-3.7,0.1-5.7,0.4
				c-2,0.3-3.8,0.5-5.5,0.8c-1.6,0.3-3,0.6-3.9,0.7C573.8,312.4,573.3,312.6,573.4,312.6z"/>
			<path class="st3" d="M589.8,310.2c1.3,0.1,2.5,0.3,3.7,0.8c0.6,0.2,1.1,0.5,1.6,0.9c0.2,0.2,0.6,0.4,0.7,0.6
				c-0.1,0.2-0.3,0.5-0.4,0.7c-0.8,1.1-1.5,1.9-2.1,2.5c0.5-0.5,1.3-1.3,2.2-2.5c0.1-0.2,0.3-0.5,0.4-0.7c-0.2-0.2-0.5-0.4-0.8-0.6
				c-0.5-0.4-1.1-0.7-1.7-0.9C592.1,310.4,590.9,310.2,589.8,310.2z"/>
			<path class="st3" d="M575,324.7l3.5-1.3c2.7-1.2,5.5-2.3,8.3-3.8c-2,1-4,1.9-5.9,2.7C579,323.2,577.1,323.9,575,324.7z"/>
			<path class="st3" d="M567,312.8c4.3-1.7,8.7-3.4,13-5.1c1.3-0.8-2.3,0.5-7.1,2.4C569.8,311.5,565,313.3,567,312.8z"/>
			<path class="st3" d="M526.8,323.4c3.6-0.8,3.9-0.7,5.9-1l0.3-1L526.8,323.4z"/>
			<path class="st3" d="M565.2,311.2c1.3-0.7,18.7-7.7,2.3-1.5C566.2,310.4,553.1,315.2,565.2,311.2z"/>
			<path class="st3" d="M550,319.4l3.2-0.5l5.9-2.4C555.8,317.4,552.8,318.4,550,319.4z"/>
			<path class="st3" d="M564,318.5c15.4-4.3,4-2.1,17.1-5.7l-1.4-6.8c-0.2,0.1-0.4,0.2-0.7,0.2c-1,0.5-0.5,0.4,0.7,0l1.3,6.4
				c-2.9,0.7-9.8,2.8-7.2,1.7C564.5,317.5,559.5,318.8,564,318.5z"/>
			<path class="st3" d="M573.8,314.3c1.5-0.5,3.1-1.1,4.8-1.7C575.9,313.5,574.6,314,573.8,314.3z"/>
			<path class="st3" d="M518.6,277c3.4-0.6,6.9-1.2,10.3-1.8l-6.7,0.9L518.6,277z"/>
			<path class="st3" d="M538.1,271.6l2.5,0.4l6-2.4C544.3,270.2,539.9,271.4,538.1,271.6z"/>
			<path class="st3" d="M548,304.2l0.7-0.4c-1.6,0.2-3.9,0.8-8.6,2.2C542.7,305.4,545.3,304.8,548,304.2z"/>
			<polygon class="st3" points="587.5,299.7 588.7,299.5 587.3,290.8 586.2,291.2 587.3,291 588.7,299.3 585.3,299.1 			"/>
			<path class="st3" d="M518.6,306.7c-4.7,0.7-10.2,1.5-14.9,1.8C513.9,307.6,520,307.6,518.6,306.7z"/>
		</g>
		<g>
			<path class="st5" d="M565.5,313C565.5,313,565.5,313,565.5,313l-4.1,3l0-6.1c0-1.2,0.1-2.2,0.4-3.1c0.2-0.9,0.6-1.5,0.8-1.9
				c0.2-0.3,0.2-0.4,0.2-0.5c0-0.1,0-0.2,0.5-0.6c-0.7,0.5-1.1,1.1-1.3,1.6c-0.3,0.5-0.4,0.9-0.5,1.2c-0.2,0.7-0.3,1.2-0.3,1.6
				c-0.1,0.8-0.1,1.3,0,1.7l0.5,7.7l4.1-4.1C566.8,312.4,565.4,312.9,565.5,313z"/>
			<path class="st5" d="M530.1,308.5l0.7-0.5l-1.2,0.5l1.4,4.2c0.5-0.5,0.9-1,1.2-1.5l0.1-0.2l0.1-0.1l0.1-0.2
				c0.1-0.2,0.2-0.3,0.2-0.5c0.2-0.2,0.4-0.2,0.6-0.3l0.3-0.1l0.5-0.2l-0.5,0.2l-0.4,0.1c-0.2,0.1-0.5,0.1-0.7,0.3
				c-0.1,0.2-0.2,0.3-0.2,0.5l-0.1,0.2l-0.1,0.1l-0.1,0.2c-0.4,0.5-0.8,1-1.2,1.4l-1.3-3.9L530.1,308.5z"/>
			<path class="st5" d="M543,296.3c1.4,0.3,3.8,0.1,6.6-0.1l1.7-0.2l-0.2,2.2c-0.1,0.8-0.2,1.6-0.5,2.5c-0.3,0.9-0.7,1.9-1.4,2.6
				c-0.4,0.4-0.8,0.6-1.2,0.8c-0.4,0.2-0.8,0.3-1.1,0.3c-0.5,0.1-0.5,0.2-0.7,0.4l-1-3.4c0.5,0,1-0.1,1.5-0.4
				c0.2-0.1,0.5-0.3,0.7-0.5l0.2-0.2c0.1-0.1,0.3-0.3,0.7-0.4c0.4-0.2,1.2,0,1.6,0.4c0.4,0.4,0.5,0.7,0.6,1l0.8,1.9l-1.6,0.9
				c-1.1,0.7-2.2,1.2-3.2,1.6l-1.2,0.2c-1,0.7-1.9,1.3-2.9,1.9c2.3-0.8,4.9-1.9,7.4-3.4l1.8-1.2l-1-2.2c-0.1-0.3-0.3-0.7-0.7-1.1
				c-0.2-0.2-0.6-0.4-0.9-0.5c-0.3-0.1-0.7,0-0.9,0.1c-0.4,0.2-0.6,0.4-0.7,0.5l-0.2,0.2c-0.2,0.2-0.4,0.3-0.6,0.5
				c-0.4,0.2-0.9,0.3-1.3,0.3l1.1,4c0.2-0.2,0.1-0.2,0.6-0.3c0.2,0,0.7-0.1,1.1-0.3c0.4-0.2,0.9-0.5,1.3-0.9
				c0.8-0.8,1.2-1.8,1.5-2.7c0.3-0.9,0.4-1.8,0.5-2.6l0.3-2.6l-2,0.2C547,296,544.8,296.2,543,296.3z"/>
			<path class="st5" d="M527.7,308c-1.1-0.2,2.9-0.8-1.7,0.1l-5.8,1.1l2.5-7.3c0.2-0.5,0.5-1.5,1-2.4c0.5-1,1.2-2,2.2-2.8
				c-0.7,0.5-0.9,0.7-1.3,1.1c-0.3,0.4-0.6,0.8-1,1.5c-0.2,0.3-0.4,0.7-0.6,1.2c-0.1,0.2-0.2,0.5-0.3,0.7c-0.1,0.2-0.2,0.4-0.3,0.7
				l-2.8,7.4l6.3-0.9C526.1,308.3,526.8,308.2,527.7,308z"/>
			<path class="st5" d="M524.7,297.9c1.3-1.6,2-1.4,2-1.5c0,0-0.7,0-1.3,0.7c-0.6,0.5-1.2,1.3-1.4,1.7
				C523.7,299,523.8,298.9,524.7,297.9z"/>
			<path class="st5" d="M542.4,304.8c-1.8,0.6-3.5,1.1-5.3,1.6c1.1,0,5.9-1,4.2-0.5C546.7,304.4,545.6,304.4,542.4,304.8z"/>
			<path class="st5" d="M547.3,302.7l-2.7,0.9C545.1,303.6,545.9,303.4,547.3,302.7z"/>
			<path class="st5" d="M538.8,305.3c1.9-0.5,3.9-1.1,5.8-1.7c-0.8,0-0.9-0.3-2.7,0.8C542.4,303.9,541.3,304.5,538.8,305.3z"/>
			<path class="st5" d="M535.5,305.9c-3,0.4-6.9,1-1.6-0.4c-5.1,1.1-7.2,1.6-6.8,1.7C527.5,307.3,530.4,307,535.5,305.9z"/>
			<path class="st5" d="M541.1,297.6l4-0.1l3.4-0.7C546.8,297.1,540.8,297.3,541.1,297.6z"/>
			<path class="st5" d="M567.4,285.2c-0.3,0.3,1.8,0.3,2.3,0.5l0.5-0.1l5.7-1.3l-2.8,7.2l-1.3,3.3c-0.1,0.4-0.4,0.4-0.6,0.5
				l-0.7,0.3l-1.4,0.6c0.8-0.3,1.8-0.5,2.7-1c0.5-1.1,1-2.3,1.5-3.4l3.2-7.1l-6.5,0.6C568.7,285.2,567.5,285.3,567.4,285.2z"/>
			<path class="st5" d="M569.6,285.7l-5.8,1.4C569,286.2,570,285.9,569.6,285.7z"/>
			<path class="st5" d="M548.1,301.3c-3.1,1.1-6.3,2.2-9.5,3.2c3.8-1.1,7.6-2.4,11.3-3.7L548.1,301.3z"/>
			<polygon class="st5" points="545,289.3 548.2,288.1 542.4,290.1 			"/>
			<path class="st5" d="M530.2,292.7c2.4-1-3.4,0.1-0.9-0.8c-4,1-7.4,2.3-10.4,3.4C522.1,294.3,525.6,293.4,530.2,292.7z"/>
			<path class="st5" d="M513.2,297.3c1.7-0.5,2.2-0.7,3.1-1c0.8-0.3,1.7-0.6,2.6-1c-0.9,0.3-1.7,0.6-2.6,0.9l-1.3,0.5l-0.3,0.1
				l-0.2,0.1l-0.3,0.1L513.2,297.3z"/>
			<path class="st5" d="M553.8,288.8c-0.5,0-1.4-0.2-4.7,0.3l2.4,0.2C552.2,289.1,553,288.9,553.8,288.8z"/>
			<path class="st5" d="M551.6,289.2L551.6,289.2c-2.6,0.5-4.3,0.8-5.1,1C547.2,290,548.7,289.7,551.6,289.2z"/>
			<path class="st5" d="M554.4,288.6c-0.2,0-0.4,0.1-0.6,0.1C554,288.8,554.2,288.8,554.4,288.6z"/>
			<path class="st5" d="M563.3,297c0.8-0.4,1.9-0.9,2.9-1.4c0.5-0.2,1-0.5,1.4-0.7c0.5-0.3,0.9-0.5,1.3-0.7c0.9-0.5,1.3-0.7,0.9-0.7
				c-0.2,0-0.6,0.1-1.2,0.3c-0.5,0.1-1.1,0.3-2,0.6C564.3,295.8,568.3,294.6,563.3,297z"/>
			<path class="st5" d="M557.3,288.9l6.2-1c-0.1-0.1-1.3-0.2,0.4-0.7L557.3,288.9z"/>
			<polygon class="st5" points="554.3,289.7 557.3,288.9 555,289.3 			"/>
			<path class="st5" d="M524.5,295c-2.6,0.9-5.5,1.7-8.8,2.6c3.5-0.8,7.2-1.7,10.7-2.5C526.8,294.7,528.3,294,524.5,295z"/>
			<path class="st5" d="M537.6,292c-0.2,0.1-0.4,0.1-0.6,0.2C537.4,292.2,537.7,292.1,537.6,292z"/>
			<path class="st5" d="M541.8,300.9c-0.2,0-0.3,0-0.5,0c0,0-0.1,0.1-0.1,0.1L541.8,300.9z"/>
			<path class="st5" d="M526.9,295c2.7-0.5,4.2-1.1,5.7-1.6c-2,0.5-4.1,1-6.3,1.6C526.1,295.2,526.1,295.3,526.9,295z"/>
			<path class="st5" d="M520.1,306c-1.4,0.1-3,0.3-4.7,0.5C516.9,306.5,519.7,306.3,520.1,306z"/>
			<path class="st5" d="M536.1,292.2c0.1,0,0.3-0.1,0.4-0.1C535.6,292.2,535.8,292.2,536.1,292.2z"/>
			<path class="st5" d="M536.1,292.2c-1.4,0.4-2.4,0.8-3.5,1.2c1.6-0.4,3.1-0.8,4.4-1.2C536.7,292.2,536.4,292.3,536.1,292.2z"/>
			<path class="st5" d="M551.1,294.5c-0.4,0.7-7.3,3-13.4,3.6c-5.9,1.7-1.8,2.8,3.6,2.7c0.1-0.3,0.1-0.5,6.2-2.3
				c-2.2,0.2-13.6,2.3-8.6,0.7c8-2.1,6.6-1.3,10.6-1.9c-1.7,0,0.8-0.8,3.5-1.8c2.7-1,5.6-2.2,4.6-2.4l-7,2.2
				C550.6,295.1,553.1,294.2,551.1,294.5z"/>
			<path class="st5" d="M529.6,303.3l-2.5,0.6c2.9-0.5,5-0.7,8.8-1c4.2-1.2,5-1.6,5.3-1.9c-4.1,0.9-8.3,1.8-12.4,2.6L529.6,303.3z"
				/>
			<path class="st5" d="M515.8,306.1c1.9-1,7.9-2.5,4.1-2.4c-5.1,1-5.6,1.4-6.9,1.9l-5.5,2.1l4-6.1c0.2-0.3,0.4-0.6,0.9-1.3
				c0.2-0.3,0.5-0.6,0.8-1c0.1-0.2,0.4-0.2,0.6-0.3c0.2-0.1,0.4-0.1,0.7-0.2c-0.4,0.1-0.8,0.2-1.1,0.3c-0.3,0.3-0.5,0.6-0.8,0.9
				c-0.4,0.5-0.8,0.9-1.1,1.3l-4.7,5.7l6.4-1.3c4.3-0.8,0.9,0,0,0.4l-6.9,3.1l5-8.2c0.2-0.3,0.2-0.4-0.1-0.1l-5.3,5l7.4,0.3
				c0.3,0,1.1-0.1,2.6-0.3c-0.9,0.2-1.8,0.4-2.6,0.6l-8.6,2l6.4-7.8c0.4-0.4,0.7-0.9,1.1-1.3c0.2-0.3,0.4-0.5,0.6-0.7l0.3-0.4
				c0.1-0.1,0.2-0.1,0.4-0.2c0.8-0.2,1.6-0.5,2.4-0.7c-0.9,0.2-1.8,0.4-2.7,0.6c-0.4,0.4-0.8,0.9-1.2,1.3c-0.3,0.4-0.6,0.7-1,1.1
				l-6.6,7.5l9-1.2c0.8-0.1,1.6-0.2,2.3-0.3c-0.1,0-0.2,0-0.3,0l-0.1,0l0,0c-0.5,0-0.7,0-0.1-0.1c0,0,0.2,0,0.2-0.1
				C515.4,306.4,515.6,306.3,515.8,306.1c3.5-0.5,0.6,0.1-0.5,0.3c0,0-0.1,0.1-0.1,0.1c0,0,0,0,0,0l11.9-2.7
				C524.6,304.3,521.4,305,515.8,306.1z"/>
			<path class="st5" d="M569.4,289.4c-0.4,0-0.4,0-0.4-0.1C568.2,289.6,568,289.7,569.4,289.4z"/>
			<path class="st5" d="M564.4,289.9c0.9-0.2,1.6-0.6,4.4-1c2.5-0.2,0,0.3,0.2,0.5c0.4-0.1,0.9-0.2,1.5-0.4l0.7-0.2l-0.3,0.9
				c-0.7,2-1.4,4.2,0.4,0.3l0.8-1.7l-1.6,0.1c-0.2,0-0.5,0-0.9,0.1l-0.8,0.2c-4.8,0.6-11.1,0.9-10.3,0.7
				C559.9,289.7,561.2,289.9,564.4,289.9z"/>
			<path class="st5" d="M536.4,294.2c-3.3,0.8-6.6,1.7-9.9,2.6l5.1-0.7l-0.3-0.3C537,294.7,535.8,294.6,536.4,294.2z"/>
			<polygon class="st5" points="543,300.9 541.8,301.9 547.4,299.6 			"/>
			<polygon class="st5" points="555.9,297.7 555.5,298.4 558.9,297.1 			"/>
			<path class="st5" d="M525.1,284.9l-2.8,1.3C523.6,285.6,524.4,285.2,525.1,284.9z"/>
			<path class="st5" d="M545.6,278.5l0.5-0.4C545.1,278.5,544.8,278.7,545.6,278.5z"/>
			<path class="st5" d="M508,289.6c-4.3,0.2-9.2,0.2-8.6,0.8l1.4,0.4C503.8,290.1,506.1,289.8,508,289.6z"/>
			<path class="st5" d="M531.9,291.4c-0.4,0.1-0.8,0.1-1.3,0.2c-1,0.5-1.9,1-2.8,1.4C529.1,292.5,530.5,292,531.9,291.4z"/>
			<path class="st5" d="M534.3,287.9c1.8-0.5,3.6-1,5.4-1.6C538.6,286.7,536.8,287.2,534.3,287.9z"/>
			<path class="st5" d="M535,276.5c1.1-0.4,2.2-0.9,3.3-1.3C533.1,276.2,535.4,276,535,276.5z"/>
			<path class="st5" d="M519.1,298.9c3.7-0.6,6.6-1.2,9.2-1.8C523.9,297.9,520.2,298.1,519.1,298.9z"/>
			<path class="st5" d="M531.9,275.4c-1.8,0.7-2.5,1.1-2.4,1.2C531.2,275.9,532.3,275.4,531.9,275.4z"/>
			<path class="st5" d="M538.9,294.4c-0.7,0.1-1.3,0.3-2,0.4c-2.7,0.8-5.3,1.6-8.6,2.4C531.7,296.6,535.4,295.8,538.9,294.4z"/>
			<path class="st5" d="M545.4,266.5c-0.3,0-0.7,0-1,0C544.4,266.7,544.8,266.6,545.4,266.5z"/>
			<path class="st5" d="M509.9,265.4c1.2-0.3,3.2-0.8,5-1.2C514,264.4,512.5,264.7,509.9,265.4z"/>
			<path class="st5" d="M565.7,280.7C568.5,280.1,566.2,280.5,565.7,280.7L565.7,280.7z"/>
			<path class="st5" d="M579.4,281c-0.6,0.1-1,0.3-1.1,0.5C578.5,281.2,578.9,281.1,579.4,281z"/>
			<path class="st5" d="M561.4,282.4c-0.1,0-0.1-0.1-0.2-0.1C561.9,282.7,561.8,282.6,561.4,282.4z"/>
			<path class="st5" d="M569.9,280.2c-1,0.1-2.2,0.2-3.5,0.4C566.9,280.6,568,280.5,569.9,280.2z"/>
			<path class="st5" d="M569.3,280c1-0.1,1.7-0.3,2.4-0.4C572.1,279.5,571.7,279.5,569.3,280z"/>
			<path class="st5" d="M561.9,281.4c1.6-0.3,3-0.5,4.5-0.8c-0.5,0.1-0.8,0.1-0.6,0C564.9,280.9,563.8,281.1,561.9,281.4z"/>
			<path class="st5" d="M576.5,257.4l0.2,0l0.6,3.8l-0.4,0.1c-2.5,1.2-1.5,0.8,0.4-0.1l-0.6-3.9
				C576.6,257.4,576.6,257.4,576.5,257.4z"/>
			<path class="st5" d="M523.6,287.2c-0.1,0.1-0.2,0.1-0.3,0.1C523.5,287.3,523.6,287.3,523.6,287.2L523.6,287.2z"/>
			<path class="st5" d="M529.6,291.7c0.8-0.4,1.6-0.8,2.3-1.1l-1.2-6c-2.6,1.4-4.6,2-7,2.6c1.2,0.3,2.3,0.5,3.5,0.7
				c1.2-0.9,2.4-1.9,3.6-2.9l1,5L529.6,291.7z"/>
			<path class="st5" d="M556.8,272.4c-2.2,0.6-4.5,1.2-6.7,1.8c7.9-3.6,13.5-5.8,7.3-4.1c-0.2,1.2-6.6,3.7-13.1,5.5
				c-6.5,1.9-13.1,3.1-13.5,4.1c-1.5,0.1-3,0.2-4.5,0.3c1.3-0.2,1.5-0.3,2.8-0.5c-3.7,0.2-5.4,0.5-7,1c-1.6,0.5-3,1.1-6.1,1.5
				l0.8,5.7c1.2-0.6,2.6-1.3,4.5-2c3.8-1.4,6.6-2.1,4-0.9c2.8-1.2,5.6-2.4,8.5-3.5c2.5-0.8,2-0.2-0.5,0.5c4.4-1.5,8.8-2.8,13.2-3.9
				l-0.1,0.1c0.3-0.1,0.6-0.3,1-0.4c0.3-0.1,0.7-0.3,1.1-0.4c0.3-0.1,0.6-0.2,0.8-0.2c0,0,0.1,0,0.1,0c0,0,0,0,0,0l0-0.1l0.1-0.2
				c0.1-0.2,0.1-0.2,0-0.1l0.7-3.6c-1.1,0.8-2.1,1.5-2.8,1.9c-3.3,1.5,1.5-1.1,0.6-0.9c-2.3,1.4-4.5,2.8-6.8,4.1
				c-3,0.9,2.7-2.3,7.5-4.9c-3.5,0.8-4.9,1.7-7.2,3.1c-2.3,1.4-5.6,3.4-13,5.9c2.2-1,4.5-2.1,6.7-3.2c-4.6,0.9-9.7,3.5-17.6,5.9
				c1.9-0.3,15.8-4.6,8.1-0.9c-2.2,0.8-5.2,1.9-9.3,3.9c-0.1-0.3-0.8-0.1-1.9,0.2l1.6,6.8c1.7-0.6,4.4-1.9,7.5-3.3l-0.1,1.1
				c5.5-2.7,4.9-3,8.1-4.8c6.2-2.7,7.7-2.5,9.3-2.6c9.9-4.2-7.1,1.9,4.6-3.5c0.8-0.3,1.6-0.7,2-0.8c0.2-0.1,0.4-0.1,0.4-0.1l0,0
				c0,0,0,0,0-0.1c0-0.1,0-0.3,0.1-0.4c0-0.2,0.1-0.2,0.1-0.2l0-5.8c-5.8,3.1-11,5.6-19.1,8.4c-5.9,1.3,0.9-0.9-1.2-0.5
				c-1.7,0.7-3.4,1.4-5.1,2.1c-1.3,0.3-0.9,0-0.7-0.2c-4.4,1.3-0.2,1.1-7.2,2.8c-0.7,0.5-2.8,0.9-5.8,1.3l0.5,4.1
				c5-0.6,12-1.3,17.4-3.1c2.2-0.2-1,0.8-0.3,1c5.9-1.6,8.5-2.3,10.8-2.9c1.1-0.3,2.2-0.7,3.6-1c1.4-0.3,3-0.8,5.3-0.8
				c0.3,0.1,0.6,0.2,0.8,0.3l-0.9-2.7c-0.7,1.5-3.6,2.1-5.9,3c6-1.9-1.2,2.5-7.9,5.1c2.2-0.3,4.1-0.6,5.4-0.9
				c-3.6,1.5-7.2,2.7-10.8,3.7c-1.4,0.2-0.3-0.4,1.5-1.3c-0.7,0.3-1.4,0.5-2,0.7c-4,0.5-2-0.4,0.7-1.6c1.4-0.2,2.7-0.3,4-0.5
				c2.6-1.3,4.9-2.8,4.3-3.1c-0.7,0.3-2,0.9-3.5,1.4c0.7-0.4,1.1-0.6,0.7-0.6c-0.4,0-1.5,0.6-3.2,1.3l-2.6-0.4l-0.5,0.6
				c-4.8,0.9-9.5,1.6-14.4,2.1c-2.1,0.6-4.1,1.1-6.1,1.7l0.7,4.9c3.8-2,7.7-4,12.2-6c4.5-2,9.7-4.2,16.1-6c-3.9,1.8-0.7,1.5-0.8,2.4
				c-4.5,0.1-12.3,4-20.6,7c4.3-1.5,3.5-0.7,2.4-0.2c4.8-2.1,9.7-4.1,14.5-5.8c-0.2,0.8,3.2-0.4,7.1-1c-0.8-0.2-0.5-0.5,0.6-0.9
				l-0.8-4.7c-1.4,0.8-4.3,2-7.5,3.2c-3.1,1.2-6.5,2.3-8.7,3.2c-0.5-0.4,0.9-1.2,8.2-3.7c-4.1,0.9-6.6,2.1-9.2,3.4
				c-2.5,1.2-5,2.5-9.1,3.1c1.8-0.5,2.8-0.7,3.5-1.1c-2.1,0.8-5.7,1.8-8.5,2.4c-2.8,0.6-4.8,0.8-3.6,0.3l1.8-0.4
				c-2.5,0.5-5.6,1.2-8.9,1.8l0.7,4.8c12.3-3.8,27.9-8.9,29.2-10.3c0.1,0.1-1.3,2-2,2.4l8.9-4.6l-0.4-2.1c-3.8,2.4-7.7,4.5-11.7,6.4
				c0.9-0.8-0.6-1.3-1.1-2.1c-0.5-0.8,0.1-1.7,5-3.5c-2.8,0.7-6.3,1.6-12.3,3.3c2-0.3,5.1,0.4,2.4,1.2c-3.8,0.2-5,0.3-6.6,0.5
				c-1.5,0.1-3.2,0.4-7.8,0.6c3-0.2-0.1,2-4.9,2.6c0.7-0.4-0.5-1.6,1.2-2c-3.8,1.1-7.7,2.2-11.6,3.2c2.9-0.7,0.4-1.5-2.2-1.6
				c0.3,0-0.2,0.1-1.2,0.3l0.5,5.9c2.8-0.5,9.7-1.6,12-2.1l-5,0.5c13.2-2.1,12.8-4.6,25.9-6.9c-1.5,0.6-3.7,2.8,3,1.8
				c1.5-0.7,4.8-2.3,9.1-4.1c2-0.8,4.2-1.7,6.5-2.6c1.8-0.7,3.2-1.3,4.7-1.7l2.6,0c1.7-0.5,3-0.9,4.1-1.3c0.5,0.2,0.6,0.6,0,1.2
				c-0.6,0.6-1.9,1.3-4.2,2.2c-2.2,0.9-5.3,1.9-8.8,3c-2.8,0.9-5.3,1.7-7.5,2.4c2.5-0.2,2.8-0.2,3.5-0.2c0.3,0,0.7-0.1,1.5-0.2
				c0.4-0.1,0.9-0.1,1.5-0.3c0.9-0.2,2-0.4,3.4-0.6c2.2-0.2,0.7,0.3-2,0.9c-0.9,0.2-2,0.5-3,0.7c-0.9,0.2-1.7,0.3-2.2,0.5l4.3-0.7
				l7.5-1.3l15.3-2.6c-0.5,0-0.5-0.1-0.2-0.3c0.1-0.1,0.4-0.2,0.6-0.3c0.1,0,0.3-0.1,0.5-0.1l0.1,0c0,0,0,0-0.1,0l-0.1-0.1l-0.1-0.1
				l0,0c0,0-0.1,0,0.1,0c0.4,0,0.7,0.1,1.1,0.1l0.1,0l-1.2-0.2c-0.3-0.1-0.3-0.1-0.3-0.1l0,0l0,0l-0.1,0l-0.1-0.1l-0.1-0.1
				c0.1,0,0.2,0,0.2,0l-0.1-0.1c-0.1-0.2-0.1-0.4-0.1-0.6c0-0.2,0.1-0.3,0.1-0.5c0.1-0.1,0.2-0.3,0.3-0.4c0.8-1.1,2.5-1.7,2.2-1.6
				c-0.8,0.3-1.6,0.7-2.3,1.1c-0.7,0.4-1.2,0.9-1.5,1.6c0,0.1,0,0.2-0.1,0.3l0,0.1c0.1,0-0.2,0-0.2,0l0.2,0.2l1.2,0.3l0,0l-0.1,0
				l-0.2,0l-0.3,0l-0.6,0c0,0.1,0.1,0.1,0.1,0.2c0.1,0,0,0.1-0.1,0.1l-0.2,0l-0.4,0.1l-3.4,0.7l-7,1.5c-0.6-0.1,0-0.5,1.2-1.1
				c1.3-0.5,3.2-1.2,5.3-1.9c1.7-1.9,5.6-2.8,11.9-4c0,0,0.1,0,0.1,0l0,0c1.3,0.9,0.8,0.6,0,0l0,0c-0.9,0.2-1.9,0.4-2,0.4
				c0.3-0.1,1.1-0.2,2-0.4l0,0c0.2,0.1,0.4,0.3,0.6,0.4c0.2,0.2,0.5,0.3,0.6,0.6c0.1,0.3,0,0.7-0.1,1c-0.1,0.2-0.1,0.3-0.2,0.5
				c-0.1,0.1-0.2,0.1-0.4,0.2c-1,0.4-2.1,0.9-3.2,1.3c-2,0.8-3.8,1.4-4.2,1.6c1.7-0.6,3.3-1.2,5-1.9c-6.6,2.6-10.8,4-18.8,6.1
				c-2.8,0.7-8.4,1.9-8.8,1.9c2-0.4,3.3-0.7,4.1-0.8c0,0,0.1,0,0.1,0l0,0l-0.2-0.3c-0.3-0.5-0.5-1-0.9-1.4c-0.6-0.9-1.3-1.5-1.9-1.9
				c-0.3,0.1-2.5,1.2-5.9,2.4c-0.4,0.1-0.9,0.3-1.3,0.5c-0.1,0-0.2,0.1-0.3,0.1l-0.3-0.2c-0.2-0.1-0.4-0.2-0.5-0.4
				c-0.3-0.3-0.7-0.6-1-0.9c-0.2-0.2-0.3-0.3-0.5-0.5c-0.2-0.2-0.2-0.4-0.1-0.6c0-0.1,0.1-0.2,0.1-0.3l0.2,0c0.1,0,0.3-0.1,0.4-0.1
				c0.3-0.1,0.6-0.1,0.8-0.2c0.5-0.1,0.9-0.2,1.2-0.2c0.4,0,0.6,0,0.7,0.1c0.1,0,0,0-0.2,0.1c-0.4,0.2-1.2,0.4-2.1,0.7
				c-1.3,0.7-2.9,1.7-3.8,2.4c-0.1,0.1-0.2,0.2-0.3,0.2c-0.1,0.1-0.1,0.1-0.1,0.1c-0.1,0.1-0.1,0.1-0.1,0.2c-0.3,0.1,0.2-0.1,1-0.7
				c0.3-0.2,1.6-1.1,3-2c0.2-0.1,0.4-0.3,0.5-0.3l0.3,0c0.2,0,0.3,0,0.5-0.1c0.3-0.1,0.7-0.1,0.9-0.1c0.3,0,0.5-0.1,0.7,0
				c0.2,0.1,0.2,0.1,0.3,0.2c0.1,0.1,0,0.1,0.1,0.2c0,0.1,0.2,0.2,0.7,0.5c0.1,0.1,0.3,0.2,0.4,0.3c0.1,0.1,0.2,0.1,0.3,0.2l0.1,0.1
				c0.1,0,0.2,0,0.3-0.1c0.7-0.2,1.6-0.5,2.8-0.9c0.5-0.4,1.3-0.8,2.4-1.2c1.1-0.4,2.3-0.7,3.3-1c1.8-0.5,2.3-0.6-2.7,0.4
				c6.1-2.1,6.6-1.7,13.9-3.6c-2.4-0.1,6.2-3.8,12.6-5.3c-0.3,0.2,0.3,0.2,0.8,0.4c0.3,0.3,0.6,0.5,0.8,0.7c0.7,0.3,1.4,0.4,1.9,0.4
				l0-0.2c-11.5,3.8-18.2,5.5-29.4,8.5c-1.1,0.1-6.9,1.2-4.5,0.2c-1.7,0.6-3.2,1.3-6.9,2.2c-7.2,0.8,8.2-2.1,2.6-1.8
				c-0.4,0.7-9.4,3.1-14.6,4.4c1.7,0.6,12.2-2.4,17.3-4.1c0.2,1.2-8.7,4.9-21.2,7.9c-0.9,0.2-1.7,0.4-2.3,0.5
				c-0.3,0.1-0.4,0.1-0.8,0.2c-0.3,0.1-0.6,0.2-0.9,0.3l-0.5-3.8c4.2-0.9,0.8,0.7,2.1,0.2c18.6-4.3,15.5-6.1,31.1-8.7
				c6.2-0.6,0.5,1.5,1.9,1.8c-8,2.1-12.5,2.3-17.9,3.7l6.8-1.2c-2.5,0.9-7.9,2.3-10.9,2.8c2.6-0.3,10.5-2.1,19.5-4.2
				c9-2,19.2-4.1,26.5-5.2c2.5-0.8,6.9-1.8,4.8-1.8l-4.6,1c-4.3,0.2,8.5-2.5,2.7-1.7c3-0.8,6.3-1.7,9.8-2.5c1.8-0.4,3.6-0.8,5.7-1.1
				c2-0.2,4.3-0.3,6.7,0.5l0.3,0.3l3.6,3.1l-3.2,0.5c-0.5,0.1-1,0.2-1.5,0.2c0.1,0,0.6-0.2,1.3-0.7l2.4-1.5l-2.7-1.2
				c-0.9-0.4-2.3-0.7-3.6-0.8c-1.3-0.1-2.6,0.1-3.5,0.3c1.5-0.3,4.2-0.5,7.1,0.7l2.4,1l-2.2,1.5c-3.7,2.4-7.9,3.6-10,5.1
				c2-0.5,4.1-1.1,6.1-1.8c-3,1.7-6.4,3.2-9.9,4.6c-3.5,1.4-7.3,2.7-11.1,3.6c3.6-0.1,1.7-0.6,7.3-1.2c-2.4,0.1,2.4-1.4,6.9-2.8
				c4.5-1.5,8.8-3.6,4.8-2.5c2.5-0.5,4.6-1.5,6.8-2.9l6.2-4.2l-6.9-2.5c-3.6-1.3-7.2-0.9-11.5-0.7c0.3,0.3,2.7,0.1-3.8,1.1
				c-0.3,0.1-1,0.4-1.4,0.5c-0.2,0-0.3,0-0.4,0.1c0.1,0,0.2,0,0.4,0c-0.3,0.1-0.3,0.1,0.1,0c1.5-0.1,2.8-0.2,3.3-0.1
				c-3.1,1.2-13.4,3.1-16.8,4.1c-3.8,0.6,1.6-0.7-0.6-0.6l-5.1,1.6c-0.6-0.6-10.2,1-1.3-1.2l-8.1,1.7c-4.8,0.7-11.3,2-15.3,3.2
				c-3.8,0.7-9.5,3-6.2,1.7l-12.5,3.5l-0.1-0.1c-1.9,0.5-3.8,0.9-5.8,1.5l0.9,7.2l1.3-0.4c0,0,0.1-0.1,0.2-0.1l0.5-0.1
				c0.7-0.1,1.4-0.3,2-0.4c1.4-0.3,2.7-0.6,4.1-0.9c2.8-0.7,5.6-1.3,8.4-2c5.7-1.4,11.5-2.7,17.6-3.9c4.2-1.3,8.4-2.7,15.4-4.7
				l1.5,0.1c2.6-0.9,6.7-2.1,10.3-3.3l17.2-5.5l-17.6-2.9c-0.6-0.1-0.9-0.2-1.1-0.2l-0.1-0.1c-0.1,0,0,0-0.3-0.2
				c-0.4-0.2-0.7-0.5-1.1-0.7c-0.5,0.1-1.1,0.2-1.6,0.3c-0.4,0.1-0.8,0.1-1.1,0.2c-0.6,0.1-1.1,0.2-1.5,0.3c-0.9,0.2-1.6,0.4-2,0.6
				c-3-0.2-9.6,1.2-16.6,3.3c-1.7,0.5-3.5,1-5.3,1.6c-0.9,0.3-1.7,0.6-2.6,0.8l-0.6,0.2l-0.1,0l-0.2,0.1c-0.3,0.1-0.6,0.2-0.8,0.3
				c-0.1,0-0.2,0.1-0.4,0.1c-0.1,0-0.2,0-0.2,0.1c-0.4,0.4-0.8,0.9-1.2,1.4c0.3,0.5,0.6,1.2,1.2,0.9c0.5,0,1,0,1.5,0
				c1.1,0,2.4,0,4.2-0.1c0.4,0.4,0.7,0.8,1,1.2c1.9,0,3.9-0.7,5.5-1.5c0.8-0.4,1.5-0.9,2.1-1.3c0.3-0.2,0.6-0.5,0.9-0.7
				c0.1-0.1,0.2-0.1,0.2-0.2c0-0.1,0.1-0.3,0-0.5c0-0.2-0.1-0.3-0.3-0.4l-0.4-0.2h0c-0.9,0.1-1.7,0.3-2.4,0.4
				c-0.7-0.1,0.4-0.3,1.9-0.4h0c0.1,0,0.2,0.1,0.3,0.1l-0.4-0.1h0c-3.2,0.2-4.6,0.4-5.7,0.6c-1.1,0.2-1.8,0.5-2.9,0.9
				c-0.5,0.2-1.1,0.4-1.8,0.6c-0.4,0.1-0.7,0.2-1,0.3l-0.6,0.1l-0.8,0.2c-3.2,0.6-6.4,1.2-9.4,1.4c-3,0.8-5.1,1.1-7.3,1.3
				c0.3-0.1,0.5-0.1,0.7-0.2c-0.3,0.1-0.8,0.1-1.2,0.2c-1.3,0.1-2.7,0.3-4.2,0.4c1.3-0.1,2.5-0.1,3.5-0.3c-2.3,0.4-5.8,1.1-9.2,1.9
				l-1.5-0.4c-0.3,0.1-0.5,0.1-0.8,0.2c-3.4,0.3-2.7,0.8-0.8,1c-1.7,0.4-3.3,0.8-4.5,1.2c-2.8-0.7-9,2-12.8,1.4
				c-0.3,0.1-0.9,0.3-1.6,0.5l0.5,6.2c4.5-0.9,16-2.4,17.4-3.8c0.1,0.1,1.2,0.1-0.7,0.4c3.9-0.4,7.7-0.9,11.1-2l1.7,0.6
				c2.8-1,5.5-2,8.2-3.2c2.6-0.4,4.4-0.7,4.9-0.7c0.6,0-0.1,0.6-2.6,1.6c6.3-2.4,8.6-3.5,10.9-4.5l-0.9-4.4c-2,0.7-4,1.5-8.8,3.4
				l0.4-0.7c-3.6,1.1-9.3,3.7-11.6,3.9c-3,0.5-9,2.2-16.4,4.4l0.7,4.8c6.4-1.2,13.8-2.9,21.2-5c7.4-2.1,14.9-4.6,21.4-6.9l-1-5.7
				c-0.9,0.2-1.8,0.3-2.7,0.5c2.2,0.4-0.3,0.7-3.4,1.3c-3.1,0.6-6.8,1.5-7.1,2.3c-1.3,0-4.3,0.8-0.9-0.7c-8,3-13,4.5-18,6.6l1,6.8
				c1.7-0.3,3.4-0.8,5.3-1.3c1.3,0.2-2.3,1-1.1,1c0.9-0.2,3.4-0.9,4.6-0.9c1.1,0.1-1.6,0.6-3.3,1.1c5.6-0.9,8.6-1.9,10.3-2.7
				c1.7-0.8,2.1-1.6,2.5-2.2c5.7-0.7,8.5-1.6,12.4-3.7c2-0.3,5.3-1.1-1.5,1.5c1-0.3,2.9-0.9,5.3-1.8c1.2-0.4,2.5-1,3.8-1.6
				c0.7-0.3,1.4-0.7,2.2-1.3c0.8-0.6,1.6-1.5,2.2-2.8l1.3-3.1l-2.6-0.7c-3.2-0.8-6-0.2-8,0.2c-2,0.5-3.3,0.9-3.3,1.1
				c-1.2,0-5.4,1-6.4,1.3c-8.7,1.7-9.5,1.8-18,3.6l2.4-0.3c-1.6,0.9-3.3,1.3-5.4,1.7l0.3,2.5c2.2-0.4,5-0.8,8.5-1.6l-0.2,0.2
				c7.9-1.3,9.6-2,11.2-2.5c0.8-0.3,1.6-0.6,3.2-1c1.6-0.5,3.9-1.1,7.8-2.3l-1-0.4c0.6-1.2,5.3-2.4,10.6-4.9l2-0.9l-1.9-1.5
				c-0.6-0.5-1.4-0.7-2-0.6c-0.6,0-1.2,0.2-1.7,0.4c-1,0.4-2,0.8-2.9,1.1c-1.9,0.8-3.8,1.6-5.6,2.5l3.2-1
				c-4.6,2.6-13.7,3.9-18.5,5.8c-1.1,0.3,1.6-0.9,3-1.7c-12.5,4.6-1.5,1.6-10.4,5.8l1.2,5.2c0,0,0.1,0,0.2-0.1
				c1.8-0.2-1.9,2.1,4.4-0.3c1.6-0.4,6.1-2.6,11.3-5.2c5.2-2.6,11-5.5,15.3-7.3c-2,0.6-3.9,1.2,0.3-1.3c1.3-0.7,2.9-1.6,4.6-2.4l2-1
				l-1.1-2.6c-0.5-1-1.3-1.8-2-2.1c-0.7-0.3-1.4-0.4-2-0.3c-1.2,0.1-2,0.3-2.9,0.4c-1.8,0.3-3.7,0.7-5.4,1.1
				c-3.6,0.8-6.8,1.9-9.2,3.2c-0.9,0.2-1.2,0.2-1.3,0.1c-3.4,1.4-9.6,3.9-14.1,6.2l-11.3,5.8l11.9-1.4c2.5-0.3,4.6-0.7,5.7-1
				c2.5,1,10.8-0.3,18.4-2.5c7.5-2.1,14.3-4.9,14.4-3.8c3.2-1.1,6.3-2.4,9.4-3.7L583,268l-20,3l-6.5,1l0.4-0.3
				c-10.4,1.5-14,2.8-17.6,4.1c-2.4,0.3-0.7-0.2-0.5-0.4c-10.1,1.8-14.1,2.9-19.3,4.6l0.4,5c2.7-0.3,5.7-0.7,10-1.6l1.4,0.6
				c1.6-0.4,6.3-0.9,12.3-2.2c3-0.6,6.3-1.4,9.8-2.4c1.7-0.5,3.4-1,5.2-1.6c1.8-0.7,3.8-1.6,5.5-3.3l6.2-6.3l-7.7,1.1
				c-1.4,0.2-2.9,0.4-4.2,0.7c0.1-0.1,0.4-0.3,1.6-0.5c-5.2,0.9-11.1,1.8-16.9,2.8c-2.9,0.5-5.7,1.1-8.6,1.8
				c-2.8,0.7-5.6,1.6-8.1,3.1l-1.4,0.8l-0.2,2.1c-0.1,0.9,0.2,2,0.6,2.7c0.4,0.7,0.9,1.1,1.2,1.3c0.7,0.4,1.1,0.5,1.5,0.5
				c0.2,0,0.4,0,0.6,0l0.3,0l0.2,0l0.5-0.1c0.7-0.1,1.4-0.3,2.1-0.4c1.3-0.3,2.6-0.6,3.7-1c2.2-0.7,3.9-1.5,5-2.3
				c3.6-1.2,7.2-2.7,10.7-4.3c-14,4.8,1.9-1.8-4-0.2c5.4-2,14.1-4.9,7.6-1.9l-1.1,0.3c-1.1,1.2,3.3-0.4,7.8-2.5
				c1.1-0.5,2.3-1.1,3.3-1.6c1.1-0.5,2.1-1,3-1.5c0.9-0.5,1.7-1.1,2.3-1.7c0.5-0.5,0.8-0.9,0.9-0.7l0.3-0.5l2.5-4.1l-4,0.2
				c-13.6,0.8-27,2.6-40.2,4.3l0.5,5.4c14-2.7,27.8-5.4,41.2-8.1l-3.1-0.4l8.9-1.8l-0.7-4.2l-0.2,0.1c-1.9,0.5-2.9,0.4,0-0.8
				l0.9,5.7c-0.7,0.2-1.7,0.4-3.1,0.7c0.9,0,2-0.2,3.1-0.5l-1-6.1c-3.5,1.3-7.5,3.5-7.6,3.7c-12.5,4.1,4.6-3,0.8-1.6l-5.2,2l1.2-0.3
				c-4.1,2-4.4,2.5-12,5.3c-4.9,1.5-2.6,0.3-4.5,0.9c0,0-0.2,0-0.6,0.1s-1.2,0.4-2.3,0.9l-11.2,4l4.7-0.8c-4.9,2.2-10.5,3.8-5.2,2.8
				c-1,0.2-2.3,0.5-4,1l0.8,3.7c4-1.2,9.8-3.5,15.6-6.6c2.9-1.5,5.8-3.2,8.6-5c1.4-0.9,2.7-1.8,4-2.6c0.6-0.4,1.3-0.9,1.9-1.3
				c0.3-0.2,0.8-0.5,1.2-1c0.2-0.3,0.5-0.7,0.7-1.2c0.2-0.6,0.3-1.3,0.2-2l-0.3-2.2l-1.7,0.3c-5,0.8-8.7,1.6-10.1,1.8
				c-7.1,2.3-14.1,4.3-22.6,7.6c2-0.6,3.4-0.3-2.4,2l0.3,1.8c0.4-0.1,0.8-0.2,1.4-0.3c-1.3,1.3,2.2,0.8,6.8-0.1
				c4.6-0.8,10.2-2.2,13.4-2.4c-3.3,0.4,5-1.9,10.2-4.3l-0.9-4.8c-3.6,1-5.8,1.8-2.4,1.5c-6.3,1.4-0.5-0.6-5.3,0.1
				c-10.2,3.3-22,6.7-34.2,11.3l0.9,5.8c5.6-0.7,11.3-2,17-3.9c0.2-0.4-2.9,0.3,1-1.4c3.3-0.7,6.6-1.5,9.9-2.5
				c1-0.5,1.6-0.9,2.2-1.3c0.2-0.1,0.3-0.2,0.4-0.3c0.4-0.2,0.6-0.5,0.9-0.8c0.3-0.3,0.6-0.7,0.9-1.6c0.1-0.5,0.3-1.1,0.2-1.9
				c-0.1-0.8-0.4-1.3-0.7-1.7l-0.8-1l-0.8,0.2c-1.2,0.3-2.8,0.5-5.8,0.5c1,0.1,2.4,0.3-0.1,0.6c-13.7,1.3-27.4,4.4-41,8.7l-17.4,5.6
				l17.8-0.7c7.4-0.3,14.9-1.2,22.3-2.7c3.7-0.7,7.4-1.6,11-2.6c1.8-0.5,3.7-1,5.5-1.6c0.9-0.3,1.9-0.6,2.9-1.1c1-0.6,2.3-1.6,3-3.3
				l1.7-4l-3.4,0.4c-8.8,0.9-17.5,2.1-26.2,3.3c5.1-0.5,1.7,0.2-2.1,1c2.5-0.4,0,0.6,0.6,0.9c-5.2,0.8-10.3,1.7-15.5,2.7
				c-0.4,0.2-1,0.5-1.8,0.8l0.5,5c2.3-0.4,6.1-0.9,9.5-1.4c3.4-0.5,6.3-1.1,6.9-1.7c-1.6,0.4-3.3,0.7-4.9,1c3.2-1.1,0.9-1.3-2.2-1.5
				c-3-0.2-6.7-0.5-6.3-1.2c-1,0.3-2.1,0.5-3.3,0.6l0.3,3.1c7.2-2.2,17.6-2.5,27.6-5.9c2.7-0.2-2.2,0.9-0.8,0.9
				c2.9-1.1,6.6-1.9,13.4-2.6l-0.8,0.3c2-0.3,3.8-0.5,5.2-0.7l-1.7-3.5c-0.2,0.5-0.6,0.9-1.3,1.3c-0.7,0.4-1.5,0.6-2.4,0.9
				c-1.7,0.5-3.4,1-5,1.4c-3.2,0.9-6.3,1.5-9.5,2.1c-6.4,1.1-13.3,2-22.8,2.2l1.6,0.6c-0.9,0-1.7,0-2.3,0l0.5,5.2
				c2.7-0.7,3.6-0.8,5.3-1.2c2.9-1.5-1.8-0.1-5.4,1l-0.5-4.8c2.7-0.1,4.7-0.1,2.7,0.5c-0.7-0.1-1.6-0.2-2.7-0.3l0.4,4.3
				c4.4-1,11.8-3.1,18.6-4.6c6.8-1.5,13-2.4,14.9-2c7-1.1-2.1-0.5,4.9-1.6l1.9,0.2l1.7-0.8c1.9-0.2,3.4-0.2,4.5-0.2l-0.6-2.2
				c0.1-0.2,0.2-0.2,0.2-0.2c0,0-0.2,0-0.3-0.2c-0.3-0.3-0.6-0.8-0.6-0.9c0-0.1,0,0,0,0.1l0,0.1l0,0.1l0,0l0,0l0,0
				c-0.1-0.5,0.3,1.2-0.3-1.2l0,0l0,0l-0.1,0c-0.1,0-0.3,0.1-0.4,0.1c-0.4,0.1-0.7,0.1-0.8,0c0.2-0.1,0.3-0.2,0.5-0.2
				c0.1,0,0.2-0.1,0.3-0.1l0.2-0.1l0.1,0l0,0l0,0c-0.1-0.4,0.8,3.1,0.4,1.6l0,0l0,0l0,0l0,0l0,0c-0.2-0.8-0.1-0.2,0.3,0.3
				c0.2,0.2,0.4,0.4,0.5,0.4c0.1,0,0,0-0.2,0.2l0.7,3c-0.6,0.1-1.2,0.2-1.7,0.3c0.5,0,1.1-0.1,1.7-0.1l-0.7-3.2
				c0.1-0.2,0.2-0.2,0.2-0.2c0,0-0.1,0-0.3-0.1c-0.3-0.2-0.7-0.9-0.7-0.9l0,0.1l0,0.1l0,0.1l0,0.1l0,0c0.1,0.4-1-3.6-0.5-1.9l0,0
				l-0.3,0.1l-0.6,0.3c-0.8,0.4-1.6,0.7-2.4,1.1c-1.6,0.7-3.3,1.5-4.9,2.1c-3.1,1.3-5.8,2.2-6.7,2.4c2.2-0.6,4.4-1.2,6.5-1.9
				c-6.4,2.6-13.5,4.5-20.8,5.5l1,6.3c13.1-5.3,26.9-9.7,38.7-13.2l-1.4,0c1.5-0.4,2.7-0.8,3.8-1.1l-0.8-4.3c-4.7,2-7,2.6-9.7,3.3
				c-2.7,0.7-6,1.5-12.9,3.2l0.6-0.2c-2.5,0.8-5.6,1.7-9,2.4l0.7,4c0.8-0.3,1.5-0.6,2.3-0.9c-1.8,1,0,0.4,1.6,0
				c1.7-0.4,3.2-0.8,0.8,0.3c7.3-3.1,9.2-3.6,10.4-4.2c1.2-0.5,1.7-1,6.6-2.9l2.4,0c3.2-1.2,3.6-1.6,10.6-3l-0.9-1c0,0,0.1,0,0.1,0
				c-0.1,0,0,0-0.1,0c0,0,0-0.1,0-0.1c0,0,0.1,0,0.1,0c0,0-0.1,0-0.1,0l1,1c-2.2,0.6-1,0.6,0.1,0.6l-1-1.6c0.2,0,0,0-0.2-0.2
				c-0.1-0.1-0.2-0.2-0.3-0.4c0,0,0,0-0.1-0.1c0,0,0,0,0-0.1c0,0-0.1-0.1,0.1,0.1c0.1,0.2,0.3,0.3,0.4,0.4c0.1,0.1,0.2,0.1,0.1,0.1
				l1.1,2.2c-0.2,0.1-0.7,0.2-1.4,0.4c0.5,0,1-0.1,1.4-0.1l-1.1-2.5c0.2,0,0,0.1-0.3-0.3c-0.1-0.1-0.2-0.2-0.3-0.3l-0.2-0.2
				c0-0.1-0.1-0.2-0.1-0.2c0,0,0,0-0.1,0c-0.4,0.2-0.7,0.5-1.1,0.7c-0.8,0.5-1.6,1-2.4,1.5c-1.5,1-3,1.9-4.3,2.7
				c-2.7,1.7-5.1,3.2-7.2,4.4c-4.3,2.5-7.9,4.2-11.5,4.8c-3.4,2.1,0,1.1,3.8-0.5c3.8-1.6,7.8-3.8,5.9-2.6c1.7-0.6,0.4,0.4-2.1,1.8
				c-2.4,1.4-5.9,3.1-8.4,4c-0.7,0.3-1.3,0.5-2,0.6l0.4,2.1c4.3-1.1,8.7-1.3,19.8-5.3c-1.3,0.5-1.3,0.6-2.6,1.1
				c4.9-1.4,9.3-3.9,15.3-5.5c3.1-2.1,7.6-2.7,8.3-4.2l-11.7,4.5c5.1-2.1,9.9-4.8,17-7.4l-0.3-2.1c-2,0.4-4.3,0.9-6.7,1.2
				c0.8-0.4,4.1-1.4,6.4-2.1c-3.3,0.3-6.3,1.5-9.7,1.9c0.5-0.8,4.8-1.7,9.9-2.8l0.9,5.4c-4,1.5-8.5,3.1-11.6,4.7
				c3.5-0.8,13.3-5.7,10-3.2c0.5-0.4,1.1-0.7,1.7-1.1l-1-6.3c-5,1.9-12.1,2-19.9,4.8l0.5-0.8c-1.4,0.4-4.3,1.3-6.8,1.9l4.6-1.9
				c-7.1,2.3-13.9,2.2-20.8,4.1c14.4-3,3.3,0.2,9.5-0.6c-8.7,2.3-11.4,2.4-14.2,2.5l0.6,6.4c2.9,0.1,6,0.3,16.2-1.2
				c-2.7,0.4-10.2,1-6,0c3.8-0.4,8.9-0.8,11.2-0.7c13.2-1.6-2.1-0.5,3.5-1.6c4.6,0.4,6.5-1,12.3-1.7l0.1,0.7c1,0,1.8-0.1,2.6-0.1
				l-2.1-5.2c-0.4,0.6-1.1,1.2-1.8,1.6c-0.7,0.5-1.3,0.8-1.7,1.1c-0.8,0.6-1.1,0.9-1.4,1.2c-0.6,0.6-1.4,1.5-7.5,3.9
				c1.7-1.1,3.5-2.2,5.2-3.4c-2.2,1.1-4.4,2.2-6.6,3.3l1.2-1.4c-3.6,1.9-6,2.9-8.4,3.7c-2.4,0.8-4.8,1.5-8.5,2.4
				c1.8,0-0.7,1.7-7.3,3.1c-2,0.2-1.8,0-1.7-0.1c0-0.1,0.1-0.1-0.2-0.1c-0.1,0-0.2,0-0.3,0c-0.1,0-0.1,0-0.2,0l-0.1,0l0,0l0,0l0,0
				c0.1,0.7,0,0.2,0,0.3l0,0l0-0.1l0-0.2c0,0,0,0,0,0c0-0.1,0,0.4-0.1,0.7c-0.1,0.4-0.2,0.9-0.3,1.2c-0.2,0.3-0.3,0.3-0.1,0.3
				l0.5,2.5c0.6-0.4,1.4-0.8,2.4-1.3c-0.7,0.5-1.5,1.1-2.3,1.7l-0.6-3c-0.1,0-0.1,0,0,0c0.1-0.1,0.2-0.3,0.3-0.6
				c0.2-0.6,0.3-1.5,0.3-1.6c0-0.1,0,0,0,0.3l0,0.1l0,0l0,0l0,0c-0.2-1.9-0.1-0.5-0.1-0.9l0,0l0,0l0.1,0l0.2,0
				c0.2,0,0.4-0.1,0.7-0.1c0.9-0.2,2-0.3,3.2-0.4c0.4-0.3,2-0.9,2.4-1.2c-1.2,0.2-2.5,0.4-3.9,0.7c-0.7,0.1-1.4,0.3-2.1,0.4
				l-0.5,0.1l0,0l0,0l0,0c0.3,3.2,0.1,0.9,0.2,1.6l0,0l0,0l0-0.2l0-0.2c0,0,0,0,0,0.2c0,0.4-0.1,1.1-0.3,1.6
				c-0.2,0.5-0.4,0.5-0.2,0.5l0.9,3.7c2.3-1.5,4.8-2.3,6.5-2.8c-1.2,0.3-2.7,0.8-3.4,1c2-1,4.1-1.7,6.4-2.4c2.2-0.7,4.5-1.4,6.7-2
				c2.2-0.2,0.5,0.4-1.2,0.9c2.7-0.7,4.6-1.4,8.6-2.1c-1,0.8-0.7,1.3-6.4,2.6c4.3-1.1,8.6-2,12.9-2.8c0.5,0.1,2.7,0,4.1,0.1
				l-2.2-7.9c-0.6,0.4-1,0.5-0.6,0.1c-1,0.7-2.6,1.4-4.7,2.1c-2.1,0.7-4.3,1.5-6.6,2.3c-4.6,1.6-9.5,3-14.2,3.6
				c-0.5,0.2-1.5,0.5-3.5,0.9c-3.9,0.5-7.7,0.7-11.5,0.7l0.7,8.2c4.9-1.2,9.9-2.4,15.8-4.1l6.1-0.2c8.3-1.8-8.3,0.3,5.5-2.8
				c9.8-2,3.8,0.3,7.2,0c2.2-0.6,5-1.4,8.4-2l-1.1-6.9c-3.9,2-8.5,3.8-13.5,4.9C551.8,274.2,554.1,273.5,556.8,272.4z M525.5,284
				c1.9-0.9,5.6-3,7.1-3.2C530.6,282.6,528.9,282.9,525.5,284z M516.6,293.5c1.5-0.5,3.8-0.8,6.4-1.1
				C521.1,292.9,519,293.3,516.6,293.5z M535.7,287.5c-0.1,0-0.1,0.1-0.2,0.1C531,288.3,532.6,288,535.7,287.5z M545,285.7
				c0.9-0.3,0.8-0.4,0.4-0.4c-0.6,0.3-2.7,0.8-5.1,1.2C541.1,286.6,542.3,286.5,545,285.7z M548,266.8l1.8-0.5
				C545.9,268,547,267.4,548,266.8z"/>
			<path class="st5" d="M534,288.3c0.6-0.1,0.7,0,0.9,0.1C535.6,288.1,535.6,287.9,534,288.3z"/>
			<path class="st5" d="M534.4,276.7l0.3,0c0.2-0.1,0.3-0.1,0.3-0.2L534.4,276.7z"/>
			<path class="st5" d="M524.5,291.8c-0.4,0-0.7,0-1,0c-0.2,0-0.3,0-0.4,0c-0.2,0.1-0.6,0.4-0.9,0.6c-1.1,0.7-1.9,1.3-2.6,1.7
				c-0.2,0.1,0.1-0.1,1.2-0.8c0.5-0.3,1.3-0.9,2.2-1.5C523.4,291.8,523.9,291.8,524.5,291.8z"/>
			<path class="st5" d="M579.6,291.1c2-0.8,4-1.8,6-3.1c-2.9,1.7-4,1.9-5.5,2.4C580.2,290.6,581.4,290.4,579.6,291.1z"/>
			<path class="st5" d="M527.5,300.3c-0.9,0.3-1.8,0.4-2.7,0.6l0.3,0.3C528.8,300.4,531.4,299.6,527.5,300.3z"/>
			<path class="st5" d="M573.6,290.7c-0.6-0.4-4.2,1-8.3,2.3c0.2-0.1,0.5-0.1,0.7-0.2C565,293.9,569.3,292.4,573.6,290.7z"/>
			<path class="st5" d="M564.4,293.3c-1.3,0.4-2.6,0.8-3.8,1.1C560.1,294.8,562.1,294,564.4,293.3z"/>
			<path class="st5" d="M556.7,282.9c2-0.2,1.2-1,2.3-1C561.2,280.7,546,285.5,556.7,282.9z"/>
			<polygon class="st5" points="569.9,289.8 571.5,290.1 573.7,288.8 			"/>
			<path class="st5" d="M570.5,283.4l6.7-0.9c-0.1-0.1,0.7-0.3,1.8-0.5C574.8,282.5,570.3,283.2,570.5,283.4z"/>
			<path class="st5" d="M578.9,281.9c2.2-0.3,4.3-0.3,5.5-0.2C583.2,281.5,580.7,281.6,578.9,281.9z"/>
			<path class="st5" d="M578.8,286.6c0.6-0.2,1.3-0.4,1.9-0.6c1.5-0.6,3-1.4,4.4-2.3C583.1,284.9,581,285.8,578.8,286.6z"/>
			<path class="st5" d="M505.5,298.9l7.2-1.6c0.7-0.4-1.3-0.1-4,0.5C507.1,298.2,504.4,298.8,505.5,298.9z"/>
			<path class="st5" d="M521.3,295.7c-2,0.3-2.1,0.2-3.3,0.2l-0.1,1L521.3,295.7z"/>
			<path class="st5" d="M504.5,296.8c0.7-0.4,10.4-2.8,1.3-0.9c-0.2,0.1-0.9,0.3-1.6,0.5c-0.2,0.1-0.4,0.1-0.6,0.2
				c-0.2,0.1-0.5,0.2-0.7,0.3c-0.3,0.1-0.5,0.2-0.7,0.3l0.5,3.7c0.5-0.2,0.7-0.3,0-0.2l-0.4-3.3c0.1,0,0.3-0.1,0.7-0.2
				c0.2-0.1,0.5-0.1,0.8-0.2C503.9,296.9,504.2,296.8,504.5,296.8z"/>
			<path class="st5" d="M525.2,296.6l-1.9,0.3l0.1-0.1l0.5-0.9l0.9-1.7c0,0.6-0.1,1.1,0,1.6c0,0.3,0,0.6,0.1,0.8L525.2,296.6z"/>
			<path class="st5" d="M502.2,298.4c8.6-1.2,2-1.3,9.8-2.2c2-0.7-6.4,0.8-4.4,0.1C502.4,297.6,499.7,297.9,502.2,298.4z"/>
			<path class="st5" d="M507.6,296.3c0.8-0.2,1.7-0.5,2.6-0.7C508.7,295.9,508,296.1,507.6,296.3z"/>
			<path class="st5" d="M507.4,273.7c1.9-0.2,3.8-0.4,5.6-0.6l-3.7,0.1L507.4,273.7z"/>
			<path class="st5" d="M518.1,270.7l1.4,0.7l3.2-1.6C521.5,270.1,519.1,270.7,518.1,270.7z"/>
			<path class="st5" d="M519.6,295.1l0.3-0.4c-0.8,0.1-1.9,0.5-3.9,1.4l-2.1-8.9c0.2-0.1,0.4-0.2,0.7-0.3l-0.7,0.2l2.2,9.1
				L519.6,295.1z"/>
			<polygon class="st5" points="518.6,288.5 519.9,288 517.4,288.1 			"/>
			<path class="st5" d="M550.3,281.3c2.6-0.4,5.5-1.1,8.1-1.4C552.9,280.8,549.5,280.3,550.3,281.3z"/>
		</g>
		<g>
			<path class="st4" d="M556.8,257.7c-1.4,0.4-0.8,0.8-1,1C558.1,257.9,556.7,257.5,556.8,257.7z"/>
			<polygon class="st4" points="562.9,248.5 563.3,248.2 559.8,249.3 			"/>
			<path class="st4" d="M540.4,251.9c2.2,0.7,8.1-1.6,12.2-1.8l0.7,0.1l1.7-1.1C550.1,250,543.8,251.6,540.4,251.9z"/>
			<path class="st4" d="M528.2,252c0.8,0.3-2.5,0.9,2.8-0.4c-0.3,0-0.4,0-0.5,0C530,251.6,529.3,251.7,528.2,252z"/>
			<path class="st4" d="M530.5,251.5C532.8,251,528.9,251.5,530.5,251.5L530.5,251.5z"/>
			<path class="st4" d="M519.6,254.1l3.1-1.1c-0.7-0.1-3.5,0.5-2.4,0.1C517,254,517.7,254.1,519.6,254.1z"/>
			<path class="st4" d="M516.8,255.6l1.6-0.5C518,255,517.6,255.1,516.8,255.6z"/>
			<path class="st4" d="M521.7,253.9l-3.4,1.1c0.5,0.1,0.6,0.4,1.5-0.5C519.6,254.9,520.3,254.5,521.7,253.9z"/>
			<path class="st4" d="M523.7,253.6c1.8-0.1,4-0.5,1,0.5C530.5,252.8,529.6,252.2,523.7,253.6z"/>
			<path class="st4" d="M539.4,253.2l2.4-0.1l2-0.7C542.7,252.7,539.2,252.9,539.4,253.2z"/>
			<path class="st4" d="M504.2,267.5c0.2-0.2-1.1-0.6-1.3-0.9l-0.3,0l-0.7-7.8l2-0.8c-0.6,0.1-1.3,0.2-2,0.3l0.7,8.7
				C503.4,267.3,504.1,267.4,504.2,267.5z"/>
			<path class="st4" d="M502.9,266.7l3.5-0.5C503.2,266.2,502.7,266.4,502.9,266.7z"/>
			<polygon class="st4" points="516.4,256.9 521.9,254.7 515.3,257.1 			"/>
			<polygon class="st4" points="517.5,266.8 515.6,267.5 519.1,266.4 			"/>
			<path class="st4" d="M526.4,265.8c-1.4,0.6,2.1,0.5,0.5,0.9c2.4-0.4,4.4-1,6.2-1.7C531.2,265.5,529.1,265.8,526.4,265.8z"/>
			<path class="st4" d="M536.2,264.1c-1,0.3-2,0.6-3,1C534.2,264.8,535.2,264.5,536.2,264.1z"/>
			<path class="st4" d="M512.3,266c0.3,0.1,0.8,0.4,2.8,0.5l-1.4-0.5C513.2,265.9,512.8,266,512.3,266z"/>
			<path class="st4" d="M513.6,265.9L513.6,265.9c1.5-0.1,2.6-0.1,3-0.2C516.3,265.7,515.3,265.8,513.6,265.9z"/>
			<path class="st4" d="M511.9,266c0.1,0,0.2,0,0.3,0C512.2,265.9,512.1,265.9,511.9,266z"/>
			<path class="st4" d="M507.3,258.5c-2,0.9-6.1,2.4-1.9,1.8C506.8,259.6,504.4,259.9,507.3,258.5z"/>
			<path class="st4" d="M510.2,265.3l-3.7,0c0.1,0.2,0.8,0.4-0.3,0.6L510.2,265.3z"/>
			<polygon class="st4" points="512,265 510.2,265.3 511.6,265.3 			"/>
			<path class="st4" d="M529.8,264.5c1.6-0.5,3.3-0.8,5.3-1.1c-2.1,0.2-4.3,0.5-6.4,0.8C528.4,264.3,527.6,264.8,529.8,264.5z"/>
			<path class="st4" d="M521.9,265.2c0.1,0,0.3-0.1,0.4-0.1C522.1,265.1,521.9,265.1,521.9,265.2z"/>
			<path class="st4" d="M554.3,259.3c-0.1,0-0.2,0-0.3,0c0,0,0,0.1-0.1,0.1L554.3,259.3z"/>
			<path class="st4" d="M528.4,264c-1.6,0.1-2.5,0.3-3.4,0.7c1.2-0.2,2.4-0.4,3.8-0.6C528.8,264,528.9,263.9,528.4,264z"/>
			<path class="st4" d="M541.6,262.8c-0.8,0-1.8,0.1-2.8,0.2C539.6,263,541.3,263,541.6,262.8z"/>
			<path class="st4" d="M522.8,265.3c-0.1,0-0.2,0-0.2,0.1C523.1,265.4,523.1,265.4,522.8,265.3z"/>
			<path class="st4" d="M522.8,265.3c0.8-0.2,1.4-0.4,2.1-0.6c-1,0.2-1.9,0.3-2.6,0.5C522.5,265.2,522.7,265.2,522.8,265.3z"/>
			<path class="st4" d="M559.5,253.8c-0.2,0.7-4.2,2.3-7.8,2.5c-3.4,1.2-0.9,2.6,2.3,3c0.1-0.3,0-0.5,3.6-1.8c-1.3,0-8.1,1.3-5.1,0
				c4.7-1.5,3.9-0.8,6.3-1.1c-1-0.1,0.4-0.8,2-1.5c1.6-0.8,3.2-1.6,2.6-2c-1.4,0.5-2.7,1.1-4.1,1.6
				C559.2,254.3,560.7,253.6,559.5,253.8z"/>
			<path class="st4" d="M547.1,260.8l-1.5,0.4c1.7-0.3,3-0.3,5.2-0.4c2.4-0.9,2.9-1.2,3.1-1.5c-2.4,0.6-4.9,1.1-7.3,1.6L547.1,260.8
				z"/>
			<path class="st4" d="M539,262.5c1.1-0.8,4.6-1.8,2.4-2.1c-4.4,0.9-3,1.1-5.6,1.8C542.8,260.9,533.8,263,539,262.5
				c-1.4,0.3-2.7,0.6-3.9,0.8c1.3-0.1,2.5-0.2,3.7-0.3c-0.1,0-0.1,0-0.2,0l0,0l0,0c-0.3,0-0.4-0.1-0.1-0.1c0,0,0.1,0,0.1,0
				C538.7,262.7,538.8,262.6,539,262.5c2.1-0.2,0.3,0.1-0.3,0.3c0,0-0.1,0.1-0.1,0.1l0,0c2.4-0.5,4.7-1.1,7-1.7
				C544.2,261.5,542.3,261.9,539,262.5z"/>
			<path class="st4" d="M503.1,263c0.2,0.1,0.2,0.1,0.2,0.1C503.8,263,504,263,503.1,263z"/>
			<path class="st4" d="M506.1,263.3c-0.5,0.1-0.9,0.4-2.6,0.4c-1.5-0.1,0-0.3-0.1-0.5c-0.2,0-0.5,0.1-0.8,0.2l-0.1-1
				c0.9-0.4,1.7-0.8-0.1-0.6l-6.5,1l6.7,1.2c0.1,0,0.3,0,0.5,0l0.5-0.1c2.9,0.2,6.6,0.8,6.1,0.9C508.7,264.1,508,263.8,506.1,263.3z
				"/>
			<path class="st4" d="M522.7,263.3c2-0.3,3.9-0.7,5.9-1l-3-0.2l0.2,0.3C522.3,262.7,523.1,263,522.7,263.3z"/>
			<polygon class="st4" points="555.1,259.5 554.4,260.3 557.6,258.5 			"/>
			<polygon class="st4" points="562.6,257.3 562.5,258 564.4,257 			"/>
			<path class="st4" d="M522.7,250.5l1.7-0.5C523.5,250.2,523,250.3,522.7,250.5z"/>
			<path class="st4" d="M510.3,252.6L510,253C510.6,252.7,510.8,252.6,510.3,252.6z"/>
			<path class="st4" d="M525,247.6c-2.6-0.2-5.5-0.5-5.1,0.1l0.8,0.5C522.5,247.8,523.8,247.7,525,247.6z"/>
			<path class="st4" d="M573.7,242.3c0.2,0,0.5,0,0.8,0.1c0.6-0.3,1.1-0.6,1.6-0.9C575.3,241.7,574.5,242,573.7,242.3z"/>
			<path class="st4" d="M572.2,245.2l-3.3,0.1C569.6,245.4,570.7,245.4,572.2,245.2z"/>
			<path class="st4" d="M550.3,245.4l-1.9,1C551.4,245.9,550,245.8,550.3,245.4z"/>
			<path class="st4" d="M497.5,257.6c-1,0-1.9,0.1-2.7,0.2l0.5,7.6c1,0,1.9,0,2.7-0.1c-1-0.1-2-0.2-2.8-0.2l-0.5-6.9
				C496.1,258,497.1,258,497.5,257.6z"/>
			<path class="st4" d="M518.5,258.2c1-0.3,1.5-0.5,1.4-0.7C518.9,257.8,518.3,258.1,518.5,258.2z"/>
			<path class="st4" d="M504.4,264.7c-0.4,0-0.8,0-1.2-0.1c-1.6,0.2-3.2,0.5-5.1,0.6C500,265.3,502.3,265.3,504.4,264.7z"/>
			<path class="st4" d="M565.8,229.3c0.2,0,0.4-0.1,0.6-0.1C566.4,229.1,566.1,229.2,565.8,229.3z"/>
			<path class="st4" d="M525.7,242.4c0.7-0.3,1.8-0.8,2.8-1.3C528,241.3,527.1,241.6,525.7,242.4z"/>
			<path class="st4" d="M544.9,249.5C546.5,249.1,545.1,249.3,544.9,249.5L544.9,249.5z"/>
			<path class="st4" d="M553,250.7c-0.3,0.1-0.6,0.3-0.6,0.4C552.5,251,552.7,250.8,553,250.7z"/>
			<path class="st4" d="M520.3,259c0,0,0.1,0,0.1,0C520,258.9,520.1,258.9,520.3,259z"/>
			<path class="st4" d="M547.3,249.4c-0.6,0-1.3,0.1-2.1,0.1C545.6,249.5,546.2,249.5,547.3,249.4z"/>
			<path class="st4" d="M547,249.1c0.6-0.1,1-0.1,1.4-0.2C548.6,248.8,548.4,248.8,547,249.1z"/>
			<path class="st4" d="M542.6,249.8c0.9-0.2,1.8-0.3,2.6-0.4c-0.3,0-0.5,0-0.4,0C544.4,249.5,543.7,249.7,542.6,249.8z"/>
			<path class="st4" d="M531.9,246.6c-0.1,0-0.2,0-0.4,0C529.9,247.2,530.7,247,531.9,246.6z"/>
			<path class="st4" d="M511.1,251.1c-0.1,0-0.1,0-0.2,0.1C511,251.2,511.1,251.2,511.1,251.1L511.1,251.1z"/>
			<path class="st4" d="M516.8,249.6c-2.4,1.3-3.8,1.4-5.7,1.6l2.1,1.5L516.8,249.6z"/>
			<path class="st4" d="M552,243l-4,0.6c4.6-2.3,8-3.2,4.2-2.8c-0.1,1.1-3.9,2.3-7.8,3.4c-3.9,1.1-7.7,2.1-7.9,3.2l-2.7,0.2
				c0.8-0.2,0.9-0.3,1.6-0.5c-5.3,0.2-3.6,2.4-10.3,3.5c-2.3,0.3-4,0.4-2.4-0.2l-5.1,1.5c-1.5,0.2-1.2-0.2,0.3-0.4
				c-2.6,0.5-5.3,1-7.9,1.5l0.1-0.1c-1.1,0.5-3.6,1.4-4.9,1.7c-2,0,1-0.4,0.5-0.5l-4.4,1.1c-1.8-0.3,1.8-1.3,4.8-1.6
				c-4.3-1.5-3.6,1.1-12.6,0.9l4.1-0.7c-1.9-0.6-4-0.4-6.7-0.3l0.9,10.2c1.2-0.2,2.5-0.4,4-0.5c-0.5-0.1-2.4,0-4,0l-0.9-9.2
				c2,0.3,3.4,0.7,0.8,1.3c-0.2,0-0.4,0-0.7,0l0.6,6.6c1.2-0.2,2.8-0.6,5-1.4c0.1,0.7,2.6,0,5.7-0.8l-0.1,1c3.4-1,3-1.4,5-2.3
				c3.8-0.7,4.7-0.2,5.6,0.2c6.1-1.2-4.3-0.3,2.8-2c5.1-0.7,8.6-1.8,14.5-3.6c3.6-0.4-0.6,0.7,0.7,0.7l3-1.4
				c0.8-0.1,0.5,0.1,0.4,0.3c2.6-0.8,0.1-1,4.2-2.1c1-1.3,8.7-0.1,13.7-2.3c1.3,0-0.6,0.7-0.1,1c7-2.1,6-1.7,11.7-3.7l5-0.2
				c-3.7-0.1,0.9-1.7,4.9-3.1c-1.3-0.1-2.5-0.2-3.2-0.3l6.4-1.6c0.8,0,0.2,0.5-0.9,1c0.4-0.2,0.8-0.3,1.2-0.4c2.4,0,1.2,0.7-0.4,1.5
				c-0.8-0.1-1.6-0.1-2.4-0.2c-1.5,0.8-3,1.7-2.6,2.2c0.4-0.2,1.2-0.4,2.1-0.6c-0.4,0.2-0.7,0.4-0.5,0.5c0.2,0.1,0.9-0.3,1.9-0.7
				l1.6,0.8l0.3-0.5l8.5-0.7l-0.6-6.3l-0.1,0c-6,2.2-11.1,4.7-20.6,7c2.3-1.2,0.4-1.4,0.4-2.3c2.7,0.5,7.4-1.8,12.4-2.5
				c-2.6,0.4-2.1-0.2-1.4-0.4l-8.8,2.5c0.1-0.8-1.9-0.2-4.3-0.1c1.9,1.1-6.5,2.2-10.1,3.4c-0.3-0.5,0.5-1.1,5-1.8
				c-5-0.2-6.1,2.9-11,2.9c1.1-0.2,1.7-0.2,2.1-0.6c-2.5,0.9-8.7,1.7-7.3,1l1.1-0.2c-7.2,1.2-21.8,4.1-22.7,5.5
				c-0.1-0.1,0.8-1.7,1.2-2l-12.3,6.6c1-1.3-3.6-3,2.3-4.8c-1.7,0.2-3.9,0.4-7.4,1.4c1.2-0.1,3.1,1,1.5,1.4c-4.2-0.4-3.3-0.1-7.9,0
				l0.7,5.4c-0.1,0.1,0.3,0.1,0.7,0c-1.8,0.2-0.1-2,2.7-2.5c-0.4,0.3,0.4,1.6-0.5,2c2.2-1.1,4.4-2.1,6.6-3.1
				c-1.7,0.6-0.1,1.5,1.4,1.6c-0.7-0.2,5.9-1.1,7.7-1.6l-2.9,0.1c7.7-1.2,7.4-3.7,15.1-4.8c-0.9,0.5-2.1,2.5,1.8,2.1
				c1.7-1.1,7.6-5.2,14.5-6.6l1.3,0.3l5.2-1.1c-3.2,1.6-12.2,5.2-17.1,7c2.9,0,0.8,0.5,5.2-0.1c1.6,0.3-2.3,1-3.6,1.2
				c3.4-0.3,6.7-0.6,10.1-0.9c-0.5-1,7.7-1.7,7.3-2.5c-3.7,0.6-7.3,1.4-10.9,2.1c-0.5-0.9,6.2-3.6,13.4-3.9c1.8,0.3-1.3,1.9-1.1,2.2
				c0.9-0.4,6.8-1.2,7.5-0.9l-3,0.7c1.6,0,3-0.2,4.3-0.5l-0.9-5.7c-1.8,1.2-3.7,2.5-6.5,3c-1.6,0.6-5,0.5-5.1,1.2
				c2.8,0.2,4.1,3.4,2.5,4.8c-0.3,0.1-2.5,0.6-4.8,1c-2.4,0.4-4.9,0.7-5.9,0.7c-2.8-0.2,3.7-3.2,1.3-3.3c-0.1,0.3-1.5,1.1-2.1,1.3
				c-1.7,0.2,0.6-1-3.1,0c-0.5,1.2-7.6,1.6-1.6,1.2c-3.6,1.1-3.9,0.6-8.2,1.5c1.4,0.4-3.7,2.9-7.4,3.7c0.2-0.3-0.7-0.5-1.1-0.6
				c-7.6,0.9-11.7,0.8-18.8,1.3c-0.7-0.2-4.1-0.2-2.7-0.8c-0.9,0.2-1.8,0.6-3.7,0.8l0.2,2.2c0.1,0,0.2,0,0.4-0.1
				c2.1,0.1,1,0.3-0.3,0.6l-0.2-3.2c1.4-0.2,2.9-0.4,1.2-0.8c-0.1,0.2-0.5,0.3-1.3,0.5l0.3,3.7c1.8-0.6,5.2-1.3,7.4-2
				c-0.8-0.6-4.4,0.3-7.5,1.1l-0.1-1.9c1-0.2,2-0.4,2.8-0.5c0,0.5-0.9,1.1-2.8,1.8l0-0.6c2.1-1,5.6-2.2,9.8-3.2
				c5.8-1.3,2.6,0.4,3.6,0.1c11-1.6,9.2-3.7,18.4-4.3c3.7,0.2,0.3,1.6,1.2,2c-4.8,1.1-7.4,0.7-10.6,1.2l4-0.3
				c-1.5,0.5-4.7,1.2-6.4,1.3c3.1,0.2,18.6-2.9,27.2-3.6c1.5-0.5,4.1-1.2,2.8-1.3l-2.7,0.5c-2.5-0.2,5-1.7,1.6-1.5
				c3.6-1,7.5-2.4,12.7-2.8l1,0.8c-0.1-0.3-3.4-0.1-4.8,0.4c2.1-0.8,7.9,0,10.3-1.1c-1.2-0.2-2.5-0.3-3.7-0.4
				c2.7-0.6,6.1-1.4,9.7-0.9l12.3,1.9l-12.1,4.5c-1.1,0.4-2.2,0.8-3.4,1.1c2,0.2,1.2-0.3,3.5-0.4l14.5-0.6l-14.8-7.1
				c-0.2-0.1-0.5-0.3-0.9-0.4c1.5,0.9-1.7,0.2-4.6,0.3c-2.9,0-5.4,0.4-3.1,0.8c-3.5-0.9-5.9,0.2-10.3-0.2c0.2,0.3,1.6,0.3-2.2,0.8
				c-0.2,0.1-0.6,0.3-0.8,0.4c-0.1,0-0.2,0-0.3,0c0.1,0,0.1,0,0.2,0c-0.2,0.1-0.2,0.1,0.1,0c0.9,0,1.7,0,2,0.1
				c-1.8,1-7.8,1.9-9.8,2.6c-2.3,0.2,0.9-0.5-0.3-0.6l-3,1c-0.4-0.6-6.1-0.1-0.8-1.4l-4.8,0.7c-2.8,0.1-6.7,0.5-9.1,1.2
				c-2.3,0.2-5.6,1.6-3.7,0.8l-7.4,1.6l-0.1-0.2c-5,0.8-10.2,2.1-15.7,3l0.5,6.4c2.6-0.2,5.2-0.2,7.9-0.1c2.5-0.4,5.1-0.8,9.3-1
				l0.9,0.5c3.2-0.5,9.7-0.6,11.1-1.4c1.8,0.5,5.7,0,9.9-0.9c4.2-0.9,8.6-2.2,11.4-3l0.1-0.8c3.9-1.1,7.5-2.5,12.2-4.7l-0.4-0.5
				c1.7-0.9,3.9-1.9,6.4-2.9l13.6-5.6l-14.4,0.1c-3.2,0-6.9,0-10.6,0.3c0.4-0.3,2.1-0.4,3.3-0.3c-8-0.9-16.5,2.6-23.7,2.5
				c-1.8,0.5-3,0.6-4.3,0.6c0.2,0,0.3-0.1,0.4-0.1c-0.2,0-0.5,0.1-0.7,0.1c-0.8,0-1.6,0-2.5,0c0.8,0,1.5,0.1,2.1,0
				c-1.4,0.2-3.4,0.6-5.4,1.1l-0.9-0.6c-0.2,0-0.3,0.1-0.5,0.1c-2,0.1-1.6,0.6-0.5,1c-1,0.3-1.9,0.6-2.6,0.9
				c-1.7-0.9-5.3,1.4-7.6,0.6c-1.3,0.8-10.1,2.6-11,4.1c-0.1-0.1-0.7-0.1,0.4-0.3c-0.6,0.1-1.2,0.2-1.8,0.3l0.5,3.9
				c1.6-0.2,3.2-0.5,4.7-1.1l1.1,0.7l4.8-2.1c3,0,4.3,0.1,1.4,1.3c7-2.4,5.7-1.5,11.7-3.7l-0.2,0.6c2.2-0.4,5.6-1.9,6.9-1.6
				c5,0.2,24-4.4,36.6-5.7c-2.6-1.3,5.9-0.3,6.2-1.7c0.8,0.3,2.5,0.2,0.5,0.9c6.3-1.6,9.6-1.1,13.9-3.1c0.8,0.3-1.3,0.9-0.6,1
				c0.3-0.1,0.8-0.3,1.3-0.4l-0.7-7.2c-0.5,0.1-1.1,0.2-1.4,0.2c-0.6-0.1,0.4-0.4,1.4-0.7l0.8,8.2c-0.2,0.1-0.4,0.1-0.5,0.2
				c0.2,0,0.4-0.1,0.5-0.1l-0.8-8.4c-6,1.1-6.5,2.4-6.9,3.6c-3.4,0-5,0.3-7.3,1.5c-1.2-0.2-3.1-0.3,0.9-1.1
				c-2.3,0.3-14,1.9-14.1,2.9c-0.7-0.1-3.2,0.5-3.8,0.7c-5.1,0.9-5.6,0.9-10.6,1.9l1.4-0.1c-1.9,1.5-4.1,1-8.2,2l0.1-0.1
				c-9.3,1-3.9,1.2-13.2,2.1l0.6,0.6c-0.7,1.7-8.2,0.8-13.4,2.5l2,0c-2.8,1.1-8.3-0.3-11.2,0.2c-0.6,0,1-0.4,1.8-0.7
				c-7.7,0.8-0.9,1.1-6.5,2.6c-1.1-0.3,1.2-1.6-2.6-0.8c-0.6,0-1.9,0.4-3.5,1l0.7,7.8c3.7-0.8,9.2-2.1,12.8-2
				c-1.2-0.2-2.4-0.5,0.3-1.1c4.1-0.7,11.1-0.2,14.7-2.1c0.5,0,0.7,0.1,0.8,0.2c3.1-0.9,10-2.5,11.8-3.6c1.6,0.9,6.3-0.5,10.7-2
				c4.4-1.5,8.3-3,8.5-1.9c3.1-1,6.3-2,9.4-3.3l-0.2,0.3c6-2.2,8-4,9.8-5.7c1.4-0.6,0.5,0.1,0.4,0.3c0.2-0.1,0.4-0.2,0.5-0.3l9.6-5
				l-10.4,0.2c-8.5,0.2-9.5,0.4-16.8,2.4l-0.8-0.6c-2,0.6-13.1,0.7-21.7,3.6c0.1-0.1,0.2-0.3,0.9-0.5c-3.9,1.2-8.5,2.1-12.9,3.1
				c-4.3,0.9-8.3,2-11,3.3l0.9,6.7c1.3-0.4,2.4-0.8,3-1.4c2.2-0.5,4.3-1.1,6.4-1.7c-8.4,1.2,1.1-1.4-2.4-1.2
				c3.3-0.7,8.6-0.8,4.6,0.2l-0.6,0c-0.7,0.8,1.9,0.5,4.7,0c2.8-0.5,5.7-1.2,5.6-0.7c9.1-2.1,18-4.5,26.7-7.4l-0.9-5.5
				c-7.1,1.3-14.2,2.6-21,4l1.9,0.7l-5.4,1.1c-1.4,0-2-0.4,1.8-1.2c-2.1-0.2-6.3,1.8-6.4,2.1c-7.5,1.1,2.8-1.9,0.5-1.4l-3.1,0.7
				l0.7,0c-2.5,1-2.6,1.5-7.2,2.4c-2.9,0.4-1.6-0.4-2.7-0.2c0-0.1-0.4,0-1.8,0.3l-6.8,1.3l2.8,0.3c-2.9,1-6.3,1.3-3.1,1.6
				c-3.5-0.4-15.4,2.3-22.6,3.8l0.6,4.6c2.6-0.7,4.7-1.3,5.4-1.4c4-1.7,8.2-2.8,13.3-3.9c-1.3,0.1-2.2-0.7,2.2-1.6
				c-1.3,2.3,8.2-1,11.9-0.4c-3.3-0.2,12.5-3.1,7.3-3.3c3.7-0.7,0.3,0.7,3.2,0.5c8.7-2.8,19.4-4.1,30.1-7.8c0.1-0.3-1.7-0.1,0.5-1.2
				l5.9-0.6c2.1-0.9,1.6-2.2,5.7-2.7c-0.6,0-1.5,0-0.1-0.6c2.1-0.7,4.2-1.5,6.4-2.2c2.1-0.8,4.2-1.8,6.3-2.7l-1-4.8
				c-17.3,3.9-34.4,10.6-51.5,15.8c3-0.7,1.1,0.1-1.1,1.1c1.4-0.5,0.1,0.6,0.5,0.8c-3,0.9-6,1.9-9,2.9c-0.7,0.8-3,1.9-5.2,3
				c-2.2,1.1-4.4,2.1-4.7,2.8l2.7-1.5c-3.3,2.8,5.7-0.1,5.5,1.5c3.8-3.1,11.1-3.1,17.5-7.5c1.6-0.3-1.2,0.9-0.3,0.9
				c1.6-1.3,3.6-2.2,7.5-3.4l-0.4,0.3c5.4-2.1,9.3-3.3,13.4-4.5c4.1-1.1,8.4-2.2,14.6-3.7l-1-0.4c2.7-0.6,3.3-0.6,4.5-0.7
				c1.4-0.9-0.4-0.5-2.3,0c-1.9,0.5-3.8,1-2.5,0c2.1,0.2,7.6-1.3,12.6-2.5l-1-5c-1.9,0.8-3.8,1.6-5.3,2.1c-1.5,0.5-2.7,0.7-3.3,0.6
				c-4,1.6,1.3,0.3-2.6,1.9l-1.1,0l-0.9,0.9c-2.6,0.9-4.1,0.8-4.2,0.5c0.6-0.2,1.8-0.8,2.5-1c-0.9,0.2-1.9,0.5-3,0.9
				c-1.1,0.4-2.2,0.8-3.3,1.2c-2.1,0.8-3.9,1.5-4.6,1.6c1.3-0.3,2.6-0.6,3.9-1c-10.9,4.1-24.7,6.8-35.4,10.2l0.9,0.1
				c-8.2,2.5-6.7,1.2-15.8,3.5l0.3-0.2c-1.8,0.7-4.2,1.5-6.7,2c2.3-0.9-4.4,0.3-1.5-0.9c-8.9,2.9-4.4,1.6-10.2,4.3l-1.5-0.2
				c-1.8,1-2,1.3-5.8,2.5l0.3,2.3c0.2,0,0.5-0.1,0.8-0.2c-0.4,0.1-0.7,0.2-0.8,0.3l-0.4-2.5c0.5-0.3,0.3-0.4-0.1-0.4l0.5,3.3
				c0.7,0.1,1.9,0.1,0.1,0.8l-10,3.9l9.3-8.8c0,0,0.2-0.1,0.4-0.2c-0.2,0-0.3,0-0.5,0.1l0.7,5.2c9.4-0.9,13.7-4.1,18.2-3.3
				c4.2-2.4-8.4,0.9-6,0.1c-2.1-0.1,3.5-1.9,6.5-2.4c3.1-0.6,5.4,0.8,13.1-0.8c-0.8,0.2-0.8,0.3-1.6,0.4c2.9-0.2,5.6-1.7,9.2-1.8
				c1.9-1.3,4.6-0.9,5-2.2l-7,1.7c4-1.1,7.6-3.3,14.2-4c-0.5,0.3-2.4,1.1-3.7,1.5c2-0.1,3.7-1,5.7-1.1c-0.4,1.3-8.6,2-12.7,3.8
				c2.1,0.1,8-2.5,6-0.8c2.9-2.2,7.6-1.4,12.7-3.7l-0.3,0.8c0.8-0.3,2.5-1,4-1.3l-2.6,1.5c4-1.6,7.9-1.1,11.8-2.2l-1.3-8l-0.4,0.2
				c0.2-0.1,0.3-0.1,0.4-0.1l1.3,8c-7.8,1.6-1.7-0.5-5.2-0.3c2.3-0.7,3.9-1,5.1-1.2l-0.8-5c-4.1,1.1-3.8-0.6-12.6,2.4
				c1.5-0.5,5.9-1.4,3.5-0.3c-2.2,0.5-5.1,1.1-6.5,1.1c-7.6,2.2,1.3,0.4-1.9,1.7c-2.7-0.2-3.7,1.3-7,2.4l-0.1-0.7
				c-8.8,1.5-2.1,2.1-10.1,3.1l3.2-1.7l-4.1,1.1l0.8-1c-4.4,1.4-5.8,1.5-10.3,1.9c0.8,0.3,0.1,1-2.2,1.5l0.6,4.6
				c0.6-0.3,1.3-0.5,2.1-0.8c2.7-0.4-1.3,1.1,4.1-0.7c-1.2,0.8-2.4,1.8-4.9,1.9c-0.2,0.2-0.8,0.6-1,0.9l-1-7.3
				c0.2-0.1,0.3-0.1,0.3-0.2c-0.1,0-0.2,0-0.3,0l1,7.7c2.9-0.5,6.8-2.1,8.7-2.7c-0.8,0.2-1.7,0.4-2.2,0.5c2.6-1.1,5.1-2.2,7.7-3.2
				c1.3-0.1,0.3,0.4-0.6,0.9c1.6-0.5,2.7-1.1,5-1.8c-0.5,0.7-0.3,1.3-3.6,2.4c2.5-0.9,5-1.7,7.5-2.5c0.5,0.1,4-0.2,3,0.3
				c4.2-0.6,10.2-3.2,15.9-3.6c0.3-0.2,0.9-0.3,2-0.6c5.3-0.6,10-0.4,16.3-1.6l1.4,0.3l-1.5-8.1c-0.7,0.2-1.4,0.4-2.1,0.5
				c-4.4,2.6,4.8-1-2.6,3.2c-5.3,2.8-2.2,0.1-4.2,0.6c-2.6,1.6-7.2,4.3-12.6,5C549,243.8,550.4,243.6,552,243z M491.8,255.3
				c1.2-0.3,3.5-1,4.4-0.7C494.9,255.6,493.8,255.3,491.8,255.3z M582.8,242.2c-0.9,0.4-2.2,0.5-3.8,0.5
				C580.1,242.4,581.4,242.2,582.8,242.2z M527.2,252.9c0,0-0.1,0-0.1,0.1C524.4,253.1,525.4,253,527.2,252.9z M532.7,252.3
				c0.5-0.2,0.5-0.3,0.3-0.3c-0.4,0.2-1.6,0.5-3,0.6C530.4,252.7,531.1,252.7,532.7,252.3z M514.1,245.4l1.1,0
				C512.9,246.1,513.5,245.7,514.1,245.4z"/>
			<path class="st4" d="M572.4,244.9c-0.3-0.1-0.4-0.2-0.5-0.3C571.4,244.8,571.4,244.9,572.4,244.9z"/>
			<path class="st4" d="M550.6,245.2l-0.2,0c-0.1,0.1-0.1,0.1-0.2,0.2L550.6,245.2z"/>
			<path class="st4" d="M541.7,252.1c1.1-0.2,1.7-0.2,2.2-0.2C543.9,251.7,543.3,251.7,541.7,252.1z"/>
			<path class="st4" d="M561.8,246.7c-1.2,0.1-2.5,0.3-3.7,0.5c1.8-0.2,2.4-0.1,3.3-0.1C561.4,247,560.7,246.8,561.8,246.7z"/>
			<path class="st4" d="M545.7,257.7c-0.5,0.2-1.1,0.2-1.6,0.4l0.2,0.3C546.5,257.9,548,257.3,545.7,257.7z"/>
			<path class="st4" d="M565.3,249.1c0.2,0.5,1.8,0.5,3.8,0.8l6.3,1l-6.2,2.3c-0.4,0.1-0.8,0.3-1.2,0.4c0.1,0,0.3-0.1,0.4-0.1
				c-0.3,0.5,0.1,0.5,0.9,0.3l8.5-2.4l-8.6-2C568.3,249.1,566.8,249,565.3,249.1z"/>
			<path class="st4" d="M567.4,253.8c-0.7,0.3-1.5,0.5-2.2,0.7C565,254.9,566.1,254.3,567.4,253.8z"/>
			<path class="st4" d="M539.6,250.8c1.2,0,0.7-0.9,1.3-0.7C542.2,249.1,533.3,252.2,539.6,250.8z"/>
			<path class="st4" d="M567.2,251.2l-0.8-0.8c-0.5,0.2-1,0.3-1.4,0.5C565.7,251,566.5,251.1,567.2,251.2z"/>
			<path class="st4" d="M547.8,252.5l3.9-0.4c-0.1-0.1,0.4-0.3,1-0.4C550.3,252,547.6,252.3,547.8,252.5z"/>
			<path class="st4" d="M552.7,251.7c1.3-0.2,2.5-0.4,3.1-0.6C555.2,251.2,553.7,251.4,552.7,251.7z"/>
			<path class="st4" d="M561.8,251.3l-1.2-0.1c-0.9,0.1-1.9,0.2-2.8,0.3C559.2,251.4,560.5,251.3,561.8,251.3z"/>
			<path class="st4" d="M505.6,259.1l-4.3,0.9c-0.4,0.3,0.8,0.3,2.4-0.1C504.7,259.6,506.3,259.3,505.6,259.1z"/>
			<path class="st4" d="M518.7,259.1c-1.2,0-1.3-0.1-1.9-0.3l0,0.9L518.7,259.1z"/>
			<path class="st4" d="M506.3,261.3c-0.4,0.3-6.1,1.7-0.7,0.8C506,261.8,510.2,260.9,506.3,261.3z"/>
			<polygon class="st4" points="548.5,252.7 547.5,253.1 547.9,254.5 			"/>
			<path class="st4" d="M521.8,255.9c5.1-0.5,1.1-1.1,5.7-1.4c1.2-0.5-3.8,0.2-2.6-0.3C521.9,255.1,520.3,255.2,521.8,255.9z"/>
			<path class="st4" d="M525,254.2c0.5-0.1,1-0.3,1.5-0.5C525.6,254,525.2,254.1,525,254.2z"/>
			<polygon class="st4" points="514,246.8 510.8,248 513,247.5 			"/>
			<path class="st4" d="M508.4,250.8l-1-0.5l-1.6,1.8C506.4,251.6,507.8,250.9,508.4,250.8z"/>
			<path class="st4" d="M500,261.9l0.2-0.3c-0.5-0.1-1.3,0-2.8,0.3L500,261.9z"/>
			<polygon class="st4" points="526.6,248.7 525.9,248.8 527.4,249.4 			"/>
			<path class="st4" d="M562.2,237.2c-1.4,0.6-3,1.5-4.4,2C560.9,237.9,562.9,238.1,562.2,237.2z"/>
		</g>
		<g>
			<text transform="matrix(1.094 0 0 1 502.1753 320.5811)" class="st6 st1 st7">A</text>
		</g>
	</g>
</g>
</svg>
