<?xml version="1.0" encoding="utf-8"?>
<!-- Generator: Adobe Illustrator 24.3.0, SVG Export Plug-In . SVG Version: 6.00 Build 0)  -->
<svg version="1.1" id="Layer_1" xmlns="http://www.w3.org/2000/svg" xmlns:xlink="http://www.w3.org/1999/xlink" x="0px" y="0px"
	 viewBox="0 0 418 150" style="enable-background:new 0 0 418 150;" xml:space="preserve">
<style type="text/css">
	.st0{fill:#A52336;}
	.st1{font-family:'Helvetica';}
	.st2{font-size:44.5053px;}
	.st3{fill:none;stroke:#1D1E1C;stroke-width:0.5;stroke-miterlimit:10;}
	.st4{fill:#2A4B9A;}
	.st5{fill:#66B22E;}
	.st6{fill:#E42320;}
	.st7{fill:#FFFFFF;}
	.st8{font-size:111.5705px;}
</style>
<g>
	<g>
		<text transform="matrix(1.0014 0 0 1 132.4884 92.4057)" class="st0 st1 st2">CANnectedArt</text>
		<text transform="matrix(1.0014 0 0 1 132.4884 92.4057)" class="st3 st1 st2">CANnectedArt</text>
	</g>
	<g>
		<g>
			<path class="st4" d="M103.5,130.3c2.3-0.9,3.1-1.3,3.3-1.5s-0.1-0.3,0.3-0.5c-4,1.4-4.7,2.2-4.6,2.3
				C102.5,130.6,103.6,130.3,103.5,130.3z"/>
			<path class="st4" d="M77.2,134.7c-0.5,0.3-1,0.5-1.5,0.8c4.9-2,9.2-3.9,13-5.7C85.2,131.4,81.4,133.1,77.2,134.7z"/>
			<path class="st4" d="M86.3,117.1c0.7-0.1,1.6-0.2,2.6-0.4c1-0.2,2.2-0.4,3.4-0.7c2.4-0.5,4.9-0.9,7.3-1.3
				c2.4-0.4,4.9-0.9,7.5-1.3c2.5-0.4,5-0.7,8.2-0.1c0,0.1,0.1,0.2,0.2,0.3l-0.4,0.5c-0.3,0.3-0.5,0.6-0.8,0.9
				c-0.5,0.6-1.1,1.1-1.6,1.5c-1,0.9-2,1.7-3,2.4c-0.7,0.4-1.4,0.8-2.1,1.2c-0.9,0.8-1.6,1.5-2.2,2.2c1.7-1.1,3.3-2.2,5.1-3.5
				c0.9-0.7,1.8-1.5,2.8-2.4c0.5-0.5,1-1,1.5-1.6l0.8-0.9l0.4-0.5c0-0.1-0.1-0.2-0.1-0.3c-3.2-0.6-5.5-0.4-7.8,0s-4.5,0.7-6.7,1
				s-4.5,0.6-7.2,1.1c-1.3,0.3-2.7,0.6-4.1,0.9C88.8,116.5,87.5,116.8,86.3,117.1z"/>
			<path class="st4" d="M65.6,130.3c-2.4-0.1,8.2-1.4-8.8,1c0.9,0,1.1-0.1,1.6-0.1C59.9,131,62,130.8,65.6,130.3z"/>
			<path class="st4" d="M58.3,131.2C50.9,132.1,63.2,131,58.3,131.2L58.3,131.2z"/>
			<path class="st4" d="M92.9,124.7c-3.3,1.1-6.5,2-9.8,2.8c2.1-0.1,10.9-2.4,7.7-1.4c2.5-0.8,4.3-1.3,5.4-1.7
				c1.1-0.4,1.6-0.7,1.6-0.7C97.8,123.5,95.8,124.1,92.9,124.7z"/>
			<path class="st4" d="M102,120.8c-1.7,0.7-3.3,1.4-5,1.9C97.9,122.6,99.3,122.2,102,120.8z"/>
			<path class="st4" d="M86.3,126.1c3.6-1,7.2-2,10.7-3.3c-1.4,0.3-1.6,0-4.9,1.6C92.9,123.8,90.8,124.8,86.3,126.1z"/>
			<path class="st4" d="M80.1,127.2c-2.8,0.4-6,0.9-7.2,0.9c-1.3,0.1-0.6-0.1,4.4-1.2c-9.4,1.7-13.4,2.3-12.7,2.4
				C65.2,129.5,70.7,129.1,80.1,127.2z"/>
			<path class="st4" d="M79.5,119.8l7.8-1.6c2.7-0.8,5.3-1.5,7.7-2.1c-0.9,0.2-2.2,0.5-3.7,0.8s-3.4,0.7-5.2,1.1s-3.5,0.8-4.7,1.1
				C80.3,119.5,79.5,119.8,79.5,119.8z"/>
			<path class="st4" d="M81.5,109.2c-0.6,0.4,3.4-0.2,4.2-0.1c2.4-0.6,4.9-1.2,7.3-1.7c-1.9,0.2-4.6,0.7-7,1.1
				C83.7,108.9,81.8,109.3,81.5,109.2z"/>
			<path class="st4" d="M85.7,109.1c-3.6,1-7.2,2-10.8,3.2c4.8-1.4,7.7-2.1,9.3-2.6C85.7,109.3,86,109.2,85.7,109.1z"/>
			<path class="st4" d="M103.5,119c-5.7,2.6-11.6,4.6-17.5,6.3c7.1-1.9,14.1-4.4,20.8-7.7L103.5,119z"/>
			<path class="st4" d="M82.9,120.9c-2,0.7-4,1.4-6.1,2.1c3.6-1.1,7.2-2.4,10.8-3.7L82.9,120.9z"/>
			<path class="st4" d="M109.9,112.5c-4.4,1.9,6.2-1.4,1.6,0.5c5.3-1.8,9.9-3.7,14.1-5.4L124,97.4c-1.7,0.5-3.3,0.9-4.9,1.4
				c1.6-0.4,3.2-0.8,4.9-1.2l1.6,9.9C121.1,109.1,116,110.7,109.9,112.5z"/>
			<path class="st4" d="M109.6,101.4c3-0.9,6.1-1.7,9.5-2.7C115.9,99.6,112.8,100.4,109.6,101.4z"/>
			<path class="st4" d="M66.6,123.5c0.9-0.1,2.5,0,8.6-1.2l-4.3,0.3C69.6,122.9,68.1,123.2,66.6,123.5z"/>
			<path class="st4" d="M70.8,122.6H71c4.6-1,7.8-1.8,9.2-2.2C78.9,120.7,76.1,121.5,70.8,122.6z"/>
			<path class="st4" d="M65.6,123.7c0.4-0.1,0.7-0.1,1.1-0.2C66.2,123.5,66,123.5,65.6,123.7z"/>
			<path class="st4" d="M103.6,107.3c-6.5,0.9-19.7,3.7-6.8,2.1c2.3-0.5,1.6-0.6,1.5-0.8C98.2,108.4,98.7,108.1,103.6,107.3z"/>
			<path class="st4" d="M63.1,117.2c3.7-1.4,7.5-2.8,11.3-3.9c-0.3-0.1-2.4,0.3,0.7-0.8C71.1,113.9,67.1,115.5,63.1,117.2z"/>
			<polygon class="st4" points="65.8,122.6 62.1,123.5 61.2,118.1 63.1,117.2 61.2,118 62.1,123.6 64.4,123.2 			"/>
			<path class="st4" d="M120.4,108c1.6-0.6,3.2-1.3,5-1.9l-1.2-7.2c-3.5,0.8-7.2,1.7-11.3,2.7c3.8-0.8,7.6-1.6,11.3-2.4l1.1,6.6
				c-2.8,1-5.5,1.9-8.2,2.8C116.2,109.1,113.5,110.4,120.4,108z"/>
			<path class="st4" d="M96.4,115.8c0.3-0.1,0.8-0.3,1.1-0.4C96.9,115.6,96.3,115.7,96.4,115.8z"/>
			<path class="st4" d="M53.2,118.1c0.3-0.1,0.6-0.1,1-0.2c0.1-0.1,0.1-0.1,0.2-0.2L53.2,118.1z"/>
			<path class="st4" d="M116,108.9c-4.8,1.5-7.7,2.7-10.4,3.8c3.6-1.3,7.4-2.6,11.5-4C117.5,108.4,117.5,108.3,116,108.9z"/>
			<path class="st4" d="M93,105.9c2.6-0.5,5.5-1.2,8.5-1.8C99,104.5,93.8,105.5,93,105.9z"/>
			<path class="st4" d="M99.2,115.1c-0.2,0.1-0.5,0.2-0.7,0.3C100.1,115,99.9,115,99.2,115.1z"/>
			<path class="st4" d="M99.2,115.1c2.5-0.9,4.4-1.7,6.4-2.5c-2.9,1-5.7,2-8,2.8C98.1,115.3,98.8,115.2,99.2,115.1z"/>
			<path class="st4" d="M49.2,123.4c-0.3,0.3-2.9,1.1-6.6,1.9v-0.2c4.8-1.8,11.6-4.1,18-5.7c10.8-3.7,3.3-3.5-6.3-1.6
				c-0.3,0.4-0.3,0.5-11.3,4.6c2-0.6,8.2-2.3,12.7-3.6c4.6-1.2,7.5-1.9,2.8-0.1c-12,4-12.5,4-16.2,4.9l0.5,3.2
				c0.8-0.1,1.8-0.2,3.2-0.4c-3.1,0.2,1.6-0.9,6.7-2.3c5.1-1.3,10.5-2.9,8.8-3.1c-4.3,1.1-8.7,2.1-13.1,3.1
				C48.1,124.1,52.8,122.9,49.2,123.4z"/>
			<path class="st4" d="M75.5,111.5l4.6-1.4c-5.3,1.4-9.1,2.2-16.1,3.9c-7.6,2.6-9.1,3.4-9.6,3.7c7.5-2.4,15.1-4.6,22.7-6.8
				L75.5,111.5z"/>
			<path class="st4" d="M100.9,104.6c-3.5,1.5-14.6,4.7-7.7,3.6c13.6-3.5,9.4-3,17.5-5.2C88.8,108.5,117,101.1,100.9,104.6
				c4.4-1.2,8.3-2.2,11.9-3c-4,0.9-7.8,1.7-11.4,2.5c0.2,0,0.3-0.1,0.5-0.1h0.1l0,0c1-0.2,1.3-0.2,0.2,0c-0.1,0-0.3,0.1-0.5,0.1
				C101.7,104.3,101.3,104.4,100.9,104.6c-6.4,1.5-1,0.1,1-0.5c0.1,0,0.2-0.1,0.3-0.2h-0.1c-7.3,1.9-14.6,4-21.9,6.2
				C84.8,108.9,90.6,107.4,100.9,104.6z"/>
			<path class="st4" d="M85.1,113c-0.7,0.1-0.7,0.1-0.7,0C83,113.4,82.4,113.6,85.1,113z"/>
			<path class="st4" d="M76,115c1.6-0.5,2.8-1.3,8.1-2.5c4.5-0.9,0,0.3,0.3,0.5c3.1-0.9,11-2.8,1-1l-1.5,0.5
				c-4.5,0.9-9.5,2.2-13.3,3.2s-6.2,1.8-5.5,1.5C67.8,116.8,70.1,116.2,76,115z"/>
			<path class="st4" d="M98.7,113.2c6-2,12-4.1,18-6.3l-9.3,2.6l0.5,0.2C97.7,112.9,100,112.5,98.7,113.2z"/>
			<polygon class="st4" points="51.1,118.5 53.4,117 43.1,121.4 			"/>
			<polygon class="st4" points="57.5,126.1 56.6,126.9 62.9,125.1 			"/>
			<path class="st4" d="M101.8,81.1l5.1-2.2C104.5,79.9,102.9,80.6,101.8,81.1z"/>
			<path class="st4" d="M63.5,92.4l-0.9,0.5C64.4,92.3,65.1,92.1,63.5,92.4z"/>
			<path class="st4" d="M100.1,92.1c-7.8,1.8-16.6,3.6-15.6,4L87,96C92.4,94.2,96.5,93,100.1,92.1z"/>
			<path class="st4" d="M48.8,103.3c-0.8,0.1-1.5,0.2-2.3,0.3c-1.9,0.6-3.7,1.2-5.2,1.7C43.5,104.8,46.1,104.1,48.8,103.3z"/>
			<path class="st4" d="M54,99.4c3.4-0.7,6.9-1.4,10.3-2.1C62,97.8,58.7,98.5,54,99.4z"/>
			<path class="st4" d="M73.8,88.5l-6.2,1.9C77.4,88.5,73.1,89,73.8,88.5z"/>
			<path class="st4" d="M110.2,85.9c-6.9,1.2-12.3,2.4-17,3.7C101.4,87.7,108.1,86.9,110.2,85.9z"/>
			<path class="st4" d="M88,93c3.3-1.2,4.6-1.8,4.5-1.9C89.2,92.3,87.3,93,88,93z"/>
			<path class="st4" d="M73.7,95.5c1.2-0.3,2.4-0.7,3.6-1c4.9-1.7,9.8-3.3,15.9-4.9C87.1,90.9,80.2,92.9,73.7,95.5z"/>
			<path class="st4" d="M64.7,63.1c-0.6,0.1-1.2,0.1-1.8,0.2C62.8,63.4,63.5,63.3,64.7,63.1z"/>
			<path class="st4" d="M31.7,56.3c2.2-0.5,5.8-1.3,9.3-2C39.3,54.6,36.5,55.2,31.7,56.3z"/>
			<path class="st4" d="M90.3,95.6C95.4,94.5,91.1,95.3,90.3,95.6L90.3,95.6z"/>
			<path class="st4" d="M117.1,94.5c-1.1-0.1-2-0.1-2.3,0C115.4,94.4,116.2,94.4,117.1,94.5z"/>
			<path class="st4" d="M57.7,115.4c0.1,0,0.3,0,0.4,0C56.6,115.3,56.9,115.3,57.7,115.4z"/>
			<path class="st4" d="M98,94.3c-1.9,0.3-4.1,0.7-6.5,1.1C92.5,95.3,94.5,94.9,98,94.3z"/>
			<path class="st4" d="M96.9,94.2c2.1-0.4,3.8-0.7,5.4-1c0.5-0.1,0.5-0.2-0.4,0c-0.5,0.1-1.2,0.2-2.3,0.4
				C98.9,93.8,98,94,96.9,94.2z"/>
			<path class="st4" d="M83.2,97.2c2.9-0.7,5.6-1.2,8.2-1.7c-1,0.2-1.4,0.2-1.2,0.1C88.8,95.9,86.7,96.4,83.2,97.2z"/>
			<path class="st4" d="M60.2,82.9c-0.5,0.2-1,0.3-1.5,0.5c-2.5,1.1-3.2,1.4-2.7,1.2C56.4,84.5,58,83.8,60.2,82.9z"/>
			<path class="st4" d="M84.2,100c-0.2,0.1-0.3,0.1-0.6,0.2c0.2-0.1,0.5-0.2,0.7-0.2H84.2z"/>
			<path class="st4" d="M101.7,93c-7.3,3.7-11.6,5.1-17.4,6.9l6.2-0.3C94.3,97.5,98,95.3,101.7,93z"/>
			<path class="st4" d="M32.3,99.7c4.2-0.9,8.5-1.7,12.7-2.5c-15.2,4.6-26.2,7.3-14.2,5c0.7-1.2,13-4.4,25.3-7.2
				c12.3-2.8,24.7-5.2,25.5-6.3l8.5-1.1c-2.4,0.4-2.8,0.6-5.2,1c7.6-0.9,10.8-1.7,14.1-2.7c3.3-0.9,6.7-2,15-3.2l-0.9-5.5
				c-1.2,0.5-2.5,1.1-4,1.7c-7.1,2.8-12.1,4.3-7.3,2.2c-5.2,2.2-10.5,4.2-15.8,6c-4.7,1.3-3.6,0.7,1.1-0.7
				C79,89,70.8,91.2,62.5,92.9l0.2-0.1c-3.5,1.1-11.5,2.9-15.4,3.7c-6.4,0.5,3.2-0.6,1.5-0.7c-4.6,0.8-9.2,1.5-13.8,2.1
				c-5.7-0.1,5.8-1.3,15.3-2.8c-5.1,0-7.9,0.2-11.2,0.6c-1.6,0.2-3.4,0.5-5.5,0.8c-2.2,0.3-4.8,0.5-8.1,0.7l0.9,6.9
				c3.5-1.5,8.1-3.3,14-5.4c-4.2,1.7-8.4,3.5-12.5,5.3c8.3-2.3,18-6.7,32.5-10.7c-1.7,0.4-9,2.3-14,3.7c-5,1.4-7.8,1.9-0.6-1
				c4.1-1.4,9.6-3.2,17.4-6.1c0.2,0.7,7.9-2,17.7-4.6l-0.5,1.1c5.2-1.5,7.7-2.3,9.5-3c0.9-0.3,1.7-0.6,2.7-1c0.5-0.2,1-0.3,1.6-0.5
				c0.5-0.2,1.1-0.3,1.8-0.4c0.9-0.1,1.6,0.1,2,0.3c0.4,0.2,0.5,0.4,0.7,0.6l1-5.2c-6.9,3.8-9.1,4.2-11.3,5
				c-17.9,9.1,12.7-5.3-8.4,5.8c-15.1,7-25.7,11.8-43.9,19.9c-1.1,0.4-2,0.7-2.5,0.9l1.3,5.6c3.6-1.3,1.6-0.3,0.1,0.4l-1.5-6.5
				c1-0.5,1.9-1,0.4-0.5l-0.5,0.2l1.7,7l8.8-4.5c2.3-1,1.6-0.4,1.3-0.2c7.9-3.7,0.4-1.2,12.9-6.8c3.1-2.4,26.2-9.6,41.4-17.4
				c3.9-1.4-1.7,1.3-0.5,1.2c2.5-1.2,4.3-2,5.4-2.1c1.1-0.1,1.5,0.2,1.7,0.2l0.1-5.4c-5.8,3.5-9.1,5.1-12.5,6.9
				c-3.5,1.7-7.1,3.5-13.8,6.3c-5.1,1.5-10.2,2.8-15.3,4c11.3-2.5-2.8,2.6-15.5,6c4.1-0.5,7.6-1.1,9.9-1.5c-6.7,1.8-13.5,3.4-20.3,5
				c-2.5,0.4-0.5-0.4,2.8-1.5c-1.4,0.4-2.7,0.7-3.7,1c-7.3,1.1-3.6-0.2,1.5-1.8c2.5-0.3,5-0.6,7.4-1c4.9-1.7,9.5-3.4,8.4-3.7
				c-1.3,0.4-3.8,1.1-6.6,1.8c1.3-0.4,2.1-0.8,1.5-0.7c-0.7,0-2.8,0.7-6.1,1.7l-4.7-0.1l-1.1,0.6l-5.7,1l0.7,5.3
				c7-1.4,13.9-2.8,20.9-4.1c8.9-2.4,17.3-4.7,26.9-7.1c4.8-1.2,9.9-2.4,15.5-3.6c2.8-0.6,5.7-1.3,8.8-1.7c3.1-0.4,6.4-0.6,9.8,0.2
				l-0.1-0.3c-0.6,1.7-1.8,3.2-3.3,4.2c1.6-1.4,2.2-2.5,2.4-3.1s0-0.7-0.2-0.5c-0.4,0.3-1.5,1-1.6,0.5c0.5-0.5,1-1.1,1.4-1.9l1.1,3
				c-2-0.6-4.4-0.8-7.1-0.7c-2.7,0.2-5.6,0.7-8.7,1.3c-6.3,1.3-13.2,2.8-20.3,4c8.2-1.5,6.4-0.7,4.4-0.1l13.9-3
				c4.7-1,9.2-2,13.7-1.9c-0.3,0.4,1.3,0.5,3.9,1.2l-1.6-4.2c-0.3,0.8-1,1.7-2.1,2.5s-2.5,1.5-4.2,2.1c1.4-0.2,0.9,0.3-0.8,1.2
				c-1.7,1-4.7,2.4-8.2,3.7c-3.5,1.4-7.6,2.8-11.5,4s-7.6,2.2-10.4,3c-0.4-0.2,0.1-0.5,2.4-1.3c2.3-0.8,6.4-1.8,13.1-4
				c-7.5,1.9-12.3,3.5-17.1,5.1s-9.6,3-17.2,3.9c3.4-0.6,5.2-0.9,6.5-1.4c-7.8,2-27.3,4.6-22.8,3.4l3.4-0.5
				c-1.9,0.3-3.9,0.6-6.2,0.9l0.7,4.8C50,114.7,65.2,109,78,104.7c12.8-4.3,23.1-7.2,24.6-8.1c0.2,0.1-2.7,2.2-4,2.8
				c2.8-1,5.6-2,8.4-3l-0.7-3.9c-9.9,5.2-19.9,9.9-30.1,14.3c1.6-1.1-1-1.2-1.7-1.8c-0.8-0.7,0.4-1.7,9.4-5.1
				c-5.2,1.6-11.7,3.7-22.8,7.1c3.6-0.8,9.2-1,4.3,0.5c-6.9,1.3-9.2,1.8-12,2.3s-5.9,1.3-14.4,2.6c5.5-1-0.4,2.1-9,3.8
				c1.3-0.5-0.9-1.5,2.2-2.3l-4.6,1.3l0.7,5l16.4-6.3c-5.2,1.9-0.7,1.7,4.1,0.7c-2.3,0.4,18.4-5.6,24-7.4l-9.1,2.4
				C86,103,87,100.5,106.1,94.4l-0.1-0.7c-1.4,0.5-2.9,1.1-4.6,1.8c1.4-0.7,3-1.9,2.8-2.4c-0.1-0.2-0.7-0.3-1.9,0
				c-0.6,0.1-1.5,0.4-2.5,0.7c-1,0.3-2.3,0.7-3.8,1.2c-2.6,1.4-8.5,4.4-16.5,7.5s-18.1,6.2-28.8,8.2l-4.2,0.1
				c-5.5,1-11,1.9-16.5,2.7c5.1-1.3,14.8-3.4,25.1-6.2c5.2-1.3,10.5-2.9,15.4-4.4c5-1.6,9.6-3.1,13.4-4.4c-4.5,1.1-5.2,1-6.3,1.3
				c-1.2,0.2-2.9,0.6-9.7,2.1c-2.4,0.3-0.6-0.3,2.3-1c2.9-0.8,6.9-1.8,8.9-2.3c-10.4,2.6-20.9,4.5-31.5,6c0.7,0.4-5.3,1.6-11.4,2.6
				s-12.2,1.9-11.6,2.3c11.5-1.7,23-3.5,34.4-5.9c0.7,0.4-4.1,2-12.1,3.8c-7.9,1.8-18.9,3.5-30.3,4.6c-5.8,0.2,4.2-2.2,3.7-2.5
				c-1.2,0.3-5.1,0.8-9.5,1.4l0.4,5.4c6-1,12.8-2.1,14-2.2l-9.5,2c12.6-1.5,20.4-4.4,35.6-5.8c0.7-0.1,1.4-0.2,2.2-0.3
				c0.4,0,0.8-0.1,1.2-0.1c0.2,0,0.4,0,0.6-0.1h0.3c0.8,0,1.5,0,2.1,0.1c1.1,0.1,1.6,0.2,2.5-0.3c-0.2-0.3-0.3-0.7-0.5-1.2
				c-0.1-0.5-0.3-1-0.2-1.6s0.5-1.2,1.4-1.8c1-0.6,2.5-1.2,4.7-1.8c1.1-0.1,9.2-1.1,17.8-2.1c1-0.1,1.9-0.2,2.9-0.3
				c0.9-0.1,1.6-0.1,2.2-0.1c1.3,0,2.5-0.1,3.6-0.1c2.2-0.1,4.2-0.3,5.2-0.4c0.7,0,1-0.1,0.9,0c-0.7,0.2-1.7,0.5-3,0.8
				c-1.6,0.4-5.2,1.3-9,2.1c-3.1,0.7-5.9,1.4-7.9,2c-2,0.5-3.2,0.9-3.3,1.2c0.9-0.3,2.6-0.7,4.4-1.1c1.7-0.4,3.6-0.8,4.8-1
				c1,0-1.1,0.5-2.2,0.8c-1.1,0.3-1.6,0.5,2.2-0.1c1.3-0.3,2.5-0.5,3.6-0.6c0.5,0,1.1,0,1.5,0.2c0.5,0.1,0.9,0.5,1,0.9
				c0,0,0.1,0.1,0,0.1l-0.1,0.1l-0.2,0.1l-0.4,0.2c-0.3,0.2-0.6,0.3-0.9,0.5c-0.6,0.3-1.3,0.6-1.9,0.9c-1.2,0.5-2,0.8-1.3,0.6
				c0.3-0.1,1-0.3,2.3-0.8c1.3-0.4,3.1-1.1,5.7-2.1c-2.5,1.8-5.3,2.8-8.1,3.8c-2.9,1-6,1.9-10.4,3.1c1.6-0.2,2.6-0.2,3,0
				s0,0.6-1.3,1.1c-0.6,0.3-1.5,0.5-2.5,0.8s-2.3,0.5-3.6,0.8s-2.7,0.5-4.2,0.7s-3.1,0.4-4.7,0.5c0.2-0.1-0.7-0.2-1.6-0.3
				c-1-0.1-2.1-0.2-2.7-0.2c-3,0-5.7-0.1-8.3-0.3c-1.3-0.1-2.6-0.2-3.8-0.3c-0.6-0.1-1.2-0.1-1.8-0.3c-0.6-0.2-1.2-0.5-1.4-1.2
				c-0.1-0.2-0.1-0.4-0.1-0.6c0.1-0.1,0.3-0.2,0.4-0.2l0.9-0.4c0.6-0.3,1.1-0.5,1.7-0.8c1.1-0.5,2.2-1,3.2-1.4
				c2.1-0.9,4.2-1.8,6.2-2.6c8.6-3.5,17.1-6.6,28-10c2-0.5,12.6-3.1,8.2-1.4c3.1-1,5.9-2.2,12.7-3.8c6.6-1.1,2.8-0.2-1.3,0.9
				c-4.2,1-8.7,2.3-3.6,1.6c0.5-0.5,7.4-2.5,14.9-4.2l-0.5-2.8c-4.1,1.8-8.4,3.6-11.8,5.1c1.4-0.1,6.3-1.9,11.9-4.3l0.2,1.3
				c-6.7,1.4-14.6,3.7-19.8,5.3c-0.2-0.8,7.2-3.8,19.6-7l0.4,2.1c-5.2,2.5-11.9,5.4-19.4,8.4c-18,6.7-8,2-11.1,3.2
				c-16,5.2-23.3,7.6-29.6,9.8c-6.2,2.1-11.4,3.9-23.2,6.2l-0.7-5.2c1.4-0.4,3-0.7,4.7-1.2c11.4-2.3,0.8,1.4,3.3,1.3
				c-2.8,0.8-5.4,1.5-7.7,2.2l0.1,0.6c10.3-2.2,17.2-3.4,25.4-5.7c-4.2,1-8.3,2-12.5,2.9c4.7-1.4,14.6-4.2,20-5.6
				c-4.5,1-17.5,4.7-33,7.9l0.1,0.4c17.2-4.7,37.4-10.1,51.6-12.9c4.7-1.4,12.8-3.3,8.9-2.8l-8.4,2c-3.9,0.6,0-0.6,3.6-1.5
				c3.6-1,6.8-1.8,1.4-0.8c2.5-0.6,5-1.3,7.6-1.9c1.3-0.3,2.6-0.6,4-0.9l1-0.2c0.4-0.1,0.9-0.2,1.3-0.3c0.9-0.2,1.8-0.4,2.6-0.6
				c0.9-0.2,1.8-0.4,2.7-0.5s1.8-0.3,2.8-0.4c0.9-0.1,1.9-0.3,2.9-0.4s1.7-0.1,2.5-0.1c1.5,0.1,3,0.2,4.4,0.8
				c0.7,0.3,1.5,0.6,2.2,1.1s2,1.1,1.6,1.8c-1.6,2.1-3.2,3.8-4.9,5.3c-1.3,0.8-2.6,1.4-4,2c0.2-0.1,1.5-0.7,3-1.9
				c1.5-1.2,3.3-2.9,5-5.1c0.1-0.3,0.2-0.5,0.2-0.8c-0.3-0.2-0.5-0.4-0.8-0.6c-0.5-0.4-1-0.6-1.5-0.9c-1-0.5-1.9-0.7-2.7-0.8
				c0.7,0.1,1.6,0.3,2.6,0.8c0.5,0.2,1,0.5,1.5,0.9c0.3,0.2,0.5,0.4,0.8,0.6c0.1,0,0,0.1,0,0.2l-0.1,0.2l-0.1,0.4
				c-1.7,2.1-3.6,4-5.8,5.5c-2.2,1.6-4.7,2.9-7.5,4.1c-1.3,0.6-2.6,1.2-3.9,1.7c-1.2,0.5-2.3,1-3.3,1.4c-2,0.9-3.7,1.6-5,2.4
				c1.8-0.6,3.7-1.2,5.5-1.8l1.4-0.5l1.8-0.7l3.6-1.5c-0.9,0.4-1.8,0.9-2.7,1.4c-0.5,0.2-0.9,0.5-1.4,0.7s-0.9,0.4-1.4,0.6
				c-1.4,0.7-2.9,1.4-4.4,2c-3,1.3-6.2,2.6-9.5,3.9c-6.6,2.5-13.6,4.6-20.7,6.2c3.3-0.4,4.1-0.6,5.3-0.9c1.3-0.3,3-0.8,8.1-1.7
				c-4.4,0.6,4.6-1.8,12.8-4.9c2.1-0.7,4.1-1.5,5.8-2.2c1.8-0.7,3-1.2,4.9-2.1c1.6-0.8,2.3-1.2,2.1-1.2c-0.3,0-1.5,0.5-4.1,1.4
				c2.4-0.8,4.8-1.8,7.1-2.8c1.2-0.5,2.3-1,3.3-1.6s1.9-1.1,2.7-1.7c1.6-1.2,3-2.4,4.2-3.7c1.2-1.3,2.5-2.8,4-4.8l-0.3-0.6
				c0-0.1-0.2-0.2-0.3-0.3l-0.4-0.3c-0.5-0.4-0.9-0.7-1.4-1c-0.9-0.6-1.7-1.1-2.5-1.6c-0.8-0.4-1.6-0.8-2.6-1.1c-1-0.3-2-0.7-4-0.5
				c0.2,0.1,1.8,0.1,1.2,0.3c-0.3,0.1-1.2,0.2-3.1,0.3c-0.9,0.1-2.1,0.2-3.7,0.3c-1.5,0.1-3.4,0.6-5.7,0.9c-0.8,0.2-3,0.7-3.5,0.9
				c-0.4,0.1-0.5,0.1-0.8,0.1c0.2,0,0.4-0.1,0.7-0.1c-0.5,0.1-0.6,0.2,0.2,0c2-0.3,3.7-0.5,5.2-0.7s2.6-0.4,3.2-0.3
				c-3.4,0.8-10.5,2.4-17.6,4c-6.2,1.5-12.5,3-15.7,4c-7,1.6,2.9-1.1-1-0.4l-9.4,2.9c-1-0.4-18.7,3.7-2.3-0.9l-14.8,3.9
				c-5.1,1.1-11.3,2.7-16.9,4.2l1.2,8.4c4.2-0.9,8.2-1.9,11.3-2.7c7.1-1.5,17.6-5.4,11.6-3.2c7.7-2.2,15.5-4.6,23.1-7.3l0.2,0.1
				c12.1-3.9,24.5-8.7,37.3-14.1l-1.1-6.4c-11.6,2.4-23.5,5.5-35.7,8.9c-3.8,1.4-7.7,2.8-12.2,4.5c-2.2,0.9-4.7,1.8-7.3,2.9
				c-1.4,0.6-2.8,1.2-4.3,1.8c-2.1,0.9-4.5,1.9-6.8,3l-4.3,1.6c-0.5,0.2-0.9,0.5-1.4,0.7c-0.2,0.1-0.5,0.3-0.7,0.4s-0.2,0.1-0.2,0.2
				l-0.1,0.2c-0.2,0.5-0.5,1-0.7,1.6c-0.1,0.3-0.3,0.5-0.4,0.8l-0.2,0.4c0,0.1-0.1,0.1-0.1,0.3c0,0.2,0,0.3,0,0.5
				c0.2,1.3,0.6,1.8,0.9,2.2c0.4,0.4,0.8,0.7,1.3,1.1l0.7,0.6c0.1,0.1,0.2,0.2,0.4,0.3l1,0.3c1.4,0.4,2.7,0.8,4.1,1.2l1,0.3
				c0.2,0,0.3,0.1,0.5,0.1h0.8c1.1,0,2.1,0.1,3.2,0.1c2.1,0.1,4.2,0.1,6.2,0.2c1.9-0.1,3.8-0.2,5.6-0.3c0.9-0.1,1.8-0.1,2.7-0.2
				c0.8-0.1,1.8-0.1,2.4-0.2c1.3-0.2,2.6-0.4,3.8-0.6s2.3-0.4,3.3-0.5c0.8-0.2,1.5-0.4,2.2-0.5c1.3-0.3,2.3-0.6,2.8-0.8
				c1.2-0.2,2.3-0.4,3.7-0.6c0.6-0.1,1.3-0.3,2-0.4s1.4-0.3,2.1-0.5c1.3-0.4,2.7-0.7,4.2-1.1c1.4-0.4,2.7-0.9,4.2-1.4
				c2.8-1,5.6-2.1,8.3-3.4c1.4-0.6,2.7-1.3,4.1-2c0.6-0.3,1.2-0.7,1.8-1l0.9-0.5l0.5-0.3c0.1-0.1,0.1-0.1,0.1-0.2
				c0.3-1.2,0.7-2.4,1.1-3.5l0.2-0.4l0.1-0.2v-0.1v-0.1c0,0,0-0.1,0-0.2c-0.1-1.2-0.5-2.1-0.8-2.5c-0.6-0.9-0.9-0.8-1.3-0.9
				c-0.4-0.1-0.8-0.2-1.2-0.3c-0.4-0.1-0.8-0.3-1.2-0.4c-0.8-0.3-1.7-0.6-2.5-0.9l-3.4,0.9c-1.8-0.2-3.1-0.8-9.5,0.4
				c-5.2,0.8-10.5,1.7-15.9,2.5c-5.3,0.9-10.8,1.8-16.6,2.7c-2.7,0.4-5.4,0.9-8.2,1.4c-1.8,0.3-3.6,0.6-5.5,0.9l1,0.5
				c-9.8,1.9-23.8,3.6-38.9,5.6l0.5,6.3c4.9-0.5,10-1,15.1-1.6c-1.4,0.4-6.6,0.9-10.3,1.2c12.4-0.6,25.4-2.4,38-4.8
				c12.7-2.4,25-5.6,36.1-8.4c2.7-1,5.1-1.8,7.2-2.5c2.2-0.7,4.1-1.4,6-2c-0.5,0.2-1,0.4-1.3,0.6c0.6-0.2,1.4-0.5,2.2-0.9
				c0.8-0.3,1.5-0.5,2.4-0.8l-1.4-6.7c-1.6,0.4-3.3,0.9-5.2,1.3c1.9-0.5,3.7-0.9,5.2-1.3l1.3,6.5c-0.5,0.2-0.9,0.3-1.2,0.4
				c0.3-0.1,0.7-0.3,1.2-0.5l-1.3-6.5c-4,1.2-9.8,3.1-15.5,5l-2.8,0.1c-0.5,0.2-0.9,0.3-1.4,0.5c-6.2,1.6-4.9,1.8-1.5,1.4
				c-3.1,1.1-6,2.1-8.2,2.9c-5.2,0.4-16.3,5.4-23.3,6.2c-2.8,1.3-16.2,5.4-25.4,8.6l0.7,4.8c4.6-1.1,8.2-2.1,9.2-2.7
				c0.2,0.1,2.1-0.2-1.3,0.5c7.1-1.3,14.1-2.9,20.4-4.9l3.1,0.1c5-1.8,10.1-3.7,15.1-5.6c9.3-2.4,13.2-3.4,4.2,0.3
				c8.9-3.4,13.5-5.2,17.1-6.7c3.6-1.4,6.3-2.5,11.3-4.7l-0.7-3.9c-1.7,0.5-4.4,1.3-8,2.4l0.8-0.8c-6.8,1.7-17.5,5.7-21.6,6.6
				c-6.8,1.6-22,6.8-40.2,13.6l0.7,4.8c11.8-1.8,24.9-3.7,37.7-6.7c6.4-1.5,12.7-3.2,18.8-5.2c3-1,6-2.1,8.8-3.2
				c1.4-0.5,2.8-1.2,4.2-1.8c1.4-0.6,2.8-1.2,4.2-2c-2,0.7-1.9,0.4-0.8-0.2c0.6-0.4,1.4-0.9,2.5-1.7c1-0.9,2.3-2.2,3.1-4.3l1.1-2.9
				l-2.5-0.7c-3.1-0.9-6.7-1.1-9.6-0.8c-2.9,0.2-5,0.7-5.4,1.1c-2.3,0-7.8,0.7-1.5-0.8c-20,3.9-30.2,4.9-43.9,8.9
				c-2.3,0.1,4.2-1.5,2.1-1.3c-1.6,0.4-6.3,1.7-8.4,1.9c-2.1,0.2,2.9-1,6-1.8c-15.4,3.3-20.2,5.3-22.3,6.6l0.6,5.1
				c0.7-0.4,1-0.8,1.4-1.2c10.4-1.6,15.6-2.7,22.9-5.3c3.6-0.5,9.7-1.6-2.9,1.6c3.6-0.8,14.5-3.2,24.5-6.6c10-3.2,18.9-7.7,19.2-8.3
				c0.9-0.3,2.6-1.2,4.5-2.1c1.9-1,3.8-2.1,5.2-2.9l3.1-1.8l-3-1.8c-0.9-0.5-1.6-0.7-2.1-0.7c-1.3-0.2-2.4,0-3.3,0.2
				c-1,0.3-1.8,0.6-2.6,0.9c-1.5,0.7-2.9,1.2-4.2,1.8c-2.5,1.1-4.6,2-6.7,2.8c-4.2,1.8-8.3,3.6-15.8,6.8l4.2-1.6
				c-5.7,3.6-12.5,5.6-24.7,11l0.3-0.3c-12.8,5.1-16.4,6.7-19.1,7.9l0.8,3.4c3.4-1.5,5.5-2.4,20.7-8.3h-1.7
				c1.1-1.3,7.3-3.6,15.1-6.8c7.8-3.2,17.3-7.4,25-12c-1.9,0.9-3.8,1.8-5.8,2.7c3.5-2.1,8.3-4.3,13.3-6.8l1.5-0.8l-1-2
				c-0.7-1.5-1.9-2.5-3.1-2.9c-1.2-0.5-2.3-0.6-3.3-0.6c-2.2,0.1-3.9,0.4-5.7,0.6c-3.6,0.5-6.9,1.1-9.6,1.7c-2,0.4,3.1-1,5.9-1.8
				c-6,1.3-9.2,2.1-10.9,2.6s-1.8,0.7-1.8,0.9c0.1,0.4,0.9,0.6-7.9,3.4c-3.3,0.5,4-2.6-7.9,1.1c-2.1,0.5-6.8,2.3-12.7,4.7
				C38,91.9,30.9,95,24,98.1l-16.9,7.6l17.7-1.3c6.5-0.5,12.7-0.9,17.9-1.3c-3.7,0-7.3,0,1-1.2c6.4-0.8,15.1-1.9,23.6-3.6
				s16.7-4,22.3-6.4c1.6-0.4,2.2-0.5,2.3-0.4c5.3-1.9,14.1-5.4,21.8-9l15.8-7.5L113,77.8c-6.6,1.1-12.4,2.2-15,3
				c-4.6-0.5-19.7,2.4-33.6,5.6c-13.9,3.2-26.6,6.7-26.6,5.6c-6.2,1.5-12.3,3.2-18.4,4.8l0.4,5.4c3.8-0.1,7.7-0.2,11.5-0.6l-0.8,0.3
				c9.7-0.7,16.2-2,21.2-3c4.9-1.1,8.3-2.1,11.6-3.2c4.4-0.9,1.2,0.1,0.9,0.3c9.8-2.2,16.4-4.1,21.9-5.7c2.7-0.8,5.3-1.6,7.8-2.7
				s5-2.6,7.4-5.1l5-5.4l-6.3,1c-4.5,0.7-9.6,1.6-16.6,3.1l-2.5-0.3c-2.8,0.7-11,1.8-21.6,4C54,86,48.1,87.3,42,88.8
				c-6.1,1.6-12.6,3.6-18.6,7.3l-1.1,0.6l-0.2,1.6c-0.1,0.9,0.1,2.3,0.6,3c0.5,0.8,1,1.1,1.4,1.4c0.8,0.4,1.5,0.5,2.1,0.5
				c0.3,0,0.8-0.1,0.9-0.1l0.6-0.1l1.3-0.3c1.7-0.3,3.4-0.7,5-1.1c-0.3,0.1-0.8,0.4-3,0.9c12.6-2.8,27.1-6.7,40.4-11.7
				c6.7-2.5,13-5.3,18.7-8.1c2.9-1.4,5.5-2.8,8-4.2c1.3-0.8,2.6-1.6,3.8-2.8c1.2-1.1,2.3-2.5,3.1-4.2l2.9-5.9l-4.5,0.2
				c-4,0.5-7.2,1.1-9.3,1.8c-6.8,0.9-13.6,1.8-20.4,2.9c26.5-2.9-3.9,1.6,7,0.8c-10.4,1.3-26.9,2.7-14.2,0.8l2-0.1
				c2.3-1-5.9-0.1-14.6,1.1c-8.7,1.2-17.9,2.7-17.6,2.1c-6.3,1-12.7,2-19,3.1l0.5,4.8c8.7-1.6,17.4-3.3,26.1-4.9
				c4.8-0.9,9.6-1.7,14.4-2.6c4.8-0.8,9.5-1.7,14.2-2.5c-5.4,2-10.8,3.9-16.1,5.9c-2.5,0.9-4.9,1.8-7.3,2.7l9.2-2.3l-13,4.8
				c-4.2,1.3-6.8,1.7,1.3-1.3c-3.4,0.9-6,2.1-8.2,3.2s-4.2,2.2-4.1,2.3c-4.6,1.6-6.5,2.2-6.9,2.2s0.6-0.5,1.9-1.1
				c2.6-1.2,5.9-2.7,3.7-1.9l-6,2.3l1.6-0.5c-2.7,1.3-4,2.1-7.1,3.4l1,5c2.4-1,5.9-2.3,11.4-4.6c8.9-3.5,4.7-1.3,8.2-2.7
				c0,0,0.3-0.1,1.1-0.4s2.1-1,4.2-2C54.2,85,61,81.6,67.6,77.9c-2.7,1.2-5.5,2.4-8.3,3.5c8.8-5,18.7-10.3,9.3-6
				c2.2-1,5.7-2.8,9.9-5.2c2.1-1.2,4.4-2.6,6.8-4.1c1.2-0.8,2.5-1.5,3.7-2.4c0.6-0.4,1.4-0.9,2.2-1.6c0.4-0.4,0.8-0.9,1.1-1.6
				c0.4-0.7,0.6-1.7,0.6-2.7l-0.1-2.4L91,55.6c-12.3,1.6-26.3,4.8-37.9,8.4c-11.6,3.5-20.7,7.3-23.7,8.4c-0.9,0.4-1.7,0.8-2.6,1.2
				l0.8,4.6c12.2-3.2,24.5-5.8,39.5-9.8c-2,0.5-3.6,0.6-3,0.2c0.6-0.4,3.4-1.3,10.3-3.3c-3.3,2.4,10.8-1.7,23.1-6.4l-0.9-4.8
				c-5.3,1.1-10.2,2.1-13.6,2.6c5.1-0.8-4.8,1.7-13.8,4.5c-9.1,2.8-17.4,5.7-9.5,3.8c-11.5,3.5-0.8-0.5-9.6,1.9
				c-9.2,3.4-19,7-29.2,11.1l0.8,5.1c20.6-3.3,42.8-9.3,64.5-19.4c0.4-0.5-5.1,1.7,1.8-1.9l0.5-0.2c0.2-0.1,0.4-0.2,0.6-0.3
				c0.4-0.2,0.8-0.5,1.1-0.9c0.4-0.4,0.8-0.8,1.1-1.7c0.2-0.4,0.3-1.1,0.2-1.8c0-0.7-0.3-1.3-0.5-1.7l-0.5-0.9h-1
				c-4.9,0.1-9.7,0.1-14.6,0.4c-6.8,1-6.2,2.2-18.7,3.2c1.8-0.1,4.4-0.1-0.1,0.7C38.8,61.1,21.4,65,4.2,70.2l0.5,5
				C21.1,74,37.5,71.6,53.8,68c8.1-1.8,16.3-3.9,24.3-6.3c4-1.2,8.1-2.5,12.1-3.8c2-0.6,4.1-1.3,6.2-2.5c2.1-1.1,4.2-2.9,5.6-5.8
				l1.9-4l-3.6,0.3c-18.7,1.6-37.4,4-55.8,7c9.3-1.3,3.1-0.1-3.9,1.4c4.6-0.8,0,0.7,0.9,0.8c-7.7,1.3-15.4,2.8-23.1,4.5l0.6,5.3
				l5.4-0.6c2.6-0.9,10.3-2.1,17.6-3.5c7.4-1.4,14.5-3,15.9-3.8c-3,0.7-6,1.5-9,2.1c5.9-1.8,1.7-1.5-3.9-1.1
				c-5.5,0.4-12.4,0.9-11.6,0c-4.2,1.1-9.2,1.9-14.8,2.5l0.4,3.3c12.3-2.7,27.4-4.9,42.4-8.6c4.9-0.5-4.1,1.1-1.5,1
				c5.5-1.5,12.3-2.8,24.8-4.1l-1.4,0.3c6.5-0.8,12.3-1.4,17.2-1.9l-1.6-3.7c-1.3,2.6-3.8,4-6.4,5c-1.3,0.5-2.7,0.9-4,1.4
				c-1.3,0.4-2.7,0.9-4,1.3c-5.3,1.6-10.5,3.1-16,4.5c-10.9,2.7-22.9,5.3-39,7.5l3,0.3C24,68,22.2,67.9,18.2,68.2
				c-4.8,1,1.1,0.5,7.2-0.3s12.2-1.8,7.9-0.5c-4.9,0.2-16.5,1.7-28.8,2.5l0.5,5c8.1-2.4,16.6-4.7,23.6-6.2c7-1.6,12.5-2.5,14.8-2.4
				c13-2.5-3.9-0.1,9.1-2.5l3.5-0.1l3.2-1.1c8.6-1.2,12.9-1.1,13.3-0.8c-2.1,0.2-5.9,0.9-8.1,1.2c7-0.7,17.6-2.1,25.4-2.8l-1-2.8
				c0.4-0.4,0.4-0.1,0-0.3c-0.4-0.2-1-0.8-1.4-1.4l-0.1,0.1l-0.1,0.1c-0.1,0,0,0-0.2,0.1c-1,0.4-1.8,0.9-2.6,1.2
				c-1.6,0.7-2.8,1.2-3.4,1.5c1.5-0.6,3.1-1.3,4.6-2l1.1-0.5l0.5-0.2c0.1,0,0.1-0.1,0.2-0.1c0.1,0,0.1-0.1,0.1-0.1l0,0l0,0l0.1,0.2
				c0.2,0.2,0.3,0.4,0.5,0.6c0.4,0.3,0.7,0.5,0.8,0.5s0,0-0.2,0.2l1,2.6l-2.9,0.2c0.9-0.1,1.9-0.2,2.9-0.3l-1-2.5
				c0.2-0.2,0.3-0.2,0.3-0.2c-0.1,0-0.3,0-0.6-0.3c-0.3-0.2-0.6-0.6-0.9-0.9c0,0,0,0-0.1,0.1s-0.2,0.2-0.3,0.2l-1,0.5
				c-1.3,0.6-2.7,1.3-4,1.9c-2.7,1.2-5.5,2.4-8.3,3.5c-5.6,2.3-11.3,4.4-17.2,6.3c-11.7,3.8-23.7,6.7-35.6,8.7l1,6.2
				C35.3,77.8,48.3,73,60.3,68.9l-2.6,0.5C68.8,65.6,74.2,64.2,79,63c4.8-1.2,9.1-2.2,18-4.3l-0.9-4.8c-2.6,1-5.8,2.3-9.6,3.7l1-0.4
				c-5.5,2.3-13,4.9-20.8,7c3.6-1.2,0.2-0.4-3,0.2c-3.1,0.7-6,1.2-1.3-0.3c-14,4-17.5,4.8-19.8,5.5s-3.3,1.3-12.6,3.9l-3.1,0.3
				l0.7,3.6l1.2-0.3c3-1.5,4.6-2.4,7.3-3.5c2.6-1.1,6.2-2.7,13.2-5c-11.4,4.3,9.1-2.2-3.7,2.7c10.5-3.2,19.1-5.4,26.5-7.2
				c7.4-1.8,13.5-3.1,19-3.9l-1.9-2.3c0,0,0,0,0.1,0l0,0h-0.1h-0.1l0,0c0,0,0,0.1-0.1,0.2c-0.2,0.2-0.5,0.5-0.9,0.8
				s-0.9,0.6-1.4,0.9s-1,0.6-1.4,0.9c-1.9,1.1-3.8,2.1-5.7,3c-3.8,2.9-2.9,2.6,0.1,0.9c1.5-0.8,3.4-2,5.5-3.3c1-0.6,2.1-1.3,3.1-2
				c0.4-0.3,0.8-0.6,1-0.9s0.2-0.4,0.2-0.4l1.7,2c-5,0.7-8.6,1.4-5.8,0.8c-3.5,0.3,0.1-0.7,5.7-1.7l-1-1.1c0,0.4-0.1,0.8-0.5,1.3
				s-0.9,0.9-1.4,1.3c-1.2,0.8-2.4,1.6-3.6,2.4c-2.4,1.6-4.8,3.1-6.8,4.2c-4.4,2.7-8.4,4.4-14,7c-5.7,2.5-13,5.9-24.6,11
				c2.3-1,2.4-1.2,4.7-2.2c-7.4,3-14.3,6.5-22.9,9.5l1.2,5.6c2-0.7,4.2-1.5,6.5-2.2c3.7-1.9,8-3.5,11.8-4.9c3.8-1.4,6.8-2.6,6.5-3.1
				l-24.9,9.6l-0.9-4.3l1-0.4l-0.9,0.4l0.9,4.3c7.3-2.9,13.9-5.9,21.1-8.8c3.6-1.5,7.3-3,11.7-4.7s9.3-3.5,15.6-5.7
				c-0.3,0.2-1.9,1-3.9,1.9c-2.2,0.9-4.7,2-6.8,2.9c4.2-1.4,7.5-2.7,10.7-4S77,76.6,81.7,75c2.1-0.2-6.1,3-16.3,6.8
				c-5.1,1.9-10.6,4.1-16,6.1c-5.3,2-10.3,4-14.4,5.8c2.3-0.7,5.5-1.9,8.8-3.2c3.2-1.3,6.7-2.7,9.7-3.8c2.9-1.2,5.3-2.1,6.7-2.5
				c1.4-0.5,1.8-0.5,0.6,0.3c2.7-1.6,6.9-3.3,12.3-5.4c5.7-2.1,11.9-4.4,18.6-6.8c2.2-1.3,3.6-2.4,5.1-3.6l1.7-0.1
				c0.3-0.3,0.8-0.7,1.6-1.3c0.8-0.6,1.8-1.2,3-1.9c-1,0.7-1.6,1.3-1.7,1.9c0.8-1,2.9-2.3,4.4-3.4c-1.6-0.2-2.8-0.4-3.8-0.8
				c-1-0.3-1.9-0.8-3.7-0.8c2.1,0.4,3.1,0.8,3.6,0.9c0.5,0.2,0.4,0.3,0.1,0.3c-0.3,0.1-0.9,0.2-1.2,0.3c-0.2,0.1-0.2,0.2,1.2,0.2
				c-2.3,0.2-4.2,0.3-5.9,0.4c-1.6,0.1-2.9,0.2-3.7,0.1c-1.8,0-2-0.4-1.8-0.9c-2.7,0.2-5.6,0.5-12.3,1.5c-3.3,0.5-7.6,1.3-13.3,2.3
				c-5.6,1-12.7,2.4-21.1,4c4.4-0.9,12.5-2.3,17.4-3.1c5-0.8,6.6-0.9,0,0.5c-5.6,1-12.1,2.1-18.1,3.2c-1.3,0.2-2.6,0.4-3.8,0.6
				c-0.9,0.1-1.7,0.3-2.5,0.4c-1.6,0.2-3,0.4-4.1,0.5c-24.4,4.8,3.8,0-6.5,2.4c-3.7,0.3-6.4,0.9-9.2,1.6l0.7,6.5
				c3.7-0.8,7.4-1.9,13.5-3l0.1,0.7c14-2,15.8-2.6,17.3-3.2s2.6-1.2,15.2-2.6l-10.6,2.5l13.1-2.1l-2.6,1.2c7.1-1.3,11.8-2,16.4-2.5
				c4.6-0.5,9.3-1,16.3-1.5c-2.5-0.1-0.1-1,7-1.8l-1.6-3.7c-0.8,1.7-2.5,3.4-5,4.8C93,74.7,94,74,94,73.8c0-0.1-0.2,0-1.5,0.7
				s-3.6,1.9-7.7,3.9c1.8-1.1,3.7-2.3,6-3.6c1.2-0.7,2.4-1.4,3.9-2.1c1.4-0.7,3-1.5,4.4-2.4c0.2-0.3,0.7-0.8,1.1-1.4
				c0.4-0.6,0.7-1.2,0.8-1.6l2.5,5.9c-0.4,0.1-0.6,0.1-0.7,0.2c0.2,0,0.4,0,0.7,0l-2.6-6.1c-0.8,1.5-2.5,2.9-4.8,4.1
				s-4.9,2.6-7.3,3.8c-4.8,2.5-9.4,4.7-12.3,5.9c2.3-1,5.1-2.2,6.5-2.8c-7.9,4.1-15.9,7.7-24.1,10.8C55,90.2,58,88.9,61,87.7
				c-5,1.8-8.4,3.2-15.8,5.3c1.8-1.1,1.3-1.4,11.6-5c-7.8,2.7-15.6,5.1-23.6,7c-0.8,0.1-3.9,0.5-6.4,0.8c-0.2,0-0.3,0-0.5,0.1
				c0,0,0,0-0.1,0h-0.1l0,0l0,0v0.3c-0.1,0.7-0.3,1.5-0.5,2s-0.4,0.7-0.5,0.8c-0.2,0.1,0.2,0,0.2,0h-0.1c0,0-0.1,0.1,0-0.1
				c-0.2,0.2-0.2,0,0.2,0.1l0.5,4.2c2.9-1.6,6.2-3.2,9.9-4.6c3.7-1.4,7.8-2.6,12-3.8c8.5-2.4,17.5-4.7,26.3-6.1
				c0.9-0.3,2.7-0.7,6.5-1.5c6.8-1.1,13.3-1.9,20-2.6l-2.2-7.3c-3.1,3.2-7.7,4.5-12.7,6.1c-5,1.5-10.3,3.2-16.1,4.9
				c-3.7,0.6-7.5,1.1-11.2,1.6c-7.6,1.7-3.8,1.2-1.3,1.1c1.3-0.1,2.2-0.1,1.2,0.3c-1,0.3-3.8,1.2-10.2,2.4c-9.1,1.6-10.8,1.4-11,1.2
				c-0.2-0.3,1-0.8-2.2-0.6C31,94.9,26,95.7,20,96l0.6,7.1c7.7-2.4,16.8-4.9,26.4-6.6C41.8,97.4,37.4,98.4,32.3,99.7z M45.3,96.2
				c-3.6,1.4-10.6,4.7-13.3,5.4C35.9,99.1,39.2,98.2,45.3,96.2z M44.5,105.7c-2.7,0.8-7,1.7-11.8,2.5l-0.3-2.7l0,0l0,0l0.3,2.7
				C36.2,107.4,40.1,106.5,44.5,105.7z M35.1,110c-0.2,0.1-0.3,0.1-0.4,0.1C26.5,112.1,29.4,111.4,35.1,110z M52.1,105.7
				c1.7-0.6,1.6-0.6,0.8-0.5c-1.2,0.5-5,1.5-9.3,2.6C44.8,107.7,47.1,107.2,52.1,105.7z M43.9,89.3l-3.3,1.2
				C47.9,87.2,45.9,88.2,43.9,89.3z"/>
			<path class="st4" d="M53.3,99.9c1.1-0.1,1.4-0.1,1.6,0C56.3,99.5,56.4,99.3,53.3,99.9z"/>
			<path class="st4" d="M75,88.2l-0.6,0.1c-0.3,0.1-0.5,0.2-0.6,0.2L75,88.2z"/>
			<path class="st4" d="M76.2,106.6c-1,0-1.2-0.1-1.1-0.2C73.9,106.7,73.9,106.9,76.2,106.6z"/>
			<path class="st4" d="M101,114.1l2.7-1.1l2.1-0.9c0.8-0.3,1.5-0.7,2.2-1.1l4.4-2.1c1.5-0.7,2.6-1.5,3.7-2.3
				c-1.6,1.1-3.2,2-4.8,2.7s-2.9,1.3-4,1.9c-1.2,0.5-2.3,1-3.3,1.4c-0.6,0.2-1.2,0.5-1.9,0.7C102.3,113.3,104.4,112.7,101,114.1z"/>
			<path class="st4" d="M79.2,114c1.6-0.5,3.4-1,4.9-1.5l-0.5-0.2C76.8,114.2,72.1,115.9,79.2,114z"/>
			<path class="st4" d="M90.6,115.4c-1-0.3-7.7,2.2-15.3,4.3c0.5-0.1,0.9-0.2,1.4-0.4C74.4,120.8,82.6,118.5,90.6,115.4z"/>
			<path class="st4" d="M73.5,120.3c-2.4,0.6-4.8,1.3-7.1,1.8C65.5,122.6,69.3,121.5,73.5,120.3z"/>
			<path class="st4" d="M73.7,99.8c3.7-0.7,2.2-1.3,4.3-1.5c2-0.9-4.1,0.8-8.1,2.1C65.8,101.7,63.8,102.5,73.7,99.8z"/>
			<path class="st4" d="M84.1,115.5l2.8-0.1c1.4-0.6,2.8-1.3,4.1-2C88.7,114.1,86.4,114.8,84.1,115.5z"/>
			<path class="st4" d="M98.8,97.4l6.5-1.1c2.1-0.3,4.3-0.7,6.3-0.9c0-0.1,1.6-0.4,3.6-0.4c-1.9-0.1-3.7,0.1-5.7,0.4
				s-3.8,0.5-5.5,0.8c-1.6,0.3-3,0.6-3.9,0.7C99.2,97.2,98.7,97.4,98.8,97.4z"/>
			<path class="st4" d="M115.2,95c1.3,0.1,2.5,0.3,3.7,0.8c0.6,0.2,1.1,0.5,1.6,0.9c0.2,0.2,0.6,0.4,0.7,0.6
				c-0.1,0.2-0.3,0.5-0.4,0.7c-0.8,1.1-1.5,1.9-2.1,2.5c0.5-0.5,1.3-1.3,2.2-2.5c0.1-0.2,0.3-0.5,0.4-0.7c-0.2-0.2-0.5-0.4-0.8-0.6
				c-0.5-0.4-1.1-0.7-1.7-0.9C117.5,95.2,116.3,95,115.2,95z"/>
			<path class="st4" d="M100.4,109.5l3.5-1.3c2.7-1.2,5.5-2.3,8.3-3.8c-2,1-4,1.9-5.9,2.7C104.4,108,102.5,108.7,100.4,109.5z"/>
			<path class="st4" d="M92.4,97.6c4.3-1.7,8.7-3.4,13-5.1c1.3-0.8-2.3,0.5-7.1,2.4C95.2,96.3,90.4,98.1,92.4,97.6z"/>
			<path class="st4" d="M52.2,108.2c3.6-0.8,3.9-0.7,5.9-1l0.3-1L52.2,108.2z"/>
			<path class="st4" d="M90.6,96c1.3-0.7,18.7-7.7,2.3-1.5C91.6,95.2,78.5,100,90.6,96z"/>
			<path class="st4" d="M75.4,104.2l3.2-0.5l5.9-2.4C81.2,102.2,78.2,103.2,75.4,104.2z"/>
			<path class="st4" d="M89.4,103.3c15.4-4.3,4-2.1,17.1-5.7l-1.4-6.8c-0.2,0.1-0.4,0.2-0.7,0.2c-1,0.5-0.5,0.4,0.7,0l1.3,6.4
				c-2.9,0.7-9.8,2.8-7.2,1.7C89.9,102.3,84.9,103.6,89.4,103.3z"/>
			<path class="st4" d="M99.2,99.1c1.5-0.5,3.1-1.1,4.8-1.7C101.3,98.3,100,98.8,99.2,99.1z"/>
			<path class="st4" d="M44,61.8c3.4-0.6,6.9-1.2,10.3-1.8l-6.7,0.9L44,61.8z"/>
			<path class="st4" d="M63.5,56.4l2.5,0.4l6-2.4C69.7,55,65.3,56.2,63.5,56.4z"/>
			<path class="st4" d="M73.4,89l0.7-0.4c-1.6,0.2-3.9,0.8-8.6,2.2C68.1,90.2,70.7,89.6,73.4,89z"/>
			<polygon class="st4" points="112.9,84.5 114.1,84.3 112.7,75.6 111.6,76 112.7,75.8 114.1,84.1 110.7,83.9 			"/>
			<path class="st4" d="M44,91.5c-4.7,0.7-10.2,1.5-14.9,1.8C39.3,92.4,45.4,92.4,44,91.5z"/>
		</g>
		<g>
			<path class="st5" d="M90.9,97.8L90.9,97.8l-4.1,3v-6.1c0-1.2,0.1-2.2,0.4-3.1c0.2-0.9,0.6-1.5,0.8-1.9c0.2-0.3,0.2-0.4,0.2-0.5
				s0-0.2,0.5-0.6c-0.7,0.5-1.1,1.1-1.3,1.6c-0.3,0.5-0.4,0.9-0.5,1.2c-0.2,0.7-0.3,1.2-0.3,1.6c-0.1,0.8-0.1,1.3,0,1.7l0.5,7.7
				l4.1-4.1C92.2,97.2,90.8,97.7,90.9,97.8z"/>
			<path class="st5" d="M55.5,93.3l0.7-0.5L55,93.3l1.4,4.2c0.5-0.5,0.9-1,1.2-1.5l0.1-0.2l0.1-0.1l0.1-0.2c0.1-0.2,0.2-0.3,0.2-0.5
				c0.2-0.2,0.4-0.2,0.6-0.3l0.3-0.1l0.5-0.2L59,94.6l-0.4,0.1c-0.2,0.1-0.5,0.1-0.7,0.3c-0.1,0.2-0.2,0.3-0.2,0.5l-0.1,0.2
				l-0.1,0.1L57.4,96c-0.4,0.5-0.8,1-1.2,1.4l-1.3-3.9L55.5,93.3z"/>
			<path class="st5" d="M68.4,81.1c1.4,0.3,3.8,0.1,6.6-0.1l1.7-0.2L76.5,83c-0.1,0.8-0.2,1.6-0.5,2.5s-0.7,1.9-1.4,2.6
				c-0.4,0.4-0.8,0.6-1.2,0.8c-0.4,0.2-0.8,0.3-1.1,0.3c-0.5,0.1-0.5,0.2-0.7,0.4l-1-3.4c0.5,0,1-0.1,1.5-0.4
				c0.2-0.1,0.5-0.3,0.7-0.5l0.2-0.2c0.1-0.1,0.3-0.3,0.7-0.4c0.4-0.2,1.2,0,1.6,0.4c0.4,0.4,0.5,0.7,0.6,1l0.8,1.9l-1.6,0.9
				c-1.1,0.7-2.2,1.2-3.2,1.6l-1.2,0.2c-1,0.7-1.9,1.3-2.9,1.9c2.3-0.8,4.9-1.9,7.4-3.4L77,88l-1-2.2c-0.1-0.3-0.3-0.7-0.7-1.1
				c-0.2-0.2-0.6-0.4-0.9-0.5c-0.3-0.1-0.7,0-0.9,0.1c-0.4,0.2-0.6,0.4-0.7,0.5L72.6,85c-0.2,0.2-0.4,0.3-0.6,0.5
				c-0.4,0.2-0.9,0.3-1.3,0.3l1.1,4c0.2-0.2,0.1-0.2,0.6-0.3c0.2,0,0.7-0.1,1.1-0.3c0.4-0.2,0.9-0.5,1.3-0.9
				c0.8-0.8,1.2-1.8,1.5-2.7c0.3-0.9,0.4-1.8,0.5-2.6l0.3-2.6l-2,0.2C72.4,80.8,70.2,81,68.4,81.1z"/>
			<path class="st5" d="M53.1,92.8C52,92.6,56,92,51.4,92.9L45.6,94l2.5-7.3c0.2-0.5,0.5-1.5,1-2.4c0.5-1,1.2-2,2.2-2.8
				c-0.7,0.5-0.9,0.7-1.3,1.1c-0.3,0.4-0.6,0.8-1,1.5c-0.2,0.3-0.4,0.7-0.6,1.2c-0.1,0.2-0.2,0.5-0.3,0.7s-0.2,0.4-0.3,0.7L45,94.1
				l6.3-0.9C51.5,93.1,52.2,93,53.1,92.8z"/>
			<path class="st5" d="M50.1,82.7c1.3-1.6,2-1.4,2-1.5c0,0-0.7,0-1.3,0.7c-0.6,0.5-1.2,1.3-1.4,1.7C49.1,83.8,49.2,83.7,50.1,82.7z
				"/>
			<path class="st5" d="M67.8,89.6c-1.8,0.6-3.5,1.1-5.3,1.6c1.1,0,5.9-1,4.2-0.5C72.1,89.2,71,89.2,67.8,89.6z"/>
			<path class="st5" d="M72.7,87.5L70,88.4C70.5,88.4,71.3,88.2,72.7,87.5z"/>
			<path class="st5" d="M64.2,90.1c1.9-0.5,3.9-1.1,5.8-1.7c-0.8,0-0.9-0.3-2.7,0.8C67.8,88.7,66.7,89.3,64.2,90.1z"/>
			<path class="st5" d="M60.9,90.7c-3,0.4-6.9,1-1.6-0.4c-5.1,1.1-7.2,1.6-6.8,1.7C52.9,92.1,55.8,91.8,60.9,90.7z"/>
			<path class="st5" d="M66.5,82.4l4-0.1l3.4-0.7C72.2,81.9,66.2,82.1,66.5,82.4z"/>
			<path class="st5" d="M92.8,70c-0.3,0.3,1.8,0.3,2.3,0.5l0.5-0.1l5.7-1.3l-2.8,7.2l-1.3,3.3c-0.1,0.4-0.4,0.4-0.6,0.5l-0.7,0.3
				L94.5,81c0.8-0.3,1.8-0.5,2.7-1c0.5-1.1,1-2.3,1.5-3.4l3.2-7.1l-6.5,0.6C94.1,70,92.9,70.1,92.8,70z"/>
			<path class="st5" d="M95,70.5l-5.8,1.4C94.4,71,95.4,70.7,95,70.5z"/>
			<path class="st5" d="M73.5,86.1c-3.1,1.1-6.3,2.2-9.5,3.2c3.8-1.1,7.6-2.4,11.3-3.7L73.5,86.1z"/>
			<polygon class="st5" points="70.4,74.1 73.6,72.9 67.8,74.9 			"/>
			<path class="st5" d="M55.6,77.5c2.4-1-3.4,0.1-0.9-0.8c-4,1-7.4,2.3-10.4,3.4C47.5,79.1,51,78.2,55.6,77.5z"/>
			<path class="st5" d="M38.6,82.1c1.7-0.5,2.2-0.7,3.1-1c0.8-0.3,1.7-0.6,2.6-1c-0.9,0.3-1.7,0.6-2.6,0.9l-1.3,0.5l-0.3,0.1
				l-0.2,0.1l-0.3,0.1L38.6,82.1z"/>
			<path class="st5" d="M79.2,73.6c-0.5,0-1.4-0.2-4.7,0.3l2.4,0.2C77.6,73.9,78.4,73.7,79.2,73.6z"/>
			<path class="st5" d="M77,74L77,74c-2.6,0.5-4.3,0.8-5.1,1C72.6,74.8,74.1,74.5,77,74z"/>
			<path class="st5" d="M79.8,73.4c-0.2,0-0.4,0.1-0.6,0.1C79.4,73.6,79.6,73.6,79.8,73.4z"/>
			<path class="st5" d="M88.7,81.8c0.8-0.4,1.9-0.9,2.9-1.4c0.5-0.2,1-0.5,1.4-0.7c0.5-0.3,0.9-0.5,1.3-0.7c0.9-0.5,1.3-0.7,0.9-0.7
				c-0.2,0-0.6,0.1-1.2,0.3c-0.5,0.1-1.1,0.3-2,0.6C89.7,80.6,93.7,79.4,88.7,81.8z"/>
			<path class="st5" d="M82.7,73.7l6.2-1c-0.1-0.1-1.3-0.2,0.4-0.7L82.7,73.7z"/>
			<polygon class="st5" points="79.7,74.5 82.7,73.7 80.4,74.1 			"/>
			<path class="st5" d="M49.9,79.8c-2.6,0.9-5.5,1.7-8.8,2.6c3.5-0.8,7.2-1.7,10.7-2.5C52.2,79.5,53.7,78.8,49.9,79.8z"/>
			<path class="st5" d="M63,76.8c-0.2,0.1-0.4,0.1-0.6,0.2C62.8,77,63.1,76.9,63,76.8z"/>
			<path class="st5" d="M67.2,85.7c-0.2,0-0.3,0-0.5,0l-0.1,0.1L67.2,85.7z"/>
			<path class="st5" d="M52.3,79.8c2.7-0.5,4.2-1.1,5.7-1.6c-2,0.5-4.1,1-6.3,1.6C51.5,80,51.5,80.1,52.3,79.8z"/>
			<path class="st5" d="M45.5,90.8c-1.4,0.1-3,0.3-4.7,0.5C42.3,91.3,45.1,91.1,45.5,90.8z"/>
			<path class="st5" d="M61.5,77c0.1,0,0.3-0.1,0.4-0.1C61,77,61.2,77,61.5,77z"/>
			<path class="st5" d="M61.5,77c-1.4,0.4-2.4,0.8-3.5,1.2c1.6-0.4,3.1-0.8,4.4-1.2C62.1,77,61.8,77.1,61.5,77z"/>
			<path class="st5" d="M76.5,79.3c-0.4,0.7-7.3,3-13.4,3.6c-5.9,1.7-1.8,2.8,3.6,2.7c0.1-0.3,0.1-0.5,6.2-2.3
				c-2.2,0.2-13.6,2.3-8.6,0.7c8-2.1,6.6-1.3,10.6-1.9c-1.7,0,0.8-0.8,3.5-1.8s5.6-2.2,4.6-2.4l-7,2.2C76,79.9,78.5,79,76.5,79.3z"
				/>
			<path class="st5" d="M55,88.1l-2.5,0.6c2.9-0.5,5-0.7,8.8-1c4.2-1.2,5-1.6,5.3-1.9c-4.1,0.9-8.3,1.8-12.4,2.6L55,88.1z"/>
			<path class="st5" d="M41.2,90.9c1.9-1,7.9-2.5,4.1-2.4c-5.1,1-5.6,1.4-6.9,1.9l-5.5,2.1l4-6.1c0.2-0.3,0.4-0.6,0.9-1.3
				c0.2-0.3,0.5-0.6,0.8-1c0.1-0.2,0.4-0.2,0.6-0.3c0.2-0.1,0.4-0.1,0.7-0.2c-0.4,0.1-0.8,0.2-1.1,0.3c-0.3,0.3-0.5,0.6-0.8,0.9
				c-0.4,0.5-0.8,0.9-1.1,1.3l-4.7,5.7l6.4-1.3c4.3-0.8,0.9,0,0,0.4L31.7,94l5-8.2c0.2-0.3,0.2-0.4-0.1-0.1l-5.3,5l7.4,0.3
				c0.3,0,1.1-0.1,2.6-0.3c-0.9,0.2-1.8,0.4-2.6,0.6l-8.6,2l6.4-7.8c0.4-0.4,0.7-0.9,1.1-1.3c0.2-0.3,0.4-0.5,0.6-0.7l0.3-0.4
				c0.1-0.1,0.2-0.1,0.4-0.2c0.8-0.2,1.6-0.5,2.4-0.7c-0.9,0.2-1.8,0.4-2.7,0.6c-0.4,0.4-0.8,0.9-1.2,1.3c-0.3,0.4-0.6,0.7-1,1.1
				l-6.6,7.5l9-1.2c0.8-0.1,1.6-0.2,2.3-0.3c-0.1,0-0.2,0-0.3,0h-0.1l0,0c-0.5,0-0.7,0-0.1-0.1c0,0,0.2,0,0.2-0.1
				C40.8,91.2,41,91.1,41.2,90.9c3.5-0.5,0.6,0.1-0.5,0.3l-0.1,0.1l0,0l11.9-2.7C50,89.1,46.8,89.8,41.2,90.9z"/>
			<path class="st5" d="M94.8,74.2c-0.4,0-0.4,0-0.4-0.1C93.6,74.4,93.4,74.5,94.8,74.2z"/>
			<path class="st5" d="M89.8,74.7c0.9-0.2,1.6-0.6,4.4-1c2.5-0.2,0,0.3,0.2,0.5c0.4-0.1,0.9-0.2,1.5-0.4l0.7-0.2l-0.3,0.9
				c-0.7,2-1.4,4.2,0.4,0.3l0.8-1.7l-1.6,0.1c-0.2,0-0.5,0-0.9,0.1l-0.8,0.2c-4.8,0.6-11.1,0.9-10.3,0.7
				C85.3,74.5,86.6,74.7,89.8,74.7z"/>
			<path class="st5" d="M61.8,79c-3.3,0.8-6.6,1.7-9.9,2.6l5.1-0.7l-0.3-0.3C62.4,79.5,61.2,79.4,61.8,79z"/>
			<polygon class="st5" points="68.4,85.7 67.2,86.7 72.8,84.4 			"/>
			<polygon class="st5" points="81.3,82.5 80.9,83.2 84.3,81.9 			"/>
			<path class="st5" d="M50.5,69.7L47.7,71C49,70.4,49.8,70,50.5,69.7z"/>
			<path class="st5" d="M71,63.3l0.5-0.4C70.5,63.3,70.2,63.5,71,63.3z"/>
			<path class="st5" d="M33.4,74.4c-4.3,0.2-9.2,0.2-8.6,0.8l1.4,0.4C29.2,74.9,31.5,74.6,33.4,74.4z"/>
			<path class="st5" d="M57.3,76.2c-0.4,0.1-0.8,0.1-1.3,0.2c-1,0.5-1.9,1-2.8,1.4C54.5,77.3,55.9,76.8,57.3,76.2z"/>
			<path class="st5" d="M59.7,72.7c1.8-0.5,3.6-1,5.4-1.6C64,71.5,62.2,72,59.7,72.7z"/>
			<path class="st5" d="M60.4,61.3c1.1-0.4,2.2-0.9,3.3-1.3C58.5,61,60.8,60.8,60.4,61.3z"/>
			<path class="st5" d="M44.5,83.7c3.7-0.6,6.6-1.2,9.2-1.8C49.3,82.7,45.6,82.9,44.5,83.7z"/>
			<path class="st5" d="M57.3,60.2c-1.8,0.7-2.5,1.1-2.4,1.2C56.6,60.7,57.7,60.2,57.3,60.2z"/>
			<path class="st5" d="M64.3,79.2c-0.7,0.1-1.3,0.3-2,0.4c-2.7,0.8-5.3,1.6-8.6,2.4C57.1,81.4,60.8,80.6,64.3,79.2z"/>
			<path class="st5" d="M70.8,51.3c-0.3,0-0.7,0-1,0C69.8,51.5,70.2,51.4,70.8,51.3z"/>
			<path class="st5" d="M35.3,50.2c1.2-0.3,3.2-0.8,5-1.2C39.4,49.2,37.9,49.5,35.3,50.2z"/>
			<path class="st5" d="M91.1,65.5C93.9,64.9,91.6,65.3,91.1,65.5L91.1,65.5z"/>
			<path class="st5" d="M104.8,65.8c-0.6,0.1-1,0.3-1.1,0.5C103.9,66,104.3,65.9,104.8,65.8z"/>
			<path class="st5" d="M86.8,67.2c-0.1,0-0.1-0.1-0.2-0.1C87.3,67.5,87.2,67.4,86.8,67.2z"/>
			<path class="st5" d="M95.3,65c-1,0.1-2.2,0.2-3.5,0.4C92.3,65.4,93.4,65.3,95.3,65z"/>
			<path class="st5" d="M94.7,64.8c1-0.1,1.7-0.3,2.4-0.4C97.5,64.3,97.1,64.3,94.7,64.8z"/>
			<path class="st5" d="M87.3,66.2c1.6-0.3,3-0.5,4.5-0.8c-0.5,0.1-0.8,0.1-0.6,0C90.3,65.7,89.2,65.9,87.3,66.2z"/>
			<path class="st5" d="M101.9,42.2h0.2l0.6,3.8l-0.4,0.1c-2.5,1.2-1.5,0.8,0.4-0.1l-0.6-3.9C102,42.2,102,42.2,101.9,42.2z"/>
			<path class="st5" d="M49,72c-0.1,0.1-0.2,0.1-0.3,0.1C48.9,72.1,49,72.1,49,72L49,72z"/>
			<path class="st5" d="M55,76.5c0.8-0.4,1.6-0.8,2.3-1.1l-1.2-6c-2.6,1.4-4.6,2-7,2.6c1.2,0.3,2.3,0.5,3.5,0.7
				c1.2-0.9,2.4-1.9,3.6-2.9l1,5L55,76.5z"/>
			<path class="st5" d="M82.2,57.2c-2.2,0.6-4.5,1.2-6.7,1.8c7.9-3.6,13.5-5.8,7.3-4.1c-0.2,1.2-6.6,3.7-13.1,5.5
				c-6.5,1.9-13.1,3.1-13.5,4.1c-1.5,0.1-3,0.2-4.5,0.3c1.3-0.2,1.5-0.3,2.8-0.5c-3.7,0.2-5.4,0.5-7,1s-3,1.1-6.1,1.5l0.8,5.7
				c1.2-0.6,2.6-1.3,4.5-2c3.8-1.4,6.6-2.1,4-0.9c2.8-1.2,5.6-2.4,8.5-3.5c2.5-0.8,2-0.2-0.5,0.5c4.4-1.5,8.8-2.8,13.2-3.9l-0.1,0.1
				c0.3-0.1,0.6-0.3,1-0.4c0.3-0.1,0.7-0.3,1.1-0.4c0.3-0.1,0.6-0.2,0.8-0.2h0.1l0,0v-0.1l0.1-0.2c0.1-0.2,0.1-0.2,0-0.1l0.7-3.6
				c-1.1,0.8-2.1,1.5-2.8,1.9c-3.3,1.5,1.5-1.1,0.6-0.9c-2.3,1.4-4.5,2.8-6.8,4.1c-3,0.9,2.7-2.3,7.5-4.9c-3.5,0.8-4.9,1.7-7.2,3.1
				s-5.6,3.4-13,5.9c2.2-1,4.5-2.1,6.7-3.2c-4.6,0.9-9.7,3.5-17.6,5.9c1.9-0.3,15.8-4.6,8.1-0.9c-2.2,0.8-5.2,1.9-9.3,3.9
				c-0.1-0.3-0.8-0.1-1.9,0.2l1.6,6.8c1.7-0.6,4.4-1.9,7.5-3.3l-0.1,1.1c5.5-2.7,4.9-3,8.1-4.8c6.2-2.7,7.7-2.5,9.3-2.6
				c9.9-4.2-7.1,1.9,4.6-3.5c0.8-0.3,1.6-0.7,2-0.8c0.2-0.1,0.4-0.1,0.4-0.1l0,0c0,0,0,0,0-0.1s0-0.3,0.1-0.4c0-0.2,0.1-0.2,0.1-0.2
				v-5.8c-5.8,3.1-11,5.6-19.1,8.4c-5.9,1.3,0.9-0.9-1.2-0.5c-1.7,0.7-3.4,1.4-5.1,2.1c-1.3,0.3-0.9,0-0.7-0.2
				c-4.4,1.3-0.2,1.1-7.2,2.8c-0.7,0.5-2.8,0.9-5.8,1.3l0.5,4.1c5-0.6,12-1.3,17.4-3.1c2.2-0.2-1,0.8-0.3,1
				c5.9-1.6,8.5-2.3,10.8-2.9c1.1-0.3,2.2-0.7,3.6-1c1.4-0.3,3-0.8,5.3-0.8c0.3,0.1,0.6,0.2,0.8,0.3L71.6,68c-0.7,1.5-3.6,2.1-5.9,3
				c6-1.9-1.2,2.5-7.9,5.1c2.2-0.3,4.1-0.6,5.4-0.9c-3.6,1.5-7.2,2.7-10.8,3.7c-1.4,0.2-0.3-0.4,1.5-1.3c-0.7,0.3-1.4,0.5-2,0.7
				c-4,0.5-2-0.4,0.7-1.6c1.4-0.2,2.7-0.3,4-0.5c2.6-1.3,4.9-2.8,4.3-3.1c-0.7,0.3-2,0.9-3.5,1.4c0.7-0.4,1.1-0.6,0.7-0.6
				c-0.4,0-1.5,0.6-3.2,1.3l-2.6-0.4l-0.5,0.6c-4.8,0.9-9.5,1.6-14.4,2.1c-2.1,0.6-4.1,1.1-6.1,1.7l0.7,4.9c3.8-2,7.7-4,12.2-6
				s9.7-4.2,16.1-6c-3.9,1.8-0.7,1.5-0.8,2.4c-4.5,0.1-12.3,4-20.6,7c4.3-1.5,3.5-0.7,2.4-0.2c4.8-2.1,9.7-4.1,14.5-5.8
				c-0.2,0.8,3.2-0.4,7.1-1c-0.8-0.2-0.5-0.5,0.6-0.9l-0.8-4.7c-1.4,0.8-4.3,2-7.5,3.2c-3.1,1.2-6.5,2.3-8.7,3.2
				c-0.5-0.4,0.9-1.2,8.2-3.7c-4.1,0.9-6.6,2.1-9.2,3.4c-2.5,1.2-5,2.5-9.1,3.1c1.8-0.5,2.8-0.7,3.5-1.1c-2.1,0.8-5.7,1.8-8.5,2.4
				s-4.8,0.8-3.6,0.3l1.8-0.4c-2.5,0.5-5.6,1.2-8.9,1.8l0.7,4.8c12.3-3.8,27.9-8.9,29.2-10.3c0.1,0.1-1.3,2-2,2.4l8.9-4.6l-0.4-2.1
				c-3.8,2.4-7.7,4.5-11.7,6.4c0.9-0.8-0.6-1.3-1.1-2.1c-0.5-0.8,0.1-1.7,5-3.5c-2.8,0.7-6.3,1.6-12.3,3.3c2-0.3,5.1,0.4,2.4,1.2
				c-3.8,0.2-5,0.3-6.6,0.5c-1.5,0.1-3.2,0.4-7.8,0.6c3-0.2-0.1,2-4.9,2.6c0.7-0.4-0.5-1.6,1.2-2c-3.8,1.1-7.7,2.2-11.6,3.2
				c2.9-0.7,0.4-1.5-2.2-1.6c0.3,0-0.2,0.1-1.2,0.3l0.5,5.9c2.8-0.5,9.7-1.6,12-2.1l-5,0.5c13.2-2.1,12.8-4.6,25.9-6.9
				c-1.5,0.6-3.7,2.8,3,1.8c1.5-0.7,4.8-2.3,9.1-4.1c2-0.8,4.2-1.7,6.5-2.6c1.8-0.7,3.2-1.3,4.7-1.7h2.6c1.7-0.5,3-0.9,4.1-1.3
				c0.5,0.2,0.6,0.6,0,1.2s-1.9,1.3-4.2,2.2c-2.2,0.9-5.3,1.9-8.8,3c-2.8,0.9-5.3,1.7-7.5,2.4c2.5-0.2,2.8-0.2,3.5-0.2
				c0.3,0,0.7-0.1,1.5-0.2c0.4-0.1,0.9-0.1,1.5-0.3c0.9-0.2,2-0.4,3.4-0.6c2.2-0.2,0.7,0.3-2,0.9c-0.9,0.2-2,0.5-3,0.7
				c-0.9,0.2-1.7,0.3-2.2,0.5l4.3-0.7l7.5-1.3L79,74.7c-0.5,0-0.5-0.1-0.2-0.3c0.1-0.1,0.4-0.2,0.6-0.3c0.1,0,0.3-0.1,0.5-0.1H80
				c0,0,0,0-0.1,0l-0.1-0.1l-0.1-0.1l0,0c0,0-0.1,0,0.1,0c0.4,0,0.7,0.1,1.1,0.1H81l-1.2-0.2c-0.3-0.1-0.3-0.1-0.3-0.1l0,0l0,0h-0.1
				l-0.1-0.1l-0.1-0.1c0.1,0,0.2,0,0.2,0l-0.1-0.1c-0.1-0.2-0.1-0.4-0.1-0.6s0.1-0.3,0.1-0.5c0.1-0.1,0.2-0.3,0.3-0.4
				c0.8-1.1,2.5-1.7,2.2-1.6c-0.8,0.3-1.6,0.7-2.3,1.1s-1.2,0.9-1.5,1.6c0,0.1,0,0.2-0.1,0.3v0.1c0.1,0-0.2,0-0.2,0l0.2,0.2l1.2,0.3
				l0,0H79h-0.2h-0.3h-0.6c0,0.1,0.1,0.1,0.1,0.2c0.1,0,0,0.1-0.1,0.1h-0.2l-0.4,0.1l-3.4,0.7l-7,1.5c-0.6-0.1,0-0.5,1.2-1.1
				c1.3-0.5,3.2-1.2,5.3-1.9c1.7-1.9,5.6-2.8,11.9-4h0.1l0,0c1.3,0.9,0.8,0.6,0,0l0,0c-0.9,0.2-1.9,0.4-2,0.4c0.3-0.1,1.1-0.2,2-0.4
				l0,0c0.2,0.1,0.4,0.3,0.6,0.4c0.2,0.2,0.5,0.3,0.6,0.6c0.1,0.3,0,0.7-0.1,1c-0.1,0.2-0.1,0.3-0.2,0.5c-0.1,0.1-0.2,0.1-0.4,0.2
				c-1,0.4-2.1,0.9-3.2,1.3c-2,0.8-3.8,1.4-4.2,1.6c1.7-0.6,3.3-1.2,5-1.9c-6.6,2.6-10.8,4-18.8,6.1c-2.8,0.7-8.4,1.9-8.8,1.9
				c2-0.4,3.3-0.7,4.1-0.8h0.1l0,0L59.9,80c-0.3-0.5-0.5-1-0.9-1.4c-0.6-0.9-1.3-1.5-1.9-1.9c-0.3,0.1-2.5,1.2-5.9,2.4
				c-0.4,0.1-0.9,0.3-1.3,0.5c-0.1,0-0.2,0.1-0.3,0.1l-0.3-0.2c-0.2-0.1-0.4-0.2-0.5-0.4c-0.3-0.3-0.7-0.6-1-0.9
				c-0.2-0.2-0.3-0.3-0.5-0.5s-0.2-0.4-0.1-0.6c0-0.1,0.1-0.2,0.1-0.3h0.2c0.1,0,0.3-0.1,0.4-0.1c0.3-0.1,0.6-0.1,0.8-0.2
				c0.5-0.1,0.9-0.2,1.2-0.2c0.4,0,0.6,0,0.7,0.1c0.1,0,0,0-0.2,0.1c-0.4,0.2-1.2,0.4-2.1,0.7c-1.3,0.7-2.9,1.7-3.8,2.4
				c-0.1,0.1-0.2,0.2-0.3,0.2c-0.1,0.1-0.1,0.1-0.1,0.1C44,80,44,80,44,80.1c-0.3,0.1,0.2-0.1,1-0.7c0.3-0.2,1.6-1.1,3-2
				c0.2-0.1,0.4-0.3,0.5-0.3h0.3c0.2,0,0.3,0,0.5-0.1c0.3-0.1,0.7-0.1,0.9-0.1c0.3,0,0.5-0.1,0.7,0s0.2,0.1,0.3,0.2s0,0.1,0.1,0.2
				c0,0.1,0.2,0.2,0.7,0.5c0.1,0.1,0.3,0.2,0.4,0.3c0.1,0.1,0.2,0.1,0.3,0.2l0.1,0.1c0.1,0,0.2,0,0.3-0.1c0.7-0.2,1.6-0.5,2.8-0.9
				c0.5-0.4,1.3-0.8,2.4-1.2c1.1-0.4,2.3-0.7,3.3-1c1.8-0.5,2.3-0.6-2.7,0.4c6.1-2.1,6.6-1.7,13.9-3.6c-2.4-0.1,6.2-3.8,12.6-5.3
				c-0.3,0.2,0.3,0.2,0.8,0.4c0.3,0.3,0.6,0.5,0.8,0.7c0.7,0.3,1.4,0.4,1.9,0.4V68c-11.5,3.8-18.2,5.5-29.4,8.5
				c-1.1,0.1-6.9,1.2-4.5,0.2c-1.7,0.6-3.2,1.3-6.9,2.2c-7.2,0.8,8.2-2.1,2.6-1.8c-0.4,0.7-9.4,3.1-14.6,4.4
				c1.7,0.6,12.2-2.4,17.3-4.1c0.2,1.2-8.7,4.9-21.2,7.9c-0.9,0.2-1.7,0.4-2.3,0.5c-0.3,0.1-0.4,0.1-0.8,0.2
				c-0.3,0.1-0.6,0.2-0.9,0.3l-0.5-3.8c4.2-0.9,0.8,0.7,2.1,0.2c18.6-4.3,15.5-6.1,31.1-8.7c6.2-0.6,0.5,1.5,1.9,1.8
				c-8,2.1-12.5,2.3-17.9,3.7l6.8-1.2c-2.5,0.9-7.9,2.3-10.9,2.8c2.6-0.3,10.5-2.1,19.5-4.2c9-2,19.2-4.1,26.5-5.2
				c2.5-0.8,6.9-1.8,4.8-1.8l-4.6,1c-4.3,0.2,8.5-2.5,2.7-1.7c3-0.8,6.3-1.7,9.8-2.5c1.8-0.4,3.6-0.8,5.7-1.1c2-0.2,4.3-0.3,6.7,0.5
				l0.3,0.3l3.6,3.1l-3.2,0.5c-0.5,0.1-1,0.2-1.5,0.2c0.1,0,0.6-0.2,1.3-0.7l2.4-1.5l-2.7-1.2c-0.9-0.4-2.3-0.7-3.6-0.8
				c-1.3-0.1-2.6,0.1-3.5,0.3c1.5-0.3,4.2-0.5,7.1,0.7l2.4,1l-2.2,1.5c-3.7,2.4-7.9,3.6-10,5.1c2-0.5,4.1-1.1,6.1-1.8
				c-3,1.7-6.4,3.2-9.9,4.6s-7.3,2.7-11.1,3.6c3.6-0.1,1.7-0.6,7.3-1.2c-2.4,0.1,2.4-1.4,6.9-2.8c4.5-1.5,8.8-3.6,4.8-2.5
				c2.5-0.5,4.6-1.5,6.8-2.9l6.2-4.2l-6.9-2.5c-3.6-1.3-7.2-0.9-11.5-0.7c0.3,0.3,2.7,0.1-3.8,1.1c-0.3,0.1-1,0.4-1.4,0.5
				c-0.2,0-0.3,0-0.4,0.1c0.1,0,0.2,0,0.4,0c-0.3,0.1-0.3,0.1,0.1,0c1.5-0.1,2.8-0.2,3.3-0.1c-3.1,1.2-13.4,3.1-16.8,4.1
				c-3.8,0.6,1.6-0.7-0.6-0.6l-5.1,1.6c-0.6-0.6-10.2,1-1.3-1.2l-8.1,1.7c-4.8,0.7-11.3,2-15.3,3.2c-3.8,0.7-9.5,3-6.2,1.7
				l-12.5,3.5l-0.1-0.1c-1.9,0.5-3.8,0.9-5.8,1.5l0.9,7.2l1.3-0.4c0,0,0.1-0.1,0.2-0.1l0.5-0.1c0.7-0.1,1.4-0.3,2-0.4
				c1.4-0.3,2.7-0.6,4.1-0.9c2.8-0.7,5.6-1.3,8.4-2c5.7-1.4,11.5-2.7,17.6-3.9c4.2-1.3,8.4-2.7,15.4-4.7l1.5,0.1
				c2.6-0.9,6.7-2.1,10.3-3.3l17.2-5.5l-17.6-2.9c-0.6-0.1-0.9-0.2-1.1-0.2L88,64c-0.1,0,0,0-0.3-0.2c-0.4-0.2-0.7-0.5-1.1-0.7
				c-0.5,0.1-1.1,0.2-1.6,0.3c-0.4,0.1-0.8,0.1-1.1,0.2c-0.6,0.1-1.1,0.2-1.5,0.3c-0.9,0.2-1.6,0.4-2,0.6c-3-0.2-9.6,1.2-16.6,3.3
				c-1.7,0.5-3.5,1-5.3,1.6c-0.9,0.3-1.7,0.6-2.6,0.8l-0.6,0.2h-0.1L55,70.5c-0.3,0.1-0.6,0.2-0.8,0.3c-0.1,0-0.2,0.1-0.4,0.1
				c-0.1,0-0.2,0-0.2,0.1c-0.4,0.4-0.8,0.9-1.2,1.4c0.3,0.5,0.6,1.2,1.2,0.9c0.5,0,1,0,1.5,0c1.1,0,2.4,0,4.2-0.1
				c0.4,0.4,0.7,0.8,1,1.2c1.9,0,3.9-0.7,5.5-1.5c0.8-0.4,1.5-0.9,2.1-1.3c0.3-0.2,0.6-0.5,0.9-0.7c0.1-0.1,0.2-0.1,0.2-0.2
				s0.1-0.3,0-0.5c0-0.2-0.1-0.3-0.3-0.4l-0.4-0.2l0,0c-0.9,0.1-1.7,0.3-2.4,0.4c-0.7-0.1,0.4-0.3,1.9-0.4l0,0
				c0.1,0,0.2,0.1,0.3,0.1l-0.4-0.1l0,0c-3.2,0.2-4.6,0.4-5.7,0.6c-1.1,0.2-1.8,0.5-2.9,0.9c-0.5,0.2-1.1,0.4-1.8,0.6
				c-0.4,0.1-0.7,0.2-1,0.3l-0.6,0.1l-0.8,0.2c-3.2,0.6-6.4,1.2-9.4,1.4c-3,0.8-5.1,1.1-7.3,1.3c0.3-0.1,0.5-0.1,0.7-0.2
				c-0.3,0.1-0.8,0.1-1.2,0.2c-1.3,0.1-2.7,0.3-4.2,0.4c1.3-0.1,2.5-0.1,3.5-0.3c-2.3,0.4-5.8,1.1-9.2,1.9l-1.5-0.4
				c-0.3,0.1-0.5,0.1-0.8,0.2c-3.4,0.3-2.7,0.8-0.8,1c-1.7,0.4-3.3,0.8-4.5,1.2c-2.8-0.7-9,2-12.8,1.4c-0.3,0.1-0.9,0.3-1.6,0.5
				l0.5,6.2c4.5-0.9,16-2.4,17.4-3.8c0.1,0.1,1.2,0.1-0.7,0.4c3.9-0.4,7.7-0.9,11.1-2l1.7,0.6c2.8-1,5.5-2,8.2-3.2
				c2.6-0.4,4.4-0.7,4.9-0.7c0.6,0-0.1,0.6-2.6,1.6c6.3-2.4,8.6-3.5,10.9-4.5l-0.9-4.4c-2,0.7-4,1.5-8.8,3.4l0.4-0.7
				c-3.6,1.1-9.3,3.7-11.6,3.9c-3,0.5-9,2.2-16.4,4.4l0.7,4.8c6.4-1.2,13.8-2.9,21.2-5s14.9-4.6,21.4-6.9l-1-5.7
				c-0.9,0.2-1.8,0.3-2.7,0.5c2.2,0.4-0.3,0.7-3.4,1.3c-3.1,0.6-6.8,1.5-7.1,2.3c-1.3,0-4.3,0.8-0.9-0.7c-8,3-13,4.5-18,6.6l1,6.8
				c1.7-0.3,3.4-0.8,5.3-1.3c1.3,0.2-2.3,1-1.1,1c0.9-0.2,3.4-0.9,4.6-0.9c1.1,0.1-1.6,0.6-3.3,1.1c5.6-0.9,8.6-1.9,10.3-2.7
				c1.7-0.8,2.1-1.6,2.5-2.2c5.7-0.7,8.5-1.6,12.4-3.7c2-0.3,5.3-1.1-1.5,1.5c1-0.3,2.9-0.9,5.3-1.8c1.2-0.4,2.5-1,3.8-1.6
				c0.7-0.3,1.4-0.7,2.2-1.3c0.8-0.6,1.6-1.5,2.2-2.8l1.3-3.1l-2.6-0.7c-3.2-0.8-6-0.2-8,0.2c-2,0.5-3.3,0.9-3.3,1.1
				c-1.2,0-5.4,1-6.4,1.3c-8.7,1.7-9.5,1.8-18,3.6l2.4-0.3c-1.6,0.9-3.3,1.3-5.4,1.7l0.3,2.5c2.2-0.4,5-0.8,8.5-1.6l-0.2,0.2
				c7.9-1.3,9.6-2,11.2-2.5c0.8-0.3,1.6-0.6,3.2-1c1.6-0.5,3.9-1.1,7.8-2.3l-1-0.4c0.6-1.2,5.3-2.4,10.6-4.9l2-0.9l-1.9-1.5
				c-0.6-0.5-1.4-0.7-2-0.6c-0.6,0-1.2,0.2-1.7,0.4c-1,0.4-2,0.8-2.9,1.1c-1.9,0.8-3.8,1.6-5.6,2.5l3.2-1
				c-4.6,2.6-13.7,3.9-18.5,5.8c-1.1,0.3,1.6-0.9,3-1.7c-12.5,4.6-1.5,1.6-10.4,5.8l1.2,5.2c0,0,0.1,0,0.2-0.1
				c1.8-0.2-1.9,2.1,4.4-0.3c1.6-0.4,6.1-2.6,11.3-5.2s11-5.5,15.3-7.3c-2,0.6-3.9,1.2,0.3-1.3c1.3-0.7,2.9-1.6,4.6-2.4l2-1
				l-1.1-2.6c-0.5-1-1.3-1.8-2-2.1c-0.7-0.3-1.4-0.4-2-0.3c-1.2,0.1-2,0.3-2.9,0.4c-1.8,0.3-3.7,0.7-5.4,1.1
				c-3.6,0.8-6.8,1.9-9.2,3.2c-0.9,0.2-1.2,0.2-1.3,0.1c-3.4,1.4-9.6,3.9-14.1,6.2l-11.3,5.8l11.9-1.4c2.5-0.3,4.6-0.7,5.7-1
				c2.5,1,10.8-0.3,18.4-2.5c7.5-2.1,14.3-4.9,14.4-3.8c3.2-1.1,6.3-2.4,9.4-3.7l19.2-9.3l-20,3l-6.5,1l0.4-0.3
				c-10.4,1.5-14,2.8-17.6,4.1c-2.4,0.3-0.7-0.2-0.5-0.4c-10.1,1.8-14.1,2.9-19.3,4.6l0.4,5c2.7-0.3,5.7-0.7,10-1.6l1.4,0.6
				c1.6-0.4,6.3-0.9,12.3-2.2c3-0.6,6.3-1.4,9.8-2.4c1.7-0.5,3.4-1,5.2-1.6c1.8-0.7,3.8-1.6,5.5-3.3l6.2-6.3L88,54.1
				c-1.4,0.2-2.9,0.4-4.2,0.7c0.1-0.1,0.4-0.3,1.6-0.5c-5.2,0.9-11.1,1.8-16.9,2.8c-2.9,0.5-5.7,1.1-8.6,1.8
				c-2.8,0.7-5.6,1.6-8.1,3.1l-1.4,0.8l-0.2,2.1c-0.1,0.9,0.2,2,0.6,2.7c0.4,0.7,0.9,1.1,1.2,1.3c0.7,0.4,1.1,0.5,1.5,0.5
				c0.2,0,0.4,0,0.6,0h0.3h0.2l0.5-0.1c0.7-0.1,1.4-0.3,2.1-0.4c1.3-0.3,2.6-0.6,3.7-1c2.2-0.7,3.9-1.5,5-2.3
				c3.6-1.2,7.2-2.7,10.7-4.3c-14,4.8,1.9-1.8-4-0.2c5.4-2,14.1-4.9,7.6-1.9l-1.1,0.3c-1.1,1.2,3.3-0.4,7.8-2.5
				c1.1-0.5,2.3-1.1,3.3-1.6c1.1-0.5,2.1-1,3-1.5s1.7-1.1,2.3-1.7c0.5-0.5,0.8-0.9,0.9-0.7l0.3-0.5l2.5-4.1l-4,0.2
				c-13.6,0.8-27,2.6-40.2,4.3l0.5,5.4c14-2.7,27.8-5.4,41.2-8.1l-3.1-0.4l8.9-1.8l-0.7-4.2l-0.2,0.1c-1.9,0.5-2.9,0.4,0-0.8
				l0.9,5.7c-0.7,0.2-1.7,0.4-3.1,0.7c0.9,0,2-0.2,3.1-0.5l-1-6.1c-3.5,1.3-7.5,3.5-7.6,3.7c-12.5,4.1,4.6-3,0.8-1.6l-5.2,2l1.2-0.3
				c-4.1,2-4.4,2.5-12,5.3c-4.9,1.5-2.6,0.3-4.5,0.9c0,0-0.2,0-0.6,0.1s-1.2,0.4-2.3,0.9l-11.2,4l4.7-0.8c-4.9,2.2-10.5,3.8-5.2,2.8
				c-1,0.2-2.3,0.5-4,1l0.8,3.7c4-1.2,9.8-3.5,15.6-6.6c2.9-1.5,5.8-3.2,8.6-5c1.4-0.9,2.7-1.8,4-2.6c0.6-0.4,1.3-0.9,1.9-1.3
				c0.3-0.2,0.8-0.5,1.2-1c0.2-0.3,0.5-0.7,0.7-1.2c0.2-0.6,0.3-1.3,0.2-2l-0.3-2.2l-1.7,0.3c-5,0.8-8.7,1.6-10.1,1.8
				c-7.1,2.3-14.1,4.3-22.6,7.6c2-0.6,3.4-0.3-2.4,2l0.3,1.8c0.4-0.1,0.8-0.2,1.4-0.3c-1.3,1.3,2.2,0.8,6.8-0.1
				c4.6-0.8,10.2-2.2,13.4-2.4c-3.3,0.4,5-1.9,10.2-4.3l-0.9-4.8c-3.6,1-5.8,1.8-2.4,1.5c-6.3,1.4-0.5-0.6-5.3,0.1
				c-10.2,3.3-22,6.7-34.2,11.3l0.9,5.8c5.6-0.7,11.3-2,17-3.9c0.2-0.4-2.9,0.3,1-1.4c3.3-0.7,6.6-1.5,9.9-2.5
				c1-0.5,1.6-0.9,2.2-1.3c0.2-0.1,0.3-0.2,0.4-0.3c0.4-0.2,0.6-0.5,0.9-0.8c0.3-0.3,0.6-0.7,0.9-1.6c0.1-0.5,0.3-1.1,0.2-1.9
				s-0.4-1.3-0.7-1.7l-0.8-1l-0.8,0.2c-1.2,0.3-2.8,0.5-5.8,0.5c1,0.1,2.4,0.3-0.1,0.6c-13.7,1.3-27.4,4.4-41,8.7L7.6,60.7L25.4,60
				c7.4-0.3,14.9-1.2,22.3-2.7c3.7-0.7,7.4-1.6,11-2.6c1.8-0.5,3.7-1,5.5-1.6c0.9-0.3,1.9-0.6,2.9-1.1c1-0.6,2.3-1.6,3-3.3l1.7-4
				l-3.4,0.4c-8.8,0.9-17.5,2.1-26.2,3.3c5.1-0.5,1.7,0.2-2.1,1c2.5-0.4,0,0.6,0.6,0.9C35.5,51.1,30.4,52,25.2,53
				c-0.4,0.2-1,0.5-1.8,0.8l0.5,5c2.3-0.4,6.1-0.9,9.5-1.4s6.3-1.1,6.9-1.7c-1.6,0.4-3.3,0.7-4.9,1c3.2-1.1,0.9-1.3-2.2-1.5
				c-3-0.2-6.7-0.5-6.3-1.2c-1,0.3-2.1,0.5-3.3,0.6l0.3,3.1c7.2-2.2,17.6-2.5,27.6-5.9c2.7-0.2-2.2,0.9-0.8,0.9
				c2.9-1.1,6.6-1.9,13.4-2.6l-0.8,0.3c2-0.3,3.8-0.5,5.2-0.7l-1.7-3.5c-0.2,0.5-0.6,0.9-1.3,1.3s-1.5,0.6-2.4,0.9
				c-1.7,0.5-3.4,1-5,1.4c-3.2,0.9-6.3,1.5-9.5,2.1c-6.4,1.1-13.3,2-22.8,2.2l1.6,0.6c-0.9,0-1.7,0-2.3,0l0.5,5.2
				c2.7-0.7,3.6-0.8,5.3-1.2c2.9-1.5-1.8-0.1-5.4,1L25,54.9c2.7-0.1,4.7-0.1,2.7,0.5c-0.7-0.1-1.6-0.2-2.7-0.3l0.4,4.3
				c4.4-1,11.8-3.1,18.6-4.6c6.8-1.5,13-2.4,14.9-2c7-1.1-2.1-0.5,4.9-1.6l1.9,0.2l1.7-0.8c1.9-0.2,3.4-0.2,4.5-0.2l-0.6-2.2
				c0.1-0.2,0.2-0.2,0.2-0.2s-0.2,0-0.3-0.2c-0.3-0.3-0.6-0.8-0.6-0.9s0,0,0,0.1v0.1v0.1l0,0l0,0l0,0c-0.1-0.5,0.3,1.2-0.3-1.2l0,0
				l0,0h-0.1c-0.1,0-0.3,0.1-0.4,0.1c-0.4,0.1-0.7,0.1-0.8,0c0.2-0.1,0.3-0.2,0.5-0.2c0.1,0,0.2-0.1,0.3-0.1l0.2-0.1h0.1l0,0l0,0
				c-0.1-0.4,0.8,3.1,0.4,1.6l0,0l0,0l0,0l0,0l0,0c-0.2-0.8-0.1-0.2,0.3,0.3c0.2,0.2,0.4,0.4,0.5,0.4s0,0-0.2,0.2l0.7,3
				c-0.6,0.1-1.2,0.2-1.7,0.3c0.5,0,1.1-0.1,1.7-0.1l-0.7-3.2c0.1-0.2,0.2-0.2,0.2-0.2s-0.1,0-0.3-0.1c-0.3-0.2-0.7-0.9-0.7-0.9v0.1
				v0.1v0.1v0.1l0,0c0.1,0.4-1-3.6-0.5-1.9l0,0l-0.3,0.1l-0.6,0.3c-0.8,0.4-1.6,0.7-2.4,1.1c-1.6,0.7-3.3,1.5-4.9,2.1
				c-3.1,1.3-5.8,2.2-6.7,2.4c2.2-0.6,4.4-1.2,6.5-1.9c-6.4,2.6-13.5,4.5-20.8,5.5l1,6.3c13.1-5.3,26.9-9.7,38.7-13.2h-1.4
				c1.5-0.4,2.7-0.8,3.8-1.1l-0.8-4.3c-4.7,2-7,2.6-9.7,3.3c-2.7,0.7-6,1.5-12.9,3.2l0.6-0.2c-2.5,0.8-5.6,1.7-9,2.4l0.7,4
				c0.8-0.3,1.5-0.6,2.3-0.9c-1.8,1,0,0.4,1.6,0c1.7-0.4,3.2-0.8,0.8,0.3c7.3-3.1,9.2-3.6,10.4-4.2c1.2-0.5,1.7-1,6.6-2.9h2.4
				c3.2-1.2,3.6-1.6,10.6-3l-0.9-1h0.1c-0.1,0,0,0-0.1,0v-0.1h0.1h-0.1l1,1c-2.2,0.6-1,0.6,0.1,0.6l-1-1.6c0.2,0,0,0-0.2-0.2
				c-0.1-0.1-0.2-0.2-0.3-0.4c0,0,0,0-0.1-0.1c0,0,0,0,0-0.1c0,0-0.1-0.1,0.1,0.1c0.1,0.2,0.3,0.3,0.4,0.4c0.1,0.1,0.2,0.1,0.1,0.1
				l1.1,2.2c-0.2,0.1-0.7,0.2-1.4,0.4c0.5,0,1-0.1,1.4-0.1l-1.1-2.5c0.2,0,0,0.1-0.3-0.3c-0.1-0.1-0.2-0.2-0.3-0.3l-0.2-0.2
				c0-0.1-0.1-0.2-0.1-0.2s0,0-0.1,0c-0.4,0.2-0.7,0.5-1.1,0.7c-0.8,0.5-1.6,1-2.4,1.5c-1.5,1-3,1.9-4.3,2.7
				c-2.7,1.7-5.1,3.2-7.2,4.4c-4.3,2.5-7.9,4.2-11.5,4.8c-3.4,2.1,0,1.1,3.8-0.5c3.8-1.6,7.8-3.8,5.9-2.6c1.7-0.6,0.4,0.4-2.1,1.8
				c-2.4,1.4-5.9,3.1-8.4,4c-0.7,0.3-1.3,0.5-2,0.6l0.4,2.1c4.3-1.1,8.7-1.3,19.8-5.3c-1.3,0.5-1.3,0.6-2.6,1.1
				c4.9-1.4,9.3-3.9,15.3-5.5c3.1-2.1,7.6-2.7,8.3-4.2l-11.7,4.5c5.1-2.1,9.9-4.8,17-7.4l-0.3-2.1c-2,0.4-4.3,0.9-6.7,1.2
				c0.8-0.4,4.1-1.4,6.4-2.1c-3.3,0.3-6.3,1.5-9.7,1.9c0.5-0.8,4.8-1.7,9.9-2.8l0.9,5.4c-4,1.5-8.5,3.1-11.6,4.7
				c3.5-0.8,13.3-5.7,10-3.2c0.5-0.4,1.1-0.7,1.7-1.1l-1-6.3c-5,1.9-12.1,2-19.9,4.8l0.5-0.8c-1.4,0.4-4.3,1.3-6.8,1.9l4.6-1.9
				c-7.1,2.3-13.9,2.2-20.8,4.1c14.4-3,3.3,0.2,9.5-0.6c-8.7,2.3-11.4,2.4-14.2,2.5l0.6,6.4c2.9,0.1,6,0.3,16.2-1.2
				c-2.7,0.4-10.2,1-6,0c3.8-0.4,8.9-0.8,11.2-0.7c13.2-1.6-2.1-0.5,3.5-1.6c4.6,0.4,6.5-1,12.3-1.7l0.1,0.7c1,0,1.8-0.1,2.6-0.1
				l-2.1-5.2c-0.4,0.6-1.1,1.2-1.8,1.6c-0.7,0.5-1.3,0.8-1.7,1.1c-0.8,0.6-1.1,0.9-1.4,1.2c-0.6,0.6-1.4,1.5-7.5,3.9
				c1.7-1.1,3.5-2.2,5.2-3.4c-2.2,1.1-4.4,2.2-6.6,3.3l1.2-1.4c-3.6,1.9-6,2.9-8.4,3.7c-2.4,0.8-4.8,1.5-8.5,2.4
				c1.8,0-0.7,1.7-7.3,3.1c-2,0.2-1.8,0-1.7-0.1c0-0.1,0.1-0.1-0.2-0.1c-0.1,0-0.2,0-0.3,0s-0.1,0-0.2,0h-0.1l0,0l0,0l0,0
				c0.1,0.7,0,0.2,0,0.3l0,0v-0.1v-0.2l0,0c0-0.1,0,0.4-0.1,0.7c-0.1,0.4-0.2,0.9-0.3,1.2c-0.2,0.3-0.3,0.3-0.1,0.3l0.5,2.5
				c0.6-0.4,1.4-0.8,2.4-1.3c-0.7,0.5-1.5,1.1-2.3,1.7l-0.6-3c-0.1,0-0.1,0,0,0c0.1-0.1,0.2-0.3,0.3-0.6c0.2-0.6,0.3-1.5,0.3-1.6
				s0,0,0,0.3V63l0,0l0,0l0,0c-0.2-1.9-0.1-0.5-0.1-0.9l0,0l0,0h0.1h0.2c0.2,0,0.4-0.1,0.7-0.1c0.9-0.2,2-0.3,3.2-0.4
				c0.4-0.3,2-0.9,2.4-1.2c-1.2,0.2-2.5,0.4-3.9,0.7c-0.7,0.1-1.4,0.3-2.1,0.4l-0.5,0.1l0,0l0,0l0,0c0.3,3.2,0.1,0.9,0.2,1.6l0,0
				l0,0V63v-0.2c0,0,0,0,0,0.2c0,0.4-0.1,1.1-0.3,1.6s-0.4,0.5-0.2,0.5l0.9,3.7c2.3-1.5,4.8-2.3,6.5-2.8c-1.2,0.3-2.7,0.8-3.4,1
				c2-1,4.1-1.7,6.4-2.4c2.2-0.7,4.5-1.4,6.7-2c2.2-0.2,0.5,0.4-1.2,0.9c2.7-0.7,4.6-1.4,8.6-2.1c-1,0.8-0.7,1.3-6.4,2.6
				c4.3-1.1,8.6-2,12.9-2.8c0.5,0.1,2.7,0,4.1,0.1L86,53.4c-0.6,0.4-1,0.5-0.6,0.1c-1,0.7-2.6,1.4-4.7,2.1c-2.1,0.7-4.3,1.5-6.6,2.3
				c-4.6,1.6-9.5,3-14.2,3.6c-0.5,0.2-1.5,0.5-3.5,0.9c-3.9,0.5-7.7,0.7-11.5,0.7l0.7,8.2c4.9-1.2,9.9-2.4,15.8-4.1l6.1-0.2
				c8.3-1.8-8.3,0.3,5.5-2.8c9.8-2,3.8,0.3,7.2,0c2.2-0.6,5-1.4,8.4-2l-1.1-6.9c-3.9,2-8.5,3.8-13.5,4.9
				C77.2,59,79.5,58.3,82.2,57.2z M50.9,68.8c1.9-0.9,5.6-3,7.1-3.2C56,67.4,54.3,67.7,50.9,68.8z M42,78.3c1.5-0.5,3.8-0.8,6.4-1.1
				C46.5,77.7,44.4,78.1,42,78.3z M61.1,72.3c-0.1,0-0.1,0.1-0.2,0.1C56.4,73.1,58,72.8,61.1,72.3z M70.4,70.5
				c0.9-0.3,0.8-0.4,0.4-0.4c-0.6,0.3-2.7,0.8-5.1,1.2C66.5,71.4,67.7,71.3,70.4,70.5z M73.4,51.6l1.8-0.5
				C71.3,52.8,72.4,52.2,73.4,51.6z"/>
			<path class="st5" d="M59.4,73.1c0.6-0.1,0.7,0,0.9,0.1C61,72.9,61,72.7,59.4,73.1z"/>
			<path class="st5" d="M59.8,61.5h0.3c0.2-0.1,0.3-0.1,0.3-0.2L59.8,61.5z"/>
			<path class="st5" d="M49.9,76.6c-0.4,0-0.7,0-1,0c-0.2,0-0.3,0-0.4,0c-0.2,0.1-0.6,0.4-0.9,0.6c-1.1,0.7-1.9,1.3-2.6,1.7
				c-0.2,0.1,0.1-0.1,1.2-0.8c0.5-0.3,1.3-0.9,2.2-1.5C48.8,76.6,49.3,76.6,49.9,76.6z"/>
			<path class="st5" d="M105,75.9c2-0.8,4-1.8,6-3.1c-2.9,1.7-4,1.9-5.5,2.4C105.6,75.4,106.8,75.2,105,75.9z"/>
			<path class="st5" d="M52.9,85.1c-0.9,0.3-1.8,0.4-2.7,0.6l0.3,0.3C54.2,85.2,56.8,84.4,52.9,85.1z"/>
			<path class="st5" d="M99,75.5c-0.6-0.4-4.2,1-8.3,2.3c0.2-0.1,0.5-0.1,0.7-0.2C90.4,78.7,94.7,77.2,99,75.5z"/>
			<path class="st5" d="M89.8,78.1c-1.3,0.4-2.6,0.8-3.8,1.1C85.5,79.6,87.5,78.8,89.8,78.1z"/>
			<path class="st5" d="M82.1,67.7c2-0.2,1.2-1,2.3-1C86.6,65.5,71.4,70.3,82.1,67.7z"/>
			<polygon class="st5" points="95.3,74.6 96.9,74.9 99.1,73.6 			"/>
			<path class="st5" d="M95.9,68.2l6.7-0.9c-0.1-0.1,0.7-0.3,1.8-0.5C100.2,67.3,95.7,68,95.9,68.2z"/>
			<path class="st5" d="M104.3,66.7c2.2-0.3,4.3-0.3,5.5-0.2C108.6,66.3,106.1,66.4,104.3,66.7z"/>
			<path class="st5" d="M104.2,71.4c0.6-0.2,1.3-0.4,1.9-0.6c1.5-0.6,3-1.4,4.4-2.3C108.5,69.7,106.4,70.6,104.2,71.4z"/>
			<path class="st5" d="M30.9,83.7l7.2-1.6c0.7-0.4-1.3-0.1-4,0.5C32.5,83,29.8,83.6,30.9,83.7z"/>
			<path class="st5" d="M46.7,80.5c-2,0.3-2.1,0.2-3.3,0.2l-0.1,1L46.7,80.5z"/>
			<path class="st5" d="M29.9,81.6c0.7-0.4,10.4-2.8,1.3-0.9c-0.2,0.1-0.9,0.3-1.6,0.5c-0.2,0.1-0.4,0.1-0.6,0.2s-0.5,0.2-0.7,0.3
				c-0.3,0.1-0.5,0.2-0.7,0.3l0.5,3.7c0.5-0.2,0.7-0.3,0-0.2l-0.4-3.3c0.1,0,0.3-0.1,0.7-0.2c0.2-0.1,0.5-0.1,0.8-0.2
				C29.3,81.7,29.6,81.6,29.9,81.6z"/>
			<path class="st5" d="M50.6,81.4l-1.9,0.3l0.1-0.1l0.5-0.9l0.9-1.7c0,0.6-0.1,1.1,0,1.6c0,0.3,0,0.6,0.1,0.8L50.6,81.4z"/>
			<path class="st5" d="M27.6,83.2c8.6-1.2,2-1.3,9.8-2.2c2-0.7-6.4,0.8-4.4,0.1C27.8,82.4,25.1,82.7,27.6,83.2z"/>
			<path class="st5" d="M33,81.1c0.8-0.2,1.7-0.5,2.6-0.7C34.1,80.7,33.4,80.9,33,81.1z"/>
			<path class="st5" d="M32.8,58.5c1.9-0.2,3.8-0.4,5.6-0.6L34.7,58L32.8,58.5z"/>
			<path class="st5" d="M43.5,55.5l1.4,0.7l3.2-1.6C46.9,54.9,44.5,55.5,43.5,55.5z"/>
			<path class="st5" d="M45,79.9l0.3-0.4c-0.8,0.1-1.9,0.5-3.9,1.4L39.3,72c0.2-0.1,0.4-0.2,0.7-0.3l-0.7,0.2l2.2,9.1L45,79.9z"/>
			<polygon class="st5" points="44,73.3 45.3,72.8 42.8,72.9 			"/>
			<path class="st5" d="M75.7,66.1c2.6-0.4,5.5-1.1,8.1-1.4C78.3,65.6,74.9,65.1,75.7,66.1z"/>
		</g>
		<g>
			<path class="st6" d="M82.2,42.5c-1.4,0.4-0.8,0.8-1,1C83.5,42.7,82.1,42.3,82.2,42.5z"/>
			<polygon class="st6" points="88.3,33.3 88.7,33 85.2,34.1 			"/>
			<path class="st6" d="M65.8,36.7c2.2,0.7,8.1-1.6,12.2-1.8l0.7,0.1l1.7-1.1C75.5,34.8,69.2,36.4,65.8,36.7z"/>
			<path class="st6" d="M53.6,36.8c0.8,0.3-2.5,0.9,2.8-0.4c-0.3,0-0.4,0-0.5,0C55.4,36.4,54.7,36.5,53.6,36.8z"/>
			<path class="st6" d="M55.9,36.3C58.2,35.8,54.3,36.3,55.9,36.3L55.9,36.3z"/>
			<path class="st6" d="M45,38.9l3.1-1.1c-0.7-0.1-3.5,0.5-2.4,0.1C42.4,38.8,43.1,38.9,45,38.9z"/>
			<path class="st6" d="M42.2,40.4l1.6-0.5C43.4,39.8,43,39.9,42.2,40.4z"/>
			<path class="st6" d="M47.1,38.7l-3.4,1.1c0.5,0.1,0.6,0.4,1.5-0.5C45,39.7,45.7,39.3,47.1,38.7z"/>
			<path class="st6" d="M49.1,38.4c1.8-0.1,4-0.5,1,0.5C55.9,37.6,55,37,49.1,38.4z"/>
			<path class="st6" d="M64.8,38l2.4-0.1l2-0.7C68.1,37.5,64.6,37.7,64.8,38z"/>
			<path class="st6" d="M29.6,52.3c0.2-0.2-1.1-0.6-1.3-0.9H28l-0.7-7.8l2-0.8c-0.6,0.1-1.3,0.2-2,0.3l0.7,8.7
				C28.8,52.1,29.5,52.2,29.6,52.3z"/>
			<path class="st6" d="M28.3,51.5l3.5-0.5C28.6,51,28.1,51.2,28.3,51.5z"/>
			<polygon class="st6" points="41.8,41.7 47.3,39.5 40.7,41.9 			"/>
			<polygon class="st6" points="42.9,51.6 41,52.3 44.5,51.2 			"/>
			<path class="st6" d="M51.8,50.6c-1.4,0.6,2.1,0.5,0.5,0.9c2.4-0.4,4.4-1,6.2-1.7C56.6,50.3,54.5,50.6,51.8,50.6z"/>
			<path class="st6" d="M61.6,48.9c-1,0.3-2,0.6-3,1C59.6,49.6,60.6,49.3,61.6,48.9z"/>
			<path class="st6" d="M37.7,50.8c0.3,0.1,0.8,0.4,2.8,0.5l-1.4-0.5C38.6,50.7,38.2,50.8,37.7,50.8z"/>
			<path class="st6" d="M39,50.7L39,50.7c1.5-0.1,2.6-0.1,3-0.2C41.7,50.5,40.7,50.6,39,50.7z"/>
			<path class="st6" d="M37.3,50.8c0.1,0,0.2,0,0.3,0C37.6,50.7,37.5,50.7,37.3,50.8z"/>
			<path class="st6" d="M32.7,43.3c-2,0.9-6.1,2.4-1.9,1.8C32.2,44.4,29.8,44.7,32.7,43.3z"/>
			<path class="st6" d="M35.6,50.1h-3.7c0.1,0.2,0.8,0.4-0.3,0.6L35.6,50.1z"/>
			<polygon class="st6" points="37.4,49.8 35.6,50.1 37,50.1 			"/>
			<path class="st6" d="M55.2,49.3c1.6-0.5,3.3-0.8,5.3-1.1c-2.1,0.2-4.3,0.5-6.4,0.8C53.8,49.1,53,49.6,55.2,49.3z"/>
			<path class="st6" d="M47.3,50c0.1,0,0.3-0.1,0.4-0.1C47.5,49.9,47.3,49.9,47.3,50z"/>
			<path class="st6" d="M79.7,44.1c-0.1,0-0.2,0-0.3,0c0,0,0,0.1-0.1,0.1L79.7,44.1z"/>
			<path class="st6" d="M53.8,48.8c-1.6,0.1-2.5,0.3-3.4,0.7c1.2-0.2,2.4-0.4,3.8-0.6C54.2,48.8,54.3,48.7,53.8,48.8z"/>
			<path class="st6" d="M67,47.6c-0.8,0-1.8,0.1-2.8,0.2C65,47.8,66.7,47.8,67,47.6z"/>
			<path class="st6" d="M48.2,50.1c-0.1,0-0.2,0-0.2,0.1C48.5,50.2,48.5,50.2,48.2,50.1z"/>
			<path class="st6" d="M48.2,50.1c0.8-0.2,1.4-0.4,2.1-0.6c-1,0.2-1.9,0.3-2.6,0.5C47.9,50,48.1,50,48.2,50.1z"/>
			<path class="st6" d="M84.9,38.6c-0.2,0.7-4.2,2.3-7.8,2.5c-3.4,1.2-0.9,2.6,2.3,3c0.1-0.3,0-0.5,3.6-1.8c-1.3,0-8.1,1.3-5.1,0
				c4.7-1.5,3.9-0.8,6.3-1.1c-1-0.1,0.4-0.8,2-1.5c1.6-0.8,3.2-1.6,2.6-2c-1.4,0.5-2.7,1.1-4.1,1.6C84.6,39.1,86.1,38.4,84.9,38.6z"
				/>
			<path class="st6" d="M72.5,45.6L71,46c1.7-0.3,3-0.3,5.2-0.4c2.4-0.9,2.9-1.2,3.1-1.5c-2.4,0.6-4.9,1.1-7.3,1.6L72.5,45.6z"/>
			<path class="st6" d="M64.4,47.3c1.1-0.8,4.6-1.8,2.4-2.1c-4.4,0.9-3,1.1-5.6,1.8C68.2,45.7,59.2,47.8,64.4,47.3
				c-1.4,0.3-2.7,0.6-3.9,0.8c1.3-0.1,2.5-0.2,3.7-0.3c-0.1,0-0.1,0-0.2,0l0,0l0,0c-0.3,0-0.4-0.1-0.1-0.1H64
				C64.1,47.5,64.2,47.4,64.4,47.3c2.1-0.2,0.3,0.1-0.3,0.3L64,47.7l0,0c2.4-0.5,4.7-1.1,7-1.7C69.6,46.3,67.7,46.7,64.4,47.3z"/>
			<path class="st6" d="M28.5,47.8c0.2,0.1,0.2,0.1,0.2,0.1C29.2,47.8,29.4,47.8,28.5,47.8z"/>
			<path class="st6" d="M31.5,48.1c-0.5,0.1-0.9,0.4-2.6,0.4c-1.5-0.1,0-0.3-0.1-0.5c-0.2,0-0.5,0.1-0.8,0.2l-0.1-1
				c0.9-0.4,1.7-0.8-0.1-0.6l-6.5,1l6.7,1.2c0.1,0,0.3,0,0.5,0l0.5-0.1c2.9,0.2,6.6,0.8,6.1,0.9C34.1,48.9,33.4,48.6,31.5,48.1z"/>
			<path class="st6" d="M48.1,48.1c2-0.3,3.9-0.7,5.9-1l-3-0.2l0.2,0.3C47.7,47.5,48.5,47.8,48.1,48.1z"/>
			<polygon class="st6" points="80.5,44.3 79.8,45.1 83,43.3 			"/>
			<polygon class="st6" points="88,42.1 87.9,42.8 89.8,41.8 			"/>
			<path class="st6" d="M48.1,35.3l1.7-0.5C48.9,35,48.4,35.1,48.1,35.3z"/>
			<path class="st6" d="M35.7,37.4l-0.3,0.4C36,37.5,36.2,37.4,35.7,37.4z"/>
			<path class="st6" d="M50.4,32.4c-2.6-0.2-5.5-0.5-5.1,0.1l0.8,0.5C47.9,32.6,49.2,32.5,50.4,32.4z"/>
			<path class="st6" d="M99.1,27.1c0.2,0,0.5,0,0.8,0.1c0.6-0.3,1.1-0.6,1.6-0.9C100.7,26.5,99.9,26.8,99.1,27.1z"/>
			<path class="st6" d="M97.6,30l-3.3,0.1C95,30.2,96.1,30.2,97.6,30z"/>
			<path class="st6" d="M75.7,30.2l-1.9,1C76.8,30.7,75.4,30.6,75.7,30.2z"/>
			<path class="st6" d="M22.9,42.4c-1,0-1.9,0.1-2.7,0.2l0.5,7.6c1,0,1.9,0,2.7-0.1c-1-0.1-2-0.2-2.8-0.2L20.1,43
				C21.5,42.8,22.5,42.8,22.9,42.4z"/>
			<path class="st6" d="M43.9,43c1-0.3,1.5-0.5,1.4-0.7C44.3,42.6,43.7,42.9,43.9,43z"/>
			<path class="st6" d="M29.8,49.5c-0.4,0-0.8,0-1.2-0.1c-1.6,0.2-3.2,0.5-5.1,0.6C25.4,50.1,27.7,50.1,29.8,49.5z"/>
			<path class="st6" d="M91.2,14.1c0.2,0,0.4-0.1,0.6-0.1C91.8,13.9,91.5,14,91.2,14.1z"/>
			<path class="st6" d="M51.1,27.2c0.7-0.3,1.8-0.8,2.8-1.3C53.4,26.1,52.5,26.4,51.1,27.2z"/>
			<path class="st6" d="M70.3,34.3C71.9,33.9,70.5,34.1,70.3,34.3L70.3,34.3z"/>
			<path class="st6" d="M78.4,35.5c-0.3,0.1-0.6,0.3-0.6,0.4C77.9,35.8,78.1,35.6,78.4,35.5z"/>
			<path class="st6" d="M45.7,43.8L45.7,43.8C45.4,43.7,45.5,43.7,45.7,43.8z"/>
			<path class="st6" d="M72.7,34.2c-0.6,0-1.3,0.1-2.1,0.1C71,34.3,71.6,34.3,72.7,34.2z"/>
			<path class="st6" d="M72.4,33.9c0.6-0.1,1-0.1,1.4-0.2C74,33.6,73.8,33.6,72.4,33.9z"/>
			<path class="st6" d="M68,34.6c0.9-0.2,1.8-0.3,2.6-0.4c-0.3,0-0.5,0-0.4,0C69.8,34.3,69.1,34.5,68,34.6z"/>
			<path class="st6" d="M57.3,31.4c-0.1,0-0.2,0-0.4,0C55.3,32,56.1,31.8,57.3,31.4z"/>
			<path class="st6" d="M36.5,35.9c-0.1,0-0.1,0-0.2,0.1C36.4,36,36.5,36,36.5,35.9L36.5,35.9z"/>
			<path class="st6" d="M42.2,34.4c-2.4,1.3-3.8,1.4-5.7,1.6l2.1,1.5L42.2,34.4z"/>
			<path class="st6" d="M77.4,27.8l-4,0.6c4.6-2.3,8-3.2,4.2-2.8c-0.1,1.1-3.9,2.3-7.8,3.4c-3.9,1.1-7.7,2.1-7.9,3.2l-2.7,0.2
				c0.8-0.2,0.9-0.3,1.6-0.5c-5.3,0.2-3.6,2.4-10.3,3.5c-2.3,0.3-4,0.4-2.4-0.2L43,36.7c-1.5,0.2-1.2-0.2,0.3-0.4
				c-2.6,0.5-5.3,1-7.9,1.5l0.1-0.1c-1.1,0.5-3.6,1.4-4.9,1.7c-2,0,1-0.4,0.5-0.5L26.7,40c-1.8-0.3,1.8-1.3,4.8-1.6
				c-4.3-1.5-3.6,1.1-12.6,0.9l4.1-0.7c-1.9-0.6-4-0.4-6.7-0.3l0.9,10.2c1.2-0.2,2.5-0.4,4-0.5c-0.5-0.1-2.4,0-4,0l-0.9-9.2
				c2,0.3,3.4,0.7,0.8,1.3c-0.2,0-0.4,0-0.7,0l0.6,6.6c1.2-0.2,2.8-0.6,5-1.4c0.1,0.7,2.6,0,5.7-0.8l-0.1,1c3.4-1,3-1.4,5-2.3
				c3.8-0.7,4.7-0.2,5.6,0.2c6.1-1.2-4.3-0.3,2.8-2c5.1-0.7,8.6-1.8,14.5-3.6c3.6-0.4-0.6,0.7,0.7,0.7l3-1.4
				c0.8-0.1,0.5,0.1,0.4,0.3c2.6-0.8,0.1-1,4.2-2.1c1-1.3,8.7-0.1,13.7-2.3c1.3,0-0.6,0.7-0.1,1c7-2.1,6-1.7,11.7-3.7l5-0.2
				C90.4,30,95,28.4,99,27c-1.3-0.1-2.5-0.2-3.2-0.3l6.4-1.6c0.8,0,0.2,0.5-0.9,1c0.4-0.2,0.8-0.3,1.2-0.4c2.4,0,1.2,0.7-0.4,1.5
				c-0.8-0.1-1.6-0.1-2.4-0.2c-1.5,0.8-3,1.7-2.6,2.2c0.4-0.2,1.2-0.4,2.1-0.6c-0.4,0.2-0.7,0.4-0.5,0.5s0.9-0.3,1.9-0.7l1.6,0.8
				l0.3-0.5L111,28l-0.6-6.3h-0.1c-6,2.2-11.1,4.7-20.6,7c2.3-1.2,0.4-1.4,0.4-2.3c2.7,0.5,7.4-1.8,12.4-2.5
				c-2.6,0.4-2.1-0.2-1.4-0.4L92.3,26c0.1-0.8-1.9-0.2-4.3-0.1c1.9,1.1-6.5,2.2-10.1,3.4c-0.3-0.5,0.5-1.1,5-1.8
				c-5-0.2-6.1,2.9-11,2.9c1.1-0.2,1.7-0.2,2.1-0.6c-2.5,0.9-8.7,1.7-7.3,1l1.1-0.2c-7.2,1.2-21.8,4.1-22.7,5.5
				c-0.1-0.1,0.8-1.7,1.2-2L34,40.7c1-1.3-3.6-3,2.3-4.8c-1.7,0.2-3.9,0.4-7.4,1.4c1.2-0.1,3.1,1,1.5,1.4c-4.2-0.4-3.3-0.1-7.9,0
				l0.7,5.4c-0.1,0.1,0.3,0.1,0.7,0c-1.8,0.2-0.1-2,2.7-2.5c-0.4,0.3,0.4,1.6-0.5,2c2.2-1.1,4.4-2.1,6.6-3.1
				c-1.7,0.6-0.1,1.5,1.4,1.6c-0.7-0.2,5.9-1.1,7.7-1.6l-2.9,0.1c7.7-1.2,7.4-3.7,15.1-4.8c-0.9,0.5-2.1,2.5,1.8,2.1
				c1.7-1.1,7.6-5.2,14.5-6.6l1.3,0.3l5.2-1.1c-3.2,1.6-12.2,5.2-17.1,7c2.9,0,0.8,0.5,5.2-0.1c1.6,0.3-2.3,1-3.6,1.2
				c3.4-0.3,6.7-0.6,10.1-0.9c-0.5-1,7.7-1.7,7.3-2.5c-3.7,0.6-7.3,1.4-10.9,2.1c-0.5-0.9,6.2-3.6,13.4-3.9c1.8,0.3-1.3,1.9-1.1,2.2
				c0.9-0.4,6.8-1.2,7.5-0.9l-3,0.7c1.6,0,3-0.2,4.3-0.5L88,29.2c-1.8,1.2-3.7,2.5-6.5,3c-1.6,0.6-5,0.5-5.1,1.2
				c2.8,0.2,4.1,3.4,2.5,4.8c-0.3,0.1-2.5,0.6-4.8,1c-2.4,0.4-4.9,0.7-5.9,0.7c-2.8-0.2,3.7-3.2,1.3-3.3c-0.1,0.3-1.5,1.1-2.1,1.3
				c-1.7,0.2,0.6-1-3.1,0c-0.5,1.2-7.6,1.6-1.6,1.2c-3.6,1.1-3.9,0.6-8.2,1.5c1.4,0.4-3.7,2.9-7.4,3.7c0.2-0.3-0.7-0.5-1.1-0.6
				c-7.6,0.9-11.7,0.8-18.8,1.3c-0.7-0.2-4.1-0.2-2.7-0.8c-0.9,0.2-1.8,0.6-3.7,0.8l0.2,2.2c0.1,0,0.2,0,0.4-0.1
				c2.1,0.1,1,0.3-0.3,0.6l-0.2-3.2c1.4-0.2,2.9-0.4,1.2-0.8c-0.1,0.2-0.5,0.3-1.3,0.5l0.3,3.7c1.8-0.6,5.2-1.3,7.4-2
				c-0.8-0.6-4.4,0.3-7.5,1.1l-0.1-1.9c1-0.2,2-0.4,2.8-0.5c0,0.5-0.9,1.1-2.8,1.8v-0.6c2.1-1,5.6-2.2,9.8-3.2
				c5.8-1.3,2.6,0.4,3.6,0.1c11-1.6,9.2-3.7,18.4-4.3c3.7,0.2,0.3,1.6,1.2,2c-4.8,1.1-7.4,0.7-10.6,1.2l4-0.3
				c-1.5,0.5-4.7,1.2-6.4,1.3c3.1,0.2,18.6-2.9,27.2-3.6c1.5-0.5,4.1-1.2,2.8-1.3l-2.7,0.5c-2.5-0.2,5-1.7,1.6-1.5
				c3.6-1,7.5-2.4,12.7-2.8l1,0.8c-0.1-0.3-3.4-0.1-4.8,0.4c2.1-0.8,7.9,0,10.3-1.1c-1.2-0.2-2.5-0.3-3.7-0.4
				c2.7-0.6,6.1-1.4,9.7-0.9l12.3,1.9l-12.1,4.5c-1.1,0.4-2.2,0.8-3.4,1.1c2,0.2,1.2-0.3,3.5-0.4l14.5-0.6L95,32.1
				c-0.2-0.1-0.5-0.3-0.9-0.4c1.5,0.9-1.7,0.2-4.6,0.3c-2.9,0-5.4,0.4-3.1,0.8c-3.5-0.9-5.9,0.2-10.3-0.2c0.2,0.3,1.6,0.3-2.2,0.8
				c-0.2,0.1-0.6,0.3-0.8,0.4c-0.1,0-0.2,0-0.3,0c0.1,0,0.1,0,0.2,0c-0.2,0.1-0.2,0.1,0.1,0c0.9,0,1.7,0,2,0.1
				c-1.8,1-7.8,1.9-9.8,2.6C63,36.7,66.2,36,65,35.9l-3,1c-0.4-0.6-6.1-0.1-0.8-1.4l-4.8,0.7c-2.8,0.1-6.7,0.5-9.1,1.2
				c-2.3,0.2-5.6,1.6-3.7,0.8l-7.4,1.6l-0.1-0.2c-5,0.8-10.2,2.1-15.7,3l0.5,6.4c2.6-0.2,5.2-0.2,7.9-0.1c2.5-0.4,5.1-0.8,9.3-1
				l0.9,0.5c3.2-0.5,9.7-0.6,11.1-1.4c1.8,0.5,5.7,0,9.9-0.9s8.6-2.2,11.4-3l0.1-0.8c3.9-1.1,7.5-2.5,12.2-4.7l-0.4-0.5
				c1.7-0.9,3.9-1.9,6.4-2.9l13.6-5.6l-14.4,0.1c-3.2,0-6.9,0-10.6,0.3c0.4-0.3,2.1-0.4,3.3-0.3c-8-0.9-16.5,2.6-23.7,2.5
				c-1.8,0.5-3,0.6-4.3,0.6c0.2,0,0.3-0.1,0.4-0.1c-0.2,0-0.5,0.1-0.7,0.1c-0.8,0-1.6,0-2.5,0c0.8,0,1.5,0.1,2.1,0
				c-1.4,0.2-3.4,0.6-5.4,1.1l-0.9-0.6c-0.2,0-0.3,0.1-0.5,0.1c-2,0.1-1.6,0.6-0.5,1c-1,0.3-1.9,0.6-2.6,0.9
				c-1.7-0.9-5.3,1.4-7.6,0.6c-1.3,0.8-10.1,2.6-11,4.1c-0.1-0.1-0.7-0.1,0.4-0.3c-0.6,0.1-1.2,0.2-1.8,0.3l0.5,3.9
				c1.6-0.2,3.2-0.5,4.7-1.1l1.1,0.7l4.8-2.1c3,0,4.3,0.1,1.4,1.3c7-2.4,5.7-1.5,11.7-3.7L47,38.6c2.2-0.4,5.6-1.9,6.9-1.6
				c5,0.2,24-4.4,36.6-5.7c-2.6-1.3,5.9-0.3,6.2-1.7c0.8,0.3,2.5,0.2,0.5,0.9c6.3-1.6,9.6-1.1,13.9-3.1c0.8,0.3-1.3,0.9-0.6,1
				c0.3-0.1,0.8-0.3,1.3-0.4l-0.7-7.2c-0.5,0.1-1.1,0.2-1.4,0.2c-0.6-0.1,0.4-0.4,1.4-0.7l0.8,8.2c-0.2,0.1-0.4,0.1-0.5,0.2
				c0.2,0,0.4-0.1,0.5-0.1l-0.8-8.4c-6,1.1-6.5,2.4-6.9,3.6c-3.4,0-5,0.3-7.3,1.5c-1.2-0.2-3.1-0.3,0.9-1.1
				c-2.3,0.3-14,1.9-14.1,2.9c-0.7-0.1-3.2,0.5-3.8,0.7c-5.1,0.9-5.6,0.9-10.6,1.9l1.4-0.1c-1.9,1.5-4.1,1-8.2,2l0.1-0.1
				c-9.3,1-3.9,1.2-13.2,2.1l0.6,0.6c-0.7,1.7-8.2,0.8-13.4,2.5h2c-2.8,1.1-8.3-0.3-11.2,0.2c-0.6,0,1-0.4,1.8-0.7
				c-7.7,0.8-0.9,1.1-6.5,2.6c-1.1-0.3,1.2-1.6-2.6-0.8c-0.6,0-1.9,0.4-3.5,1l0.7,7.8c3.7-0.8,9.2-2.1,12.8-2
				c-1.2-0.2-2.4-0.5,0.3-1.1c4.1-0.7,11.1-0.2,14.7-2.1c0.5,0,0.7,0.1,0.8,0.2c3.1-0.9,10-2.5,11.8-3.6c1.6,0.9,6.3-0.5,10.7-2
				s8.3-3,8.5-1.9c3.1-1,6.3-2,9.4-3.3l-0.2,0.3c6-2.2,8-4,9.8-5.7c1.4-0.6,0.5,0.1,0.4,0.3c0.2-0.1,0.4-0.2,0.5-0.3l9.6-5L96,20.8
				c-8.5,0.2-9.5,0.4-16.8,2.4l-0.8-0.6c-2,0.6-13.1,0.7-21.7,3.6c0.1-0.1,0.2-0.3,0.9-0.5c-3.9,1.2-8.5,2.1-12.9,3.1
				c-4.3,0.9-8.3,2-11,3.3l0.9,6.7c1.3-0.4,2.4-0.8,3-1.4c2.2-0.5,4.3-1.1,6.4-1.7c-8.4,1.2,1.1-1.4-2.4-1.2
				c3.3-0.7,8.6-0.8,4.6,0.2h-0.6c-0.7,0.8,1.9,0.5,4.7,0s5.7-1.2,5.6-0.7c9.1-2.1,18-4.5,26.7-7.4l-0.9-5.5c-7.1,1.3-14.2,2.6-21,4
				l1.9,0.7l-5.4,1.1c-1.4,0-2-0.4,1.8-1.2c-2.1-0.2-6.3,1.8-6.4,2.1c-7.5,1.1,2.8-1.9,0.5-1.4L50,27.1h0.7c-2.5,1-2.6,1.5-7.2,2.4
				c-2.9,0.4-1.6-0.4-2.7-0.2c0-0.1-0.4,0-1.8,0.3l-6.8,1.3l2.8,0.3c-2.9,1-6.3,1.3-3.1,1.6c-3.5-0.4-15.4,2.3-22.6,3.8l0.6,4.6
				c2.6-0.7,4.7-1.3,5.4-1.4c4-1.7,8.2-2.8,13.3-3.9c-1.3,0.1-2.2-0.7,2.2-1.6c-1.3,2.3,8.2-1,11.9-0.4c-3.3-0.2,12.5-3.1,7.3-3.3
				c3.7-0.7,0.3,0.7,3.2,0.5c8.7-2.8,19.4-4.1,30.1-7.8c0.1-0.3-1.7-0.1,0.5-1.2l5.9-0.6c2.1-0.9,1.6-2.2,5.7-2.7
				c-0.6,0-1.5,0-0.1-0.6c2.1-0.7,4.2-1.5,6.4-2.2c2.1-0.8,4.2-1.8,6.3-2.7l-1-4.8c-17.3,3.9-34.4,10.6-51.5,15.8
				c3-0.7,1.1,0.1-1.1,1.1c1.4-0.5,0.1,0.6,0.5,0.8c-3,0.9-6,1.9-9,2.9c-0.7,0.8-3,1.9-5.2,3s-4.4,2.1-4.7,2.8l2.7-1.5
				c-3.3,2.8,5.7-0.1,5.5,1.5c3.8-3.1,11.1-3.1,17.5-7.5c1.6-0.3-1.2,0.9-0.3,0.9c1.6-1.3,3.6-2.2,7.5-3.4l-0.4,0.3
				c5.4-2.1,9.3-3.3,13.4-4.5c4.1-1.1,8.4-2.2,14.6-3.7l-1-0.4c2.7-0.6,3.3-0.6,4.5-0.7c1.4-0.9-0.4-0.5-2.3,0c-1.9,0.5-3.8,1-2.5,0
				c2.1,0.2,7.6-1.3,12.6-2.5l-1-5c-1.9,0.8-3.8,1.6-5.3,2.1s-2.7,0.7-3.3,0.6c-4,1.6,1.3,0.3-2.6,1.9h-1.1l-0.9,0.9
				c-2.6,0.9-4.1,0.8-4.2,0.5c0.6-0.2,1.8-0.8,2.5-1c-0.9,0.2-1.9,0.5-3,0.9s-2.2,0.8-3.3,1.2c-2.1,0.8-3.9,1.5-4.6,1.6
				c1.3-0.3,2.6-0.6,3.9-1C74,20.2,60.2,22.9,49.5,26.3l0.9,0.1c-8.2,2.5-6.7,1.2-15.8,3.5l0.3-0.2c-1.8,0.7-4.2,1.5-6.7,2
				c2.3-0.9-4.4,0.3-1.5-0.9c-8.9,2.9-4.4,1.6-10.2,4.3L15,34.9c-1.8,1-2,1.3-5.8,2.5l0.3,2.3c0.2,0,0.5-0.1,0.8-0.2
				c-0.4,0.1-0.7,0.2-0.8,0.3l-0.4-2.5C9.6,37,9.4,36.9,9,36.9l0.5,3.3c0.7,0.1,1.9,0.1,0.1,0.8l-10,3.9l9.3-8.8
				c0,0,0.2-0.1,0.4-0.2c-0.2,0-0.3,0-0.5,0.1l0.7,5.2c9.4-0.9,13.7-4.1,18.2-3.3c4.2-2.4-8.4,0.9-6,0.1c-2.1-0.1,3.5-1.9,6.5-2.4
				c3.1-0.6,5.4,0.8,13.1-0.8c-0.8,0.2-0.8,0.3-1.6,0.4c2.9-0.2,5.6-1.7,9.2-1.8c1.9-1.3,4.6-0.9,5-2.2l-7,1.7c4-1.1,7.6-3.3,14.2-4
				c-0.5,0.3-2.4,1.1-3.7,1.5c2-0.1,3.7-1,5.7-1.1c-0.4,1.3-8.6,2-12.7,3.8c2.1,0.1,8-2.5,6-0.8c2.9-2.2,7.6-1.4,12.7-3.7l-0.3,0.8
				c0.8-0.3,2.5-1,4-1.3l-2.6,1.5c4-1.6,7.9-1.1,11.8-2.2l-1.3-8l-0.4,0.2c0.2-0.1,0.3-0.1,0.4-0.1l1.3,8c-7.8,1.6-1.7-0.5-5.2-0.3
				c2.3-0.7,3.9-1,5.1-1.2l-0.8-5c-4.1,1.1-3.8-0.6-12.6,2.4c1.5-0.5,5.9-1.4,3.5-0.3c-2.2,0.5-5.1,1.1-6.5,1.1
				c-7.6,2.2,1.3,0.4-1.9,1.7c-2.7-0.2-3.7,1.3-7,2.4l-0.1-0.7c-8.8,1.5-2.1,2.1-10.1,3.1l3.2-1.7l-4.1,1.1l0.8-1
				c-4.4,1.4-5.8,1.5-10.3,1.9c0.8,0.3,0.1,1-2.2,1.5l0.6,4.6c0.6-0.3,1.3-0.5,2.1-0.8c2.7-0.4-1.3,1.1,4.1-0.7
				c-1.2,0.8-2.4,1.8-4.9,1.9c-0.2,0.2-0.8,0.6-1,0.9l-1-7.3C33.9,31,34,31,34,30.9c-0.1,0-0.2,0-0.3,0l1,7.7
				c2.9-0.5,6.8-2.1,8.7-2.7c-0.8,0.2-1.7,0.4-2.2,0.5c2.6-1.1,5.1-2.2,7.7-3.2c1.3-0.1,0.3,0.4-0.6,0.9c1.6-0.5,2.7-1.1,5-1.8
				c-0.5,0.7-0.3,1.3-3.6,2.4c2.5-0.9,5-1.7,7.5-2.5c0.5,0.1,4-0.2,3,0.3c4.2-0.6,10.2-3.2,15.9-3.6c0.3-0.2,0.9-0.3,2-0.6
				c5.3-0.6,10-0.4,16.3-1.6l1.4,0.3l-1.5-8.1c-0.7,0.2-1.4,0.4-2.1,0.5c-4.4,2.6,4.8-1-2.6,3.2c-5.3,2.8-2.2,0.1-4.2,0.6
				c-2.6,1.6-7.2,4.3-12.6,5C74.4,28.6,75.8,28.4,77.4,27.8z M17.2,40.1c1.2-0.3,3.5-1,4.4-0.7C20.3,40.4,19.2,40.1,17.2,40.1z
				 M108.2,27c-0.9,0.4-2.2,0.5-3.8,0.5C105.5,27.2,106.8,27,108.2,27z M52.6,37.7c0,0-0.1,0-0.1,0.1C49.8,37.9,50.8,37.8,52.6,37.7
				z M58.1,37.1c0.5-0.2,0.5-0.3,0.3-0.3c-0.4,0.2-1.6,0.5-3,0.6C55.8,37.5,56.5,37.5,58.1,37.1z M39.5,30.2h1.1
				C38.3,30.9,38.9,30.5,39.5,30.2z"/>
			<path class="st6" d="M97.8,29.7c-0.3-0.1-0.4-0.2-0.5-0.3C96.8,29.6,96.8,29.7,97.8,29.7z"/>
			<path class="st6" d="M76,30h-0.2c-0.1,0.1-0.1,0.1-0.2,0.2L76,30z"/>
			<path class="st6" d="M67.1,36.9c1.1-0.2,1.7-0.2,2.2-0.2C69.3,36.5,68.7,36.5,67.1,36.9z"/>
			<path class="st6" d="M87.2,31.5c-1.2,0.1-2.5,0.3-3.7,0.5c1.8-0.2,2.4-0.1,3.3-0.1C86.8,31.8,86.1,31.6,87.2,31.5z"/>
			<path class="st6" d="M71.1,42.5c-0.5,0.2-1.1,0.2-1.6,0.4l0.2,0.3C71.9,42.7,73.4,42.1,71.1,42.5z"/>
			<path class="st6" d="M90.7,33.9c0.2,0.5,1.8,0.5,3.8,0.8l6.3,1L94.6,38c-0.4,0.1-0.8,0.3-1.2,0.4c0.1,0,0.3-0.1,0.4-0.1
				c-0.3,0.5,0.1,0.5,0.9,0.3l8.5-2.4l-8.6-2C93.7,33.9,92.2,33.8,90.7,33.9z"/>
			<path class="st6" d="M92.8,38.6c-0.7,0.3-1.5,0.5-2.2,0.7C90.4,39.7,91.5,39.1,92.8,38.6z"/>
			<path class="st6" d="M65,35.6c1.2,0,0.7-0.9,1.3-0.7C67.6,33.9,58.7,37,65,35.6z"/>
			<path class="st6" d="M92.6,36l-0.8-0.8c-0.5,0.2-1,0.3-1.4,0.5C91.1,35.8,91.9,35.9,92.6,36z"/>
			<path class="st6" d="M73.2,37.3l3.9-0.4c-0.1-0.1,0.4-0.3,1-0.4C75.7,36.8,73,37.1,73.2,37.3z"/>
			<path class="st6" d="M78.1,36.5c1.3-0.2,2.5-0.4,3.1-0.6C80.6,36,79.1,36.2,78.1,36.5z"/>
			<path class="st6" d="M87.2,36.1L86,36c-0.9,0.1-1.9,0.2-2.8,0.3C84.6,36.2,85.9,36.1,87.2,36.1z"/>
			<path class="st6" d="M31,43.9l-4.3,0.9c-0.4,0.3,0.8,0.3,2.4-0.1C30.1,44.4,31.7,44.1,31,43.9z"/>
			<path class="st6" d="M44.1,43.9c-1.2,0-1.3-0.1-1.9-0.3v0.9L44.1,43.9z"/>
			<path class="st6" d="M31.7,46.1c-0.4,0.3-6.1,1.7-0.7,0.8C31.4,46.6,35.6,45.7,31.7,46.1z"/>
			<polygon class="st6" points="73.9,37.5 72.9,37.9 73.3,39.3 			"/>
			<path class="st6" d="M47.2,40.7c5.1-0.5,1.1-1.1,5.7-1.4c1.2-0.5-3.8,0.2-2.6-0.3C47.3,39.9,45.7,40,47.2,40.7z"/>
			<path class="st6" d="M50.4,39c0.5-0.1,1-0.3,1.5-0.5C51,38.8,50.6,38.9,50.4,39z"/>
			<polygon class="st6" points="39.4,31.6 36.2,32.8 38.4,32.3 			"/>
			<path class="st6" d="M33.8,35.6l-1-0.5l-1.6,1.8C31.8,36.4,33.2,35.7,33.8,35.6z"/>
			<path class="st6" d="M25.4,46.7l0.2-0.3c-0.5-0.1-1.3,0-2.8,0.3H25.4z"/>
			<polygon class="st6" points="52,33.5 51.3,33.6 52.8,34.2 			"/>
			<path class="st6" d="M87.6,22c-1.4,0.6-3,1.5-4.4,2C86.3,22.7,88.3,22.9,87.6,22z"/>
		</g>
		<g>
			<text transform="matrix(1.094 0 0 1 27.592 105.3403)" class="st7 st1 st8">A</text>
		</g>
	</g>
</g>
</svg>
