<?xml version="1.0" encoding="utf-8"?>
<!-- Generator: Adobe Illustrator 24.3.0, SVG Export Plug-In . SVG Version: 6.00 Build 0)  -->
<svg version="1.1" id="Layer_1" xmlns="http://www.w3.org/2000/svg" xmlns:xlink="http://www.w3.org/1999/xlink" x="0px" y="0px"
	 viewBox="0 0 300 300" style="enable-background:new 0 0 300 300;" xml:space="preserve">
<style type="text/css">
	.st0{fill:#333333;stroke:#626DD1;stroke-miterlimit:10;}
	.st1{fill:none;stroke:#626DD1;stroke-width:7;stroke-miterlimit:10;}
	.st2{fill:none;stroke:#68C15B;stroke-width:7;stroke-linecap:round;stroke-miterlimit:10;}
	.st3{fill:none;stroke:#E57777;stroke-width:7;stroke-linecap:round;stroke-miterlimit:10;}
</style>
<g>
	<g id="XMLID_881_">
		<path id="XMLID_884_" class="st0" d="M221.3,115.2c-3.1,17.1-21.9,26.5-33,14.5c-2.4-2.5-6,1.7-3.5,4.6
			c13.7,16,39.2,6.9,42.8-17.1C228.2,112.3,222.3,110.1,221.3,115.2z"/>
		<path id="XMLID_883_" class="st0" d="M211.8,81.4c-7.5,0-7.5,14.7,0,14.7S219.4,81.4,211.8,81.4z"/>
		<path id="XMLID_882_" class="st0" d="M173,91.4c-7.5,0-7.5,14.7,0,14.7C180.8,106.1,180.8,91.4,173,91.4z"/>
	</g>
	<ellipse class="st1" cx="197.5" cy="111.9" rx="62" ry="56.4"/>
</g>
<line class="st2" x1="75.4" y1="232.5" x2="138.8" y2="130.3"/>
<line class="st3" x1="129.6" y1="221.3" x2="42.2" y2="143.3"/>
<line class="st3" x1="150.7" y1="186.5" x2="63.4" y2="108.6"/>
<line class="st2" x1="50.7" y1="203.4" x2="114.1" y2="101.1"/>
</svg>
