<?xml version="1.0" encoding="utf-8"?>
<!-- Generator: Adobe Illustrator 24.3.0, SVG Export Plug-In . SVG Version: 6.00 Build 0)  -->
<svg version="1.1" id="Layer_1" xmlns="http://www.w3.org/2000/svg" xmlns:xlink="http://www.w3.org/1999/xlink" x="0px" y="0px"
	 viewBox="0 0 300 300" style="enable-background:new 0 0 300 300;" xml:space="preserve">
<style type="text/css">
	.st0{fill:#626DD1;stroke:#626DD1;stroke-width:4;stroke-miterlimit:10;}
	.st1{fill:#E57777;stroke:#E57777;stroke-width:4;stroke-miterlimit:10;}
	.st2{fill:#68C15B;stroke:#68C15B;stroke-width:4;stroke-miterlimit:10;}
	.st3{fill:none;stroke:#333333;stroke-width:7;stroke-linecap:round;stroke-linejoin:round;stroke-miterlimit:10;}
</style>
<path id="XMLID_1630_" class="st0" d="M106.9,131.1c0,0,4.4-2.1,9.2,1.9s1.9,12.7-7.5,12.2C99,144.7,97.5,133.8,106.9,131.1z"/>
<path id="XMLID_1629_" class="st1" d="M163.9,136.6c0,0,3,4.5-2.3,9.5s-16.8,2.3-16.3-7.5C145.7,128.8,160,126.9,163.9,136.6z"/>
<path id="XMLID_1628_" class="st2" d="M199.5,131.2c0,0,5.1,1.8,4.9,8.1c-0.3,6.3-9.9,10.3-16.3,2.8
	C181.7,134.7,190.2,126,199.5,131.2z"/>
<path class="st3" d="M263.1,137.1c0-40.4-49.5-73.2-110.6-73.2S41.9,96.6,41.9,137.1s49.5,73.2,110.6,73.2c7.2,0,14.3-0.5,21.2-1.3
	l49.1,35l2.2-51.6C248.3,178.9,263.1,159.1,263.1,137.1z"/>
</svg>
