<?xml version="1.0" encoding="utf-8"?>
<!-- Generator: Adobe Illustrator 24.3.0, SVG Export Plug-In . SVG Version: 6.00 Build 0)  -->
<svg version="1.1" id="Layer_1" xmlns="http://www.w3.org/2000/svg" xmlns:xlink="http://www.w3.org/1999/xlink" x="0px" y="0px"
	 viewBox="0 0 99 99" style="enable-background:new 0 0 99 99;" xml:space="preserve">
<style type="text/css">
	.st0{fill:#333333;}
</style>
<path id="XMLID_1_" class="st0" d="M58.3,49.9l-1.6,1.6l-3.4-3.4c8-10.5,7.2-25.6-2.4-35.3c-10.5-10.5-27.5-10.5-38,0
	c-10.5,10.5-10.5,27.5,0,38c9.6,9.6,24.7,10.4,35.3,2.4l3.4,3.4l-1.6,1.6L86.7,95l8.3-8.3L58.3,49.9z M18.2,45.5
	c-7.5-7.5-7.5-19.8,0-27.3c7.5-7.5,19.8-7.5,27.3,0c7.5,7.5,7.5,19.8,0,27.3C38,53.1,25.8,53.1,18.2,45.5z"/>
</svg>
